<svg version="1.2" xmlns="http://www.w3.org/2000/svg" viewBox="0 0 109 114" width="600" height="628">
	<title>LOGO ZA SLANJE SA ENG</title>
	<style>
		.s0 { fill: #b3272d } 
		.s1 { fill: #fefefe } 
		.s2 { fill: #10100f } 
	</style>
	<g id="Layer 1">
		<path id="&lt;Path&gt;" class="s0" d="m1066-380.3h-1190.6v-595.3h1190.6z"/>
		<g id="&lt;Group&gt;">
			<g id="&lt;Group&gt;">
				<path id="&lt;Path&gt;" class="s1" d="m213.2-861.3c0 0 4-4.2 8.4-6.3 4.4-2.1 8.5-0.2 11.1 2.2 2.7 2.5 2.9 8.9 1.1 11.7-1.9 2.8-5.6 5.4-8.7 4.4-3.1-1.1-3.1-1.1-3.1-1.1l-7.9-3.7c0 0 4.1 7.2 3.6 12.8-0.5 5.7-2.3 7.1-5.3 7.8-3 0.6-5 0.1-6.6-1.8-1.6-1.9-4.1-6.3-2.1-10.7 2-4.4 3.9-8.3 3.9-8.3 0 0-2.5 1.1-6.3 2.3-3.8 1.1-6.8 1.4-9.8-0.2-3.1-1.7-5.8-5.4-4.6-10.6 1.2-5.2 4.3-6.3 9.6-6 5.2 0.4 9 6.4 9.8 7.5 0.9 1.2 0.9-2.7-0.3-5.8-1.1-3.1-10.1-9.1-17.5-4.3-7.4 4.7-9.2 12.4-4.2 18.5 5.1 6 24.8 26.6 24.8 26.6 0 0 2 3.1 4.6 0.2 2.5-2.8 24.1-27.1 24.1-27.1 0 0 4.2-6.1 0.7-14-3.5-7.9-12.3-6.7-15.1-5.4-2.7 1.4-7.7 3.2-10.2 11.3z"/>
				<path id="&lt;Path&gt;" class="s1" d="m208.2-777.3c0 0-4 4.2-8.4 6.3-4.4 2.1-8.5 0.2-11.1-2.3-2.7-2.4-2.9-8.8-1.1-11.6 1.9-2.8 5.6-5.5 8.7-4.4 3.1 1 3.1 1 3.1 1l7.9 3.8c0 0-4.1-7.2-3.6-12.8 0.5-5.7 2.3-7.2 5.3-7.8 3-0.6 5-0.1 6.6 1.8 1.6 1.8 4.1 6.3 2.1 10.7-2 4.4-3.9 8.3-3.9 8.3 0 0 2.5-1.2 6.3-2.3 3.8-1.1 6.8-1.4 9.8 0.2 3.1 1.6 5.8 5.4 4.6 10.6-1.2 5.1-4.4 6.3-9.6 6-5.2-0.4-9-6.5-9.8-7.6-0.9-1.1-0.9 2.8 0.2 5.9 1.2 3.1 10.2 9.1 17.6 4.3 7.4-4.7 9.2-12.4 4.2-18.5-5.1-6.1-24.8-26.7-24.8-26.7 0 0-2-3-4.6-0.2-2.5 2.9-24.1 27.1-24.1 27.1 0 0-4.2 6.2-0.7 14.1 3.5 7.8 12.3 6.7 15.1 5.3 2.7-1.3 7.7-3.1 10.2-11.2z"/>
			</g>
			<g id="&lt;Group&gt;">
				<path id="&lt;Path&gt;" class="s1" d="m171.5-821.5c0 0-4.2-4-6.3-8.4-2.1-4.4-0.2-8.4 2.3-11.1 2.4-2.7 8.8-2.9 11.6-1 2.8 1.8 5.5 5.5 4.4 8.6-1 3.2-1 3.2-1 3.2l-3.8 7.8c0 0 7.2-4.1 12.9-3.6 5.6 0.5 7.1 2.3 7.7 5.3 0.6 3 0.1 5-1.7 6.6-1.9 1.6-6.4 4.2-10.8 2.1-4.4-2-8.3-3.9-8.3-3.9 0 0 1.2 2.5 2.3 6.3 1.1 3.9 1.4 6.8-0.2 9.9-1.6 3-5.4 5.7-10.5 4.5-5.2-1.2-6.4-4.3-6-9.6 0.3-5.2 6.4-9 7.5-9.8 1.1-0.8-2.8-0.9-5.9 0.3-3 1.2-9 10.1-4.3 17.5 4.7 7.4 12.4 9.2 18.5 4.2 6.1-5 26.7-24.8 26.7-24.8 0 0 3-2 0.2-4.5-2.9-2.6-27.1-24.2-27.1-24.2 0 0-6.2-4.2-14-0.7-7.9 3.5-6.7 12.4-5.4 15.1 1.3 2.7 3.1 7.7 11.2 10.2z"/>
				<path id="&lt;Path&gt;" class="s1" d="m249.9-816.4c0 0 4.2 3.9 6.3 8.3 2 4.4 0.2 8.5-2.3 11.1-2.4 2.7-8.8 3-11.6 1.1-2.8-1.9-5.5-5.5-4.4-8.7 1-3.1 1-3.1 1-3.1l3.8-7.9c0 0-7.2 4.1-12.9 3.6-5.6-0.5-7.1-2.3-7.7-5.3-0.6-3-0.2-4.9 1.7-6.5 1.9-1.7 6.4-4.2 10.8-2.2 4.4 2 8.3 3.9 8.3 3.9 0 0-1.2-2.4-2.3-6.3-1.1-3.8-1.4-6.8 0.2-9.8 1.6-3.1 5.4-5.8 10.5-4.6 5.2 1.2 6.4 4.4 6 9.6-0.3 5.2-6.4 9-7.5 9.8-1.1 0.9 2.8 0.9 5.9-0.2 3-1.2 9-10.2 4.3-17.6-4.8-7.4-12.4-9.2-18.5-4.1-6.1 5-26.7 24.7-26.7 24.7 0 0-3 2.1-0.2 4.6 2.9 2.5 27.1 24.1 27.1 24.1 0 0 6.1 4.2 14 0.7 7.9-3.5 6.7-12.3 5.4-15.1-1.3-2.7-3.1-7.7-11.2-10.1z"/>
			</g>
		</g>
		<g id="&lt;Group&gt;">
			<path id="&lt;Compound Path&gt;" class="s1" d="m72.5-737.8q0 0.3 0 0.6 0 0.2 0 0.5h-6l-0.1-0.9 1.8-0.6v-10.8l-1.7-0.6v-0.9h6q0 0.3 0 0.5 0 0.3 0 0.5l-1.9 0.5v7.9l6.1-7.1v-0.8l-1.8-0.5q0.1-0.3 0.1-0.5 0-0.2 0-0.5h5.9q0 0.3 0 0.5 0 0.3 0.1 0.5l-2 0.5v10.8l2 0.4-0.1 1.1h-5.9l-0.1-1 1.8-0.5v-7.9q-1.5 1.7-3 3.5-1.5 1.8-3.1 3.5v0.9z"/>
			<path id="&lt;Compound Path&gt;" class="s1" d="m83-743.4q0-1.3 0.3-2.7 0.3-1.3 1-2.4 0.8-1 1.9-1.7 1.2-0.6 2.9-0.6 0.8 0 1.6 0.1 0.8 0.1 1.7 0.7l0.4-0.8h0.9v4.1l-0.9 0.1-0.7-1.9q-0.6-0.4-1.3-0.6-0.6-0.1-1.5-0.1-1.1 0-1.8 0.4-0.8 0.5-1.2 1.2-0.5 0.8-0.7 1.8-0.2 1.1-0.2 2.2 0 1.1 0.2 2.1 0.1 0.9 0.6 1.7 0.4 0.8 1.3 1.2 0.8 0.5 2.2 0.5 0.8 0 1.8-0.1 0.9-0.2 2-0.5l0.4 1.3q-1.1 0.5-2.3 0.8-1.3 0.2-2.3 0.2-3.1 0-4.7-1.7-1.6-1.8-1.6-5.3z"/>
			<path id="&lt;Compound Path&gt;" class="s1" d="m100.6-750.5q1.5 0 2.9 0 1.4 0 2.9 0l0.3 0.1v3.9l-0.9 0.1-0.9-2.7h-3.1v10.9l1.9 0.5v1h-6l-0.1-0.9 1.9-0.6v-10.9h-3.2l-0.9 2.7-0.9-0.1v-3.9l0.3-0.1q1.4 0 2.8 0 1.4 0 3 0z"/>
			<path id="&lt;Compound Path&gt;" fill-rule="evenodd" class="s1" d="m120.7-743.8q0 1.5-0.4 2.8-0.4 1.4-1.1 2.4-0.8 1-2 1.6-1.2 0.6-2.9 0.6-3 0-4.6-1.9-1.6-1.8-1.6-5.2 0-1.4 0.4-2.8 0.4-1.3 1.1-2.3 0.8-1 2-1.6 1.2-0.6 2.9-0.6 1.4 0 2.6 0.5 1.1 0.5 1.9 1.4 0.8 0.9 1.2 2.2 0.5 1.3 0.5 2.9zm-6.3-5.6q-1.1 0-1.9 0.5-0.7 0.5-1.1 1.2-0.5 0.8-0.7 1.8-0.1 1-0.1 2 0 1.4 0.2 2.5 0.2 1 0.6 1.8 0.5 0.8 1.2 1.2 0.7 0.4 1.8 0.4 1.1 0 1.8-0.4 0.8-0.5 1.2-1.2 0.5-0.8 0.7-1.8 0.2-1 0.2-2.1 0-1.2-0.2-2.3-0.2-1-0.7-1.8-0.4-0.8-1.2-1.3-0.7-0.5-1.8-0.5z"/>
			<path id="&lt;Compound Path&gt;" fill-rule="evenodd" class="s1" d="m122.8-750.5q0.4 0 0.6 0 0.3 0 0.6 0 0.3 0 0.6 0 0.4 0 0.8 0 1 0 1.9 0 1 0 1.9 0 1.1 0 1.9 0.2 0.9 0.2 1.5 0.7 0.6 0.5 1 1.3 0.3 0.7 0.3 1.7 0 0.9-0.3 1.7-0.3 0.8-1 1.4-0.6 0.6-1.6 1-1 0.3-2.2 0.3-0.4 0-0.9 0-0.6-0.1-1.3-0.2v4.2l2 0.4v1.1h-6v-0.9l1.7-0.6v-10.9l-1.6-0.5zm8.7 4.2q0-1.5-0.9-2.2-1-0.6-2.5-0.6-0.7 0-1.5 0.1v5.3q0.4 0 0.8 0.1 0.4 0 0.6 0 1 0 1.7-0.3 0.7-0.2 1.1-0.6 0.4-0.4 0.5-0.9 0.2-0.5 0.2-0.9z"/>
			<path id="&lt;Compound Path&gt;" class="s1" d="m141.4-737.8q0 0.3-0.1 0.6 0 0.2 0 0.5h-5.9l-0.1-0.9 1.8-0.6v-10.8l-1.8-0.6 0.1-0.9h5.9q0 0.3 0 0.5 0.1 0.3 0.1 0.5l-1.9 0.5v7.9l6.1-7.1v-0.8l-1.8-0.5q0-0.3 0-0.5 0.1-0.2 0.1-0.5h5.9q0 0.3 0 0.5 0 0.3 0 0.5l-1.9 0.5v10.8l1.9 0.4v1.1h-6v-1l1.8-0.5v-7.9q-1.6 1.7-3.1 3.5-1.4 1.8-3 3.5v0.9z"/>
			<path id="&lt;Compound Path&gt;" class="s1" d="m155.8-736.2q-0.4 1.1-1.1 1.8-0.7 0.8-1.7 1.2-1 0.5-2.1 0.8l-0.3-1.1q1.7-0.8 2.5-2 0.8-1.2 0.8-2.9v-10.6l-1.9-0.6v-0.9h6.1v1l-1.9 0.5v10.1q0 1.6-0.4 2.7z"/>
			<path id="&lt;Compound Path&gt;" class="s1" d="m160-743.4q0-1.3 0.3-2.7 0.3-1.3 1.1-2.4 0.7-1 1.9-1.7 1.1-0.6 2.8-0.6 0.8 0 1.6 0.1 0.8 0.1 1.7 0.7l0.5-0.8h0.8v4.1l-0.8 0.1-0.8-1.9q-0.6-0.4-1.2-0.6-0.7-0.1-1.6-0.1-1 0-1.8 0.4-0.7 0.5-1.2 1.2-0.5 0.8-0.7 1.8-0.2 1.1-0.2 2.2 0 1.1 0.2 2.1 0.1 0.9 0.6 1.7 0.5 0.8 1.3 1.2 0.8 0.5 2.2 0.5 0.8 0 1.8-0.1 1-0.2 2-0.5l0.4 1.3q-1 0.5-2.3 0.8-1.3 0.2-2.3 0.2-3.1 0-4.7-1.7-1.6-1.8-1.6-5.3z"/>
			<path id="&lt;Compound Path&gt;" class="s1" d="m178-736.7h-6v-0.9l1.8-0.6v-10.8l-1.8-0.6v-0.9h6l0.1 1-2 0.5v10.8l2 0.5zm7.1-0.7l-0.2 0.7-2 0.4-6.2-7.4v-0.3l4.1-5.1-1.4-0.5 0.1-0.9h4.7v1q-0.9 0.4-1.7 1-0.8 0.6-1.5 1.4l-2.5 2.7z"/>
			<path id="&lt;Compound Path&gt;" class="s1" d="m192.5-737.8q0 0.3 0 0.6 0 0.2 0 0.5h-6v-0.9l1.8-0.6v-10.8l-1.8-0.6v-0.9h6q0 0.3 0 0.5 0 0.3 0 0.5l-1.9 0.5v7.9l6.1-7.1v-0.8l-1.7-0.5q0-0.3 0-0.5 0-0.2 0-0.5h5.9q0 0.3 0 0.5 0.1 0.3 0.1 0.5l-1.9 0.5v10.8l1.9 0.4-0.1 1.1h-5.9l-0.1-1 1.8-0.5v-7.9q-1.5 1.7-3 3.5-1.5 1.8-3.1 3.5v0.9z"/>
			<path id="&lt;Compound Path&gt;" class="s1" d="m212.6-747.6l-0.5 9.4 2.1 0.4v1.1h-5.7l-0.1-1 2.1-0.5 0.8-10.8-2-0.6 0.2-0.9q0.7 0 1.2 0 0.6 0 1.1 0 0.5 0 1.1 0 0.5 0 1.3 0 0 0.3 0.1 0.6 0.1 0.2 0.2 0.5l2.1 5 1.6 3.7h0.1l1.7-4.1 2.4-5.7q0.9 0 2.1 0 1.3 0 2.5 0v1l-2 0.5 0.8 10.8 1.9 0.4v1.1h-6.1l-0.1-1 1.8-0.5-0.4-9.6h-0.1l-4.4 10.5h-1.3z"/>
			<path id="&lt;Compound Path&gt;" class="s1" d="m235.6-739.4q-0.6 1.5-1.5 2.3-0.9 0.8-2.1 0.8-1 0-1.6-0.4-0.6-0.5-0.6-1.1 0-0.5 0.3-0.8 0.3-0.4 0.7-0.6l2.1 1.2q0.4-0.2 0.8-0.6 0.4-0.5 0.7-1.2l0.6-1.3h-1.3l-3.6-8-1.5-0.4 0.1-1h3.8q0 0.5 0.2 1 0.1 0.5 0.3 1l2.5 5.8h0.1q0.2-0.5 0.5-1.3 0.3-0.7 0.6-1.6 0.4-0.9 0.7-1.8 0.4-0.9 0.7-1.6l-1.8-0.5 0.1-1h4.8v1q-1.6 0.7-2.5 2.8z"/>
			<path id="&lt;Compound Path&gt;" class="s1" d="m249.1-744.4q0.8 0.1 1.4 0.5 0.6 0.3 1 0.8 0.4 0.4 0.5 1 0.2 0.6 0.2 1.2 0 1.1-0.4 2-0.4 0.8-1.2 1.4-0.8 0.5-1.8 0.8-1.1 0.3-2.3 0.3-1.3 0-2.4-0.2-1.2-0.3-2.2-0.7l0.5-1.3q1.2 0.3 2.1 0.4 0.9 0.1 1.5 0.1 1.1 0 1.8-0.2 0.7-0.2 1.2-0.6 0.5-0.4 0.7-0.9 0.2-0.5 0.2-1 0-1.3-1-1.9-1-0.7-3.1-0.7-0.1 0-0.3 0-0.2 0-0.3 0l-0.3-1.1 0.1-0.3q1.3 0 2.1-0.3 0.8-0.2 1.3-0.6 0.5-0.3 0.7-0.7 0.2-0.5 0.2-0.9 0-0.9-0.7-1.4-0.6-0.6-1.9-0.6-0.6 0-1.4 0.2-0.8 0.1-1.4 0.5l-0.6 2.1-0.9-0.1-0.1-2.9q0.5-0.4 1.2-0.7 0.6-0.2 1.2-0.4 0.7-0.1 1.3-0.2 0.6 0 1 0 1.5 0 2.4 0.3 0.9 0.3 1.4 0.8 0.5 0.5 0.7 1.1 0.2 0.6 0.2 1 0 0.6-0.2 1.1-0.2 0.5-0.5 0.9-0.4 0.4-0.9 0.7-0.4 0.3-1 0.4z"/>
			<path id="&lt;Compound Path&gt;" class="s1" d="m265.2-740.7l-0.5 3.8-0.2 0.2q-0.7 0-1.3 0-0.6-0.1-1.2-0.1-0.6 0-1.2 0-0.7 0-1.5 0-0.5 0-1.2 0-0.7 0-1.4 0-0.7 0-1.4 0-0.7 0-1.3 0.1l-0.1-0.9 1.8-0.6v-10.9l-1.6-0.5 0.1-0.9q0.5 0 1.3 0 0.7 0 1.4 0 0.8 0 1.4 0 0.7 0 1.1 0 0.6 0 1.2 0 0.6 0 1.1 0 0.5 0 1.1 0 0.6 0 1.3 0l0.2 0.1 0.1 3.8-0.9 0.1-0.9-2.5h-4.6v4.5l5-0.2v1.6l-5-0.2v5q0.4 0 1.1 0 0.7 0 1.5 0 0.8 0 1.5 0 0.7 0 1 0l1.3-2.6z"/>
			<path id="&lt;Compound Path&gt;" class="s1" d="m271-736.2q-0.4 1.1-1.1 1.8-0.7 0.8-1.7 1.2-0.9 0.5-2.1 0.8l-0.3-1.1q1.8-0.8 2.5-2 0.8-1.2 0.8-2.9v-10.6l-1.9-0.6 0.1-0.9h6v1l-1.9 0.5v10.1q0 1.6-0.4 2.7z"/>
			<path id="&lt;Compound Path&gt;" class="s1" d="m281.3-743.4q0-1.3 0.3-2.7 0.3-1.3 1-2.4 0.8-1 1.9-1.7 1.2-0.6 2.9-0.6 0.8 0 1.5 0.1 0.8 0.1 1.8 0.7l0.4-0.8h0.8l0.1 4.1-0.9 0.1-0.7-1.9q-0.6-0.4-1.3-0.6-0.7-0.1-1.5-0.1-1.1 0-1.8 0.4-0.8 0.5-1.3 1.2-0.4 0.8-0.6 1.8-0.2 1.1-0.2 2.2 0 1.1 0.1 2.1 0.2 0.9 0.7 1.7 0.4 0.8 1.3 1.2 0.8 0.5 2.2 0.5 0.8 0 1.7-0.1 1-0.2 2.1-0.5l0.3 1.3q-1 0.5-2.2 0.8-1.3 0.2-2.4 0.2-3.1 0-4.7-1.7-1.5-1.8-1.5-5.3z"/>
			<path id="&lt;Compound Path&gt;" fill-rule="evenodd" class="s1" d="m293.5-750.5q0.4 0 0.6 0 0.3 0 0.6 0 0.3 0 0.6 0 0.4 0 0.8 0 1 0 1.9 0 1 0 1.9 0 1.1 0 1.9 0.2 0.9 0.2 1.5 0.7 0.6 0.5 1 1.3 0.3 0.7 0.3 1.7 0 0.9-0.3 1.7-0.3 0.8-1 1.4-0.6 0.6-1.6 1-1 0.3-2.2 0.3-0.4 0-0.9 0-0.6-0.1-1.3-0.2v4.2l2 0.4v1.1h-6v-0.9l1.7-0.6v-10.9l-1.6-0.5zm8.7 4.2q0-1.5-0.9-2.2-1-0.6-2.5-0.6-0.7 0-1.5 0.1v5.3q0.4 0 0.8 0.1 0.4 0 0.6 0 1 0 1.7-0.3 0.7-0.2 1.1-0.6 0.4-0.4 0.5-0.9 0.2-0.5 0.2-0.9z"/>
			<path id="&lt;Compound Path&gt;" fill-rule="evenodd" class="s1" d="m306.1-749.6l0.1-0.9q0.6 0 1.8 0 1.3 0 3.3 0 0.4 0 1 0 0.6 0 1.3 0 0.7 0 1.3 0 0.7 0 1.3 0l0.2 0.1q0 0.9 0 1.8 0 0.9 0 1.8-0.2 0-0.4 0.1-0.2 0-0.4 0-0.2-0.5-0.4-1.1-0.2-0.6-0.4-1.2-0.2 0-0.7 0-0.4 0-1 0-0.7 0-1.4 0-0.8 0-1.6 0v3.8q0.5-0.1 1.2-0.2 0.7 0 1.3 0 2.5 0 3.9 1.2 1.4 1.1 1.4 3.2 0 0.9-0.3 1.7-0.3 0.7-0.9 1.3-0.6 0.6-1.4 0.9-0.9 0.4-1.9 0.4-1 0-2.1-0.1-1.1 0-2.2 0-0.8 0-1.6 0-0.7 0-1.4 0.1l-0.1-0.9 1.8-0.6v-10.8zm5.9 5.6q-0.9 0-1.9 0.1v5.4q0.4 0.1 0.9 0.2 0.6 0 1 0 1 0 1.7-0.2 0.7-0.2 1.1-0.6 0.4-0.4 0.6-0.9 0.2-0.5 0.2-1.1 0-0.6-0.2-1.2-0.2-0.5-0.6-0.9-0.5-0.4-1.1-0.6-0.7-0.2-1.7-0.2z"/>
			<path id="&lt;Compound Path&gt;" class="s1" d="m325.6-737.8q0 0.3-0.1 0.6 0 0.2 0 0.5h-5.9l-0.1-0.9 1.8-0.6v-10.8l-1.8-0.6 0.1-0.9h5.9q0 0.3 0 0.5 0.1 0.3 0.1 0.5l-1.9 0.5v7.9l6.1-7.1v-0.8l-1.8-0.5q0-0.3 0-0.5 0.1-0.2 0.1-0.5h5.9q0 0.3 0 0.5 0 0.3 0 0.5l-1.9 0.5v10.8l1.9 0.4v1.1h-6v-1l1.8-0.5v-7.9q-1.6 1.7-3.1 3.5-1.4 1.8-3 3.5v0.9z"/>
			<path id="&lt;Compound Path&gt;" class="s1" d="m340-736.2q-0.4 1.1-1.1 1.8-0.7 0.8-1.7 1.2-1 0.5-2.1 0.8l-0.3-1.1q1.7-0.8 2.5-2 0.8-1.2 0.8-2.9v-10.6l-1.9-0.6v-0.9h6.1v1l-1.9 0.5v10.1q0 1.6-0.4 2.7z"/>
			<path id="&lt;Compound Path&gt;" class="s1" d="m355-740.7l-0.5 3.8-0.3 0.2q-0.7 0-1.3 0-0.6-0.1-1.2-0.1-0.5 0-1.2 0-0.6 0-1.4 0-0.6 0-1.2 0-0.7 0-1.4 0-0.7 0-1.4 0-0.7 0-1.3 0.1l-0.1-0.9 1.8-0.6v-10.9l-1.6-0.5 0.1-0.9q0.5 0 1.2 0 0.7 0 1.5 0 0.7 0 1.4 0 0.6 0 1 0 0.7 0 1.3 0 0.5 0 1.1 0 0.5 0 1.1 0 0.5 0 1.2 0l0.2 0.1 0.1 3.8-0.9 0.1-0.8-2.5h-4.6v4.5l5-0.2v1.6l-5-0.2v5q0.4 0 1.1 0 0.7 0 1.4 0 0.8 0 1.5 0 0.7 0 1.1 0l1.3-2.6z"/>
		</g>
		<g id="&lt;Group&gt;">
			<g id="&lt;Group&gt;">
				<path id="&lt;Path&gt;" class="s1" d="m56.7-585.6c0 0 3.9-4.2 8.3-6.3 4.4-2.1 8.5-0.2 11.2 2.2 2.6 2.5 2.9 8.9 1 11.7-1.9 2.8-5.5 5.5-8.7 4.4-3.1-1-3.1-1-3.1-1l-7.9-3.8c0 0 4.1 7.2 3.6 12.8-0.5 5.7-2.3 7.2-5.3 7.8-3 0.6-4.9 0.1-6.5-1.7-1.6-1.9-4.2-6.4-2.2-10.8 2-4.4 3.9-8.3 3.9-8.3 0 0-2.4 1.2-6.3 2.3-3.8 1.1-6.8 1.4-9.8-0.2-3.1-1.6-5.8-5.4-4.6-10.6 1.2-5.1 4.4-6.3 9.6-6 5.2 0.4 9 6.4 9.8 7.6 0.9 1.1 1-2.8-0.2-5.9-1.2-3.1-10.2-9.1-17.6-4.3-7.4 4.7-9.2 12.4-4.2 18.5 5.1 6.1 24.8 26.7 24.8 26.7 0 0 2.1 3 4.6 0.2 2.5-2.9 24.1-27.1 24.1-27.1 0 0 4.2-6.2 0.7-14.1-3.4-7.9-12.3-6.7-15-5.4-2.8 1.4-7.8 3.2-10.2 11.3z"/>
				<path id="&lt;Path&gt;" class="s1" d="m51.6-501.5c0 0-4 4.2-8.4 6.3-4.4 2-8.5 0.2-11.1-2.3-2.7-2.4-2.9-8.9-1.1-11.6 1.9-2.8 5.6-5.5 8.7-4.4 3.2 1 3.2 1 3.2 1l7.8 3.8c0 0-4.1-7.2-3.6-12.9 0.5-5.6 2.3-7.1 5.3-7.7 3-0.7 5-0.2 6.6 1.7 1.6 1.9 4.2 6.4 2.2 10.8-2.1 4.4-4 8.3-4 8.3 0 0 2.5-1.2 6.3-2.3 3.9-1.1 6.8-1.4 9.9 0.2 3 1.6 5.7 5.4 4.5 10.5-1.2 5.2-4.3 6.4-9.6 6-5.2-0.3-9-6.4-9.8-7.5-0.8-1.1-0.9 2.8 0.3 5.9 1.2 3 10.1 9.1 17.5 4.3 7.4-4.8 9.2-12.4 4.2-18.5-5-6.1-24.8-26.7-24.8-26.7 0 0-2-3.1-4.5-0.2-2.5 2.9-24.2 27.1-24.2 27.1 0 0-4.2 6.1-0.7 14 3.5 7.9 12.4 6.7 15.1 5.4 2.7-1.3 7.7-3.1 10.2-11.2z"/>
			</g>
			<g id="&lt;Group&gt;">
				<path id="&lt;Path&gt;" class="s1" d="m14.9-545.8c0 0-4.2-4-6.3-8.4-2.1-4.4-0.2-8.4 2.3-11.1 2.4-2.6 8.8-2.9 11.6-1 2.8 1.9 5.5 5.5 4.4 8.6-1 3.2-1 3.2-1 3.2l-3.8 7.9c0 0 7.2-4.1 12.9-3.6 5.6 0.4 7.1 2.3 7.7 5.3 0.7 3 0.2 4.9-1.7 6.5-1.9 1.6-6.4 4.2-10.8 2.2-4.4-2-8.3-3.9-8.3-3.9 0 0 1.2 2.4 2.3 6.3 1.1 3.8 1.4 6.7-0.2 9.8-1.6 3.1-5.4 5.7-10.5 4.6-5.2-1.2-6.4-4.4-6.1-9.6 0.4-5.3 6.5-9 7.6-9.9 1.1-0.8-2.8-0.9-5.9 0.3-3 1.2-9.1 10.1-4.3 17.6 4.7 7.4 12.4 9.2 18.5 4.1 6.1-5 26.7-24.8 26.7-24.8 0 0 3.1-2 0.2-4.5-2.9-2.5-27.1-24.2-27.1-24.2 0 0-6.2-4.2-14-0.7-7.9 3.5-6.8 12.4-5.4 15.1 1.3 2.7 3.1 7.8 11.2 10.2z"/>
				<path id="&lt;Path&gt;" class="s1" d="m93.3-540.7c0 0 4.2 4 6.3 8.4 2.1 4.4 0.2 8.4-2.2 11.1-2.5 2.6-8.9 2.9-11.7 1-2.8-1.8-5.4-5.5-4.4-8.6 1.1-3.2 1.1-3.2 1.1-3.2l3.7-7.9c0 0-7.2 4.2-12.8 3.7-5.7-0.5-7.2-2.3-7.8-5.3-0.6-3-0.1-5 1.8-6.6 1.9-1.6 6.3-4.2 10.7-2.2 4.4 2.1 8.3 3.9 8.3 3.9 0 0-1.2-2.4-2.3-6.2-1.1-3.9-1.4-6.8 0.2-9.9 1.6-3.1 5.4-5.7 10.6-4.5 5.2 1.2 6.3 4.3 6 9.5-0.4 5.3-6.4 9-7.5 9.9-1.2 0.8 2.7 0.9 5.8-0.3 3.1-1.2 9.1-10.1 4.3-17.5-4.7-7.4-12.4-9.2-18.5-4.2-6 5-26.6 24.8-26.6 24.8 0 0-3.1 2-0.3 4.5 2.9 2.5 27.1 24.2 27.1 24.2 0 0 6.2 4.2 14.1 0.7 7.9-3.5 6.7-12.4 5.4-15.1-1.4-2.7-3.2-7.8-11.3-10.2z"/>
			</g>
		</g>
		<path id="&lt;Compound Path&gt;" class="s1" d="m136.3-537.7q0 0.2-0.1 0.5 0 0.3 0 0.5h-5.9l-0.1-0.9 1.8-0.6v-10.8l-1.8-0.5 0.1-0.9h5.9q0 0.2 0 0.5 0.1 0.2 0.1 0.5l-1.9 0.4v7.9l6.1-7v-0.9l-1.8-0.5q0-0.2 0-0.5 0.1-0.2 0.1-0.4h5.9q0 0.2 0 0.5 0 0.2 0 0.5l-1.9 0.4v10.8l1.9 0.5v1h-6v-0.9l1.8-0.6v-7.9q-1.6 1.8-3.1 3.5-1.4 1.8-3 3.5v0.9z"/>
		<path id="&lt;Compound Path&gt;" class="s1" d="m146.8-543.3q0-1.4 0.3-2.7 0.3-1.3 1-2.4 0.8-1.1 1.9-1.7 1.2-0.7 2.9-0.7 0.8 0 1.5 0.2 0.8 0.1 1.8 0.6l0.4-0.8h0.8l0.1 4.2-0.9 0.1-0.7-2q-0.6-0.4-1.3-0.5-0.7-0.2-1.5-0.2-1.1 0-1.8 0.5-0.8 0.4-1.3 1.2-0.4 0.8-0.6 1.8-0.2 1-0.2 2.2 0 1 0.1 2 0.2 1 0.7 1.8 0.4 0.7 1.3 1.2 0.8 0.4 2.2 0.4 0.8 0 1.7-0.1 1-0.1 2.1-0.4l0.3 1.3q-1 0.5-2.2 0.7-1.3 0.2-2.4 0.2-3.1 0-4.7-1.7-1.5-1.7-1.5-5.2z"/>
		<path id="&lt;Compound Path&gt;" class="s1" d="m164.4-550.4q1.5 0 2.9 0 1.4 0 2.9-0.1l0.3 0.2v3.9l-0.9 0.1-0.9-2.8h-3.2v11l2 0.5-0.1 0.9h-5.9l-0.1-0.8 1.8-0.6v-11h-3.1l-0.9 2.8-0.9-0.1v-3.9l0.3-0.2q1.4 0.1 2.8 0.1 1.4 0 3 0z"/>
		<path id="&lt;Compound Path&gt;" fill-rule="evenodd" class="s1" d="m184.4-543.7q0 1.5-0.3 2.8-0.4 1.3-1.1 2.3-0.8 1.1-2 1.6-1.2 0.6-2.9 0.6-3 0-4.6-1.8-1.6-1.8-1.6-5.2 0-1.5 0.4-2.8 0.3-1.3 1.1-2.4 0.8-1 2-1.6 1.2-0.6 2.9-0.6 1.4 0 2.6 0.5 1.1 0.5 1.9 1.4 0.8 1 1.2 2.3 0.4 1.3 0.4 2.9zm-6.3-5.6q-1 0-1.8 0.5-0.7 0.4-1.1 1.2-0.5 0.8-0.7 1.7-0.2 1-0.2 2.1 0 1.3 0.2 2.4 0.2 1.1 0.7 1.9 0.4 0.7 1.2 1.2 0.7 0.4 1.8 0.4 1.1 0 1.8-0.5 0.7-0.4 1.2-1.2 0.5-0.7 0.7-1.8 0.2-1 0.2-2 0-1.2-0.2-2.3-0.2-1.1-0.7-1.9-0.5-0.8-1.2-1.2-0.8-0.5-1.9-0.5z"/>
		<path id="&lt;Compound Path&gt;" fill-rule="evenodd" class="s1" d="m186.6-550.4q0.3 0 0.6 0 0.3 0 0.6 0 0.2 0 0.6 0 0.3 0 0.8 0 1 0 1.9 0 1-0.1 1.9-0.1 1 0 1.9 0.3 0.9 0.2 1.5 0.7 0.6 0.5 1 1.2 0.3 0.8 0.3 1.8 0 0.9-0.3 1.7-0.3 0.8-1 1.4-0.6 0.6-1.6 0.9-1 0.4-2.3 0.4-0.3 0-0.8-0.1-0.6 0-1.3-0.1v4.2l2 0.4-0.1 1h-5.9l-0.1-0.9 1.8-0.5v-10.9l-1.6-0.5zm8.7 4.1q0-1.5-1-2.1-0.9-0.7-2.4-0.7-0.8 0-1.5 0.2v5.2q0.4 0.1 0.7 0.1 0.4 0 0.6 0 1.1 0 1.8-0.2 0.7-0.2 1.1-0.6 0.4-0.4 0.5-0.9 0.2-0.5 0.2-1z"/>
		<path id="&lt;Compound Path&gt;" class="s1" d="m205.1-537.7q0 0.2 0 0.5 0 0.3 0 0.5h-6v-0.9l1.8-0.6v-10.8l-1.8-0.5 0.1-0.9h5.9q0 0.2 0 0.5 0 0.2 0 0.5l-1.8 0.4v7.9l6-7v-0.9l-1.7-0.5q0-0.2 0-0.5 0-0.2 0-0.4h6q0 0.2 0 0.5 0 0.2 0 0.5l-1.9 0.4v10.8l1.9 0.5v1h-6v-0.9l1.7-0.6v-7.9q-1.5 1.8-3 3.5-1.5 1.8-3 3.5v0.9z"/>
		<path id="&lt;Compound Path&gt;" class="s1" d="m219.6-538.3q-0.4 1.1-1.1 1.8-0.7 0.8-1.7 1.2-1 0.5-2.1 0.8l-0.4-1.1q1.8-0.8 2.6-2 0.8-1.2 0.8-2.9v-10.6l-1.9-0.6v-0.9h6.1v1l-1.9 0.5v10.1q0 1.6-0.4 2.7z"/>
		<path id="&lt;Compound Path&gt;" class="s1" d="m223.8-543.3q0-1.4 0.3-2.7 0.3-1.3 1-2.4 0.8-1.1 1.9-1.7 1.2-0.7 2.9-0.7 0.8 0 1.6 0.2 0.8 0.1 1.7 0.6l0.4-0.8h0.9v4.2l-0.9 0.1-0.7-2q-0.6-0.4-1.3-0.5-0.6-0.2-1.5-0.2-1.1 0-1.8 0.5-0.8 0.4-1.2 1.2-0.5 0.8-0.7 1.8-0.2 1-0.2 2.2 0 1 0.2 2 0.1 1 0.6 1.8 0.4 0.7 1.3 1.2 0.8 0.4 2.2 0.4 0.8 0 1.8-0.1 0.9-0.1 2-0.4l0.4 1.3q-1.1 0.5-2.3 0.7-1.3 0.2-2.3 0.2-3.1 0-4.7-1.7-1.6-1.7-1.6-5.2z"/>
		<path id="&lt;Compound Path&gt;" class="s1" d="m241.8-536.9h-6v-0.9l1.8-0.6v-10.8l-1.8-0.5v-0.9h6v0.9l-1.9 0.5v10.8l1.9 0.5zm7.2-0.7l-0.2 0.7-2 0.5-6.3-7.4v-0.4l4.2-5.1-1.4-0.4 0.1-1h4.7v1.1q-0.9 0.4-1.7 0.9-0.8 0.6-1.5 1.4l-2.5 2.8z"/>
		<path id="&lt;Compound Path&gt;" class="s1" d="m256.3-537.7q0 0.2 0 0.5 0 0.3 0 0.5h-6l-0.1-0.9 1.8-0.6v-10.8l-1.7-0.5v-0.9h6q0 0.2 0 0.5 0 0.2 0 0.5l-1.9 0.4v7.9l6.1-7v-0.9l-1.8-0.5q0.1-0.2 0.1-0.5 0-0.2 0-0.4h5.9q0 0.2 0 0.5 0 0.2 0.1 0.5l-2 0.4v10.8l2 0.5-0.1 1h-5.9l-0.1-0.9 1.8-0.6v-7.9q-1.5 1.8-3 3.5-1.5 1.8-3.1 3.5v0.9z"/>
		<path id="&lt;Compound Path&gt;" class="s1" d="m276.4-547.6l-0.1 0.1-0.4 9.4 2.1 0.4v1h-5.7l-0.1-0.9 2.1-0.6 0.8-10.7-2-0.6 0.1-1q0.8 0 1.3 0 0.6 0.1 1.1 0.1 0.5 0 1 0 0.6 0 1.3-0.1 0.1 0.4 0.2 0.6 0.1 0.3 0.2 0.6l2.1 4.9 1.6 3.8h0.1l1.7-4.1 2.4-5.8q0.9 0.1 2.1 0.1 1.2 0 2.4-0.1l0.1 1-2 0.6 0.8 10.8 1.9 0.4v1h-6.2v-0.9l1.8-0.5-0.5-9.6h-0.1l-4.3 10.4h-1.3z"/>
		<path id="&lt;Compound Path&gt;" class="s1" d="m299.4-539.5q-0.6 1.4-1.5 2.2-0.9 0.8-2.2 0.8-0.9 0-1.5-0.4-0.6-0.4-0.6-1.1 0-0.4 0.3-0.8 0.3-0.3 0.7-0.6l2.1 1.2q0.4-0.1 0.8-0.6 0.4-0.5 0.7-1.1l0.5-1.4h-1.2l-3.7-7.9-1.4-0.5 0.1-1h3.8q0 0.5 0.1 1 0.2 0.6 0.4 1.1l2.5 5.7h0.1q0.2-0.5 0.5-1.2 0.3-0.8 0.6-1.7 0.3-0.9 0.7-1.7 0.3-0.9 0.7-1.7l-1.8-0.4v-1.1h4.9v1.1q-1.6 0.6-2.5 2.7z"/>
		<path id="&lt;Compound Path&gt;" class="s1" d="m312.9-544.4q0.8 0.2 1.4 0.5 0.6 0.4 0.9 0.8 0.4 0.5 0.6 1.1 0.2 0.6 0.2 1.2 0 1.1-0.4 1.9-0.5 0.9-1.2 1.4-0.8 0.6-1.9 0.9-1 0.2-2.2 0.2-1.3 0-2.4-0.2-1.2-0.2-2.2-0.7l0.4-1.3q1.3 0.4 2.2 0.5 0.9 0.1 1.5 0.1 1 0 1.8-0.2 0.7-0.3 1.2-0.6 0.4-0.4 0.6-0.9 0.3-0.5 0.3-1.1 0-1.2-1.1-1.9-1-0.7-3-0.7-0.1 0-0.3 0-0.3 0-0.4 0.1l-0.2-1.1 0.1-0.3q1.3-0.1 2.1-0.3 0.8-0.3 1.3-0.6 0.5-0.3 0.7-0.8 0.2-0.4 0.2-0.9 0-0.8-0.7-1.4-0.7-0.5-1.9-0.5-0.7 0-1.4 0.1-0.8 0.2-1.4 0.5l-0.7 2.2-0.9-0.1-0.1-2.9q0.6-0.5 1.2-0.7 0.7-0.3 1.3-0.4 0.6-0.2 1.2-0.2 0.6-0.1 1.1-0.1 1.4 0 2.3 0.4 1 0.3 1.5 0.8 0.5 0.5 0.7 1.1 0.2 0.5 0.2 1 0 0.5-0.2 1-0.2 0.5-0.6 0.9-0.3 0.4-0.8 0.7-0.4 0.3-1 0.5z"/>
		<path id="&lt;Compound Path&gt;" class="s1" d="m329-540.6l-0.5 3.7-0.2 0.2q-0.8 0-1.4 0-0.5 0-1.1 0-0.6 0-1.3 0-0.6 0-1.4 0-0.5 0-1.2 0-0.7 0-1.4 0-0.7 0-1.4 0-0.7 0-1.3 0l-0.1-0.9 1.8-0.5v-10.9l-1.6-0.5 0.1-0.9q0.5 0 1.2 0 0.8 0 1.5 0 0.7 0 1.4 0 0.6 0 1 0 0.7 0 1.3 0 0.5 0 1.1 0 0.5 0 1.1 0 0.5 0 1.2-0.1l0.3 0.2v3.7l-0.9 0.2-0.8-2.5h-4.6v4.5l5-0.2v1.6l-5-0.2v5q0.4 0 1.1 0 0.7 0 1.5 0 0.7 0 1.4 0 0.8 0 1.1 0l1.3-2.6z"/>
		<path id="&lt;Compound Path&gt;" class="s1" d="m334.8-538.3q-0.4 1.1-1.1 1.8-0.7 0.8-1.7 1.2-0.9 0.5-2.1 0.8l-0.3-1.1q1.8-0.8 2.5-2 0.8-1.2 0.8-2.9v-10.6l-1.9-0.6 0.1-0.9h6v1l-1.9 0.5v10.1q0 1.6-0.4 2.7z"/>
		<path id="&lt;Compound Path&gt;" class="s1" d="m345-543.3q0-1.4 0.4-2.7 0.3-1.3 1-2.4 0.7-1.1 1.9-1.7 1.2-0.7 2.9-0.7 0.7 0 1.5 0.2 0.8 0.1 1.8 0.6l0.4-0.8h0.8l0.1 4.2-0.9 0.1-0.8-2q-0.5-0.4-1.2-0.5-0.7-0.2-1.5-0.2-1.1 0-1.9 0.5-0.7 0.4-1.2 1.2-0.4 0.8-0.6 1.8-0.2 1-0.2 2.2 0 1 0.1 2 0.2 1 0.6 1.8 0.5 0.7 1.3 1.2 0.9 0.4 2.2 0.4 0.9 0 1.8-0.1 1-0.1 2-0.4l0.4 1.3q-1 0.5-2.3 0.7-1.2 0.2-2.3 0.2-3.1 0-4.7-1.7-1.6-1.7-1.6-5.2z"/>
		<path id="&lt;Compound Path&gt;" fill-rule="evenodd" class="s1" d="m357.3-550.4q0.3 0 0.6 0 0.3 0 0.6 0 0.2 0 0.6 0 0.3 0 0.8 0 1 0 1.9 0 1-0.1 1.9-0.1 1 0 1.9 0.3 0.9 0.2 1.5 0.7 0.6 0.5 1 1.2 0.3 0.8 0.3 1.8 0 0.9-0.3 1.7-0.3 0.8-1 1.4-0.6 0.6-1.6 0.9-1 0.4-2.3 0.4-0.3 0-0.9-0.1-0.5 0-1.2-0.1v4.2l2 0.4-0.1 1h-5.9l-0.1-0.9 1.8-0.5v-10.9l-1.6-0.5zm8.7 4.1q0-1.5-1-2.1-0.9-0.7-2.4-0.7-0.8 0-1.5 0.2v5.2q0.4 0.1 0.7 0.1 0.4 0 0.6 0 1.1 0 1.8-0.2 0.7-0.2 1.1-0.6 0.4-0.4 0.5-0.9 0.2-0.5 0.2-1z"/>
		<path id="&lt;Compound Path&gt;" fill-rule="evenodd" class="s1" d="m369.9-549.5l0.1-0.9q0.5 0 1.8 0 1.3 0 3.3 0 0.4 0 1 0 0.6 0 1.3 0 0.6 0 1.3 0 0.7 0 1.3-0.1l0.2 0.2q0 0.9 0 1.8 0 0.9 0 1.8-0.2 0-0.4 0-0.2 0.1-0.5 0.1-0.2-0.6-0.4-1.2-0.2-0.5-0.4-1.1-0.1 0-0.6 0-0.4 0-1.1-0.1-0.6 0-1.4 0-0.7 0-1.5 0v3.9q0.5-0.1 1.2-0.2 0.6-0.1 1.2-0.1 2.6 0 4 1.2 1.4 1.2 1.4 3.3 0 0.9-0.3 1.6-0.4 0.8-0.9 1.4-0.6 0.6-1.5 0.9-0.8 0.3-1.8 0.3-1 0-2.1 0-1.1 0-2.2 0-0.9 0-1.6 0-0.7 0-1.5 0v-0.9l1.8-0.5v-10.9zm5.9 5.6q-1 0-1.9 0.2v5.3q0.4 0.2 0.9 0.2 0.5 0.1 1 0.1 1 0 1.7-0.2 0.7-0.2 1.1-0.6 0.4-0.4 0.6-0.9 0.2-0.5 0.2-1.1 0-0.7-0.2-1.2-0.2-0.5-0.7-0.9-0.4-0.4-1.1-0.6-0.6-0.3-1.6-0.3z"/>
		<path id="&lt;Compound Path&gt;" class="s1" d="m389.3-537.7q0 0.2 0 0.5 0 0.3 0 0.5h-6v-0.9l1.8-0.6v-10.8l-1.8-0.5 0.1-0.9h5.9q0 0.2 0 0.5 0 0.2 0 0.5l-1.8 0.4v7.9l6-7v-0.9l-1.7-0.5q0-0.2 0-0.5 0-0.2 0-0.4h6q0 0.2 0 0.5 0 0.2 0 0.5l-1.9 0.4v10.8l1.9 0.5v1h-6v-0.9l1.7-0.6v-7.9q-1.5 1.8-3 3.5-1.5 1.8-3 3.5v0.9z"/>
		<path id="&lt;Compound Path&gt;" class="s1" d="m403.8-538.3q-0.4 1.1-1.1 1.8-0.7 0.8-1.7 1.2-1 0.5-2.1 0.8l-0.4-1.1q1.8-0.8 2.6-2 0.8-1.2 0.8-2.9v-10.6l-1.9-0.6v-0.9h6.1v1l-1.9 0.5v10.1q0 1.6-0.4 2.7z"/>
		<path id="&lt;Compound Path&gt;" class="s1" d="m418.7-540.6l-0.5 3.7-0.2 0.2q-0.7 0-1.3 0-0.6 0-1.2 0-0.6 0-1.2 0-0.6 0-1.5 0-0.5 0-1.2 0-0.6 0-1.3 0-0.7 0-1.4 0-0.7 0-1.3 0l-0.1-0.9 1.8-0.5v-10.9l-1.6-0.5 0.1-0.9q0.5 0 1.2 0 0.7 0 1.5 0 0.7 0 1.3 0 0.7 0 1.1 0 0.7 0 1.2 0 0.6 0 1.1 0 0.6 0 1.1 0 0.6 0 1.3-0.1l0.2 0.2 0.1 3.7-0.9 0.2-0.8-2.5h-4.6v4.5l4.9-0.2v1.6l-4.9-0.2v5q0.3 0 1 0 0.8 0 1.5 0 0.8 0 1.5 0 0.7 0 1.1 0l1.3-2.6z"/>
		<path id="&lt;Path&gt;" class="s1" d="m118.8-511.3h-1v-64.6h1z"/>
		<g id="&lt;Group&gt;">
			<g id="&lt;Group&gt;">
				<path id="&lt;Path&gt;" class="s0" d="m213.2-266c0 0 4-4.2 8.4-6.3 4.4-2.1 8.4-0.2 11.1 2.2 2.6 2.5 2.9 8.9 1 11.7-1.9 2.8-5.5 5.4-8.7 4.4-3.1-1.1-3.1-1.1-3.1-1.1l-7.9-3.8c0 0 4.1 7.2 3.6 12.9-0.4 5.6-2.2 7.1-5.3 7.7-3 0.7-4.9 0.2-6.5-1.7-1.6-1.9-4.2-6.4-2.2-10.8 2-4.4 3.9-8.3 3.9-8.3 0 0-2.4 1.2-6.3 2.3-3.8 1.2-6.7 1.4-9.8-0.2-3.1-1.6-5.7-5.3-4.5-10.5 1.2-5.2 4.3-6.4 9.5-6 5.3 0.3 9 6.4 9.9 7.5 0.8 1.1 0.9-2.8-0.3-5.8-1.2-3.1-10.1-9.1-17.5-4.4-7.4 4.8-9.2 12.5-4.2 18.5 5 6.1 24.8 26.7 24.8 26.7 0 0 2 3.1 4.5 0.2 2.5-2.8 24.2-27.1 24.2-27.1 0 0 4.1-6.1 0.7-14-3.5-7.9-12.4-6.7-15.1-5.4-2.7 1.3-7.8 3.2-10.2 11.3z"/>
				<path id="&lt;Path&gt;" class="s0" d="m208.1-182c0 0-4 4.2-8.4 6.3-4.4 2.1-8.4 0.2-11.1-2.3-2.6-2.4-2.9-8.8-1-11.6 1.9-2.8 5.5-5.5 8.6-4.4 3.2 1 3.2 1 3.2 1l7.9 3.8c0 0-4.1-7.2-3.7-12.9 0.5-5.6 2.3-7.1 5.3-7.7 3-0.6 5-0.1 6.6 1.7 1.6 1.9 4.2 6.4 2.2 10.8-2 4.4-3.9 8.3-3.9 8.3 0 0 2.4-1.2 6.2-2.3 3.9-1.1 6.8-1.4 9.9 0.2 3.1 1.6 5.7 5.4 4.5 10.5-1.2 5.2-4.3 6.4-9.5 6-5.3-0.3-9-6.4-9.9-7.5-0.8-1.1-0.9 2.8 0.3 5.9 1.2 3 10.1 9 17.5 4.3 7.4-4.7 9.2-12.4 4.2-18.5-5-6.1-24.8-26.7-24.8-26.7 0 0-2-3-4.5-0.2-2.5 2.9-24.2 27.1-24.2 27.1 0 0-4.2 6.2-0.7 14 3.5 7.9 12.4 6.7 15.1 5.4 2.7-1.3 7.8-3.1 10.2-11.2z"/>
			</g>
			<g id="&lt;Group&gt;">
				<path id="&lt;Path&gt;" class="s0" d="m171.5-226.2c0 0-4.2-4-6.3-8.4-2.1-4.4-0.2-8.5 2.2-11.1 2.5-2.7 8.9-3 11.7-1.1 2.8 1.9 5.4 5.5 4.4 8.7-1.1 3.1-1.1 3.1-1.1 3.1l-3.7 7.9c0 0 7.2-4.1 12.8-3.6 5.7 0.5 7.1 2.3 7.8 5.3 0.6 3 0.1 5-1.8 6.6-1.9 1.6-6.3 4.1-10.7 2.1-4.4-2-8.3-3.9-8.3-3.9 0 0 1.1 2.5 2.3 6.3 1.1 3.8 1.4 6.8-0.3 9.8-1.6 3.1-5.3 5.8-10.5 4.6-5.2-1.2-6.3-4.3-6-9.6 0.4-5.2 6.4-9 7.5-9.8 1.2-0.9-2.8-0.9-5.8 0.2-3.1 1.2-9.1 10.2-4.4 17.6 4.8 7.4 12.5 9.2 18.5 4.2 6.1-5.1 26.7-24.8 26.7-24.8 0 0 3.1-2 0.2-4.6-2.8-2.5-27.1-24.1-27.1-24.1 0 0-6.1-4.2-14-0.7-7.9 3.5-6.7 12.3-5.4 15.1 1.4 2.7 3.2 7.7 11.3 10.2z"/>
				<path id="&lt;Path&gt;" class="s0" d="m249.8-221.2c0 0 4.2 4 6.3 8.4 2.1 4.4 0.2 8.5-2.2 11.1-2.5 2.7-8.9 2.9-11.7 1.1-2.8-1.9-5.4-5.6-4.4-8.7 1.1-3.1 1.1-3.1 1.1-3.1l3.7-7.9c0 0-7.2 4.1-12.8 3.6-5.7-0.5-7.1-2.3-7.8-5.3-0.6-3-0.1-5 1.8-6.6 1.9-1.6 6.3-4.2 10.7-2.1 4.4 2 8.3 3.9 8.3 3.9 0 0-1.1-2.5-2.3-6.3-1.1-3.8-1.4-6.8 0.2-9.8 1.7-3.1 5.4-5.8 10.6-4.6 5.1 1.2 6.3 4.3 6 9.6-0.4 5.2-6.4 9-7.5 9.8-1.2 0.9 2.7 0.9 5.8-0.3 3.1-1.1 9.1-10.1 4.3-17.5-4.7-7.4-12.4-9.2-18.5-4.2-6 5.1-26.6 24.8-26.6 24.8 0 0-3.1 2-0.2 4.6 2.8 2.5 27.1 24.1 27.1 24.1 0 0 6.1 4.2 14 0.7 7.9-3.5 6.7-12.3 5.4-15.1-1.4-2.7-3.2-7.7-11.3-10.2z"/>
			</g>
		</g>
		<g id="&lt;Group&gt;">
			<path id="&lt;Compound Path&gt;" class="s0" d="m72.4-142.5q0 0.3 0 0.5 0 0.3 0 0.5h-6v-0.9l1.8-0.5v-10.8l-1.8-0.6v-0.9h6q0 0.3 0 0.5 0 0.3 0 0.5l-1.9 0.5v7.9l6.1-7.1v-0.8l-1.7-0.6q0-0.2 0-0.4 0-0.3 0-0.5h6q0 0.3 0 0.5 0 0.2 0 0.5l-1.9 0.5v10.8l1.9 0.4v1h-6v-0.9l1.7-0.5v-8q-1.5 1.8-3 3.6-1.5 1.7-3.1 3.5v0.9z"/>
			<path id="&lt;Compound Path&gt;" class="s0" d="m82.9-148.1q0-1.4 0.3-2.7 0.4-1.3 1.1-2.4 0.7-1 1.9-1.7 1.2-0.7 2.9-0.7 0.7 0 1.5 0.2 0.8 0.1 1.7 0.6l0.5-0.7h0.8l0.1 4.1-0.9 0.1-0.8-1.9q-0.6-0.4-1.2-0.6-0.7-0.2-1.5-0.2-1.1 0-1.9 0.5-0.7 0.4-1.2 1.2-0.5 0.8-0.7 1.8-0.2 1-0.2 2.2 0 1.1 0.2 2 0.2 1 0.6 1.8 0.5 0.7 1.3 1.2 0.9 0.4 2.2 0.4 0.8 0 1.8-0.1 1-0.1 2-0.4l0.4 1.3q-1 0.5-2.3 0.7-1.2 0.3-2.3 0.3-3.1 0-4.7-1.8-1.6-1.7-1.6-5.2z"/>
			<path id="&lt;Compound Path&gt;" class="s0" d="m100.5-155.2q1.5 0 3 0 1.4 0 2.9-0.1l0.2 0.2 0.1 3.9-0.9 0.1-0.9-2.8h-3.2v11l1.9 0.5v0.9h-6v-0.8l1.8-0.6v-11h-3.2l-0.9 2.8-0.9-0.1 0.1-3.9 0.2-0.2q1.5 0.1 2.9 0.1 1.3 0 2.9 0z"/>
			<path id="&lt;Compound Path&gt;" fill-rule="evenodd" class="s0" d="m120.6-148.5q0 1.5-0.4 2.8-0.3 1.4-1.1 2.4-0.7 1-1.9 1.6-1.3 0.6-3 0.6-2.9 0-4.5-1.9-1.6-1.8-1.6-5.2 0-1.5 0.3-2.8 0.4-1.3 1.2-2.3 0.7-1 1.9-1.6 1.2-0.6 2.9-0.6 1.5 0 2.6 0.5 1.2 0.5 2 1.4 0.8 0.9 1.2 2.2 0.4 1.3 0.4 2.9zm-6.3-5.6q-1.1 0-1.8 0.5-0.7 0.4-1.2 1.2-0.4 0.8-0.6 1.8-0.2 1-0.2 2 0 1.3 0.2 2.4 0.2 1.1 0.7 1.9 0.4 0.8 1.1 1.2 0.8 0.4 1.9 0.4 1 0 1.8-0.4 0.7-0.5 1.2-1.3 0.4-0.7 0.6-1.7 0.2-1 0.2-2.1 0-1.2-0.2-2.3-0.2-1.1-0.6-1.9-0.5-0.8-1.2-1.2-0.8-0.5-1.9-0.5z"/>
			<path id="&lt;Compound Path&gt;" fill-rule="evenodd" class="s0" d="m122.8-155.2q0.3 0 0.6 0 0.2 0 0.5 0 0.3 0 0.7 0 0.3 0 0.8 0 0.9 0 1.9 0 0.9 0 1.9 0 1 0 1.9 0.2 0.8 0.2 1.5 0.7 0.6 0.5 0.9 1.3 0.4 0.7 0.4 1.7 0 0.9-0.4 1.7-0.3 0.8-0.9 1.4-0.7 0.6-1.6 0.9-1 0.4-2.3 0.4-0.3 0-0.9 0-0.5-0.1-1.2-0.2v4.2l1.9 0.4v1h-6v-0.9l1.8-0.5v-10.9l-1.7-0.5zm8.7 4.1q0-1.4-0.9-2.1-0.9-0.6-2.5-0.6-0.7 0-1.5 0.1v5.2q0.4 0.1 0.8 0.1 0.4 0.1 0.6 0.1 1.1 0 1.8-0.3 0.6-0.2 1-0.6 0.4-0.4 0.6-0.9 0.1-0.5 0.1-1z"/>
			<path id="&lt;Compound Path&gt;" class="s0" d="m141.3-142.5q0 0.3 0 0.5 0 0.3 0 0.5h-6v-0.9l1.8-0.5v-10.8l-1.8-0.6v-0.9h6q0 0.3 0 0.5 0 0.3 0 0.5l-1.9 0.5v7.9l6.1-7.1v-0.8l-1.7-0.6q0-0.2 0-0.4 0-0.3 0-0.5h5.9q0 0.3 0.1 0.5 0 0.2 0 0.5l-1.9 0.5v10.8l1.9 0.4-0.1 1h-5.9l-0.1-0.9 1.8-0.5v-8q-1.5 1.8-3 3.6-1.5 1.7-3.1 3.5v0.9z"/>
			<path id="&lt;Compound Path&gt;" class="s0" d="m155.7-141q-0.4 1.1-1.1 1.9-0.7 0.7-1.6 1.2-1 0.5-2.2 0.7l-0.3-1q1.8-0.8 2.6-2 0.7-1.2 0.7-2.9v-10.7l-1.9-0.5 0.1-0.9h6v1l-1.9 0.4v10.2q0 1.5-0.4 2.6z"/>
			<path id="&lt;Compound Path&gt;" class="s0" d="m159.9-148.1q0-1.4 0.4-2.7 0.3-1.3 1-2.4 0.7-1 1.9-1.7 1.2-0.7 2.9-0.7 0.7 0 1.5 0.2 0.8 0.1 1.8 0.6l0.4-0.7h0.8l0.1 4.1-0.9 0.1-0.8-1.9q-0.5-0.4-1.2-0.6-0.7-0.2-1.5-0.2-1.1 0-1.8 0.5-0.8 0.4-1.3 1.2-0.4 0.8-0.6 1.8-0.2 1-0.2 2.2 0 1.1 0.1 2 0.2 1 0.6 1.8 0.5 0.7 1.3 1.2 0.9 0.4 2.2 0.4 0.9 0 1.8-0.1 1-0.1 2-0.4l0.4 1.3q-1 0.5-2.3 0.7-1.2 0.3-2.3 0.3-3.1 0-4.7-1.8-1.6-1.7-1.6-5.2z"/>
			<path id="&lt;Compound Path&gt;" class="s0" d="m178-141.5h-6l-0.1-0.9 1.9-0.5v-10.9l-1.9-0.5 0.1-0.9h6v1l-1.9 0.4v10.9l1.9 0.4zm7.2-0.6l-0.2 0.7-2 0.4-6.3-7.4v-0.4l4.2-5-1.4-0.5v-0.9h4.8v1q-1 0.4-1.8 1-0.7 0.6-1.5 1.3l-2.4 2.8z"/>
			<path id="&lt;Compound Path&gt;" class="s0" d="m192.4-142.5q0 0.3 0 0.5 0 0.3 0 0.5h-6v-0.9l1.8-0.5v-10.8l-1.8-0.6 0.1-0.9h5.9q0 0.3 0 0.5 0 0.3 0 0.5l-1.8 0.5v7.9l6-7.1v-0.8l-1.7-0.6q0-0.2 0-0.4 0-0.3 0-0.5h6q0 0.3 0 0.5 0 0.2 0 0.5l-1.9 0.5v10.8l1.9 0.4v1h-6v-0.9l1.7-0.5v-8q-1.5 1.8-3 3.6-1.5 1.7-3 3.5v0.9z"/>
			<path id="&lt;Compound Path&gt;" class="s0" d="m212.6-152.4l-0.1 0.1-0.4 9.4 2.1 0.4-0.1 1h-5.7v-0.9l2-0.6 0.9-10.7-2-0.6 0.1-1q0.7 0 1.3 0.1 0.5 0 1.1 0 0.5 0 1 0 0.6 0 1.3-0.1 0.1 0.4 0.2 0.7 0 0.2 0.2 0.5l2.1 4.9 1.5 3.8h0.2l1.6-4.1 2.5-5.8q0.8 0.1 2.1 0.1 1.2 0 2.4-0.1v1l-2 0.6 0.8 10.8 2 0.4-0.1 1h-6.1v-0.9l1.8-0.5-0.5-9.6h-0.1l-4.4 10.4h-1.2z"/>
			<path id="&lt;Compound Path&gt;" class="s0" d="m235.5-144.1q-0.6 1.5-1.4 2.3-0.9 0.8-2.2 0.8-1 0-1.5-0.5-0.6-0.4-0.6-1 0-0.5 0.3-0.8 0.2-0.4 0.7-0.6l2 1.1q0.5-0.1 0.9-0.6 0.4-0.4 0.6-1.1l0.6-1.3h-1.2l-3.7-8-1.4-0.4 0.1-1h3.7q0.1 0.5 0.2 1 0.2 0.5 0.4 1l2.5 5.8q0.3-0.5 0.6-1.3 0.2-0.8 0.6-1.6 0.3-0.9 0.7-1.8 0.3-0.9 0.6-1.6l-1.7-0.5v-1h4.8l0.1 1q-1.6 0.7-2.5 2.7z"/>
			<path id="&lt;Compound Path&gt;" class="s0" d="m249.1-149.1q0.7 0.1 1.3 0.4 0.6 0.4 1 0.9 0.4 0.4 0.6 1 0.2 0.6 0.2 1.2 0 1.1-0.5 2-0.4 0.8-1.2 1.3-0.7 0.6-1.8 0.9-1 0.3-2.3 0.3-1.2 0-2.4-0.3-1.1-0.2-2.1-0.7l0.4-1.2q1.2 0.3 2.2 0.4 0.9 0.1 1.4 0.1 1.1 0 1.8-0.2 0.8-0.2 1.2-0.6 0.5-0.4 0.7-0.9 0.2-0.5 0.2-1 0-1.3-1-2-1-0.6-3.1-0.6-0.1 0-0.3 0-0.2 0-0.3 0l-0.3-1.1 0.2-0.3q1.2-0.1 2-0.3 0.9-0.2 1.4-0.6 0.4-0.3 0.6-0.7 0.2-0.5 0.2-0.9 0-0.9-0.6-1.4-0.7-0.6-1.9-0.6-0.7 0-1.5 0.1-0.8 0.2-1.3 0.5l-0.7 2.2-0.9-0.1-0.1-2.9q0.6-0.4 1.2-0.7 0.6-0.2 1.3-0.4 0.6-0.1 1.2-0.2 0.6-0.1 1.1-0.1 1.4 0 2.3 0.4 0.9 0.3 1.4 0.8 0.6 0.5 0.8 1.1 0.1 0.5 0.1 1 0 0.6-0.2 1.1-0.2 0.5-0.5 0.9-0.3 0.4-0.8 0.7-0.5 0.3-1 0.4z"/>
			<path id="&lt;Compound Path&gt;" class="s0" d="m265.1-145.4l-0.5 3.7-0.2 0.2q-0.7 0-1.3 0-0.6 0-1.2 0-0.6 0-1.2 0-0.6 0-1.5 0-0.5 0-1.1 0-0.7 0-1.4 0-0.7 0-1.4 0-0.7 0-1.3 0l-0.1-0.9 1.8-0.5v-10.9l-1.6-0.5 0.1-0.9q0.5 0 1.2 0 0.7 0 1.5 0 0.7 0 1.4 0 0.6 0 1 0 0.7 0 1.2 0 0.6 0 1.1 0 0.6 0 1.1 0 0.6 0 1.3-0.1l0.2 0.2 0.1 3.7-0.9 0.2-0.8-2.5h-4.6v4.5l4.9-0.2v1.6l-4.9-0.2v5q0.3 0 1.1 0 0.7 0 1.4 0 0.8 0 1.5 0 0.7 0 1.1 0l1.3-2.6z"/>
			<path id="&lt;Compound Path&gt;" class="s0" d="m271-141q-0.4 1.1-1.1 1.9-0.7 0.7-1.7 1.2-1 0.5-2.1 0.7l-0.4-1q1.8-0.8 2.6-2 0.8-1.2 0.8-2.9v-10.7l-1.9-0.5v-0.9h6.1v1l-1.9 0.4v10.2q0 1.5-0.4 2.6z"/>
			<path id="&lt;Compound Path&gt;" class="s0" d="m281.2-148.1q0-1.4 0.3-2.7 0.3-1.3 1.1-2.4 0.7-1 1.9-1.7 1.1-0.7 2.8-0.7 0.8 0 1.6 0.2 0.8 0.1 1.7 0.6l0.5-0.7h0.8v4.1l-0.8 0.1-0.8-1.9q-0.6-0.4-1.2-0.6-0.7-0.2-1.6-0.2-1 0-1.8 0.5-0.7 0.4-1.2 1.2-0.5 0.8-0.7 1.8-0.2 1-0.2 2.2 0 1.1 0.2 2 0.1 1 0.6 1.8 0.5 0.7 1.3 1.2 0.8 0.4 2.2 0.4 0.8 0 1.8-0.1 1-0.1 2-0.4l0.4 1.3q-1 0.5-2.3 0.7-1.3 0.3-2.3 0.3-3.1 0-4.7-1.8-1.6-1.7-1.6-5.2z"/>
			<path id="&lt;Compound Path&gt;" fill-rule="evenodd" class="s0" d="m293.5-155.2q0.3 0 0.6 0 0.2 0 0.5 0 0.3 0 0.7 0 0.3 0 0.8 0 0.9 0 1.9 0 0.9 0 1.9 0 1 0 1.9 0.2 0.8 0.2 1.5 0.7 0.6 0.5 0.9 1.3 0.4 0.7 0.4 1.7 0 0.9-0.4 1.7-0.3 0.8-0.9 1.4-0.7 0.6-1.6 0.9-1 0.4-2.3 0.4-0.3 0-0.9 0-0.5-0.1-1.2-0.2v4.2l1.9 0.4v1h-6v-0.9l1.8-0.5v-10.9l-1.7-0.5zm8.7 4.1q0-1.4-0.9-2.1-0.9-0.6-2.5-0.6-0.7 0-1.5 0.1v5.2q0.4 0.1 0.8 0.1 0.4 0.1 0.6 0.1 1.1 0 1.8-0.3 0.6-0.2 1-0.6 0.4-0.4 0.6-0.9 0.1-0.5 0.1-1z"/>
			<path id="&lt;Compound Path&gt;" fill-rule="evenodd" class="s0" d="m306-154.3l0.1-0.9q0.6 0 1.9 0 1.3 0 3.2 0 0.5 0 1.1 0 0.6 0 1.2 0 0.7 0 1.4 0 0.6 0 1.2-0.1l0.3 0.2q0 0.9 0 1.8 0 0.9 0 1.8-0.2 0-0.5 0.1-0.2 0-0.4 0-0.2-0.6-0.4-1.1-0.2-0.6-0.4-1.2-0.2 0-0.6 0-0.5 0-1.1 0-0.6-0.1-1.4-0.1-0.8 0-1.6 0v3.9q0.6-0.1 1.3-0.2 0.6-0.1 1.2-0.1 2.6 0 3.9 1.2 1.4 1.2 1.4 3.3 0 0.9-0.3 1.6-0.3 0.8-0.9 1.4-0.6 0.6-1.4 0.9-0.8 0.3-1.8 0.3-1.1 0-2.1 0-1.1 0-2.3 0-0.8 0-1.5 0-0.8 0-1.5 0l-0.1-0.9 1.8-0.5v-10.9zm6 5.6q-1 0-2 0.2v5.3q0.4 0.2 1 0.3 0.5 0 1 0 1 0 1.7-0.2 0.7-0.2 1.1-0.6 0.4-0.4 0.6-0.9 0.1-0.5 0.1-1.1 0-0.7-0.2-1.2-0.2-0.5-0.6-0.9-0.4-0.4-1.1-0.6-0.7-0.3-1.6-0.3z"/>
			<path id="&lt;Compound Path&gt;" class="s0" d="m325.5-142.5q0 0.3 0 0.5 0 0.3 0 0.5h-6v-0.9l1.8-0.5v-10.8l-1.8-0.6v-0.9h6q0 0.3 0 0.5 0 0.3 0 0.5l-1.9 0.5v7.9l6.1-7.1v-0.8l-1.7-0.6q0-0.2 0-0.4 0-0.3 0-0.5h5.9q0 0.3 0.1 0.5 0 0.2 0 0.5l-1.9 0.5v10.8l1.9 0.4-0.1 1h-5.9l-0.1-0.9 1.8-0.5v-8q-1.5 1.8-3 3.6-1.5 1.7-3.1 3.5v0.9z"/>
			<path id="&lt;Compound Path&gt;" class="s0" d="m339.9-141q-0.4 1.1-1.1 1.9-0.7 0.7-1.6 1.2-1 0.5-2.2 0.7l-0.3-1q1.8-0.8 2.6-2 0.7-1.2 0.7-2.9v-10.7l-1.9-0.5 0.1-0.9h6v1l-1.9 0.4v10.2q0 1.5-0.4 2.6z"/>
			<path id="&lt;Compound Path&gt;" class="s0" d="m354.9-145.4l-0.5 3.7-0.2 0.2q-0.7 0-1.3 0-0.6 0-1.2 0-0.6 0-1.2 0-0.7 0-1.5 0-0.5 0-1.2 0-0.7 0-1.4 0-0.7 0-1.4 0-0.7 0-1.3 0l-0.1-0.9 1.8-0.5v-10.9l-1.6-0.5 0.1-0.9q0.5 0 1.3 0 0.7 0 1.4 0 0.8 0 1.4 0 0.7 0 1.1 0 0.6 0 1.2 0 0.6 0 1.1 0 0.5 0 1.1 0 0.6 0 1.3-0.1l0.2 0.2 0.1 3.7-0.9 0.2-0.9-2.5h-4.6v4.5l5-0.2v1.6l-5-0.2v5q0.4 0 1.1 0 0.7 0 1.5 0 0.8 0 1.5 0 0.7 0 1 0l1.3-2.6z"/>
		</g>
		<g id="&lt;Group&gt;">
			<g id="&lt;Group&gt;">
				<path id="&lt;Path&gt;" class="s2" d="m56.6 14.7c0 0 4-4.2 8.4-6.3 4.4-2.1 8.4-0.2 11.1 2.2 2.7 2.5 2.9 8.9 1 11.7-1.8 2.8-5.5 5.4-8.6 4.4-3.2-1.1-3.2-1.1-3.2-1.1l-7.9-3.7c0 0 4.2 7.2 3.7 12.8-0.5 5.7-2.3 7.2-5.3 7.8-3 0.6-5 0.1-6.6-1.8-1.6-1.9-4.2-6.3-2.2-10.7 2.1-4.4 4-8.3 4-8.3 0 0-2.5 1.2-6.3 2.3-3.9 1.1-6.8 1.4-9.9-0.2-3.1-1.6-5.7-5.4-4.5-10.6 1.2-5.2 4.3-6.3 9.5-6 5.3 0.4 9.1 6.4 9.9 7.5 0.8 1.2 0.9-2.7-0.3-5.8-1.2-3.1-10.1-9.1-17.5-4.4-7.4 4.8-9.2 12.5-4.2 18.6 5 6 24.8 26.6 24.8 26.6 0 0 2 3.1 4.5 0.3 2.5-2.9 24.2-27.1 24.2-27.1 0 0 4.2-6.2 0.7-14.1-3.5-7.9-12.4-6.7-15.1-5.4-2.7 1.4-7.7 3.2-10.2 11.3z"/>
				<path id="&lt;Path&gt;" class="s2" d="m51.5 98.7c0 0-4 4.2-8.4 6.3-4.4 2.1-8.4 0.2-11.1-2.2-2.6-2.4-2.9-8.9-1-11.7 1.9-2.8 5.5-5.4 8.7-4.4 3.1 1.1 3.1 1.1 3.1 1.1l7.9 3.8c0 0-4.1-7.2-3.6-12.9 0.4-5.7 2.3-7.1 5.3-7.8 3-0.6 4.9-0.1 6.5 1.8 1.6 1.9 4.2 6.3 2.2 10.7-2 4.4-3.9 8.4-3.9 8.4 0 0 2.4-1.2 6.3-2.3 3.8-1.2 6.7-1.4 9.8 0.2 3.1 1.6 5.8 5.3 4.6 10.5-1.2 5.2-4.4 6.4-9.6 6-5.2-0.3-9-6.4-9.9-7.5-0.8-1.1-0.9 2.8 0.3 5.8 1.2 3.1 10.2 9.1 17.6 4.4 7.4-4.8 9.2-12.5 4.1-18.5-5-6.1-24.7-26.7-24.7-26.7 0 0-2.1-3.1-4.6-0.2-2.5 2.8-24.2 27.1-24.2 27.1 0 0-4.2 6.1-0.7 14 3.5 7.9 12.4 6.7 15.1 5.4 2.8-1.3 7.8-3.1 10.2-11.3z"/>
			</g>
			<g id="&lt;Group&gt;">
				<path id="&lt;Path&gt;" class="s2" d="m14.9 54.5c0 0-4.2-4-6.3-8.4-2.1-4.4-0.2-8.4 2.2-11.1 2.5-2.6 8.9-2.9 11.7-1 2.8 1.9 5.4 5.5 4.4 8.6-1.1 3.2-1.1 3.2-1.1 3.2l-3.7 7.9c0 0 7.2-4.2 12.8-3.7 5.7 0.5 7.1 2.3 7.8 5.3 0.6 3 0.1 5-1.8 6.6-1.9 1.6-6.3 4.2-10.7 2.2-4.4-2.1-8.3-3.9-8.3-3.9 0 0 1.1 2.4 2.3 6.3 1.1 3.8 1.4 6.7-0.2 9.8-1.7 3.1-5.4 5.7-10.6 4.5-5.2-1.1-6.4-4.3-6-9.5 0.3-5.3 6.4-9 7.5-9.9 1.2-0.8-2.8-0.9-5.8 0.3-3.1 1.2-9.1 10.1-4.4 17.5 4.8 7.4 12.5 9.3 18.6 4.2 6-5 26.6-24.8 26.6-24.8 0 0 3.1-2 0.2-4.5-2.8-2.5-27.1-24.2-27.1-24.2 0 0-6.1-4.2-14-0.7-7.9 3.5-6.7 12.4-5.4 15.1 1.3 2.7 3.2 7.8 11.3 10.2z"/>
				<path id="&lt;Path&gt;" class="s2" d="m93.3 59.6c0 0 4.2 4 6.3 8.4 2 4.4 0.2 8.4-2.3 11.1-2.4 2.6-8.9 2.9-11.6 1-2.8-1.9-5.5-5.5-4.4-8.6 1-3.2 1-3.2 1-3.2l3.8-7.9c0 0-7.2 4.1-12.9 3.7-5.6-0.5-7.1-2.3-7.7-5.4-0.7-3-0.2-4.9 1.7-6.5 1.9-1.6 6.4-4.2 10.8-2.2 4.4 2 8.3 3.9 8.3 3.9 0 0-1.2-2.4-2.3-6.3-1.1-3.8-1.4-6.7 0.2-9.8 1.6-3.1 5.4-5.7 10.5-4.6 5.2 1.2 6.4 4.4 6 9.6-0.3 5.3-6.4 9-7.5 9.9-1.1 0.8 2.8 0.9 5.9-0.3 3-1.2 9-10.1 4.3-17.5-4.8-7.5-12.4-9.3-18.5-4.2-6.1 5-26.7 24.8-26.7 24.8 0 0-3.1 2-0.2 4.5 2.9 2.5 27.1 24.2 27.1 24.2 0 0 6.1 4.2 14 0.7 7.9-3.5 6.7-12.4 5.4-15.1-1.3-2.7-3.1-7.8-11.2-10.2z"/>
			</g>
		</g>
		<g id="&lt;Group&gt;">
			<path id="&lt;Compound Path&gt;" class="s0" d="m136.2 60.6q0 0.3 0 0.5 0 0.3 0 0.5h-6v-0.9l1.8-0.5v-10.8l-1.8-0.6v-0.9h6q0 0.2 0 0.5 0 0.2 0 0.5l-1.9 0.4v8l6.1-7.1v-0.8l-1.7-0.6q0-0.2 0-0.5 0-0.2 0-0.4h5.9q0 0.2 0.1 0.5 0 0.2 0 0.5l-1.9 0.4v10.8l1.9 0.5-0.1 1h-5.9l-0.1-0.9 1.8-0.5v-8q-1.5 1.8-3 3.5-1.5 1.8-3.1 3.6v0.8z"/>
			<path id="&lt;Compound Path&gt;" class="s0" d="m146.7 55q0-1.4 0.3-2.7 0.3-1.3 1.1-2.4 0.7-1.1 1.9-1.7 1.1-0.7 2.8-0.7 0.8 0 1.6 0.2 0.8 0.1 1.7 0.6l0.5-0.8h0.8v4.2l-0.8 0.1-0.8-2q-0.6-0.4-1.2-0.5-0.7-0.2-1.6-0.2-1 0-1.8 0.5-0.7 0.4-1.2 1.2-0.5 0.8-0.7 1.8-0.2 1-0.2 2.2 0 1 0.2 2 0.1 1 0.6 1.8 0.5 0.7 1.3 1.2 0.8 0.4 2.2 0.4 0.8 0 1.8-0.1 1-0.1 2-0.4l0.4 1.3q-1 0.5-2.3 0.7-1.3 0.2-2.3 0.2-3.1 0-4.7-1.7-1.6-1.7-1.6-5.2z"/>
			<path id="&lt;Compound Path&gt;" class="s0" d="m164.3 47.9q1.5 0 2.9 0 1.5 0 2.9-0.1l0.3 0.2 0.1 3.9-0.9 0.1-1-2.8h-3.1v11l1.9 0.4v1h-6l-0.1-0.9 1.9-0.5v-11h-3.2l-0.9 2.8-0.9-0.1 0.1-3.9 0.2-0.2q1.5 0.1 2.8 0.1 1.4 0 3 0z"/>
			<path id="&lt;Compound Path&gt;" fill-rule="evenodd" class="s0" d="m184.4 54.6q0 1.5-0.4 2.8-0.3 1.3-1.1 2.3-0.8 1.1-2 1.6-1.2 0.6-2.9 0.6-3 0-4.5-1.8-1.6-1.8-1.6-5.2 0-1.5 0.3-2.8 0.4-1.3 1.1-2.4 0.8-1 2-1.6 1.2-0.6 2.9-0.6 1.5 0 2.6 0.5 1.2 0.5 2 1.4 0.8 1 1.2 2.3 0.4 1.3 0.4 2.9zm-6.3-5.6q-1.1 0-1.8 0.5-0.8 0.4-1.2 1.2-0.4 0.8-0.6 1.7-0.2 1-0.2 2.1 0 1.3 0.2 2.4 0.2 1.1 0.6 1.9 0.5 0.7 1.2 1.2 0.8 0.4 1.8 0.4 1.1 0 1.9-0.5 0.7-0.4 1.1-1.2 0.5-0.7 0.7-1.8 0.2-1 0.2-2 0-1.2-0.2-2.3-0.2-1.1-0.7-1.9-0.4-0.8-1.2-1.2-0.7-0.5-1.8-0.5z"/>
			<path id="&lt;Compound Path&gt;" fill-rule="evenodd" class="s0" d="m186.6 47.9q0.3 0 0.6 0 0.2 0 0.5 0 0.3 0 0.6 0 0.4 0 0.9 0 0.9 0 1.9 0 0.9-0.1 1.8-0.1 1.1 0 2 0.3 0.8 0.2 1.4 0.7 0.7 0.5 1 1.2 0.3 0.8 0.3 1.8 0 0.9-0.3 1.7-0.3 0.8-0.9 1.4-0.7 0.6-1.7 0.9-0.9 0.4-2.2 0.4-0.3 0-0.9-0.1-0.6 0-1.2-0.1v4.2l1.9 0.4v1h-6v-0.9l1.8-0.5v-10.9l-1.7-0.5zm8.7 4.1q0-1.5-0.9-2.1-0.9-0.7-2.5-0.7-0.7 0-1.5 0.2v5.2q0.4 0.1 0.8 0.1 0.4 0 0.6 0 1.1 0 1.7-0.2 0.7-0.2 1.1-0.6 0.4-0.4 0.6-0.9 0.1-0.5 0.1-1z"/>
			<path id="&lt;Compound Path&gt;" class="s0" d="m205.1 60.6q0 0.3 0 0.5 0 0.3 0 0.5h-6l-0.1-0.9 1.8-0.5v-10.8l-1.7-0.6v-0.9h6q0 0.2 0 0.5 0 0.2 0 0.5l-1.9 0.4v8l6.1-7.1v-0.8l-1.8-0.6q0.1-0.2 0.1-0.5 0-0.2 0-0.4h5.9q0 0.2 0 0.5 0 0.2 0.1 0.5l-2 0.4v10.8l2 0.5-0.1 1h-5.9l-0.1-0.9 1.8-0.5v-8q-1.5 1.8-3 3.5-1.5 1.8-3.1 3.6v0.8z"/>
			<path id="&lt;Compound Path&gt;" class="s0" d="m219.5 62.1q-0.4 1.1-1.1 1.9-0.7 0.7-1.7 1.2-0.9 0.5-2.1 0.7l-0.3-1.1q1.8-0.8 2.5-2 0.8-1.1 0.8-2.8v-10.7l-1.9-0.5 0.1-0.9h6v1l-1.9 0.4v10.2q0 1.5-0.4 2.6z"/>
			<path id="&lt;Compound Path&gt;" class="s0" d="m223.7 55q0-1.4 0.3-2.7 0.4-1.3 1.1-2.4 0.7-1.1 1.9-1.7 1.2-0.7 2.9-0.7 0.7 0 1.5 0.2 0.8 0.1 1.7 0.6l0.5-0.8h0.8l0.1 4.2-0.9 0.1-0.8-2q-0.6-0.4-1.2-0.5-0.7-0.2-1.5-0.2-1.1 0-1.9 0.5-0.7 0.4-1.2 1.2-0.5 0.8-0.7 1.8-0.2 1-0.2 2.2 0 1 0.2 2 0.2 1 0.6 1.8 0.5 0.7 1.3 1.2 0.9 0.4 2.2 0.4 0.8 0 1.8-0.1 1-0.1 2-0.4l0.4 1.3q-1 0.5-2.3 0.7-1.2 0.2-2.3 0.2-3.1 0-4.7-1.7-1.6-1.7-1.6-5.2z"/>
			<path id="&lt;Compound Path&gt;" class="s0" d="m241.7 61.6h-5.9l-0.1-0.9 1.8-0.5v-10.9l-1.8-0.5 0.1-0.9h5.9l0.1 1-2 0.4v10.9l2 0.4zm7.2-0.7l-0.2 0.7-2.1 0.5-6.2-7.4v-0.4l4.2-5.1-1.4-0.4v-1h4.7v1.1q-0.9 0.4-1.7 1-0.8 0.5-1.5 1.3l-2.5 2.8z"/>
			<path id="&lt;Compound Path&gt;" class="s0" d="m256.2 60.6q0 0.3 0 0.5 0 0.3 0 0.5h-6v-0.9l1.8-0.5v-10.8l-1.8-0.6v-0.9h6q0 0.2 0 0.5 0 0.2 0 0.5l-1.9 0.4v8l6.1-7.1v-0.8l-1.7-0.6q0-0.2 0-0.5 0-0.2 0-0.4h6q0 0.2 0 0.5 0 0.2 0 0.5l-1.9 0.4v10.8l1.9 0.5v1h-6v-0.9l1.7-0.5v-8q-1.5 1.8-3 3.5-1.5 1.8-3.1 3.6v0.8z"/>
			<path id="&lt;Compound Path&gt;" class="s0" d="m276.4 50.7h-0.1l-0.4 9.5 2.1 0.4-0.1 1h-5.7v-1l2-0.5 0.8-10.8-1.9-0.5 0.1-1q0.7 0 1.3 0 0.5 0 1 0 0.5 0 1.1 0 0.5 0 1.3 0 0.1 0.4 0.1 0.6 0.1 0.3 0.2 0.6l2.2 4.9 1.5 3.7h0.1l1.7-4 2.5-5.8q0.8 0.1 2.1 0 1.2 0 2.4 0v1l-2 0.5 0.8 10.8 1.9 0.5v1h-6.1l-0.1-0.9 1.8-0.6-0.4-9.5h-0.1l-4.4 10.4h-1.2z"/>
			<path id="&lt;Compound Path&gt;" class="s0" d="m299.3 59q-0.6 1.4-1.5 2.2-0.8 0.8-2.1 0.8-1 0-1.6-0.4-0.5-0.4-0.5-1 0-0.5 0.2-0.9 0.3-0.3 0.8-0.6l2 1.2q0.4-0.1 0.8-0.6 0.4-0.5 0.7-1.1l0.6-1.4h-1.3l-3.6-7.9-1.5-0.5 0.1-0.9h3.8q0 0.4 0.2 1 0.1 0.5 0.4 1l2.4 5.8h0.1q0.2-0.5 0.5-1.3 0.3-0.8 0.7-1.7 0.3-0.8 0.6-1.7 0.4-0.9 0.7-1.6l-1.8-0.5 0.1-1h4.8v1q-1.6 0.6-2.4 2.7z"/>
			<path id="&lt;Compound Path&gt;" class="s0" d="m312.8 53.9q0.8 0.2 1.4 0.5 0.6 0.4 1 0.8 0.4 0.5 0.6 1.1 0.2 0.6 0.2 1.2 0 1.1-0.5 1.9-0.4 0.9-1.2 1.4-0.8 0.6-1.8 0.9-1.1 0.2-2.3 0.2-1.2 0-2.4-0.2-1.2-0.2-2.1-0.7l0.4-1.3q1.2 0.4 2.1 0.5 0.9 0.1 1.5 0.1 1.1 0 1.8-0.3 0.8-0.2 1.2-0.5 0.5-0.4 0.7-0.9 0.2-0.5 0.2-1.1 0-1.2-1-1.9-1-0.7-3.1-0.7-0.1 0-0.3 0-0.2 0-0.3 0.1l-0.3-1.1 0.2-0.3q1.2-0.1 2-0.3 0.8-0.3 1.3-0.6 0.5-0.4 0.7-0.8 0.2-0.4 0.2-0.9 0-0.8-0.7-1.4-0.6-0.5-1.8-0.5-0.7 0-1.5 0.1-0.8 0.2-1.3 0.5l-0.7 2.2-0.9-0.1-0.1-2.9q0.5-0.5 1.2-0.7 0.6-0.3 1.2-0.4 0.7-0.2 1.3-0.2 0.6-0.1 1-0.1 1.5 0 2.4 0.3 0.9 0.4 1.4 0.9 0.5 0.5 0.7 1 0.2 0.6 0.2 1.1 0 0.5-0.2 1-0.2 0.5-0.5 0.9-0.4 0.4-0.8 0.7-0.5 0.3-1.1 0.5z"/>
			<path id="&lt;Compound Path&gt;" class="s0" d="m328.9 57.6l-0.5 3.8-0.2 0.2q-0.7 0-1.3 0-0.6 0-1.2 0-0.6 0-1.2 0-0.7 0-1.5 0-0.5 0-1.2 0-0.6 0-1.3 0-0.8 0-1.5 0-0.7 0-1.2 0l-0.1-0.9 1.8-0.5v-10.9l-1.7-0.5 0.2-0.9q0.5 0 1.2 0 0.7 0 1.4 0 0.8 0 1.4 0 0.7 0 1.1 0 0.7 0 1.2 0 0.6 0 1.1 0 0.6 0 1.1-0.1 0.6 0 1.3 0l0.2 0.1 0.1 3.8-0.9 0.2-0.9-2.5h-4.5v4.4l4.9-0.1v1.6l-4.9-0.2v5q0.3 0 1 0 0.7 0 1.5 0 0.8 0 1.5 0 0.7 0 1.1 0l1.3-2.7z"/>
			<path id="&lt;Compound Path&gt;" class="s0" d="m334.7 62.1q-0.4 1.1-1.1 1.9-0.7 0.7-1.6 1.2-1 0.5-2.2 0.7l-0.3-1.1q1.8-0.8 2.6-2 0.7-1.1 0.7-2.8v-10.7l-1.8-0.5v-0.9h6l0.1 1-2 0.4v10.2q0 1.5-0.4 2.6z"/>
			<path id="&lt;Compound Path&gt;" class="s0" d="m345 55q0-1.4 0.3-2.7 0.3-1.3 1.1-2.4 0.7-1.1 1.9-1.7 1.1-0.7 2.8-0.7 0.8 0 1.6 0.2 0.8 0.1 1.7 0.6l0.4-0.8h0.9v4.2l-0.9 0.1-0.7-2q-0.6-0.4-1.3-0.5-0.6-0.2-1.5-0.2-1.1 0-1.8 0.5-0.8 0.4-1.2 1.2-0.5 0.8-0.7 1.8-0.2 1-0.2 2.2 0 1 0.2 2 0.1 1 0.6 1.8 0.4 0.7 1.3 1.2 0.8 0.4 2.2 0.4 0.8 0 1.8-0.1 0.9-0.1 2-0.4l0.4 1.3q-1.1 0.5-2.3 0.7-1.3 0.2-2.3 0.2-3.1 0-4.7-1.7-1.6-1.7-1.6-5.2z"/>
			<path id="&lt;Compound Path&gt;" fill-rule="evenodd" class="s0" d="m357.3 47.9q0.3 0 0.6 0 0.2 0 0.5 0 0.3 0 0.6 0 0.4 0 0.9 0 0.9 0 1.9 0 0.9-0.1 1.8-0.1 1.1 0 1.9 0.3 0.9 0.2 1.5 0.7 0.7 0.5 1 1.2 0.3 0.8 0.3 1.8 0 0.9-0.3 1.7-0.3 0.8-0.9 1.4-0.7 0.6-1.7 0.9-0.9 0.4-2.2 0.4-0.3 0-0.9-0.1-0.6 0-1.2-0.1v4.2l1.9 0.4v1h-6v-0.9l1.8-0.5v-10.9l-1.7-0.5zm8.7 4.1q0-1.5-0.9-2.1-0.9-0.7-2.5-0.7-0.7 0-1.5 0.2v5.2q0.4 0.1 0.8 0.1 0.4 0 0.6 0 1 0 1.7-0.2 0.7-0.2 1.1-0.6 0.4-0.4 0.5-0.9 0.2-0.5 0.2-1z"/>
			<path id="&lt;Compound Path&gt;" fill-rule="evenodd" class="s0" d="m369.8 48.8l0.1-0.9q0.6 0 1.9 0 1.2 0 3.2 0 0.4 0 1 0 0.7 0 1.3 0 0.7 0 1.4-0.1 0.6 0 1.2 0l0.2 0.1q0 0.9 0.1 1.8 0 0.9 0 1.9-0.3 0-0.5 0-0.2 0.1-0.4 0.1-0.2-0.6-0.4-1.2-0.2-0.6-0.4-1.2-0.2 0-0.6 0-0.5 0-1.1 0-0.6 0-1.4 0-0.8 0-1.6 0v3.9q0.6-0.1 1.2-0.2 0.7-0.1 1.3-0.1 2.5 0 3.9 1.2 1.4 1.2 1.4 3.2 0 0.9-0.3 1.7-0.3 0.8-0.9 1.4-0.6 0.6-1.4 0.9-0.8 0.3-1.9 0.3-1 0-2.1 0-1.1 0-2.2 0-0.8 0-1.5 0-0.8 0-1.5 0l-0.1-0.9 1.8-0.5v-10.9zm6 5.6q-1 0-2 0.2v5.3q0.4 0.2 1 0.2 0.5 0.1 1 0.1 1 0 1.7-0.2 0.6-0.3 1.1-0.7 0.4-0.3 0.5-0.9 0.2-0.5 0.2-1 0-0.7-0.2-1.2-0.2-0.6-0.6-1-0.5-0.3-1.1-0.6-0.7-0.2-1.6-0.2z"/>
			<path id="&lt;Compound Path&gt;" class="s0" d="m389.3 60.6q0 0.3 0 0.5 0 0.3 0 0.5h-6l-0.1-0.9 1.8-0.5v-10.8l-1.7-0.6v-0.9h6q0 0.2 0 0.5 0 0.2 0 0.5l-1.9 0.4v8l6.1-7.1v-0.8l-1.8-0.6q0.1-0.2 0.1-0.5 0-0.2 0-0.4h5.9q0 0.2 0 0.5 0 0.2 0.1 0.5l-2 0.4v10.8l2 0.5-0.1 1h-5.9l-0.1-0.9 1.8-0.5v-8q-1.5 1.8-3 3.5-1.5 1.8-3.1 3.6v0.8z"/>
			<path id="&lt;Compound Path&gt;" class="s0" d="m403.7 62.1q-0.4 1.1-1.1 1.9-0.7 0.7-1.7 1.2-0.9 0.5-2.1 0.7l-0.3-1.1q1.8-0.8 2.5-2 0.8-1.1 0.8-2.8v-10.7l-1.9-0.5 0.1-0.9h6v1l-1.9 0.4v10.2q0 1.5-0.4 2.6z"/>
			<path id="&lt;Compound Path&gt;" class="s0" d="m418.7 57.6l-0.5 3.8-0.2 0.2q-0.8 0-1.3 0-0.6 0-1.2 0-0.6 0-1.3 0-0.6 0-1.4 0-0.5 0-1.2 0-0.7 0-1.4 0-0.7 0-1.4 0-0.7 0-1.3 0l-0.1-0.9 1.8-0.5v-10.9l-1.6-0.5 0.1-0.9q0.5 0 1.2 0 0.8 0 1.5 0 0.7 0 1.4 0 0.6 0 1 0 0.7 0 1.3 0 0.5 0 1.1 0 0.5 0 1.1-0.1 0.5 0 1.2 0l0.3 0.1v3.8l-0.9 0.2-0.8-2.5h-4.6v4.4l5-0.1v1.6l-5-0.2v5q0.4 0 1.1 0 0.7 0 1.5 0 0.7 0 1.5 0 0.7 0 1 0l1.3-2.7z"/>
		</g>
		<path id="&lt;Path&gt;" class="s0" d="m118.7 89h-1v-64.6h1z"/>
		<g id="&lt;Group&gt;">
			<g id="&lt;Group&gt;">
				<path id="&lt;Path&gt;" class="s1" d="m745.6-868c0 0 3.9-4.2 8.3-6.3 4.4-2.1 8.5-0.2 11.1 2.3 2.7 2.4 3 8.8 1.1 11.6-1.9 2.8-5.5 5.5-8.7 4.4-3.1-1-3.1-1-3.1-1l-7.9-3.8c0 0 4.1 7.2 3.6 12.9-0.5 5.6-2.3 7.1-5.3 7.7-3 0.6-4.9 0.1-6.5-1.7-1.6-1.9-4.2-6.4-2.2-10.8 2-4.4 3.9-8.3 3.9-8.3 0 0-2.4 1.2-6.3 2.3-3.8 1.1-6.8 1.4-9.8-0.2-3.1-1.6-5.7-5.4-4.6-10.5 1.2-5.2 4.4-6.4 9.6-6 5.2 0.3 9 6.4 9.9 7.5 0.8 1.1 0.9-2.8-0.3-5.9-1.2-3-10.2-9-17.6-4.3-7.3 4.7-9.2 12.4-4.1 18.5 5 6.1 24.7 26.7 24.7 26.7 0 0 2.1 3 4.6 0.2 2.5-2.9 24.1-27.1 24.1-27.1 0 0 4.2-6.2 0.7-14-3.5-7.9-12.3-6.7-15-5.4-2.8 1.3-7.8 3.1-10.2 11.2z"/>
				<path id="&lt;Path&gt;" class="s1" d="m740.5-784c0 0-4 4.2-8.4 6.3-4.4 2.1-8.4 0.2-11.1-2.2-2.6-2.5-2.9-8.9-1-11.7 1.8-2.8 5.5-5.4 8.6-4.4 3.2 1.1 3.2 1.1 3.2 1.1l7.8 3.7c0 0-4.1-7.1-3.6-12.8 0.5-5.7 2.3-7.1 5.3-7.7 3-0.7 5-0.2 6.6 1.7 1.6 1.9 4.2 6.4 2.1 10.7-2 4.4-3.9 8.4-3.9 8.4 0 0 2.5-1.2 6.3-2.3 3.9-1.2 6.8-1.4 9.9 0.2 3 1.6 5.7 5.3 4.5 10.5-1.2 5.2-4.3 6.4-9.6 6-5.2-0.3-9-6.4-9.8-7.5-0.8-1.1-0.9 2.8 0.3 5.8 1.2 3.1 10.1 9.1 17.5 4.4 7.4-4.8 9.2-12.5 4.2-18.5-5-6.1-24.8-26.7-24.8-26.7 0 0-2-3.1-4.5-0.2-2.5 2.8-24.2 27.1-24.2 27.1 0 0-4.2 6.1-0.7 14 3.5 7.9 12.4 6.7 15.1 5.4 2.7-1.3 7.7-3.2 10.2-11.3z"/>
			</g>
			<g id="&lt;Group&gt;">
				<path id="&lt;Path&gt;" class="s1" d="m703.8-828.2c0 0-4.1-4-6.2-8.4-2.1-4.4-0.2-8.4 2.2-11.1 2.4-2.6 8.9-2.9 11.7-1 2.7 1.9 5.4 5.5 4.4 8.7-1.1 3.1-1.1 3.1-1.1 3.1l-3.8 7.9c0 0 7.2-4.1 12.9-3.6 5.6 0.4 7.1 2.3 7.7 5.3 0.7 3 0.2 4.9-1.7 6.5-1.9 1.6-6.4 4.2-10.8 2.2-4.4-2-8.3-3.9-8.3-3.9 0 0 1.2 2.4 2.3 6.3 1.1 3.8 1.4 6.7-0.2 9.8-1.6 3.1-5.4 5.7-10.5 4.5-5.2-1.1-6.4-4.3-6-9.5 0.3-5.3 6.4-9 7.5-9.9 1.1-0.8-2.8-0.9-5.8 0.3-3.1 1.2-9.1 10.1-4.4 17.5 4.8 7.4 12.4 9.3 18.5 4.2 6.1-5 26.7-24.8 26.7-24.8 0 0 3.1-2 0.2-4.5-2.9-2.5-27.1-24.2-27.1-24.2 0 0-6.1-4.1-14-0.7-7.9 3.5-6.7 12.4-5.4 15.1 1.3 2.8 3.1 7.8 11.2 10.2z"/>
				<path id="&lt;Path&gt;" class="s1" d="m782.2-823.1c0 0 4.2 4 6.3 8.4 2.1 4.4 0.2 8.4-2.3 11.1-2.4 2.6-8.8 2.9-11.6 1-2.8-1.9-5.5-5.5-4.4-8.6 1-3.2 1-3.2 1-3.2l3.8-7.9c0 0-7.2 4.2-12.8 3.7-5.7-0.5-7.2-2.3-7.8-5.3-0.6-3-0.1-5 1.8-6.6 1.8-1.6 6.3-4.2 10.7-2.2 4.4 2.1 8.3 3.9 8.3 3.9 0 0-1.2-2.4-2.3-6.2-1.1-3.9-1.4-6.8 0.2-9.9 1.6-3.1 5.4-5.7 10.6-4.5 5.1 1.2 6.3 4.3 6 9.5-0.4 5.3-6.5 9.1-7.6 9.9-1.1 0.8 2.8 0.9 5.9-0.3 3.1-1.2 9.1-10.1 4.3-17.5-4.7-7.4-12.4-9.2-18.5-4.2-6.1 5-26.7 24.8-26.7 24.8 0 0-3 2-0.2 4.5 2.9 2.5 27.1 24.2 27.1 24.2 0 0 6.2 4.2 14.1 0.7 7.8-3.5 6.7-12.4 5.3-15.1-1.3-2.7-3.1-7.8-11.2-10.2z"/>
			</g>
		</g>
		<g id="&lt;Group&gt;">
			<g id="&lt;Group&gt;">
				<path id="&lt;Path&gt;" class="s1" d="m588.7-589.4c0 0 4-4.2 8.4-6.3 4.4-2.1 8.5-0.2 11.1 2.2 2.7 2.5 2.9 8.9 1.1 11.7-1.9 2.8-5.6 5.4-8.7 4.4-3.2-1-3.2-1-3.2-1l-7.8-3.8c0 0 4.1 7.2 3.6 12.8-0.5 5.7-2.3 7.2-5.3 7.8-3 0.6-5 0.1-6.6-1.8-1.6-1.8-4.2-6.3-2.1-10.7 2-4.4 3.9-8.3 3.9-8.3 0 0-2.5 1.2-6.3 2.3-3.9 1.1-6.8 1.4-9.9-0.2-3.1-1.6-5.7-5.4-4.5-10.6 1.2-5.2 4.3-6.3 9.6-6 5.2 0.4 9 6.4 9.8 7.6 0.8 1.1 0.9-2.8-0.3-5.9-1.2-3.1-10.1-9.1-17.5-4.3-7.4 4.7-9.2 12.4-4.2 18.5 5 6 24.8 26.7 24.8 26.7 0 0 2 3 4.5 0.2 2.6-2.9 24.2-27.1 24.2-27.1 0 0 4.2-6.2 0.7-14.1-3.5-7.9-12.4-6.7-15.1-5.4-2.7 1.4-7.7 3.2-10.2 11.3z"/>
				<path id="&lt;Path&gt;" class="s1" d="m583.6-505.3c0 0-3.9 4.1-8.3 6.2-4.4 2.1-8.5 0.3-11.2-2.2-2.6-2.4-2.9-8.9-1-11.7 1.9-2.8 5.5-5.4 8.7-4.4 3.1 1.1 3.1 1.1 3.1 1.1l7.9 3.8c0 0-4.1-7.2-3.6-12.9 0.5-5.7 2.3-7.1 5.3-7.7 3-0.7 4.9-0.2 6.5 1.7 1.6 1.9 4.2 6.4 2.2 10.8-2 4.4-3.9 8.3-3.9 8.3 0 0 2.4-1.2 6.3-2.3 3.8-1.2 6.8-1.4 9.8 0.2 3.1 1.6 5.8 5.3 4.6 10.5-1.2 5.2-4.4 6.4-9.6 6-5.2-0.3-9-6.4-9.8-7.5-0.9-1.1-1 2.8 0.2 5.9 1.2 3 10.2 9 17.6 4.3 7.4-4.8 9.2-12.5 4.2-18.5-5.1-6.1-24.8-26.7-24.8-26.7 0 0-2.1-3.1-4.6-0.2-2.5 2.8-24.1 27.1-24.1 27.1 0 0-4.2 6.1-0.7 14 3.4 7.9 12.3 6.7 15 5.4 2.8-1.3 7.8-3.1 10.2-11.2z"/>
			</g>
			<g id="&lt;Group&gt;">
				<path id="&lt;Path&gt;" class="s1" d="m547-549.6c0 0-4.2-4-6.3-8.4-2.1-4.4-0.2-8.4 2.2-11.1 2.5-2.6 8.9-2.9 11.7-1 2.8 1.9 5.4 5.5 4.4 8.6-1.1 3.2-1.1 3.2-1.1 3.2l-3.7 7.9c0 0 7.2-4.2 12.8-3.7 5.7 0.5 7.1 2.3 7.8 5.3 0.6 3.1 0.1 5-1.8 6.6-1.9 1.6-6.3 4.2-10.7 2.2-4.4-2-8.3-3.9-8.3-3.9 0 0 1.2 2.4 2.3 6.3 1.1 3.8 1.4 6.7-0.2 9.8-1.6 3.1-5.4 5.7-10.6 4.5-5.2-1.1-6.3-4.3-6-9.5 0.4-5.3 6.4-9 7.6-9.9 1.1-0.8-2.8-0.9-5.9 0.3-3.1 1.2-9.1 10.1-4.4 17.5 4.8 7.4 12.5 9.3 18.6 4.2 6-5 26.6-24.8 26.6-24.8 0 0 3.1-2 0.3-4.5-2.9-2.5-27.1-24.2-27.1-24.2 0 0-6.2-4.2-14.1-0.7-7.9 3.5-6.7 12.4-5.4 15.1 1.4 2.7 3.2 7.8 11.3 10.2z"/>
				<path id="&lt;Path&gt;" class="s1" d="m625.4-544.5c0 0 4.2 4 6.3 8.4 2.1 4.4 0.2 8.4-2.3 11.1-2.4 2.6-8.8 2.9-11.6 1-2.8-1.9-5.5-5.5-4.4-8.6 1-3.2 1-3.2 1-3.2l3.8-7.9c0 0-7.2 4.1-12.9 3.7-5.6-0.5-7.1-2.3-7.7-5.4-0.7-3-0.2-4.9 1.7-6.5 1.9-1.6 6.4-4.2 10.8-2.2 4.4 2 8.3 3.9 8.3 3.9 0 0-1.2-2.4-2.3-6.3-1.1-3.8-1.4-6.7 0.2-9.8 1.6-3.1 5.4-5.7 10.5-4.5 5.2 1.1 6.4 4.3 6 9.5-0.3 5.3-6.4 9-7.5 9.9-1.1 0.8 2.8 0.9 5.9-0.3 3-1.2 9.1-10.1 4.3-17.5-4.7-7.4-12.4-9.3-18.5-4.2-6.1 5-26.7 24.8-26.7 24.8 0 0-3.1 2-0.2 4.5 2.9 2.5 27.1 24.2 27.1 24.2 0 0 6.2 4.2 14 0.7 7.9-3.5 6.8-12.4 5.4-15.1-1.3-2.7-3.1-7.8-11.2-10.2z"/>
			</g>
		</g>
		<path id="&lt;Path&gt;" class="s1" d="m650.8-515.1h-1v-64.6h1z"/>
		<g id="&lt;Group&gt;">
			<path id="&lt;Compound Path&gt;" class="s1" d="m585.9-755.8h5.5v1l-1.7 0.4v4.1h5.6v-4.1l-1.6-0.5 0.1-0.9h5.4l0.1 1-1.8 0.4v10l1.8 0.4v0.9h-5.5l-0.1-0.8 1.6-0.5v-4.7h-5.6v4.7l1.7 0.4v0.9h-5.5v-0.8l1.6-0.5v-10l-1.6-0.5z"/>
			<path id="&lt;Compound Path&gt;" class="s1" d="m606.7-743.1h-5.5l-0.1-0.8 1.7-0.5v-10l-1.7-0.5 0.1-0.9h5.5v0.9l-1.8 0.5v10l1.8 0.4z"/>
			<path id="&lt;Compound Path&gt;" class="s1" d="m613.2-756.1q0.5 0 1.3 0.1 0.8 0.1 1.7 0.5l0.3-0.6h0.7l0.1 4-0.8 0.1-0.7-2.1q-0.6-0.3-1.3-0.4-0.6-0.2-1.3-0.2-0.9 0-1.5 0.4-0.5 0.4-0.5 1.2 0 0.7 0.9 1.2 0.9 0.6 2.5 1.3 0.8 0.3 1.4 0.7 0.6 0.3 1.1 0.8 0.4 0.4 0.7 1 0.2 0.6 0.2 1.4 0 0.8-0.2 1.5-0.3 0.7-0.9 1.2-0.6 0.6-1.6 0.9-0.9 0.3-2.3 0.3-0.2 0-0.6 0-0.4 0-0.9-0.1-0.4-0.1-0.8-0.2-0.4-0.1-0.8-0.3l-0.3 0.6h-0.8l-0.1-4.3 0.8-0.1 0.7 2.1q0.7 0.5 1.5 0.7 0.7 0.2 1.4 0.2 1.4 0 2.1-0.6 0.6-0.5 0.6-1.4 0-0.5-0.2-0.9-0.2-0.4-0.7-0.7-0.4-0.4-0.9-0.6-0.6-0.3-1.3-0.6-0.9-0.4-1.6-0.8-0.7-0.4-1.2-0.8-0.5-0.4-0.7-1-0.2-0.5-0.2-1.2 0-0.6 0.2-1.2 0.3-0.6 0.8-1.1 0.5-0.4 1.3-0.7 0.8-0.3 1.9-0.3z"/>
			<path id="&lt;Compound Path&gt;" class="s1" d="m624.7-755.7q1.4 0 2.7-0.1 1.3 0 2.7 0l0.2 0.1 0.1 3.6-0.9 0.1-0.8-2.5h-2.9v10.1l1.8 0.4-0.1 0.9h-5.5l-0.1-0.8 1.7-0.5v-10.1h-2.9l-0.8 2.5-0.8-0.1v-3.6l0.2-0.1q1.4 0 2.6 0 1.3 0.1 2.8 0.1z"/>
			<path id="&lt;Compound Path&gt;" fill-rule="evenodd" class="s1" d="m643.2-749.6q0 1.4-0.3 2.6-0.3 1.3-1 2.2-0.7 0.9-1.9 1.5-1.1 0.5-2.7 0.5-2.7 0-4.2-1.7-1.4-1.7-1.4-4.8 0-1.3 0.3-2.6 0.3-1.2 1-2.1 0.7-1 1.8-1.5 1.2-0.6 2.7-0.6 1.4 0 2.4 0.5 1.1 0.4 1.8 1.3 0.8 0.8 1.1 2 0.4 1.2 0.4 2.7zm-5.8-5.1q-1 0-1.7 0.4-0.6 0.4-1 1.1-0.5 0.7-0.6 1.7-0.2 0.9-0.2 1.9 0 1.2 0.2 2.2 0.2 1 0.6 1.7 0.4 0.7 1.1 1.1 0.7 0.4 1.7 0.4 1 0 1.6-0.4 0.7-0.5 1.1-1.2 0.5-0.7 0.6-1.6 0.2-0.9 0.2-1.9 0-1.1-0.2-2.1-0.1-1-0.6-1.7-0.4-0.8-1.1-1.2-0.7-0.4-1.7-0.4z"/>
			<path id="&lt;Compound Path&gt;" fill-rule="evenodd" class="s1" d="m650.8-748.5h-0.3q-0.3 0-0.7 0-0.5 0-1.1-0.2v4.3l1.8 0.4v0.9h-5.5v-0.8l1.6-0.5v-10.1l-1.5-0.4 0.1-0.9q0.3 0 0.6 0 0.2 0 0.5 0 0.2 0 0.6 0 0.3 0.1 0.7 0.1 0.9 0 1.8-0.1 0.9 0 1.7 0 0.9 0 1.7 0.2 0.8 0.2 1.4 0.6 0.6 0.4 0.9 1.1 0.3 0.6 0.3 1.5 0 0.6-0.1 1.2-0.2 0.5-0.5 1-0.4 0.5-0.9 0.8-0.5 0.4-1.3 0.6l4.1 5.2-0.2 0.6-1.8 0.4zm2.5-3.8q0-0.6-0.3-1.1-0.2-0.4-0.6-0.7-0.4-0.3-1-0.4-0.6-0.1-1.3-0.1-0.7 0-1.4 0.2v4.4q0.4 0.1 0.8 0.1 0.4 0 0.6 0 1 0 1.6-0.2 0.6-0.2 1-0.6 0.3-0.3 0.4-0.7 0.2-0.5 0.2-0.9z"/>
			<path id="&lt;Compound Path&gt;" class="s1" d="m663.7-743.1h-5.5l-0.1-0.8 1.7-0.5v-10l-1.7-0.5 0.1-0.9h5.5v0.9l-1.8 0.5v10l1.8 0.4z"/>
			<path id="&lt;Compound Path&gt;" class="s1" d="m665.9-749.2q0-1.3 0.3-2.5 0.3-1.2 1-2.2 0.7-1 1.8-1.6 1-0.6 2.6-0.6 0.7 0 1.4 0.1 0.8 0.2 1.6 0.6l0.4-0.7h0.8l0.1 3.9-0.9 0.1-0.7-1.8q-0.5-0.4-1.1-0.6-0.6-0.1-1.4-0.1-1 0-1.7 0.4-0.7 0.4-1.1 1.1-0.5 0.7-0.6 1.7-0.2 0.9-0.2 2 0 1 0.1 1.9 0.2 0.9 0.6 1.6 0.4 0.7 1.2 1.1 0.8 0.4 2 0.4 0.8 0 1.7-0.1 0.9-0.1 1.8-0.4l0.4 1.2q-1 0.5-2.1 0.7-1.2 0.2-2.2 0.2-2.8 0-4.3-1.6-1.5-1.6-1.5-4.8z"/>
			<path id="&lt;Compound Path&gt;" fill-rule="evenodd" class="s1" d="m684.9-747.1h-4.5l-0.9 2.7 1.8 0.4v0.9h-4.7l-0.1-0.9 1.4-0.4 3.6-9.2q0.2-0.6 0.4-1.1 0.2-0.5 0.3-1.1l1.6-0.3 0.1 0.1 4.5 11.6 1.1 0.4-0.1 0.9h-5.1v-0.9l1.5-0.4zm-3.2-3.5l-0.8 2.3h3.6l-0.8-2.3-1-2.9h-0.1z"/>
			<path id="&lt;Compound Path&gt;" class="s1" d="m700.9-746.9l-0.5 3.6-0.2 0.2q-0.7 0-1.2 0-0.6 0-1.1 0-0.6 0-1.2 0-0.6 0-1.4 0-0.5 0-1.1 0-0.6 0-1.3 0-0.7 0-1.4 0-0.6 0-1.2 0v-0.8l1.6-0.5v-10l-1.7-0.5 0.1-0.9h5.5v0.9l-1.8 0.5v9.9q0.4 0 1 0 0.7 0 1.5 0 0.8 0 1.4 0 0.7 0 1.1 0l1.2-2.5z"/>
			<path id="&lt;Compound Path&gt;" class="s1" d="m711.1-753.1h-0.1l-0.4 8.7 1.9 0.4v0.9h-5.3v-0.9l1.9-0.5 0.7-9.9-1.8-0.5 0.1-0.9q0.7 0 1.2 0 0.5 0 1 0 0.5 0 1 0 0.5 0 1.2 0 0 0.3 0.1 0.5 0.1 0.3 0.2 0.6l2 4.5 1.4 3.5h0.1l1.5-3.8 2.3-5.3q0.8 0 1.9 0 1.2 0 2.3 0v0.9l-1.8 0.5 0.7 10 1.8 0.4-0.1 0.9h-5.6v-0.8l1.6-0.5-0.4-8.9h-0.1l-4 9.7h-1.2z"/>
			<path id="&lt;Compound Path&gt;" class="s1" d="m736.1-754.4l-1.7-0.5 0.1-0.9h4.8l0.1 1-1.8 0.4v7.2q0 1.3-0.4 2.1-0.5 0.9-1.2 1.4-0.7 0.5-1.6 0.7-0.9 0.2-1.9 0.2-0.9 0-1.7-0.2-0.9-0.2-1.5-0.7-0.7-0.5-1.1-1.3-0.4-0.7-0.4-1.9v-7.5l-1.6-0.5v-0.9h5.5v1l-1.7 0.4v6.7q0 0.7 0.1 1.3 0.1 0.7 0.4 1.1 0.4 0.5 1 0.8 0.6 0.2 1.6 0.2 0.9 0 1.5-0.3 0.6-0.2 0.9-0.7 0.3-0.5 0.4-1.2 0.2-0.7 0.2-1.4z"/>
			<path id="&lt;Compound Path&gt;" class="s1" d="m745.2-756.1q0.4 0 1.2 0.1 0.8 0.1 1.8 0.5l0.3-0.6h0.7v4l-0.7 0.1-0.8-2.1q-0.5-0.3-1.2-0.4-0.7-0.2-1.3-0.2-1 0-1.5 0.4-0.6 0.4-0.6 1.2 0 0.7 0.9 1.2 1 0.6 2.6 1.3 0.7 0.3 1.3 0.7 0.6 0.3 1.1 0.8 0.5 0.4 0.7 1 0.3 0.6 0.3 1.4 0 0.8-0.3 1.5-0.3 0.7-0.9 1.2-0.6 0.6-1.5 0.9-1 0.3-2.3 0.3-0.3 0-0.7 0-0.4 0-0.8-0.1-0.4-0.1-0.9-0.2-0.4-0.1-0.7-0.3l-0.4 0.6h-0.7l-0.1-4.3 0.8-0.1 0.7 2.1q0.6 0.5 1.4 0.7 0.8 0.2 1.4 0.2 1.5 0 2.1-0.6 0.6-0.5 0.6-1.4 0-0.5-0.2-0.9-0.2-0.4-0.6-0.7-0.4-0.4-1-0.6-0.6-0.3-1.3-0.6-0.9-0.4-1.6-0.8-0.7-0.4-1.1-0.8-0.5-0.4-0.8-1-0.2-0.5-0.2-1.2 0-0.6 0.2-1.2 0.3-0.6 0.8-1.1 0.5-0.4 1.3-0.7 0.9-0.3 2-0.3z"/>
			<path id="&lt;Compound Path&gt;" class="s1" d="m761.8-746.7l-0.4 3.4-0.2 0.2q-0.7 0-1.2 0-0.6 0-1.1 0-0.6 0-1.2 0-0.5 0-1.3 0-0.5 0-1.1 0-0.6 0-1.3 0-0.6 0-1.3 0-0.6 0-1.2 0v-0.8l1.6-0.5v-10.1l-1.5-0.4 0.1-0.9q0.5 0 1.2 0 0.6 0.1 1.3 0.1 0.7 0 1.3 0 0.6 0 1 0 0.6 0 1.1-0.1 0.5 0 1 0 0.5 0 1 0 0.6 0 1.2 0l0.2 0.1 0.1 3.5-0.9 0.1-0.7-2.3h-4.3v4.1l4.6-0.1v1.5l-4.6-0.2v4.6q0.4 0 1 0 0.7 0 1.4 0 0.7 0 1.4 0 0.6 0 0.9 0l1.2-2.4z"/>
			<path id="&lt;Compound Path&gt;" class="s1" d="m772.9-754.4l-1.6-0.5v-0.9h4.9v1l-1.7 0.4v7.2q0 1.3-0.5 2.1-0.4 0.9-1.1 1.4-0.7 0.5-1.6 0.7-0.9 0.2-1.9 0.2-0.9 0-1.8-0.2-0.8-0.2-1.5-0.7-0.6-0.5-1-1.3-0.4-0.7-0.4-1.9v-7.5l-1.7-0.5 0.1-0.9h5.5v1l-1.7 0.4v6.7q0 0.7 0.1 1.3 0.1 0.7 0.4 1.1 0.3 0.5 0.9 0.8 0.6 0.2 1.6 0.2 1 0 1.6-0.3 0.6-0.2 0.9-0.7 0.3-0.5 0.4-1.2 0.1-0.7 0.1-1.4z"/>
			<path id="&lt;Compound Path&gt;" class="s1" d="m781.1-753.1h-0.1l-0.4 8.7 2 0.4-0.1 0.9h-5.3v-0.9l1.9-0.5 0.8-9.9-1.9-0.5 0.2-0.9q0.6 0 1.1 0 0.5 0 1 0 0.5 0 1 0 0.5 0 1.2 0 0.1 0.3 0.1 0.5 0.1 0.3 0.2 0.6l2 4.5 1.4 3.5h0.1l1.6-3.8 2.2-5.3q0.8 0 2 0 1.1 0 2.2 0v0.9l-1.8 0.5 0.7 10 1.8 0.4v0.9h-5.7v-0.8l1.6-0.5-0.4-8.9h-0.1l-4 9.7h-1.2z"/>
			<path id="&lt;Compound Path&gt;" fill-rule="evenodd" class="s1" d="m813.9-749.6q0 1.4-0.4 2.6-0.3 1.3-1 2.2-0.7 0.9-1.8 1.5-1.1 0.5-2.7 0.5-2.7 0-4.2-1.7-1.5-1.7-1.5-4.8 0-1.3 0.3-2.6 0.4-1.2 1.1-2.1 0.7-1 1.8-1.5 1.1-0.6 2.7-0.6 1.3 0 2.4 0.5 1 0.4 1.8 1.3 0.7 0.8 1.1 2 0.4 1.2 0.4 2.7zm-5.8-5.1q-1 0-1.7 0.4-0.7 0.4-1.1 1.1-0.4 0.7-0.6 1.7-0.2 0.9-0.2 1.9 0.1 1.2 0.2 2.2 0.2 1 0.6 1.7 0.5 0.7 1.1 1.1 0.7 0.4 1.7 0.4 1 0 1.7-0.4 0.7-0.5 1.1-1.2 0.4-0.7 0.6-1.6 0.2-0.9 0.2-1.9 0-1.1-0.2-2.1-0.2-1-0.6-1.7-0.4-0.8-1.1-1.2-0.7-0.4-1.7-0.4z"/>
			<path id="&lt;Compound Path&gt;" class="s1" d="m815.8-754.9l0.1-0.9q0.4 0 1.1 0 0.7 0.1 1.4 0.1 0.6 0 1.2 0 0.6 0 1 0 0.6 0 1.2-0.1 0.5 0 1 0 0.5 0 1.1 0 0.5 0 1.1 0l0.2 0.1 0.1 3.5-0.8 0.1-0.8-2.3h-4.3v4.3l4.6-0.1v1.5l-4.6-0.2v4.5l1.8 0.4v0.9h-5.5l-0.1-0.8 1.7-0.5v-10.1z"/>
			<path id="&lt;Compound Path&gt;" class="s1" d="m836.7-756.1q0.5 0 1.3 0.1 0.8 0.1 1.7 0.5l0.3-0.6h0.7l0.1 4-0.8 0.1-0.8-2.1q-0.5-0.3-1.2-0.4-0.7-0.2-1.3-0.2-0.9 0-1.5 0.4-0.6 0.4-0.6 1.2 0 0.7 1 1.2 0.9 0.6 2.5 1.3 0.7 0.3 1.4 0.7 0.6 0.3 1 0.8 0.5 0.4 0.8 1 0.2 0.6 0.2 1.4 0 0.8-0.3 1.5-0.3 0.7-0.9 1.2-0.6 0.6-1.5 0.9-1 0.3-2.3 0.3-0.3 0-0.7 0-0.4 0-0.8-0.1-0.4-0.1-0.8-0.2-0.5-0.1-0.8-0.3l-0.3 0.6h-0.8l-0.1-4.3 0.8-0.1 0.7 2.1q0.7 0.5 1.4 0.7 0.8 0.2 1.5 0.2 1.4 0 2-0.6 0.7-0.5 0.7-1.4 0-0.5-0.2-0.9-0.3-0.4-0.7-0.7-0.4-0.4-1-0.6-0.5-0.3-1.2-0.6-0.9-0.4-1.6-0.8-0.7-0.4-1.2-0.8-0.5-0.4-0.7-1-0.3-0.5-0.3-1.2 0-0.6 0.3-1.2 0.2-0.6 0.8-1.1 0.5-0.4 1.3-0.7 0.8-0.3 1.9-0.3z"/>
			<path id="&lt;Compound Path&gt;" class="s1" d="m853.4-746.7l-0.5 3.4-0.2 0.2q-0.6 0-1.2 0-0.5 0-1.1 0-0.5 0-1.1 0-0.6 0-1.4 0-0.4 0-1.1 0-0.6 0-1.2 0-0.7 0-1.3 0-0.7 0-1.2 0l-0.1-0.8 1.6-0.5v-10.1l-1.4-0.4 0.1-0.9q0.4 0 1.1 0 0.7 0.1 1.3 0.1 0.7 0 1.3 0 0.6 0 1 0 0.6 0 1.1-0.1 0.6 0 1.1 0 0.4 0 1 0 0.5 0 1.1 0l0.2 0.1 0.1 3.5-0.8 0.1-0.8-2.3h-4.2v4.1l4.5-0.1v1.5l-4.5-0.2v4.6q0.3 0 1 0 0.6 0 1.3 0 0.7 0 1.4 0 0.6 0 1 0l1.2-2.4z"/>
			<path id="&lt;Compound Path&gt;" fill-rule="evenodd" class="s1" d="m860.5-748.5h-0.3q-0.3 0-0.7 0-0.5 0-1.1-0.2v4.3l1.8 0.4v0.9h-5.5v-0.8l1.6-0.5v-10.1l-1.5-0.4 0.1-0.9q0.3 0 0.6 0 0.2 0 0.5 0 0.2 0 0.6 0 0.3 0.1 0.7 0.1 0.9 0 1.8-0.1 0.9 0 1.7 0 0.9 0 1.7 0.2 0.8 0.2 1.4 0.6 0.6 0.4 0.9 1.1 0.3 0.6 0.3 1.5 0 0.6-0.1 1.2-0.2 0.5-0.5 1-0.4 0.5-0.9 0.8-0.5 0.4-1.3 0.6l4.1 5.2-0.2 0.6-1.8 0.4zm2.5-3.8q0-0.6-0.3-1.1-0.2-0.4-0.6-0.7-0.4-0.3-1-0.4-0.6-0.1-1.3-0.1-0.7 0-1.4 0.2v4.4q0.4 0.1 0.8 0.1 0.4 0 0.6 0 1 0 1.6-0.2 0.6-0.2 1-0.6 0.3-0.3 0.4-0.7 0.2-0.5 0.2-0.9z"/>
			<path id="&lt;Compound Path&gt;" fill-rule="evenodd" class="s1" d="m867.5-754.9l0.2-0.9q0.5 0 1.1 0 0.5 0 1 0 0.9 0 2 0 1 0 1.9 0 1.2 0 2 0.3 0.7 0.3 1.1 0.8 0.4 0.4 0.6 0.9 0.1 0.5 0.1 0.9 0 0.5-0.2 1-0.2 0.5-0.5 0.8-0.4 0.3-0.7 0.5-0.4 0.2-0.8 0.3v0.1q1.4 0.2 2.2 1.1 0.8 0.9 0.8 2.3 0 0.8-0.3 1.5-0.3 0.7-0.8 1.2-0.6 0.5-1.3 0.7-0.8 0.3-1.6 0.3-0.9 0-1.9 0-1 0-2 0-0.8 0-1.5 0-0.7 0-1.4 0l-0.1-0.8 1.6-0.5v-10.1zm5 4.3q0.9 0 1.5-0.2 0.6-0.3 0.9-0.6 0.3-0.3 0.4-0.6 0.2-0.3 0.2-0.5 0-1-0.8-1.5-0.7-0.4-1.9-0.4-0.1 0-0.3 0-0.2 0-0.5 0-0.2 0-0.4 0-0.3 0-0.4 0.1v9.7q0.1 0 0.4 0.1 0.3 0 0.5 0.1 0.3 0 0.5 0 0.3 0 0.5 0 1.6 0 2.3-0.7 0.8-0.6 0.8-1.8 0-0.5-0.2-1-0.2-0.5-0.6-0.8-0.4-0.4-1.1-0.6-0.7-0.2-1.8-0.2l-0.1-0.9z"/>
			<path id="&lt;Compound Path&gt;" class="s1" d="m885.9-743.1h-5.5v-0.8l1.7-0.5v-10l-1.7-0.5v-0.9h5.5l0.1 0.9-1.8 0.5v10l1.8 0.4z"/>
			<path id="&lt;Compound Path&gt;" fill-rule="evenodd" class="s1" d="m895.6-747.1h-4.5l-0.8 2.7 1.7 0.4v0.9h-4.7l-0.1-0.9 1.4-0.4 3.6-9.2q0.2-0.6 0.4-1.1 0.2-0.5 0.3-1.1l1.6-0.3 0.1 0.1 4.5 11.6 1.1 0.4-0.1 0.9h-5.1v-0.9l1.5-0.4zm-3.2-3.5l-0.8 2.3h3.6l-0.8-2.3-1-2.9h-0.1z"/>
		</g>
		<g id="&lt;Group&gt;">
			<path id="&lt;Compound Path&gt;" class="s1" d="m662.4-553.8h5.5v0.9l-1.7 0.5v4.1h5.6v-4.1l-1.6-0.5 0.1-0.9h5.4l0.1 0.9-1.8 0.5v9.9l1.8 0.5-0.1 0.9h-5.5v-0.8l1.6-0.6v-4.6h-5.6v4.6l1.7 0.5v0.9h-5.5l-0.1-0.8 1.7-0.6v-9.9l-1.6-0.5z"/>
			<path id="&lt;Compound Path&gt;" class="s1" d="m683.2-541.1h-5.6v-0.8l1.7-0.5v-10l-1.7-0.5v-0.9h5.6v0.9l-1.8 0.5v10l1.8 0.4z"/>
			<path id="&lt;Compound Path&gt;" class="s1" d="m689.7-554.1q0.5 0 1.3 0.1 0.8 0.1 1.7 0.5l0.3-0.6h0.7l0.1 4-0.8 0.1-0.8-2.1q-0.5-0.3-1.2-0.4-0.7-0.2-1.3-0.2-0.9 0-1.5 0.4-0.6 0.4-0.6 1.1 0 0.7 1 1.3 0.9 0.6 2.5 1.3 0.7 0.3 1.4 0.6 0.6 0.4 1 0.9 0.5 0.4 0.8 1 0.2 0.6 0.2 1.4 0 0.8-0.3 1.5-0.3 0.7-0.9 1.2-0.6 0.6-1.5 0.9-1 0.3-2.3 0.3-0.3 0-0.7 0-0.4-0.1-0.8-0.1-0.4-0.1-0.8-0.2-0.5-0.1-0.8-0.3l-0.3 0.6h-0.8l-0.1-4.4h0.8l0.7 2.1q0.7 0.5 1.4 0.7 0.8 0.2 1.5 0.2 1.4 0 2-0.6 0.7-0.5 0.7-1.4 0-0.5-0.2-0.9-0.3-0.4-0.7-0.7-0.4-0.4-1-0.7-0.5-0.3-1.2-0.5-0.9-0.4-1.6-0.8-0.7-0.4-1.2-0.8-0.5-0.5-0.7-1-0.3-0.5-0.3-1.2 0-0.6 0.3-1.2 0.2-0.6 0.8-1.1 0.5-0.5 1.3-0.7 0.8-0.3 1.9-0.3z"/>
			<path id="&lt;Compound Path&gt;" class="s1" d="m701.2-553.8q1.4 0 2.7 0 1.3 0 2.6 0l0.3 0.1v3.6l-0.8 0.1-0.8-2.5h-3v10.1l1.8 0.4v0.9h-5.5l-0.1-0.8 1.7-0.5v-10.1h-2.9l-0.8 2.5-0.9-0.1 0.1-3.6 0.2-0.1q1.4 0 2.6 0 1.3 0 2.8 0z"/>
			<path id="&lt;Compound Path&gt;" fill-rule="evenodd" class="s1" d="m719.7-547.6q0 1.4-0.3 2.6-0.4 1.2-1.1 2.2-0.7 0.9-1.8 1.5-1.1 0.5-2.7 0.5-2.7 0-4.2-1.7-1.5-1.7-1.5-4.8 0-1.4 0.4-2.6 0.3-1.2 1-2.2 0.7-0.9 1.8-1.4 1.1-0.6 2.7-0.6 1.3 0 2.4 0.5 1.1 0.4 1.8 1.3 0.7 0.8 1.1 2 0.4 1.2 0.4 2.7zm-5.8-5.1q-1 0-1.7 0.4-0.7 0.4-1.1 1.1-0.4 0.7-0.6 1.6-0.1 1-0.1 1.9 0 1.3 0.2 2.3 0.1 1 0.6 1.7 0.4 0.7 1.1 1.1 0.6 0.4 1.6 0.4 1 0 1.7-0.4 0.7-0.5 1.1-1.2 0.4-0.7 0.6-1.6 0.2-0.9 0.2-1.9 0-1.1-0.2-2.1-0.2-1-0.6-1.8-0.4-0.7-1.1-1.1-0.7-0.4-1.7-0.4z"/>
			<path id="&lt;Compound Path&gt;" fill-rule="evenodd" class="s1" d="m727.3-546.5h-0.3q-0.3 0-0.8 0-0.4-0.1-1-0.2v4.3l1.8 0.4-0.1 0.9h-5.4l-0.1-0.8 1.7-0.5v-10.1l-1.5-0.4 0.1-0.9q0.3 0 0.6 0 0.2 0 0.5 0 0.2 0 0.5 0 0.4 0 0.8 0 0.9 0 1.8 0 0.8 0 1.7 0 0.9 0 1.7 0.2 0.8 0.2 1.4 0.6 0.6 0.4 0.9 1 0.3 0.7 0.3 1.6 0 0.6-0.1 1.2-0.2 0.5-0.5 1-0.4 0.4-0.9 0.8-0.6 0.4-1.3 0.6l4.1 5.2-0.2 0.6-1.8 0.3zm2.4-3.7q0-0.7-0.2-1.1-0.2-0.5-0.6-0.7-0.4-0.3-1-0.4-0.6-0.1-1.3-0.1-0.7 0-1.4 0.1v4.5q0.4 0 0.8 0.1 0.4 0 0.6 0 1 0 1.6-0.2 0.6-0.2 0.9-0.6 0.4-0.3 0.5-0.8 0.1-0.4 0.1-0.8z"/>
			<path id="&lt;Compound Path&gt;" class="s1" d="m740.2-541.1h-5.6v-0.8l1.7-0.5v-10l-1.7-0.5v-0.9h5.6v0.9l-1.8 0.5v10l1.8 0.4z"/>
			<path id="&lt;Compound Path&gt;" class="s1" d="m742.4-547.2q0-1.3 0.3-2.5 0.3-1.2 1-2.2 0.7-1 1.7-1.6 1.1-0.6 2.7-0.6 0.7 0 1.4 0.1 0.7 0.1 1.6 0.6l0.4-0.7h0.8v3.8l-0.8 0.1-0.7-1.8q-0.5-0.3-1.1-0.5-0.7-0.1-1.4-0.1-1 0-1.7 0.4-0.7 0.4-1.1 1.1-0.5 0.7-0.7 1.7-0.1 0.9-0.1 2 0 1 0.1 1.9 0.1 0.9 0.6 1.6 0.4 0.7 1.2 1.1 0.7 0.4 2 0.4 0.8 0 1.7-0.1 0.9-0.1 1.8-0.4l0.4 1.2q-1 0.5-2.1 0.7-1.2 0.2-2.2 0.2-2.8 0-4.3-1.6-1.5-1.6-1.5-4.8z"/>
			<path id="&lt;Compound Path&gt;" fill-rule="evenodd" class="s1" d="m761.3-545.1h-4.4l-0.9 2.7 1.8 0.4-0.1 0.9h-4.7v-0.9l1.4-0.4 3.5-9.3q0.2-0.5 0.4-1 0.2-0.5 0.4-1.1l1.6-0.3h0.1l4.5 11.7 1.1 0.4-0.1 0.9h-5.1v-0.9l1.5-0.4zm-3.3-3.5l-0.8 2.3h3.7l-0.8-2.4-1-2.8h-0.1z"/>
			<path id="&lt;Compound Path&gt;" class="s1" d="m777.3-544.9l-0.4 3.6-0.2 0.2q-0.7 0-1.2 0-0.6 0-1.2 0-0.5 0-1.1 0-0.7-0.1-1.4-0.1-0.5 0-1.1 0-0.7 0-1.3 0.1-0.7 0-1.4 0-0.7 0-1.2 0l-0.1-0.8 1.7-0.5v-10l-1.7-0.5v-0.9h5.6v0.9l-1.8 0.5v9.9q0.3 0 1 0 0.7 0 1.5 0 0.7 0 1.4 0 0.7 0 1 0l1.3-2.5z"/>
			<path id="&lt;Compound Path&gt;" class="s1" d="m787.5-551.2v0.1l-0.4 8.7 1.9 0.4v0.9h-5.3v-0.9l1.8-0.5 0.8-9.9-1.8-0.6 0.1-0.8q0.7 0 1.2 0 0.5 0 1 0 0.4 0 1 0 0.5 0 1.1 0 0.1 0.3 0.2 0.5 0.1 0.3 0.2 0.5l1.9 4.6 1.5 3.4h0.1l1.5-3.7 2.3-5.3q0.8 0 1.9 0 1.1 0 2.3 0v0.9l-1.9 0.5 0.8 9.9 1.8 0.5-0.1 0.9h-5.6l-0.1-0.8 1.7-0.6-0.4-8.8h-0.1l-4.1 9.7h-1.1z"/>
			<path id="&lt;Compound Path&gt;" class="s1" d="m812.5-552.4l-1.6-0.5v-0.9h4.9l0.1 0.9-1.8 0.5v7.2q0 1.3-0.4 2.1-0.5 0.9-1.2 1.4-0.7 0.5-1.6 0.7-0.9 0.2-1.9 0.2-0.9 0-1.8-0.2-0.8-0.2-1.5-0.7-0.6-0.5-1-1.3-0.4-0.8-0.4-1.9v-7.5l-1.6-0.5v-0.9h5.5v0.9l-1.7 0.5v6.7q0 0.7 0.1 1.3 0.1 0.6 0.4 1.1 0.3 0.5 0.9 0.8 0.6 0.2 1.6 0.2 1 0 1.6-0.3 0.6-0.3 0.9-0.8 0.3-0.5 0.4-1.1 0.1-0.7 0.1-1.4z"/>
			<path id="&lt;Compound Path&gt;" class="s1" d="m821.6-554.1q0.5 0 1.3 0.1 0.8 0.1 1.7 0.5l0.4-0.6h0.7v4l-0.8 0.1-0.7-2.1q-0.6-0.3-1.2-0.4-0.7-0.2-1.4-0.2-0.9 0-1.5 0.4-0.5 0.4-0.5 1.1 0 0.7 0.9 1.3 0.9 0.6 2.5 1.3 0.8 0.3 1.4 0.6 0.6 0.4 1.1 0.9 0.4 0.4 0.7 1 0.3 0.6 0.3 1.4 0 0.8-0.3 1.5-0.3 0.7-0.9 1.2-0.6 0.6-1.6 0.9-0.9 0.3-2.2 0.3-0.3 0-0.7 0-0.4-0.1-0.8-0.1-0.5-0.1-0.9-0.2-0.4-0.1-0.7-0.3l-0.4 0.6h-0.7l-0.1-4.4h0.7l0.8 2.1q0.6 0.5 1.4 0.7 0.8 0.2 1.4 0.2 1.4 0 2.1-0.6 0.6-0.5 0.6-1.4 0-0.5-0.2-0.9-0.2-0.4-0.6-0.7-0.5-0.4-1-0.7-0.6-0.3-1.3-0.5-0.9-0.4-1.6-0.8-0.7-0.4-1.2-0.8-0.4-0.5-0.7-1-0.2-0.5-0.2-1.2 0-0.6 0.2-1.2 0.3-0.6 0.8-1.1 0.5-0.5 1.3-0.7 0.8-0.3 1.9-0.3z"/>
			<path id="&lt;Compound Path&gt;" class="s1" d="m838.3-544.8l-0.4 3.5-0.2 0.2q-0.7 0-1.2 0-0.6 0-1.1 0-0.6 0-1.2 0-0.6-0.1-1.3-0.1-0.5 0-1.1 0-0.6 0-1.3 0.1-0.6 0-1.3 0-0.6 0-1.2 0l-0.1-0.8 1.7-0.5v-10.1l-1.5-0.4 0.1-0.9q0.5 0 1.1 0 0.7 0 1.4 0 0.7 0 1.3 0 0.6 0 0.9 0 0.7 0 1.2 0 0.5 0 1 0 0.5 0 1 0 0.5 0 1.2 0l0.2 0.1 0.1 3.5-0.9 0.1-0.8-2.3h-4.2v4.1l4.6-0.1v1.4l-4.6-0.1v4.6q0.3 0 1 0 0.7 0 1.4 0 0.7 0 1.3 0 0.7 0 1 0l1.2-2.5z"/>
			<path id="&lt;Compound Path&gt;" class="s1" d="m849.4-552.4l-1.6-0.5v-0.9h4.9v0.9l-1.7 0.5v7.2q0 1.3-0.5 2.1-0.4 0.9-1.1 1.4-0.7 0.5-1.6 0.7-1 0.2-1.9 0.2-1 0-1.8-0.2-0.8-0.2-1.5-0.7-0.7-0.5-1-1.3-0.4-0.8-0.4-1.9v-7.5l-1.7-0.5 0.1-0.9h5.4l0.1 0.9-1.8 0.5v6.7q0 0.7 0.1 1.3 0.2 0.6 0.5 1.1 0.3 0.5 0.9 0.8 0.6 0.2 1.6 0.2 1 0 1.6-0.3 0.5-0.3 0.9-0.8 0.3-0.5 0.4-1.1 0.1-0.7 0.1-1.4z"/>
			<path id="&lt;Compound Path&gt;" class="s1" d="m857.6-551.2l-0.1 0.1-0.4 8.7 1.9 0.4v0.9h-5.3v-0.9l1.9-0.5 0.7-9.9-1.8-0.6 0.1-0.8q0.7 0 1.2 0 0.5 0 1 0 0.5 0 1 0 0.5 0 1.2 0 0 0.3 0.1 0.5 0.1 0.3 0.2 0.5l2 4.6 1.4 3.4h0.1l1.5-3.7 2.3-5.3q0.8 0 1.9 0 1.2 0 2.3 0v0.9l-1.8 0.5 0.7 9.9 1.8 0.5-0.1 0.9h-5.6v-0.8l1.6-0.6-0.4-8.8h-0.1l-4 9.7h-1.2z"/>
			<path id="&lt;Compound Path&gt;" fill-rule="evenodd" class="s1" d="m890.3-547.6q0.1 1.4-0.3 2.6-0.3 1.2-1 2.2-0.7 0.9-1.8 1.5-1.2 0.5-2.7 0.5-2.8 0-4.2-1.7-1.5-1.7-1.5-4.8 0-1.4 0.3-2.6 0.4-1.2 1.1-2.2 0.7-0.9 1.8-1.4 1.1-0.6 2.6-0.6 1.4 0 2.5 0.5 1 0.4 1.8 1.3 0.7 0.8 1.1 2 0.3 1.2 0.3 2.7zm-5.8-5.1q-1 0-1.6 0.4-0.7 0.4-1.1 1.1-0.4 0.7-0.6 1.6-0.2 1-0.2 1.9 0 1.3 0.2 2.3 0.2 1 0.6 1.7 0.4 0.7 1.1 1.1 0.7 0.4 1.7 0.4 1 0 1.7-0.4 0.6-0.5 1.1-1.2 0.4-0.7 0.6-1.6 0.2-0.9 0.2-1.9 0-1.1-0.2-2.1-0.2-1-0.6-1.8-0.5-0.7-1.2-1.1-0.7-0.4-1.7-0.4z"/>
			<path id="&lt;Compound Path&gt;" class="s1" d="m892.3-552.9l0.1-0.9q0.4 0 1.1 0 0.7 0 1.3 0 0.7 0 1.3 0 0.6 0 1 0 0.6 0 1.2 0 0.5 0 1 0 0.5 0 1 0 0.6 0 1.2 0l0.2 0.1 0.1 3.5-0.9 0.1-0.7-2.3h-4.3v4.3l4.5-0.1v1.4l-4.5-0.1v4.5l1.8 0.4-0.1 0.9h-5.5v-0.8l1.6-0.5v-10.1z"/>
			<path id="&lt;Compound Path&gt;" class="s1" d="m913.2-554.1q0.4 0 1.3 0.1 0.8 0.1 1.7 0.5l0.3-0.6h0.7v4l-0.7 0.1-0.8-2.1q-0.5-0.3-1.2-0.4-0.7-0.2-1.3-0.2-1 0-1.5 0.4-0.6 0.4-0.6 1.1 0 0.7 0.9 1.3 1 0.6 2.6 1.3 0.7 0.3 1.3 0.6 0.6 0.4 1.1 0.9 0.5 0.4 0.7 1 0.3 0.6 0.3 1.4 0 0.8-0.3 1.5-0.3 0.7-0.9 1.2-0.6 0.6-1.5 0.9-1 0.3-2.3 0.3-0.3 0-0.7 0-0.4-0.1-0.8-0.1-0.4-0.1-0.9-0.2-0.4-0.1-0.7-0.3l-0.4 0.6h-0.7l-0.1-4.4h0.8l0.7 2.1q0.6 0.5 1.4 0.7 0.8 0.2 1.4 0.2 1.5 0 2.1-0.6 0.7-0.5 0.7-1.4 0-0.5-0.3-0.9-0.2-0.4-0.6-0.7-0.4-0.4-1-0.7-0.6-0.3-1.2-0.5-1-0.4-1.7-0.8-0.7-0.4-1.1-0.8-0.5-0.5-0.8-1-0.2-0.5-0.2-1.2 0-0.6 0.3-1.2 0.2-0.6 0.7-1.1 0.6-0.5 1.4-0.7 0.8-0.3 1.9-0.3z"/>
			<path id="&lt;Compound Path&gt;" class="s1" d="m929.9-544.8l-0.5 3.5-0.2 0.2q-0.7 0-1.2 0-0.6 0-1.1 0-0.5 0-1.1 0-0.6-0.1-1.4-0.1-0.5 0-1.1 0-0.6 0-1.3 0.1-0.6 0-1.3 0-0.6 0-1.1 0l-0.1-0.8 1.6-0.5v-10.1l-1.5-0.4 0.1-0.9q0.5 0 1.2 0 0.6 0 1.3 0 0.7 0 1.3 0 0.6 0 1 0 0.6 0 1.1 0 0.5 0 1 0 0.5 0 1 0 0.6 0 1.2 0l0.2 0.1 0.1 3.5-0.8 0.1-0.8-2.3h-4.3v4.1l4.6-0.1v1.4l-4.6-0.1v4.6q0.4 0 1 0 0.7 0 1.4 0 0.7 0 1.4 0 0.6 0 1 0l1.2-2.5z"/>
			<path id="&lt;Compound Path&gt;" fill-rule="evenodd" class="s1" d="m937-546.5h-0.3q-0.3 0-0.7 0-0.5-0.1-1.1-0.2v4.3l1.8 0.4-0.1 0.9h-5.4v-0.8l1.6-0.5v-10.1l-1.5-0.4 0.1-0.9q0.3 0 0.6 0 0.2 0 0.5 0 0.2 0 0.5 0 0.4 0 0.8 0 0.9 0 1.8 0 0.9 0 1.7 0 0.9 0 1.7 0.2 0.8 0.2 1.4 0.6 0.6 0.4 0.9 1 0.3 0.7 0.3 1.6 0 0.6-0.1 1.2-0.2 0.5-0.5 1-0.4 0.4-0.9 0.8-0.6 0.4-1.3 0.6l4.1 5.2-0.2 0.6-1.8 0.3zm2.4-3.7q0-0.7-0.2-1.1-0.2-0.5-0.6-0.7-0.4-0.3-1-0.4-0.6-0.1-1.3-0.1-0.7 0-1.4 0.1v4.5q0.4 0 0.8 0.1 0.4 0 0.6 0 1 0 1.6-0.2 0.6-0.2 0.9-0.6 0.4-0.3 0.5-0.8 0.1-0.4 0.1-0.8z"/>
			<path id="&lt;Compound Path&gt;" fill-rule="evenodd" class="s1" d="m944-552.9l0.1-0.9q0.6 0 1.1 0 0.6 0 1.1 0 0.9 0 2 0 1 0 1.9 0 1.2 0 1.9 0.3 0.8 0.3 1.2 0.8 0.4 0.4 0.6 0.9 0.1 0.5 0.1 0.9 0 0.5-0.2 1-0.2 0.4-0.5 0.8-0.4 0.3-0.8 0.5-0.4 0.2-0.7 0.3v0.1q1.4 0.2 2.2 1.1 0.8 0.9 0.8 2.3 0 0.8-0.3 1.5-0.3 0.7-0.9 1.2-0.5 0.5-1.2 0.7-0.8 0.3-1.6 0.3-1 0-2 0-1-0.1-2-0.1-0.7 0-1.4 0-0.7 0-1.5 0.1v-0.8l1.6-0.6v-10zm5 4.3q0.9 0 1.5-0.2 0.6-0.3 0.9-0.6 0.3-0.3 0.4-0.6 0.1-0.3 0.1-0.5 0-1.1-0.7-1.5-0.7-0.5-2-0.5-0.1 0-0.3 0-0.2 0.1-0.4 0.1-0.2 0-0.5 0-0.2 0-0.4 0v9.8q0.2 0 0.5 0.1 0.2 0 0.5 0 0.3 0.1 0.5 0.1 0.3 0 0.4 0 1.6 0 2.4-0.7 0.8-0.7 0.8-1.8 0-0.5-0.2-1-0.2-0.5-0.6-0.8-0.4-0.4-1.1-0.6-0.7-0.2-1.8-0.2l-0.2-0.9z"/>
			<path id="&lt;Compound Path&gt;" class="s1" d="m962.4-541.1h-5.5v-0.8l1.6-0.5v-10l-1.6-0.5v-0.9h5.5v0.9l-1.7 0.5v10l1.7 0.4z"/>
			<path id="&lt;Compound Path&gt;" fill-rule="evenodd" class="s1" d="m972-545.1h-4.4l-0.9 2.7 1.8 0.4-0.1 0.9h-4.7v-0.9l1.4-0.4 3.5-9.3q0.3-0.5 0.4-1 0.2-0.5 0.4-1.1l1.6-0.3h0.1l4.5 11.7 1.1 0.4-0.1 0.9h-5.1v-0.9l1.5-0.4zm-3.3-3.5l-0.8 2.3h3.7l-0.8-2.4-1-2.8h-0.1z"/>
		</g>
		<g id="&lt;Group&gt;">
			<g id="&lt;Group&gt;">
				<path id="&lt;Path&gt;" class="s0" d="m732.3-272.3c0 0 3.9-4.2 8.3-6.3 4.4-2.1 8.5-0.2 11.1 2.2 2.7 2.5 3 8.9 1.1 11.7-1.9 2.8-5.5 5.4-8.7 4.4-3.1-1.1-3.1-1.1-3.1-1.1l-7.9-3.8c0 0 4.1 7.2 3.6 12.9-0.5 5.6-2.3 7.1-5.3 7.7-3 0.7-4.9 0.2-6.5-1.7-1.6-1.9-4.2-6.4-2.2-10.8 2-4.4 3.9-8.3 3.9-8.3 0 0-2.4 1.2-6.3 2.3-3.8 1.2-6.7 1.4-9.8-0.2-3.1-1.6-5.7-5.3-4.6-10.5 1.2-5.2 4.4-6.4 9.6-6 5.2 0.3 9 6.4 9.9 7.5 0.8 1.1 0.9-2.8-0.3-5.8-1.2-3.1-10.1-9.1-17.5-4.4-7.4 4.8-9.3 12.5-4.2 18.5 5 6.1 24.7 26.7 24.7 26.7 0 0 2.1 3.1 4.6 0.2 2.5-2.9 24.1-27.1 24.1-27.1 0 0 4.2-6.1 0.7-14-3.5-7.9-12.3-6.7-15-5.4-2.8 1.3-7.8 3.2-10.2 11.3z"/>
				<path id="&lt;Path&gt;" class="s0" d="m727.2-188.3c0 0-4 4.2-8.4 6.3-4.4 2-8.4 0.2-11.1-2.3-2.6-2.4-2.9-8.8-1-11.6 1.9-2.8 5.5-5.5 8.6-4.4 3.2 1 3.2 1 3.2 1l7.9 3.8c0 0-4.2-7.2-3.7-12.9 0.5-5.6 2.3-7.1 5.3-7.7 3-0.6 5-0.2 6.6 1.7 1.6 1.9 4.2 6.4 2.2 10.8-2.1 4.4-4 8.3-4 8.3 0 0 2.5-1.2 6.3-2.3 3.9-1.1 6.8-1.4 9.9 0.2 3 1.6 5.7 5.4 4.5 10.5-1.2 5.2-4.3 6.4-9.6 6-5.2-0.3-9-6.4-9.8-7.5-0.8-1.1-0.9 2.8 0.3 5.9 1.2 3 10.1 9 17.5 4.3 7.4-4.8 9.2-12.4 4.2-18.5-5-6.1-24.8-26.7-24.8-26.7 0 0-2-3-4.5-0.2-2.5 2.9-24.2 27.1-24.2 27.1 0 0-4.2 6.1-0.7 14 3.5 7.9 12.4 6.7 15.1 5.4 2.7-1.3 7.7-3.1 10.2-11.2z"/>
			</g>
			<g id="&lt;Group&gt;">
				<path id="&lt;Path&gt;" class="s0" d="m690.6-232.5c0 0-4.2-4-6.3-8.4-2.1-4.4-0.2-8.5 2.2-11.1 2.4-2.7 8.9-3 11.7-1.1 2.8 1.9 5.4 5.5 4.4 8.7-1.1 3.1-1.1 3.1-1.1 3.1l-3.8 7.9c0 0 7.2-4.1 12.9-3.6 5.6 0.5 7.1 2.3 7.7 5.3 0.7 3 0.2 4.9-1.7 6.6-1.9 1.6-6.4 4.1-10.8 2.1-4.4-2-8.3-3.9-8.3-3.9 0 0 1.2 2.5 2.3 6.3 1.2 3.8 1.4 6.8-0.2 9.8-1.6 3.1-5.3 5.8-10.5 4.6-5.2-1.2-6.4-4.4-6-9.6 0.3-5.2 6.4-9 7.5-9.8 1.1-0.9-2.8-0.9-5.8 0.2-3.1 1.2-9.1 10.2-4.4 17.6 4.8 7.4 12.5 9.2 18.5 4.2 6.1-5.1 26.7-24.8 26.7-24.8 0 0 3.1-2.1 0.2-4.6-2.9-2.5-27.1-24.1-27.1-24.1 0 0-6.1-4.2-14-0.7-7.9 3.5-6.7 12.3-5.4 15.1 1.3 2.7 3.2 7.7 11.3 10.2z"/>
				<path id="&lt;Path&gt;" class="s0" d="m768.9-227.5c0 0 4.2 4 6.3 8.4 2.1 4.4 0.2 8.5-2.3 11.1-2.4 2.7-8.8 2.9-11.6 1.1-2.8-1.9-5.5-5.6-4.4-8.7 1-3.1 1-3.1 1-3.1l3.8-7.9c0 0-7.2 4.1-12.8 3.6-5.7-0.5-7.2-2.3-7.8-5.3-0.6-3-0.1-5 1.8-6.6 1.8-1.6 6.3-4.2 10.7-2.1 4.4 2 8.3 3.9 8.3 3.9 0 0-1.2-2.5-2.3-6.3-1.1-3.8-1.4-6.8 0.2-9.9 1.6-3 5.4-5.7 10.6-4.5 5.1 1.2 6.3 4.3 6 9.6-0.4 5.2-6.5 9-7.6 9.8-1.1 0.9 2.8 0.9 5.9-0.3 3.1-1.1 9.1-10.1 4.3-17.5-4.7-7.4-12.4-9.2-18.5-4.2-6.1 5.1-26.6 24.8-26.6 24.8 0 0-3.1 2-0.3 4.6 2.9 2.5 27.1 24.1 27.1 24.1 0 0 6.2 4.2 14.1 0.7 7.9-3.5 6.7-12.4 5.3-15.1-1.3-2.7-3.1-7.7-11.2-10.2z"/>
			</g>
		</g>
		<g id="&lt;Group&gt;">
			<g id="&lt;Group&gt;">
				<path id="&lt;Path&gt;" class="s0" d="m575.4 6.2c0 0 4-4.2 8.4-6.3 4.4-2.1 8.5-0.2 11.1 2.3 2.7 2.4 2.9 8.8 1.1 11.6-1.9 2.8-5.6 5.5-8.7 4.4-3.1-1-3.1-1-3.1-1l-7.9-3.8c0 0 4.1 7.2 3.6 12.9-0.5 5.6-2.3 7.1-5.3 7.7-3 0.6-5 0.2-6.6-1.7-1.6-1.9-4.2-6.4-2.1-10.8 2-4.4 3.9-8.3 3.9-8.3 0 0-2.5 1.2-6.3 2.3-3.9 1.1-6.8 1.4-9.9-0.2-3-1.6-5.7-5.4-4.5-10.6 1.2-5.1 4.3-6.3 9.6-6 5.2 0.4 9 6.5 9.8 7.6 0.8 1.1 0.9-2.8-0.3-5.9-1.2-3.1-10.1-9.1-17.5-4.3-7.4 4.7-9.2 12.4-4.2 18.5 5 6.1 24.8 26.7 24.8 26.7 0 0 2 3.1 4.5 0.2 2.6-2.9 24.2-27.1 24.2-27.1 0 0 4.2-6.2 0.7-14.1-3.5-7.8-12.4-6.7-15.1-5.3-2.7 1.3-7.7 3.1-10.2 11.2z"/>
				<path id="&lt;Path&gt;" class="s0" d="m570.3 90.3c0 0-3.9 4.2-8.3 6.3-4.4 2.1-8.5 0.2-11.1-2.3-2.7-2.4-3-8.8-1.1-11.6 1.9-2.8 5.5-5.5 8.7-4.4 3.1 1 3.1 1 3.1 1l7.9 3.8c0 0-4.1-7.2-3.6-12.9 0.5-5.6 2.3-7.1 5.3-7.7 3-0.6 4.9-0.2 6.5 1.7 1.7 1.9 4.2 6.4 2.2 10.8-2 4.4-3.9 8.3-3.9 8.3 0 0 2.4-1.2 6.3-2.3 3.8-1.1 6.8-1.4 9.8 0.2 3.1 1.6 5.8 5.4 4.6 10.6-1.2 5.1-4.4 6.3-9.6 6-5.2-0.4-9-6.5-9.8-7.6-0.9-1.1-1 2.8 0.2 5.9 1.2 3.1 10.2 9.1 17.6 4.3 7.4-4.7 9.2-12.4 4.2-18.5-5.1-6.1-24.8-26.7-24.8-26.7 0 0-2.1-3.1-4.6-0.2-2.5 2.9-24.1 27.1-24.1 27.1 0 0-4.2 6.2-0.7 14.1 3.5 7.8 12.3 6.7 15 5.3 2.8-1.3 7.8-3.1 10.2-11.2z"/>
			</g>
			<g id="&lt;Group&gt;">
				<path id="&lt;Path&gt;" class="s0" d="m533.7 46c0 0-4.2-3.9-6.3-8.3-2.1-4.4-0.2-8.5 2.2-11.2 2.5-2.6 8.9-2.9 11.7-1 2.8 1.9 5.4 5.5 4.4 8.7-1.1 3.1-1.1 3.1-1.1 3.1l-3.7 7.9c0 0 7.2-4.1 12.8-3.6 5.7 0.5 7.2 2.3 7.8 5.3 0.6 3 0.1 4.9-1.8 6.5-1.8 1.7-6.3 4.2-10.7 2.2-4.4-2-8.3-3.9-8.3-3.9 0 0 1.2 2.4 2.3 6.3 1.1 3.8 1.4 6.8-0.2 9.8-1.6 3.1-5.4 5.8-10.6 4.6-5.2-1.2-6.3-4.4-6-9.6 0.4-5.2 6.4-9 7.6-9.8 1.1-0.9-2.8-1-5.9 0.2-3.1 1.2-9.1 10.2-4.3 17.6 4.7 7.4 12.4 9.2 18.5 4.2 6-5.1 26.6-24.8 26.6-24.8 0 0 3.1-2.1 0.3-4.6-2.9-2.5-27.1-24.2-27.1-24.2 0 0-6.2-4.1-14.1-0.6-7.9 3.4-6.7 12.3-5.4 15 1.4 2.8 3.2 7.8 11.3 10.2z"/>
				<path id="&lt;Path&gt;" class="s0" d="m612.1 51.1c0 0 4.2 4 6.3 8.4 2.1 4.4 0.2 8.5-2.3 11.1-2.4 2.7-8.8 2.9-11.6 1.1-2.8-1.9-5.5-5.6-4.4-8.7 1-3.1 1-3.1 1-3.1l3.8-7.9c0 0-7.2 4.1-12.9 3.6-5.6-0.5-7.1-2.3-7.7-5.3-0.7-3-0.2-5 1.7-6.6 1.9-1.6 6.4-4.2 10.8-2.1 4.4 2 8.3 3.9 8.3 3.9 0 0-1.2-2.5-2.3-6.3-1.1-3.9-1.4-6.8 0.2-9.9 1.6-3 5.4-5.7 10.6-4.5 5.1 1.2 6.3 4.3 6 9.6-0.4 5.2-6.5 9-7.6 9.8-1.1 0.8 2.8 0.9 5.9-0.3 3-1.2 9.1-10.1 4.3-17.5-4.7-7.4-12.4-9.2-18.5-4.2-6.1 5-26.7 24.8-26.7 24.8 0 0-3.1 2-0.2 4.5 2.9 2.6 27.1 24.2 27.1 24.2 0 0 6.2 4.2 14 0.7 7.9-3.5 6.8-12.4 5.4-15.1-1.3-2.7-3.1-7.7-11.2-10.2z"/>
			</g>
		</g>
		<path id="&lt;Path&gt;" class="s0" d="m637.5 80.5h-1v-64.5h1z"/>
		<g id="&lt;Group&gt;">
			<path id="&lt;Compound Path&gt;" class="s0" d="m572.6-160.1h5.5v0.9l-1.7 0.4v4.1h5.7v-4.1l-1.7-0.5 0.1-0.8h5.4l0.1 0.9-1.8 0.4v10l1.8 0.4v1h-5.5l-0.1-0.9 1.7-0.5v-4.6h-5.7v4.6l1.7 0.4v1h-5.5v-0.9l1.6-0.5v-10l-1.6-0.5z"/>
			<path id="&lt;Compound Path&gt;" class="s0" d="m593.4-147.4h-5.5l-0.1-0.9 1.7-0.5v-10l-1.7-0.5 0.1-0.8h5.5v0.9l-1.8 0.4v10l1.8 0.4z"/>
			<path id="&lt;Compound Path&gt;" class="s0" d="m599.9-160.5q0.5 0 1.3 0.1 0.8 0.1 1.7 0.5l0.3-0.5h0.7l0.1 3.9-0.8 0.1-0.7-2q-0.6-0.3-1.3-0.5-0.6-0.1-1.3-0.1-0.9 0-1.5 0.3-0.5 0.4-0.5 1.2 0 0.7 0.9 1.3 0.9 0.5 2.5 1.2 0.8 0.3 1.4 0.7 0.6 0.4 1.1 0.8 0.4 0.5 0.7 1.1 0.2 0.6 0.2 1.4 0 0.7-0.2 1.4-0.3 0.7-0.9 1.3-0.6 0.5-1.6 0.8-0.9 0.4-2.3 0.4-0.2 0-0.6-0.1-0.4 0-0.9-0.1-0.4-0.1-0.8-0.2-0.4-0.1-0.8-0.2l-0.3 0.5h-0.8l-0.1-4.3 0.8-0.1 0.7 2.1q0.7 0.5 1.5 0.7 0.7 0.2 1.4 0.2 1.4 0 2.1-0.5 0.6-0.6 0.6-1.4 0-0.5-0.2-0.9-0.2-0.4-0.7-0.8-0.4-0.3-0.9-0.6-0.6-0.3-1.3-0.6-0.9-0.4-1.6-0.8-0.7-0.3-1.2-0.8-0.5-0.4-0.7-0.9-0.2-0.6-0.2-1.2 0-0.7 0.2-1.3 0.3-0.6 0.8-1 0.5-0.5 1.3-0.8 0.8-0.3 1.9-0.3z"/>
			<path id="&lt;Compound Path&gt;" class="s0" d="m611.4-160.1q1.4 0 2.7 0 1.3 0 2.7-0.1l0.2 0.1 0.1 3.7-0.9 0.1-0.8-2.6h-2.9v10.1l1.8 0.5-0.1 0.9h-5.5v-0.9l1.7-0.5v-10.1h-3l-0.8 2.6-0.8-0.1v-3.7l0.3-0.1q1.3 0.1 2.6 0.1 1.2 0 2.7 0z"/>
			<path id="&lt;Compound Path&gt;" fill-rule="evenodd" class="s0" d="m629.9-154q0 1.4-0.3 2.7-0.3 1.2-1 2.1-0.7 1-1.9 1.5-1.1 0.6-2.6 0.6-2.8 0-4.3-1.7-1.4-1.7-1.4-4.8 0-1.4 0.3-2.6 0.3-1.3 1-2.2 0.7-0.9 1.9-1.5 1.1-0.5 2.6-0.5 1.4 0 2.4 0.4 1.1 0.5 1.8 1.3 0.8 0.9 1.1 2.1 0.4 1.2 0.4 2.6zm-5.8-5.1q-1 0-1.7 0.4-0.6 0.5-1 1.2-0.4 0.7-0.6 1.6-0.2 0.9-0.2 1.9 0 1.2 0.2 2.2 0.2 1 0.6 1.7 0.4 0.7 1.1 1.1 0.7 0.4 1.7 0.4 1 0 1.6-0.4 0.7-0.4 1.1-1.1 0.5-0.7 0.6-1.7 0.2-0.9 0.2-1.9 0-1.1-0.2-2.1-0.1-1-0.6-1.7-0.4-0.7-1.1-1.2-0.7-0.4-1.7-0.4z"/>
			<path id="&lt;Compound Path&gt;" fill-rule="evenodd" class="s0" d="m637.5-152.8h-0.3q-0.3-0.1-0.7-0.1-0.5 0-1.1-0.1v4.2l1.8 0.4v1h-5.5v-0.9l1.6-0.5v-10.1l-1.5-0.4 0.1-0.8q0.3 0 0.6 0 0.2 0 0.5 0 0.2 0 0.6 0 0.3 0 0.7 0 0.9 0 1.8 0 0.9-0.1 1.7-0.1 0.9 0 1.7 0.2 0.8 0.2 1.4 0.6 0.6 0.4 0.9 1.1 0.3 0.6 0.3 1.6 0 0.6-0.1 1.1-0.2 0.5-0.5 1-0.4 0.5-0.9 0.9-0.5 0.3-1.3 0.6l4.1 5.1-0.2 0.6-1.8 0.4zm2.5-3.7q0-0.7-0.3-1.2-0.2-0.4-0.6-0.7-0.4-0.2-1-0.3-0.6-0.2-1.3-0.2-0.7 0-1.4 0.2v4.4q0.4 0.1 0.8 0.1 0.4 0 0.6 0 1 0 1.6-0.2 0.6-0.2 1-0.5 0.3-0.4 0.4-0.8 0.2-0.4 0.2-0.8z"/>
			<path id="&lt;Compound Path&gt;" class="s0" d="m650.4-147.4h-5.5l-0.1-0.9 1.7-0.5v-10l-1.7-0.5 0.1-0.8h5.5v0.9l-1.8 0.4v10l1.8 0.4z"/>
			<path id="&lt;Compound Path&gt;" class="s0" d="m652.6-153.6q0-1.2 0.3-2.5 0.3-1.2 1-2.2 0.7-0.9 1.8-1.6 1-0.6 2.6-0.6 0.7 0 1.4 0.2 0.8 0.1 1.6 0.6l0.4-0.7h0.8l0.1 3.8-0.9 0.1-0.7-1.8q-0.5-0.4-1.1-0.5-0.6-0.2-1.4-0.2-1 0-1.7 0.4-0.7 0.4-1.1 1.2-0.4 0.7-0.6 1.6-0.2 1-0.2 2 0 1 0.1 1.9 0.2 0.9 0.6 1.6 0.4 0.7 1.2 1.1 0.8 0.5 2 0.5 0.8 0 1.7-0.1 0.9-0.1 1.8-0.5l0.4 1.2q-1 0.5-2.1 0.7-1.2 0.3-2.2 0.3-2.8 0-4.3-1.6-1.5-1.6-1.5-4.9z"/>
			<path id="&lt;Compound Path&gt;" fill-rule="evenodd" class="s0" d="m671.6-151.4h-4.5l-0.8 2.6 1.7 0.4v1h-4.7l-0.1-1 1.4-0.4 3.6-9.2q0.2-0.5 0.4-1.1 0.2-0.5 0.3-1.1l1.6-0.3 0.1 0.1 4.5 11.6 1.1 0.4-0.1 1h-5.1v-0.9l1.5-0.5zm-3.2-3.5l-0.8 2.3h3.6l-0.8-2.3-1-2.8h-0.1z"/>
			<path id="&lt;Compound Path&gt;" class="s0" d="m687.6-151.2l-0.5 3.6-0.2 0.2q-0.7 0-1.2-0.1-0.6 0-1.1 0-0.6 0-1.2 0-0.6 0-1.4 0-0.5 0-1.1 0-0.6 0-1.3 0-0.7 0-1.4 0-0.6 0-1.2 0.1v-0.9l1.6-0.5v-10l-1.7-0.5 0.1-0.8h5.5v0.9l-1.8 0.4v10q0.4 0 1 0 0.7 0 1.5-0.1 0.8 0 1.4 0 0.7 0 1.1 0l1.2-2.5z"/>
			<path id="&lt;Compound Path&gt;" class="s0" d="m697.8-157.5h-0.1l-0.4 8.7 1.9 0.4v1h-5.3v-0.9l1.9-0.5 0.7-10-1.8-0.5 0.1-0.9q0.7 0 1.2 0 0.5 0 1 0 0.5 0 1 0 0.5 0 1.2 0 0 0.3 0.1 0.6 0.1 0.2 0.2 0.5l2 4.5 1.4 3.5h0.1l1.5-3.8 2.3-5.3q0.8 0.1 1.9 0 1.2 0 2.3 0v0.9l-1.8 0.5 0.7 10 1.8 0.4-0.1 1h-5.6v-0.9l1.6-0.5-0.4-8.8h-0.1l-4 9.6h-1.2z"/>
			<path id="&lt;Compound Path&gt;" class="s0" d="m722.8-158.8l-1.7-0.5 0.1-0.8h4.8l0.1 0.9-1.8 0.4v7.3q0 1.2-0.4 2.1-0.5 0.8-1.2 1.3-0.7 0.5-1.6 0.7-0.9 0.3-1.9 0.3-0.9 0-1.7-0.2-0.9-0.3-1.5-0.7-0.7-0.5-1.1-1.3-0.4-0.8-0.4-1.9v-7.6l-1.6-0.5v-0.8h5.5v0.9l-1.7 0.4v6.7q0 0.7 0.1 1.4 0.1 0.6 0.4 1.1 0.4 0.4 1 0.7 0.6 0.3 1.6 0.3 0.9 0 1.5-0.3 0.6-0.3 0.9-0.8 0.3-0.5 0.5-1.2 0.1-0.6 0.1-1.4z"/>
			<path id="&lt;Compound Path&gt;" class="s0" d="m731.9-160.5q0.4 0 1.2 0.1 0.9 0.1 1.8 0.5l0.3-0.5h0.7v3.9l-0.7 0.1-0.8-2q-0.5-0.3-1.2-0.5-0.7-0.1-1.3-0.1-1 0-1.5 0.3-0.6 0.4-0.6 1.2 0 0.7 0.9 1.3 1 0.5 2.6 1.2 0.7 0.3 1.3 0.7 0.6 0.4 1.1 0.8 0.5 0.5 0.7 1.1 0.3 0.6 0.3 1.4 0 0.7-0.3 1.4-0.3 0.7-0.9 1.3-0.6 0.5-1.5 0.8-1 0.4-2.3 0.4-0.3 0-0.7-0.1-0.4 0-0.8-0.1-0.4-0.1-0.9-0.2-0.4-0.1-0.7-0.2l-0.4 0.5h-0.7l-0.1-4.3 0.8-0.1 0.7 2.1q0.6 0.5 1.4 0.7 0.8 0.2 1.4 0.2 1.5 0 2.1-0.5 0.6-0.6 0.6-1.4 0-0.5-0.2-0.9-0.2-0.4-0.6-0.8-0.4-0.3-1-0.6-0.6-0.3-1.3-0.6-0.9-0.4-1.6-0.8-0.7-0.3-1.1-0.8-0.5-0.4-0.8-0.9-0.2-0.6-0.2-1.2 0-0.7 0.2-1.3 0.3-0.6 0.8-1 0.6-0.5 1.4-0.8 0.8-0.3 1.9-0.3z"/>
			<path id="&lt;Compound Path&gt;" class="s0" d="m748.6-151.1l-0.5 3.5-0.2 0.2q-0.7 0-1.2-0.1-0.6 0-1.1 0-0.6 0-1.1 0-0.6 0-1.4 0-0.5 0-1.1 0-0.6 0-1.3 0-0.6 0-1.3 0-0.6 0-1.1 0.1l-0.1-0.9 1.6-0.5v-10l-1.5-0.5 0.1-0.8q0.5 0 1.2 0 0.6 0 1.3 0 0.7 0 1.3 0 0.6 0 1 0 0.6 0 1.1 0 0.5 0 1 0 0.5 0 1-0.1 0.6 0 1.2 0l0.2 0.1 0.1 3.5-0.9 0.1-0.7-2.3h-4.3v4.2l4.6-0.2v1.5l-4.6-0.2v4.7q0.4 0 1 0 0.7 0 1.4-0.1 0.7 0 1.4 0 0.6 0 1 0l1.2-2.4z"/>
			<path id="&lt;Compound Path&gt;" class="s0" d="m759.6-158.8l-1.6-0.5v-0.8h4.9l0.1 0.9-1.8 0.4v7.3q0 1.2-0.5 2.1-0.4 0.8-1.1 1.3-0.7 0.5-1.6 0.7-0.9 0.3-1.9 0.3-0.9 0-1.8-0.2-0.8-0.3-1.5-0.7-0.6-0.5-1-1.3-0.4-0.8-0.4-1.9v-7.6l-1.6-0.5v-0.8h5.5v0.9l-1.7 0.4v6.7q0 0.7 0.1 1.4 0.1 0.6 0.4 1.1 0.3 0.4 0.9 0.7 0.6 0.3 1.6 0.3 1 0 1.6-0.3 0.6-0.3 0.9-0.8 0.3-0.5 0.4-1.2 0.1-0.6 0.1-1.4z"/>
			<path id="&lt;Compound Path&gt;" class="s0" d="m767.8-157.5h-0.1l-0.4 8.7 2 0.4-0.1 1h-5.2l-0.1-0.9 1.9-0.5 0.8-10-1.9-0.5 0.2-0.9q0.6 0 1.1 0 0.6 0 1 0 0.5 0 1 0 0.5 0 1.2 0 0.1 0.3 0.1 0.6 0.1 0.2 0.2 0.5l2 4.5 1.4 3.5h0.1l1.6-3.8 2.2-5.3q0.8 0.1 2 0 1.1 0 2.2 0v0.9l-1.8 0.5 0.7 10 1.8 0.4v1h-5.7v-0.9l1.6-0.5-0.4-8.8h-0.1l-4 9.6h-1.2z"/>
			<path id="&lt;Compound Path&gt;" fill-rule="evenodd" class="s0" d="m800.6-154q0 1.4-0.4 2.7-0.3 1.2-1 2.1-0.7 1-1.8 1.5-1.1 0.6-2.7 0.6-2.7 0-4.2-1.7-1.5-1.7-1.5-4.8 0-1.4 0.4-2.6 0.3-1.3 1-2.2 0.7-0.9 1.8-1.5 1.1-0.5 2.7-0.5 1.3 0 2.4 0.4 1 0.5 1.8 1.3 0.7 0.9 1.1 2.1 0.4 1.2 0.4 2.6zm-5.8-5.1q-1 0-1.7 0.4-0.7 0.5-1.1 1.2-0.4 0.7-0.6 1.6-0.1 0.9-0.1 1.9 0 1.2 0.1 2.2 0.2 1 0.6 1.7 0.5 0.7 1.1 1.1 0.7 0.4 1.7 0.4 1 0 1.7-0.4 0.7-0.4 1.1-1.1 0.4-0.7 0.6-1.7 0.2-0.9 0.2-1.9 0-1.1-0.2-2.1-0.2-1-0.6-1.7-0.4-0.7-1.1-1.2-0.7-0.4-1.7-0.4z"/>
			<path id="&lt;Compound Path&gt;" class="s0" d="m802.5-159.3l0.1-0.8q0.5 0 1.1 0 0.7 0 1.4 0 0.6 0 1.2 0 0.6 0 1 0 0.6 0 1.2 0 0.5 0 1 0 0.5 0 1.1-0.1 0.5 0 1.1 0l0.2 0.1 0.1 3.5-0.8 0.1-0.8-2.3h-4.3v4.4l4.6-0.2v1.5l-4.6-0.2v4.5l1.8 0.4v1h-5.5l-0.1-0.9 1.7-0.5v-10z"/>
			<path id="&lt;Compound Path&gt;" class="s0" d="m823.4-160.5q0.5 0 1.3 0.1 0.8 0.1 1.7 0.5l0.3-0.5h0.7l0.1 3.9-0.8 0.1-0.8-2q-0.5-0.3-1.2-0.5-0.7-0.1-1.3-0.1-0.9 0-1.5 0.3-0.6 0.4-0.6 1.2 0 0.7 1 1.3 0.9 0.5 2.5 1.2 0.7 0.3 1.4 0.7 0.6 0.4 1 0.8 0.5 0.5 0.8 1.1 0.2 0.6 0.2 1.4 0 0.7-0.3 1.4-0.3 0.7-0.9 1.3-0.6 0.5-1.5 0.8-1 0.4-2.3 0.4-0.3 0-0.7-0.1-0.4 0-0.8-0.1-0.4-0.1-0.8-0.2-0.5-0.1-0.8-0.2l-0.3 0.5h-0.8l-0.1-4.3 0.8-0.1 0.7 2.1q0.7 0.5 1.4 0.7 0.8 0.2 1.5 0.2 1.4 0 2-0.5 0.7-0.6 0.7-1.4 0-0.5-0.2-0.9-0.3-0.4-0.7-0.8-0.4-0.3-1-0.6-0.5-0.3-1.2-0.6-0.9-0.4-1.6-0.8-0.7-0.3-1.2-0.8-0.5-0.4-0.7-0.9-0.3-0.6-0.3-1.2 0-0.7 0.3-1.3 0.2-0.6 0.8-1 0.5-0.5 1.3-0.8 0.8-0.3 1.9-0.3z"/>
			<path id="&lt;Compound Path&gt;" class="s0" d="m840.1-151.1l-0.5 3.5-0.2 0.2q-0.6 0-1.2-0.1-0.5 0-1.1 0-0.5 0-1.1 0-0.6 0-1.4 0-0.4 0-1.1 0-0.6 0-1.2 0-0.7 0-1.3 0-0.7 0-1.2 0.1l-0.1-0.9 1.7-0.5v-10l-1.5-0.5 0.1-0.8q0.4 0 1.1 0 0.7 0 1.3 0 0.7 0 1.3 0 0.6 0 1 0 0.6 0 1.1 0 0.6 0 1.1 0 0.5 0 1-0.1 0.5 0 1.1 0l0.2 0.1 0.1 3.5-0.8 0.1-0.8-2.3h-4.2v4.2l4.6-0.2v1.5l-4.6-0.2v4.7q0.3 0 1 0 0.6 0 1.3-0.1 0.7 0 1.4 0 0.7 0 1 0l1.2-2.4z"/>
			<path id="&lt;Compound Path&gt;" fill-rule="evenodd" class="s0" d="m847.2-152.8h-0.3q-0.3-0.1-0.7-0.1-0.5 0-1.1-0.1v4.2l1.8 0.4v1h-5.5v-0.9l1.6-0.5v-10.1l-1.5-0.4 0.1-0.8q0.3 0 0.6 0 0.2 0 0.5 0 0.2 0 0.6 0 0.3 0 0.7 0 0.9 0 1.8 0 0.9-0.1 1.7-0.1 0.9 0 1.7 0.2 0.8 0.2 1.4 0.6 0.6 0.4 0.9 1.1 0.3 0.6 0.3 1.6 0 0.6-0.1 1.1-0.2 0.5-0.5 1-0.4 0.5-0.9 0.9-0.5 0.3-1.3 0.6l4.1 5.1-0.2 0.6-1.8 0.4zm2.5-3.7q0-0.7-0.3-1.2-0.2-0.4-0.6-0.7-0.4-0.2-1-0.3-0.6-0.2-1.3-0.2-0.7 0-1.4 0.2v4.4q0.4 0.1 0.8 0.1 0.4 0 0.6 0 1 0 1.6-0.2 0.6-0.2 1-0.5 0.3-0.4 0.4-0.8 0.2-0.4 0.2-0.8z"/>
			<path id="&lt;Compound Path&gt;" fill-rule="evenodd" class="s0" d="m854.2-159.3l0.2-0.9q0.5 0.1 1.1 0.1 0.5 0 1 0 0.9 0 2 0 1-0.1 1.9-0.1 1.2 0 2 0.3 0.7 0.4 1.1 0.8 0.4 0.4 0.6 0.9 0.1 0.5 0.1 0.9 0 0.6-0.2 1-0.2 0.5-0.5 0.8-0.4 0.4-0.7 0.6-0.4 0.2-0.8 0.2v0.1q1.4 0.3 2.2 1.2 0.8 0.8 0.8 2.2 0 0.9-0.3 1.5-0.3 0.7-0.8 1.2-0.6 0.5-1.3 0.8-0.7 0.3-1.6 0.3-0.9 0-1.9-0.1-1 0-2 0-0.7 0-1.4 0-0.8 0-1.5 0l-0.1-0.8 1.6-0.5v-10.1zm5 4.4q0.9-0.1 1.5-0.3 0.6-0.2 0.9-0.5 0.3-0.3 0.5-0.7 0.1-0.3 0.1-0.5 0-1-0.8-1.5-0.7-0.4-1.9-0.4-0.1 0-0.3 0-0.2 0-0.5 0-0.2 0-0.4 0.1-0.3 0-0.4 0v9.7q0.1 0.1 0.4 0.1 0.3 0.1 0.5 0.1 0.3 0 0.5 0.1 0.3 0 0.5 0 1.6 0 2.3-0.7 0.8-0.7 0.8-1.8 0-0.6-0.2-1-0.2-0.5-0.6-0.9-0.4-0.3-1.1-0.5-0.7-0.2-1.8-0.3l-0.1-0.9z"/>
			<path id="&lt;Compound Path&gt;" class="s0" d="m872.6-147.4h-5.5v-0.9l1.7-0.5v-10l-1.7-0.5v-0.8h5.5l0.1 0.9-1.8 0.4v10l1.8 0.4z"/>
			<path id="&lt;Compound Path&gt;" fill-rule="evenodd" class="s0" d="m882.3-151.4h-4.5l-0.8 2.6 1.7 0.4v1h-4.7l-0.1-1 1.4-0.4 3.6-9.2q0.2-0.5 0.4-1.1 0.2-0.5 0.3-1.1l1.6-0.3 0.1 0.1 4.5 11.6 1.1 0.4-0.1 1h-5.1v-0.9l1.5-0.5zm-3.2-3.5l-0.8 2.3h3.6l-0.8-2.3-1-2.8h-0.1z"/>
		</g>
		<g id="&lt;Group&gt;">
			<path id="&lt;Compound Path&gt;" class="s0" d="m649.1 41.9h5.5v0.9l-1.7 0.4v4.1h5.6v-4.1l-1.6-0.5 0.1-0.8h5.4l0.1 0.9-1.8 0.4v10l1.8 0.4-0.1 0.9h-5.5v-0.8l1.6-0.5v-4.7h-5.6v4.7l1.7 0.4v0.9h-5.5l-0.1-0.8 1.7-0.5v-10l-1.6-0.5z"/>
			<path id="&lt;Compound Path&gt;" class="s0" d="m669.9 54.5h-5.6v-0.8l1.7-0.5v-10l-1.7-0.5v-0.8h5.6v0.9l-1.8 0.4v10l1.8 0.4z"/>
			<path id="&lt;Compound Path&gt;" class="s0" d="m676.4 41.5q0.5 0 1.3 0.1 0.8 0.1 1.7 0.5l0.3-0.5h0.7l0.1 3.9-0.8 0.1-0.8-2q-0.5-0.3-1.2-0.5-0.7-0.2-1.3-0.2-0.9 0-1.5 0.4-0.6 0.4-0.6 1.2 0 0.7 1 1.2 0.9 0.6 2.5 1.3 0.7 0.3 1.4 0.7 0.6 0.3 1 0.8 0.5 0.5 0.8 1.1 0.2 0.5 0.2 1.3 0 0.8-0.3 1.5-0.3 0.7-0.9 1.3-0.6 0.5-1.5 0.8-1 0.3-2.3 0.3-0.3 0-0.7 0-0.4 0-0.8-0.1-0.4-0.1-0.8-0.2-0.5-0.1-0.8-0.2l-0.3 0.5h-0.8l-0.1-4.3 0.8-0.1 0.7 2.1q0.7 0.5 1.4 0.7 0.8 0.2 1.5 0.2 1.4 0 2-0.6 0.7-0.5 0.7-1.3 0-0.5-0.2-1-0.3-0.4-0.7-0.7-0.4-0.3-1-0.6-0.5-0.3-1.2-0.6-0.9-0.4-1.6-0.8-0.7-0.4-1.2-0.8-0.5-0.4-0.7-0.9-0.3-0.6-0.3-1.3 0-0.6 0.3-1.2 0.2-0.6 0.8-1.1 0.5-0.4 1.3-0.7 0.8-0.3 1.9-0.3z"/>
			<path id="&lt;Compound Path&gt;" class="s0" d="m687.9 41.9q1.4 0 2.7 0 1.3-0.1 2.7-0.1l0.2 0.1 0.1 3.6-0.9 0.2-0.8-2.6h-2.9v10.1l1.7 0.4v0.9h-5.5l-0.1-0.8 1.7-0.5v-10.1h-2.9l-0.8 2.6-0.9-0.2 0.1-3.6 0.2-0.1q1.4 0 2.6 0.1 1.3 0 2.8 0z"/>
			<path id="&lt;Compound Path&gt;" fill-rule="evenodd" class="s0" d="m706.4 48q0 1.4-0.3 2.6-0.4 1.3-1.1 2.2-0.7 0.9-1.8 1.5-1.1 0.5-2.7 0.5-2.7 0-4.2-1.7-1.5-1.7-1.5-4.8 0-1.3 0.4-2.6 0.3-1.2 1-2.1 0.7-1 1.8-1.5 1.1-0.6 2.7-0.6 1.3 0 2.4 0.5 1.1 0.5 1.8 1.3 0.7 0.8 1.1 2 0.4 1.2 0.4 2.7zm-5.8-5.1q-1 0-1.7 0.4-0.7 0.4-1.1 1.1-0.4 0.8-0.5 1.7-0.2 0.9-0.2 1.9 0 1.2 0.2 2.2 0.1 1 0.6 1.7 0.4 0.7 1.1 1.1 0.6 0.4 1.6 0.4 1 0 1.7-0.4 0.7-0.4 1.1-1.1 0.4-0.7 0.6-1.7 0.2-0.9 0.2-1.9 0-1.1-0.2-2.1-0.2-1-0.6-1.7-0.4-0.8-1.1-1.2-0.7-0.4-1.7-0.4z"/>
			<path id="&lt;Compound Path&gt;" fill-rule="evenodd" class="s0" d="m714 49.1h-0.3q-0.3 0-0.7 0-0.5 0-1.1-0.1v4.2l1.8 0.4-0.1 0.9h-5.4v-0.8l1.6-0.5v-10.1l-1.5-0.4 0.1-0.9q0.3 0 0.6 0 0.2 0.1 0.5 0.1 0.2 0 0.5 0 0.4 0 0.8 0 0.9 0 1.8-0.1 0.9 0 1.7 0 0.9 0 1.7 0.2 0.8 0.2 1.4 0.6 0.6 0.4 0.9 1.1 0.3 0.6 0.3 1.6 0 0.5-0.1 1.1-0.2 0.5-0.5 1-0.4 0.5-0.9 0.8-0.6 0.4-1.3 0.6l4.1 5.2-0.2 0.6-1.8 0.4zm2.4-3.8q0-0.6-0.2-1.1-0.2-0.4-0.6-0.7-0.4-0.3-1-0.4-0.6-0.1-1.3-0.1-0.7 0-1.4 0.2v4.4q0.4 0.1 0.8 0.1 0.4 0 0.6 0 1 0 1.6-0.2 0.6-0.2 0.9-0.6 0.4-0.3 0.5-0.7 0.1-0.4 0.1-0.9z"/>
			<path id="&lt;Compound Path&gt;" class="s0" d="m726.9 54.5h-5.5l-0.1-0.8 1.7-0.5v-10l-1.7-0.5 0.1-0.8h5.5v0.9l-1.8 0.4v10l1.8 0.4z"/>
			<path id="&lt;Compound Path&gt;" class="s0" d="m729.1 48.4q0-1.2 0.3-2.5 0.3-1.2 1-2.2 0.7-1 1.7-1.6 1.1-0.6 2.7-0.6 0.7 0 1.4 0.1 0.8 0.2 1.6 0.7l0.4-0.8h0.8v3.9l-0.8 0.1-0.7-1.8q-0.5-0.4-1.1-0.6-0.6-0.1-1.4-0.1-1 0-1.7 0.4-0.7 0.4-1.1 1.1-0.5 0.7-0.7 1.7-0.1 1-0.1 2 0 1 0.1 1.9 0.2 0.9 0.6 1.6 0.4 0.7 1.2 1.1 0.8 0.4 2 0.4 0.8 0 1.7-0.1 0.9-0.1 1.8-0.4l0.4 1.2q-1 0.5-2.1 0.7-1.2 0.2-2.2 0.2-2.8 0-4.3-1.6-1.5-1.6-1.5-4.8z"/>
			<path id="&lt;Compound Path&gt;" fill-rule="evenodd" class="s0" d="m748 50.5h-4.4l-0.9 2.7 1.8 0.4-0.1 0.9h-4.7v-0.9l1.4-0.4 3.6-9.2q0.2-0.6 0.3-1.1 0.2-0.5 0.4-1.1l1.6-0.3 0.1 0.1 4.5 11.6 1.1 0.4-0.1 0.9h-5.1v-0.9l1.5-0.4zm-3.3-3.5l-0.8 2.3h3.7l-0.8-2.3-1-2.8h-0.1z"/>
			<path id="&lt;Compound Path&gt;" class="s0" d="m764.1 50.8l-0.5 3.6-0.2 0.1q-0.7 0-1.2 0-0.6 0-1.2 0-0.5 0-1.1 0-0.6 0-1.4 0-0.5 0-1.1 0-0.7 0-1.3 0-0.7 0-1.4 0-0.7 0-1.2 0l-0.1-0.8 1.7-0.5v-10l-1.7-0.5v-0.8h5.6v0.9l-1.8 0.4v9.9q0.3 0 1 0 0.7 0 1.5 0 0.7 0 1.4 0 0.7 0 1 0l1.3-2.5z"/>
			<path id="&lt;Compound Path&gt;" class="s0" d="m774.2 44.5l-0.4 8.7 1.9 0.4v0.9h-5.3v-0.9l1.9-0.4 0.7-10-1.8-0.5 0.1-0.9q0.7 0 1.2 0 0.5 0 1 0 0.4 0 1 0 0.5 0 1.1 0 0.1 0.3 0.2 0.6 0.1 0.2 0.2 0.5l1.9 4.5 1.5 3.5h0.1l1.5-3.8 2.3-5.3q0.8 0 1.9 0 1.2 0 2.3 0v0.9l-1.8 0.5 0.7 10 1.8 0.4-0.1 0.9h-5.6l-0.1-0.8 1.7-0.5-0.4-8.9h-0.1l-4.1 9.7h-1.1z"/>
			<path id="&lt;Compound Path&gt;" class="s0" d="m799.2 43.2l-1.6-0.5 0.1-0.8h4.8l0.1 0.9-1.8 0.4v7.3q0 1.2-0.4 2.1-0.5 0.8-1.2 1.3-0.7 0.5-1.6 0.7-0.9 0.3-1.9 0.2-0.9 0-1.8-0.2-0.8-0.2-1.5-0.7-0.6-0.5-1-1.2-0.4-0.8-0.4-2v-7.5l-1.6-0.5v-0.8h5.5v0.9l-1.7 0.4v6.7q0 0.7 0.1 1.3 0.1 0.7 0.4 1.1 0.3 0.5 0.9 0.8 0.7 0.3 1.6 0.3 1 0 1.6-0.3 0.6-0.3 0.9-0.8 0.3-0.5 0.4-1.2 0.1-0.7 0.1-1.4z"/>
			<path id="&lt;Compound Path&gt;" class="s0" d="m808.3 41.5q0.5 0 1.3 0.1 0.8 0.1 1.7 0.5l0.4-0.5h0.7v3.9l-0.8 0.1-0.7-2q-0.6-0.3-1.2-0.5-0.7-0.2-1.4-0.2-0.9 0-1.5 0.4-0.5 0.4-0.5 1.2 0 0.7 0.9 1.2 0.9 0.6 2.5 1.3 0.8 0.3 1.4 0.7 0.6 0.3 1.1 0.8 0.4 0.5 0.7 1.1 0.3 0.5 0.3 1.3 0 0.8-0.3 1.5-0.3 0.7-0.9 1.3-0.6 0.5-1.6 0.8-0.9 0.3-2.2 0.3-0.3 0-0.7 0-0.4 0-0.8-0.1-0.5-0.1-0.9-0.2-0.4-0.1-0.7-0.2l-0.4 0.5h-0.7l-0.1-4.3 0.7-0.1 0.8 2.1q0.6 0.5 1.4 0.7 0.8 0.2 1.4 0.2 1.4 0 2.1-0.6 0.6-0.5 0.6-1.3 0-0.5-0.2-1-0.2-0.4-0.6-0.7-0.4-0.3-1-0.6-0.6-0.3-1.3-0.6-0.9-0.4-1.6-0.8-0.7-0.4-1.2-0.8-0.4-0.4-0.7-0.9-0.2-0.6-0.2-1.3 0-0.6 0.2-1.2 0.3-0.6 0.8-1.1 0.5-0.4 1.3-0.7 0.8-0.3 1.9-0.3z"/>
			<path id="&lt;Compound Path&gt;" class="s0" d="m825 50.9l-0.4 3.5-0.2 0.1q-0.7 0-1.2 0-0.6 0-1.1 0-0.6 0-1.2 0-0.6 0-1.3 0-0.5 0-1.1 0-0.6 0-1.3 0-0.6 0-1.3 0-0.6 0-1.2 0l-0.1-0.8 1.7-0.5v-10.1l-1.5-0.4 0.1-0.9q0.5 0.1 1.1 0.1 0.7 0 1.4 0 0.7 0 1.3 0 0.6 0 0.9 0 0.7 0 1.2 0 0.5 0 1-0.1 0.5 0 1 0 0.5 0 1.2 0l0.2 0.1 0.1 3.5-0.9 0.1-0.8-2.3h-4.2v4.2l4.6-0.2v1.5l-4.6-0.2v4.6q0.4 0 1 0 0.7 0 1.4 0 0.7 0 1.3 0 0.7 0 1 0l1.2-2.4z"/>
			<path id="&lt;Compound Path&gt;" class="s0" d="m836.1 43.2l-1.6-0.5v-0.8h4.9v0.9l-1.7 0.4v7.3q0 1.2-0.5 2.1-0.4 0.8-1.1 1.3-0.7 0.5-1.6 0.7-1 0.3-1.9 0.2-0.9 0-1.8-0.2-0.8-0.2-1.5-0.7-0.7-0.5-1-1.2-0.4-0.8-0.4-2v-7.5l-1.7-0.5 0.1-0.8h5.5v0.9l-1.7 0.4v6.7q0 0.7 0.1 1.3 0.1 0.7 0.4 1.1 0.3 0.5 0.9 0.8 0.6 0.3 1.6 0.3 1 0 1.6-0.3 0.5-0.3 0.9-0.8 0.3-0.5 0.4-1.2 0.1-0.7 0.1-1.4z"/>
			<path id="&lt;Compound Path&gt;" class="s0" d="m844.3 44.5h-0.1l-0.4 8.7 1.9 0.4v0.9h-5.3v-0.9l1.9-0.4 0.7-10-1.8-0.5 0.1-0.9q0.7 0 1.2 0 0.5 0 1 0 0.5 0 1 0 0.5 0 1.2 0 0 0.3 0.1 0.6 0.1 0.2 0.2 0.5l2 4.5 1.4 3.5h0.1l1.5-3.8 2.3-5.3q0.8 0 1.9 0 1.2 0 2.3 0v0.9l-1.8 0.5 0.7 10 1.8 0.4-0.1 0.9h-5.6v-0.8l1.6-0.5-0.4-8.9h-0.1l-4 9.7h-1.2z"/>
			<path id="&lt;Compound Path&gt;" fill-rule="evenodd" class="s0" d="m877.1 48q0 1.4-0.4 2.6-0.3 1.3-1 2.2-0.7 0.9-1.8 1.5-1.1 0.5-2.7 0.5-2.8 0-4.2-1.7-1.5-1.7-1.5-4.8 0-1.3 0.3-2.6 0.4-1.2 1.1-2.1 0.7-1 1.8-1.5 1.1-0.6 2.6-0.6 1.4 0 2.5 0.5 1 0.5 1.8 1.3 0.7 0.8 1.1 2 0.4 1.2 0.4 2.7zm-5.9-5.1q-1 0-1.6 0.4-0.7 0.4-1.1 1.1-0.4 0.8-0.6 1.7-0.2 0.9-0.2 1.9 0 1.2 0.2 2.2 0.2 1 0.6 1.7 0.4 0.7 1.1 1.1 0.7 0.4 1.7 0.4 1 0 1.7-0.4 0.6-0.4 1.1-1.1 0.4-0.7 0.6-1.7 0.2-0.9 0.2-1.9 0-1.1-0.2-2.1-0.2-1-0.6-1.7-0.5-0.8-1.2-1.2-0.6-0.4-1.7-0.4z"/>
			<path id="&lt;Compound Path&gt;" class="s0" d="m879 42.7l0.1-0.9q0.4 0.1 1.1 0.1 0.7 0 1.3 0 0.7 0 1.3 0 0.6 0 1 0 0.6 0 1.2 0 0.5 0 1-0.1 0.5 0 1 0 0.6 0 1.2 0l0.2 0.1 0.1 3.5-0.9 0.1-0.7-2.3h-4.3v4.4l4.6-0.2v1.5l-4.6-0.2v4.5l1.8 0.4-0.1 0.9h-5.5v-0.8l1.7-0.5v-10.1z"/>
			<path id="&lt;Compound Path&gt;" class="s0" d="m899.9 41.5q0.5 0 1.3 0.1 0.8 0.1 1.7 0.5l0.3-0.5h0.7l0.1 3.9-0.8 0.1-0.8-2q-0.5-0.3-1.2-0.5-0.7-0.2-1.3-0.2-1 0-1.5 0.4-0.6 0.4-0.6 1.2 0 0.7 0.9 1.2 1 0.6 2.6 1.3 0.7 0.3 1.3 0.7 0.7 0.3 1.1 0.8 0.5 0.5 0.7 1.1 0.3 0.5 0.3 1.3 0 0.8-0.3 1.5-0.3 0.7-0.9 1.3-0.6 0.5-1.5 0.8-1 0.3-2.3 0.3-0.3 0-0.7 0-0.4 0-0.8-0.1-0.4-0.1-0.9-0.2-0.4-0.1-0.7-0.2l-0.4 0.5h-0.7l-0.1-4.3 0.8-0.1 0.7 2.1q0.6 0.5 1.4 0.7 0.8 0.2 1.4 0.2 1.5 0 2.1-0.6 0.7-0.5 0.7-1.3 0-0.5-0.3-1-0.2-0.4-0.6-0.7-0.4-0.3-1-0.6-0.6-0.3-1.2-0.6-1-0.4-1.7-0.8-0.7-0.4-1.1-0.8-0.5-0.4-0.8-0.9-0.2-0.6-0.2-1.3 0-0.6 0.3-1.2 0.2-0.6 0.7-1.1 0.6-0.4 1.4-0.7 0.8-0.3 1.9-0.3z"/>
			<path id="&lt;Compound Path&gt;" class="s0" d="m916.6 50.9l-0.5 3.5-0.2 0.1q-0.7 0-1.2 0-0.6 0-1.1 0-0.5 0-1.1 0-0.6 0-1.4 0-0.5 0-1.1 0-0.6 0-1.3 0-0.6 0-1.3 0-0.6 0-1.1 0l-0.1-0.8 1.6-0.5v-10.1l-1.5-0.4 0.1-0.9q0.5 0.1 1.2 0.1 0.6 0 1.3 0 0.7 0 1.3 0 0.6 0 1 0 0.6 0 1.1 0 0.5 0 1-0.1 0.5 0 1 0 0.6 0 1.2 0l0.2 0.1 0.1 3.5-0.8 0.1-0.8-2.3h-4.2v4.2l4.5-0.2v1.5l-4.5-0.2v4.6q0.3 0 0.9 0 0.7 0 1.4 0 0.7 0 1.4 0 0.6 0 1 0l1.2-2.4z"/>
			<path id="&lt;Compound Path&gt;" fill-rule="evenodd" class="s0" d="m923.7 49.1h-0.3q-0.3 0-0.7 0-0.5 0-1.1-0.1v4.2l1.8 0.4-0.1 0.9h-5.4v-0.8l1.6-0.5v-10.1l-1.5-0.4 0.1-0.9q0.3 0 0.6 0 0.2 0.1 0.5 0.1 0.2 0 0.5 0 0.4 0 0.8 0 0.9 0 1.8-0.1 0.9 0 1.7 0 0.9 0 1.7 0.2 0.8 0.2 1.4 0.6 0.6 0.4 0.9 1.1 0.3 0.6 0.3 1.6 0 0.5-0.1 1.1-0.2 0.5-0.5 1-0.4 0.5-0.9 0.8-0.6 0.4-1.3 0.6l4.1 5.2-0.2 0.6-1.8 0.4zm2.4-3.8q0-0.6-0.2-1.1-0.2-0.4-0.6-0.7-0.4-0.3-1-0.4-0.6-0.1-1.3-0.1-0.7 0-1.4 0.2v4.4q0.4 0.1 0.8 0.1 0.4 0 0.6 0 1 0 1.6-0.2 0.6-0.2 0.9-0.6 0.4-0.3 0.5-0.7 0.1-0.4 0.1-0.9z"/>
			<path id="&lt;Compound Path&gt;" fill-rule="evenodd" class="s0" d="m930.7 42.7l0.1-0.9q0.6 0 1.2 0 0.5 0.1 1 0.1 0.9 0 2-0.1 1 0 1.9 0 1.2 0 1.9 0.3 0.8 0.3 1.2 0.8 0.4 0.4 0.6 0.9 0.1 0.5 0.1 0.9 0 0.5-0.2 1-0.2 0.5-0.5 0.8-0.4 0.3-0.8 0.5-0.4 0.2-0.7 0.3v0.1q1.4 0.3 2.2 1.1 0.8 0.9 0.8 2.3 0 0.8-0.3 1.5-0.3 0.7-0.8 1.2-0.6 0.5-1.3 0.8-0.8 0.2-1.6 0.2-1 0-2 0-1 0-1.9 0-0.8 0-1.5 0-0.7 0-1.5 0v-0.8l1.6-0.5v-10.1zm5 4.3q0.9 0 1.5-0.2 0.6-0.3 0.9-0.6 0.3-0.3 0.4-0.6 0.1-0.3 0.1-0.5 0-1-0.7-1.5-0.7-0.4-1.9-0.4-0.2 0-0.4 0-0.2 0-0.4 0-0.2 0-0.5 0-0.2 0.1-0.4 0.1v9.7q0.2 0 0.5 0.1 0.2 0 0.5 0.1 0.3 0 0.5 0 0.3 0.1 0.5 0 1.6 0 2.3-0.6 0.8-0.7 0.8-1.8 0-0.6-0.2-1.1-0.2-0.4-0.6-0.8-0.4-0.3-1.1-0.6-0.7-0.2-1.8-0.2l-0.2-0.9z"/>
			<path id="&lt;Compound Path&gt;" class="s0" d="m949.1 54.5h-5.5v-0.8l1.6-0.5v-10l-1.6-0.5v-0.8h5.5v0.9l-1.7 0.4v10l1.7 0.4z"/>
			<path id="&lt;Compound Path&gt;" fill-rule="evenodd" class="s0" d="m958.7 50.5h-4.4l-0.9 2.7 1.8 0.4-0.1 0.9h-4.7v-0.9l1.4-0.4 3.6-9.2q0.2-0.6 0.4-1.1 0.1-0.5 0.3-1.1l1.6-0.3 0.1 0.1 4.5 11.6 1.1 0.4-0.1 0.9h-5.1v-0.9l1.5-0.4zm-3.3-3.5l-0.8 2.3h3.7l-0.8-2.3-1-2.8h-0.1z"/>
		</g>
	</g>
</svg>