<svg version="1.2" xmlns="http://www.w3.org/2000/svg" viewBox="0 0 436 121" width="436" height="121">
	<title>LOGO ZA SLANJE SA ENG</title>
	<style>
		.s0 { fill: #b3272d } 
		.s1 { fill: #fefefe } 
	</style>
	<g id="Layer 1">
		<path id="&lt;Path&gt;" class="s0" d="m1070-376.3h-1190.6v-595.3h1190.6z"/>
		<g id="&lt;Group&gt;">
			<g id="&lt;Group&gt;">
				<path id="&lt;Path&gt;" class="s1" d="m217.2-857.3c0 0 4-4.2 8.4-6.3 4.4-2.1 8.5-0.2 11.1 2.2 2.7 2.5 2.9 8.9 1.1 11.7-1.9 2.8-5.6 5.4-8.7 4.4-3.1-1.1-3.1-1.1-3.1-1.1l-7.9-3.7c0 0 4.1 7.2 3.6 12.8-0.5 5.7-2.3 7.1-5.3 7.8-3 0.6-5 0.1-6.6-1.8-1.6-1.9-4.1-6.3-2.1-10.7 2-4.4 3.9-8.3 3.9-8.3 0 0-2.5 1.1-6.3 2.3-3.8 1.1-6.8 1.4-9.8-0.2-3.1-1.7-5.8-5.4-4.6-10.6 1.2-5.2 4.3-6.3 9.6-6 5.2 0.4 9 6.4 9.8 7.5 0.9 1.2 0.9-2.7-0.3-5.8-1.1-3.1-10.1-9.1-17.5-4.3-7.4 4.7-9.2 12.4-4.2 18.5 5.1 6 24.8 26.6 24.8 26.6 0 0 2 3.1 4.6 0.2 2.5-2.8 24.1-27.1 24.1-27.1 0 0 4.2-6.1 0.7-14-3.5-7.9-12.3-6.7-15.1-5.4-2.7 1.4-7.7 3.2-10.2 11.3z"/>
				<path id="&lt;Path&gt;" class="s1" d="m212.2-773.3c0 0-4 4.2-8.4 6.3-4.4 2.1-8.5 0.2-11.1-2.3-2.7-2.4-2.9-8.8-1.1-11.6 1.9-2.8 5.6-5.5 8.7-4.4 3.1 1 3.1 1 3.1 1l7.9 3.8c0 0-4.1-7.2-3.6-12.8 0.5-5.7 2.3-7.2 5.3-7.8 3-0.6 5-0.1 6.6 1.8 1.6 1.8 4.1 6.3 2.1 10.7-2 4.4-3.9 8.3-3.9 8.3 0 0 2.5-1.2 6.3-2.3 3.8-1.1 6.8-1.4 9.8 0.2 3.1 1.6 5.8 5.4 4.6 10.6-1.2 5.1-4.4 6.3-9.6 6-5.2-0.4-9-6.5-9.8-7.6-0.9-1.1-0.9 2.8 0.2 5.9 1.2 3.1 10.2 9.1 17.6 4.3 7.4-4.7 9.2-12.4 4.2-18.5-5.1-6.1-24.8-26.7-24.8-26.7 0 0-2-3-4.6-0.2-2.5 2.9-24.1 27.1-24.1 27.1 0 0-4.2 6.2-0.7 14.1 3.5 7.8 12.3 6.7 15.1 5.3 2.7-1.3 7.7-3.1 10.2-11.2z"/>
			</g>
			<g id="&lt;Group&gt;">
				<path id="&lt;Path&gt;" class="s1" d="m175.5-817.5c0 0-4.2-4-6.3-8.4-2.1-4.4-0.2-8.4 2.3-11.1 2.4-2.7 8.8-2.9 11.6-1 2.8 1.8 5.5 5.5 4.4 8.6-1 3.2-1 3.2-1 3.2l-3.8 7.8c0 0 7.2-4.1 12.9-3.6 5.6 0.5 7.1 2.3 7.7 5.3 0.6 3 0.1 5-1.7 6.6-1.9 1.6-6.4 4.2-10.8 2.1-4.4-2-8.3-3.9-8.3-3.9 0 0 1.2 2.5 2.3 6.3 1.1 3.9 1.4 6.8-0.2 9.9-1.6 3-5.4 5.7-10.5 4.5-5.2-1.2-6.4-4.3-6-9.6 0.3-5.2 6.4-9 7.5-9.8 1.1-0.8-2.8-0.9-5.9 0.3-3 1.2-9 10.1-4.3 17.5 4.7 7.4 12.4 9.2 18.5 4.2 6.1-5 26.7-24.8 26.7-24.8 0 0 3-2 0.2-4.5-2.9-2.6-27.1-24.2-27.1-24.2 0 0-6.2-4.2-14-0.7-7.9 3.5-6.7 12.4-5.4 15.1 1.3 2.7 3.1 7.7 11.2 10.2z"/>
				<path id="&lt;Path&gt;" class="s1" d="m253.9-812.4c0 0 4.2 3.9 6.3 8.3 2 4.4 0.2 8.5-2.3 11.1-2.4 2.7-8.8 3-11.6 1.1-2.8-1.9-5.5-5.5-4.4-8.7 1-3.1 1-3.1 1-3.1l3.8-7.9c0 0-7.2 4.1-12.9 3.6-5.6-0.5-7.1-2.3-7.7-5.3-0.6-3-0.2-4.9 1.7-6.5 1.9-1.7 6.4-4.2 10.8-2.2 4.4 2 8.3 3.9 8.3 3.9 0 0-1.2-2.4-2.3-6.3-1.1-3.8-1.4-6.8 0.2-9.8 1.6-3.1 5.4-5.8 10.5-4.6 5.2 1.2 6.4 4.4 6 9.6-0.3 5.2-6.4 9-7.5 9.8-1.1 0.9 2.8 0.9 5.9-0.2 3-1.2 9-10.2 4.3-17.6-4.8-7.4-12.4-9.2-18.5-4.1-6.1 5-26.7 24.7-26.7 24.7 0 0-3 2.1-0.2 4.6 2.9 2.5 27.1 24.1 27.1 24.1 0 0 6.1 4.2 14 0.7 7.9-3.5 6.7-12.3 5.4-15.1-1.3-2.7-3.1-7.7-11.2-10.1z"/>
			</g>
		</g>
		<g id="&lt;Group&gt;">
			<path id="&lt;Compound Path&gt;" class="s1" d="m76.5-733.8q0 0.3 0 0.6 0 0.2 0 0.5h-6l-0.1-0.9 1.8-0.6v-10.8l-1.7-0.6v-0.9h6q0 0.3 0 0.5 0 0.3 0 0.5l-1.9 0.5v7.9l6.1-7.1v-0.8l-1.8-0.5q0.1-0.3 0.1-0.5 0-0.2 0-0.5h5.9q0 0.3 0 0.5 0 0.3 0.1 0.5l-2 0.5v10.8l2 0.4-0.1 1.1h-5.9l-0.1-1 1.8-0.5v-7.9q-1.5 1.7-3 3.5-1.5 1.8-3.1 3.5v0.9z"/>
			<path id="&lt;Compound Path&gt;" class="s1" d="m87-739.4q0-1.3 0.3-2.7 0.3-1.3 1-2.4 0.8-1 1.9-1.7 1.2-0.6 2.9-0.6 0.8 0 1.6 0.1 0.8 0.1 1.7 0.7l0.4-0.8h0.9v4.1l-0.9 0.1-0.7-1.9q-0.6-0.4-1.3-0.6-0.6-0.1-1.5-0.1-1.1 0-1.8 0.4-0.8 0.5-1.2 1.2-0.5 0.8-0.7 1.8-0.2 1.1-0.2 2.2 0 1.1 0.2 2.1 0.1 0.9 0.6 1.7 0.4 0.8 1.3 1.2 0.8 0.5 2.2 0.5 0.8 0 1.8-0.1 0.9-0.2 2-0.5l0.4 1.3q-1.1 0.5-2.3 0.8-1.3 0.2-2.3 0.2-3.1 0-4.7-1.7-1.6-1.8-1.6-5.3z"/>
			<path id="&lt;Compound Path&gt;" class="s1" d="m104.6-746.5q1.5 0 2.9 0 1.4 0 2.9 0l0.3 0.1v3.9l-0.9 0.1-0.9-2.7h-3.1v10.9l1.9 0.5v1h-6l-0.1-0.9 1.9-0.6v-10.9h-3.2l-0.9 2.7-0.9-0.1v-3.9l0.3-0.1q1.4 0 2.8 0 1.4 0 3 0z"/>
			<path id="&lt;Compound Path&gt;" fill-rule="evenodd" class="s1" d="m124.7-739.8q0 1.5-0.4 2.8-0.4 1.4-1.1 2.4-0.8 1-2 1.6-1.2 0.6-2.9 0.6-3 0-4.6-1.9-1.6-1.8-1.6-5.2 0-1.4 0.4-2.8 0.4-1.3 1.1-2.3 0.8-1 2-1.6 1.2-0.6 2.9-0.6 1.4 0 2.6 0.5 1.1 0.5 1.9 1.4 0.8 0.9 1.2 2.2 0.5 1.3 0.5 2.9zm-6.3-5.6q-1.1 0-1.9 0.5-0.7 0.5-1.1 1.2-0.5 0.8-0.7 1.8-0.1 1-0.1 2 0 1.4 0.2 2.5 0.2 1 0.6 1.8 0.5 0.8 1.2 1.2 0.7 0.4 1.8 0.4 1.1 0 1.8-0.4 0.8-0.5 1.2-1.2 0.5-0.8 0.7-1.8 0.2-1 0.2-2.1 0-1.2-0.2-2.3-0.2-1-0.7-1.8-0.4-0.8-1.2-1.3-0.7-0.5-1.8-0.5z"/>
			<path id="&lt;Compound Path&gt;" fill-rule="evenodd" class="s1" d="m126.8-746.5q0.4 0 0.6 0 0.3 0 0.6 0 0.3 0 0.6 0 0.4 0 0.8 0 1 0 1.9 0 1 0 1.9 0 1.1 0 1.9 0.2 0.9 0.2 1.5 0.7 0.6 0.5 1 1.3 0.3 0.7 0.3 1.7 0 0.9-0.3 1.7-0.3 0.8-1 1.4-0.6 0.6-1.6 1-1 0.3-2.2 0.3-0.4 0-0.9 0-0.6-0.1-1.3-0.2v4.2l2 0.4v1.1h-6v-0.9l1.7-0.6v-10.9l-1.6-0.5zm8.7 4.2q0-1.5-0.9-2.2-1-0.6-2.5-0.6-0.7 0-1.5 0.1v5.3q0.4 0 0.8 0.1 0.4 0 0.6 0 1 0 1.7-0.3 0.7-0.2 1.1-0.6 0.4-0.4 0.5-0.9 0.2-0.5 0.2-0.9z"/>
			<path id="&lt;Compound Path&gt;" class="s1" d="m145.4-733.8q0 0.3-0.1 0.6 0 0.2 0 0.5h-5.9l-0.1-0.9 1.8-0.6v-10.8l-1.8-0.6 0.1-0.9h5.9q0 0.3 0 0.5 0.1 0.3 0.1 0.5l-1.9 0.5v7.9l6.1-7.1v-0.8l-1.8-0.5q0-0.3 0-0.5 0.1-0.2 0.1-0.5h5.9q0 0.3 0 0.5 0 0.3 0 0.5l-1.9 0.5v10.8l1.9 0.4v1.1h-6v-1l1.8-0.5v-7.9q-1.6 1.7-3.1 3.5-1.4 1.8-3 3.5v0.9z"/>
			<path id="&lt;Compound Path&gt;" class="s1" d="m159.8-732.2q-0.4 1.1-1.1 1.8-0.7 0.8-1.7 1.2-1 0.5-2.1 0.8l-0.3-1.1q1.7-0.8 2.5-2 0.8-1.2 0.8-2.9v-10.6l-1.9-0.6v-0.9h6.1v1l-1.9 0.5v10.1q0 1.6-0.4 2.7z"/>
			<path id="&lt;Compound Path&gt;" class="s1" d="m164-739.4q0-1.3 0.3-2.7 0.3-1.3 1.1-2.4 0.7-1 1.9-1.7 1.1-0.6 2.8-0.6 0.8 0 1.6 0.1 0.8 0.1 1.7 0.7l0.5-0.8h0.8v4.1l-0.8 0.1-0.8-1.9q-0.6-0.4-1.2-0.6-0.7-0.1-1.6-0.1-1 0-1.8 0.4-0.7 0.5-1.2 1.2-0.5 0.8-0.7 1.8-0.2 1.1-0.2 2.2 0 1.1 0.2 2.1 0.1 0.9 0.6 1.7 0.5 0.8 1.3 1.2 0.8 0.5 2.2 0.5 0.8 0 1.8-0.1 1-0.2 2-0.5l0.4 1.3q-1 0.5-2.3 0.8-1.3 0.2-2.3 0.2-3.1 0-4.7-1.7-1.6-1.8-1.6-5.3z"/>
			<path id="&lt;Compound Path&gt;" class="s1" d="m182-732.7h-6v-0.9l1.8-0.6v-10.8l-1.8-0.6v-0.9h6l0.1 1-2 0.5v10.8l2 0.5zm7.1-0.7l-0.2 0.7-2 0.4-6.2-7.4v-0.3l4.1-5.1-1.4-0.5 0.1-0.9h4.7v1q-0.9 0.4-1.7 1-0.8 0.6-1.5 1.4l-2.5 2.7z"/>
			<path id="&lt;Compound Path&gt;" class="s1" d="m196.5-733.8q0 0.3 0 0.6 0 0.2 0 0.5h-6v-0.9l1.8-0.6v-10.8l-1.8-0.6v-0.9h6q0 0.3 0 0.5 0 0.3 0 0.5l-1.9 0.5v7.9l6.1-7.1v-0.8l-1.7-0.5q0-0.3 0-0.5 0-0.2 0-0.5h5.9q0 0.3 0 0.5 0.1 0.3 0.1 0.5l-1.9 0.5v10.8l1.9 0.4-0.1 1.1h-5.9l-0.1-1 1.8-0.5v-7.9q-1.5 1.7-3 3.5-1.5 1.8-3.1 3.5v0.9z"/>
			<path id="&lt;Compound Path&gt;" class="s1" d="m216.6-743.6l-0.5 9.4 2.1 0.4v1.1h-5.7l-0.1-1 2.1-0.5 0.8-10.8-2-0.6 0.2-0.9q0.7 0 1.2 0 0.6 0 1.1 0 0.5 0 1.1 0 0.5 0 1.3 0 0 0.3 0.1 0.6 0.1 0.2 0.2 0.5l2.1 5 1.6 3.7h0.1l1.7-4.1 2.4-5.7q0.9 0 2.1 0 1.3 0 2.5 0v1l-2 0.5 0.8 10.8 1.9 0.4v1.1h-6.1l-0.1-1 1.8-0.5-0.4-9.6h-0.1l-4.4 10.5h-1.3z"/>
			<path id="&lt;Compound Path&gt;" class="s1" d="m239.6-735.4q-0.6 1.5-1.5 2.3-0.9 0.8-2.1 0.8-1 0-1.6-0.4-0.6-0.5-0.6-1.1 0-0.5 0.3-0.8 0.3-0.4 0.7-0.6l2.1 1.2q0.4-0.2 0.8-0.6 0.4-0.5 0.7-1.2l0.6-1.3h-1.3l-3.6-8-1.5-0.4 0.1-1h3.8q0 0.5 0.2 1 0.1 0.5 0.3 1l2.5 5.8h0.1q0.2-0.5 0.5-1.3 0.3-0.7 0.6-1.6 0.4-0.9 0.7-1.8 0.4-0.9 0.7-1.6l-1.8-0.5 0.1-1h4.8v1q-1.6 0.7-2.5 2.8z"/>
			<path id="&lt;Compound Path&gt;" class="s1" d="m253.1-740.4q0.8 0.1 1.4 0.5 0.6 0.3 1 0.8 0.4 0.4 0.5 1 0.2 0.6 0.2 1.2 0 1.1-0.4 2-0.4 0.8-1.2 1.4-0.8 0.5-1.8 0.8-1.1 0.3-2.3 0.3-1.3 0-2.4-0.2-1.2-0.3-2.2-0.7l0.5-1.3q1.2 0.3 2.1 0.4 0.9 0.1 1.5 0.1 1.1 0 1.8-0.2 0.7-0.2 1.2-0.6 0.5-0.4 0.7-0.9 0.2-0.5 0.2-1 0-1.3-1-1.9-1-0.7-3.1-0.7-0.1 0-0.3 0-0.2 0-0.3 0l-0.3-1.1 0.1-0.3q1.3 0 2.1-0.3 0.8-0.2 1.3-0.6 0.5-0.3 0.7-0.7 0.2-0.5 0.2-0.9 0-0.9-0.7-1.4-0.6-0.6-1.9-0.6-0.6 0-1.4 0.2-0.8 0.1-1.4 0.5l-0.6 2.1-0.9-0.1-0.1-2.9q0.5-0.4 1.2-0.7 0.6-0.2 1.2-0.4 0.7-0.1 1.3-0.2 0.6 0 1 0 1.5 0 2.4 0.3 0.9 0.3 1.4 0.8 0.5 0.5 0.7 1.1 0.2 0.6 0.2 1 0 0.6-0.2 1.1-0.2 0.5-0.5 0.9-0.4 0.4-0.9 0.7-0.4 0.3-1 0.4z"/>
			<path id="&lt;Compound Path&gt;" class="s1" d="m269.2-736.7l-0.5 3.8-0.2 0.2q-0.7 0-1.3 0-0.6-0.1-1.2-0.1-0.6 0-1.2 0-0.7 0-1.5 0-0.5 0-1.2 0-0.7 0-1.4 0-0.7 0-1.4 0-0.7 0-1.3 0.1l-0.1-0.9 1.8-0.6v-10.9l-1.6-0.5 0.1-0.9q0.5 0 1.3 0 0.7 0 1.4 0 0.8 0 1.4 0 0.7 0 1.1 0 0.6 0 1.2 0 0.6 0 1.1 0 0.5 0 1.1 0 0.6 0 1.3 0l0.2 0.1 0.1 3.8-0.9 0.1-0.9-2.5h-4.6v4.5l5-0.2v1.6l-5-0.2v5q0.4 0 1.1 0 0.7 0 1.5 0 0.8 0 1.5 0 0.7 0 1 0l1.3-2.6z"/>
			<path id="&lt;Compound Path&gt;" class="s1" d="m275-732.2q-0.4 1.1-1.1 1.8-0.7 0.8-1.7 1.2-0.9 0.5-2.1 0.8l-0.3-1.1q1.8-0.8 2.5-2 0.8-1.2 0.8-2.9v-10.6l-1.9-0.6 0.1-0.9h6v1l-1.9 0.5v10.1q0 1.6-0.4 2.7z"/>
			<path id="&lt;Compound Path&gt;" class="s1" d="m285.3-739.4q0-1.3 0.3-2.7 0.3-1.3 1-2.4 0.8-1 1.9-1.7 1.2-0.6 2.9-0.6 0.8 0 1.5 0.1 0.8 0.1 1.8 0.7l0.4-0.8h0.8l0.1 4.1-0.9 0.1-0.7-1.9q-0.6-0.4-1.3-0.6-0.7-0.1-1.5-0.1-1.1 0-1.8 0.4-0.8 0.5-1.3 1.2-0.4 0.8-0.6 1.8-0.2 1.1-0.2 2.2 0 1.1 0.1 2.1 0.2 0.9 0.7 1.7 0.4 0.8 1.3 1.2 0.8 0.5 2.2 0.5 0.8 0 1.7-0.1 1-0.2 2.1-0.5l0.3 1.3q-1 0.5-2.2 0.8-1.3 0.2-2.4 0.2-3.1 0-4.7-1.7-1.5-1.8-1.5-5.3z"/>
			<path id="&lt;Compound Path&gt;" fill-rule="evenodd" class="s1" d="m297.5-746.5q0.4 0 0.6 0 0.3 0 0.6 0 0.3 0 0.6 0 0.4 0 0.8 0 1 0 1.9 0 1 0 1.9 0 1.1 0 1.9 0.2 0.9 0.2 1.5 0.7 0.6 0.5 1 1.3 0.3 0.7 0.3 1.7 0 0.9-0.3 1.7-0.3 0.8-1 1.4-0.6 0.6-1.6 1-1 0.3-2.2 0.3-0.4 0-0.9 0-0.6-0.1-1.3-0.2v4.2l2 0.4v1.1h-6v-0.9l1.7-0.6v-10.9l-1.6-0.5zm8.7 4.2q0-1.5-0.9-2.2-1-0.6-2.5-0.6-0.7 0-1.5 0.1v5.3q0.4 0 0.8 0.1 0.4 0 0.6 0 1 0 1.7-0.3 0.7-0.2 1.1-0.6 0.4-0.4 0.5-0.9 0.2-0.5 0.2-0.9z"/>
			<path id="&lt;Compound Path&gt;" fill-rule="evenodd" class="s1" d="m310.1-745.6l0.1-0.9q0.6 0 1.8 0 1.3 0 3.3 0 0.4 0 1 0 0.6 0 1.3 0 0.7 0 1.3 0 0.7 0 1.3 0l0.2 0.1q0 0.9 0 1.8 0 0.9 0 1.8-0.2 0-0.4 0.1-0.2 0-0.4 0-0.2-0.5-0.4-1.1-0.2-0.6-0.4-1.2-0.2 0-0.7 0-0.4 0-1 0-0.7 0-1.4 0-0.8 0-1.6 0v3.8q0.5-0.1 1.2-0.2 0.7 0 1.3 0 2.5 0 3.9 1.2 1.4 1.1 1.4 3.2 0 0.9-0.3 1.7-0.3 0.7-0.9 1.3-0.6 0.6-1.4 0.9-0.9 0.4-1.9 0.4-1 0-2.1-0.1-1.1 0-2.2 0-0.8 0-1.6 0-0.7 0-1.4 0.1l-0.1-0.9 1.8-0.6v-10.8zm5.9 5.6q-0.9 0-1.9 0.1v5.4q0.4 0.1 0.9 0.2 0.6 0 1 0 1 0 1.7-0.2 0.7-0.2 1.1-0.6 0.4-0.4 0.6-0.9 0.2-0.5 0.2-1.1 0-0.6-0.2-1.2-0.2-0.5-0.6-0.9-0.5-0.4-1.1-0.6-0.7-0.2-1.7-0.2z"/>
			<path id="&lt;Compound Path&gt;" class="s1" d="m329.6-733.8q0 0.3-0.1 0.6 0 0.2 0 0.5h-5.9l-0.1-0.9 1.8-0.6v-10.8l-1.8-0.6 0.1-0.9h5.9q0 0.3 0 0.5 0.1 0.3 0.1 0.5l-1.9 0.5v7.9l6.1-7.1v-0.8l-1.8-0.5q0-0.3 0-0.5 0.1-0.2 0.1-0.5h5.9q0 0.3 0 0.5 0 0.3 0 0.5l-1.9 0.5v10.8l1.9 0.4v1.1h-6v-1l1.8-0.5v-7.9q-1.6 1.7-3.1 3.5-1.4 1.8-3 3.5v0.9z"/>
			<path id="&lt;Compound Path&gt;" class="s1" d="m344-732.2q-0.4 1.1-1.1 1.8-0.7 0.8-1.7 1.2-1 0.5-2.1 0.8l-0.3-1.1q1.7-0.8 2.5-2 0.8-1.2 0.8-2.9v-10.6l-1.9-0.6v-0.9h6.1v1l-1.9 0.5v10.1q0 1.6-0.4 2.7z"/>
			<path id="&lt;Compound Path&gt;" class="s1" d="m359-736.7l-0.5 3.8-0.3 0.2q-0.7 0-1.3 0-0.6-0.1-1.2-0.1-0.5 0-1.2 0-0.6 0-1.4 0-0.6 0-1.2 0-0.7 0-1.4 0-0.7 0-1.4 0-0.7 0-1.3 0.1l-0.1-0.9 1.8-0.6v-10.9l-1.6-0.5 0.1-0.9q0.5 0 1.2 0 0.7 0 1.5 0 0.7 0 1.4 0 0.6 0 1 0 0.7 0 1.3 0 0.5 0 1.1 0 0.5 0 1.1 0 0.5 0 1.2 0l0.2 0.1 0.1 3.8-0.9 0.1-0.8-2.5h-4.6v4.5l5-0.2v1.6l-5-0.2v5q0.4 0 1.1 0 0.7 0 1.4 0 0.8 0 1.5 0 0.7 0 1.1 0l1.3-2.6z"/>
		</g>
		<g id="&lt;Group&gt;">
			<g id="&lt;Group&gt;">
				<path id="&lt;Path&gt;" class="s1" d="m60.7-581.6c0 0 3.9-4.2 8.3-6.3 4.4-2.1 8.5-0.2 11.2 2.2 2.6 2.5 2.9 8.9 1 11.7-1.9 2.8-5.5 5.5-8.7 4.4-3.1-1-3.1-1-3.1-1l-7.9-3.8c0 0 4.1 7.2 3.6 12.8-0.5 5.7-2.3 7.2-5.3 7.8-3 0.6-4.9 0.1-6.5-1.7-1.6-1.9-4.2-6.4-2.2-10.8 2-4.4 3.9-8.3 3.9-8.3 0 0-2.4 1.2-6.3 2.3-3.8 1.1-6.8 1.4-9.8-0.2-3.1-1.6-5.8-5.4-4.6-10.6 1.2-5.1 4.4-6.3 9.6-6 5.2 0.4 9 6.4 9.8 7.6 0.9 1.1 1-2.8-0.2-5.9-1.2-3.1-10.2-9.1-17.6-4.3-7.4 4.7-9.2 12.4-4.2 18.5 5.1 6.1 24.8 26.7 24.8 26.7 0 0 2.1 3 4.6 0.2 2.5-2.9 24.1-27.1 24.1-27.1 0 0 4.2-6.2 0.7-14.1-3.4-7.9-12.3-6.7-15-5.4-2.8 1.4-7.8 3.2-10.2 11.3z"/>
				<path id="&lt;Path&gt;" class="s1" d="m55.6-497.5c0 0-4 4.2-8.4 6.3-4.4 2-8.5 0.2-11.1-2.3-2.7-2.4-2.9-8.9-1.1-11.6 1.9-2.8 5.6-5.5 8.7-4.4 3.2 1 3.2 1 3.2 1l7.8 3.8c0 0-4.1-7.2-3.6-12.9 0.5-5.6 2.3-7.1 5.3-7.7 3-0.7 5-0.2 6.6 1.7 1.6 1.9 4.2 6.4 2.2 10.8-2.1 4.4-4 8.3-4 8.3 0 0 2.5-1.2 6.3-2.3 3.9-1.1 6.8-1.4 9.9 0.2 3 1.6 5.7 5.4 4.5 10.5-1.2 5.2-4.3 6.4-9.6 6-5.2-0.3-9-6.4-9.8-7.5-0.8-1.1-0.9 2.8 0.3 5.9 1.2 3 10.1 9.1 17.5 4.3 7.4-4.8 9.2-12.4 4.2-18.5-5-6.1-24.8-26.7-24.8-26.7 0 0-2-3.1-4.5-0.2-2.5 2.9-24.2 27.1-24.2 27.1 0 0-4.2 6.1-0.7 14 3.5 7.9 12.4 6.7 15.1 5.4 2.7-1.3 7.7-3.1 10.2-11.2z"/>
			</g>
			<g id="&lt;Group&gt;">
				<path id="&lt;Path&gt;" class="s1" d="m18.9-541.8c0 0-4.2-4-6.3-8.4-2.1-4.4-0.2-8.4 2.3-11.1 2.4-2.6 8.8-2.9 11.6-1 2.8 1.9 5.5 5.5 4.4 8.6-1 3.2-1 3.2-1 3.2l-3.8 7.9c0 0 7.2-4.1 12.9-3.6 5.6 0.4 7.1 2.3 7.7 5.3 0.7 3 0.2 4.9-1.7 6.5-1.9 1.6-6.4 4.2-10.8 2.2-4.4-2-8.3-3.9-8.3-3.9 0 0 1.2 2.4 2.3 6.3 1.1 3.8 1.4 6.7-0.2 9.8-1.6 3.1-5.4 5.7-10.5 4.6-5.2-1.2-6.4-4.4-6.1-9.6 0.4-5.3 6.5-9 7.6-9.9 1.1-0.8-2.8-0.9-5.9 0.3-3 1.2-9.1 10.1-4.3 17.6 4.7 7.4 12.4 9.2 18.5 4.1 6.1-5 26.7-24.8 26.7-24.8 0 0 3.1-2 0.2-4.5-2.9-2.5-27.1-24.2-27.1-24.2 0 0-6.2-4.2-14-0.7-7.9 3.5-6.8 12.4-5.4 15.1 1.3 2.7 3.1 7.8 11.2 10.2z"/>
				<path id="&lt;Path&gt;" class="s1" d="m97.3-536.7c0 0 4.2 4 6.3 8.4 2.1 4.4 0.2 8.4-2.2 11.1-2.5 2.6-8.9 2.9-11.7 1-2.8-1.8-5.4-5.5-4.4-8.6 1.1-3.2 1.1-3.2 1.1-3.2l3.7-7.9c0 0-7.2 4.2-12.8 3.7-5.7-0.5-7.2-2.3-7.8-5.3-0.6-3-0.1-5 1.8-6.6 1.9-1.6 6.3-4.2 10.7-2.2 4.4 2.1 8.3 3.9 8.3 3.9 0 0-1.2-2.4-2.3-6.2-1.1-3.9-1.4-6.8 0.2-9.9 1.6-3.1 5.4-5.7 10.6-4.5 5.2 1.2 6.3 4.3 6 9.5-0.4 5.3-6.4 9-7.5 9.9-1.2 0.8 2.7 0.9 5.8-0.3 3.1-1.2 9.1-10.1 4.3-17.5-4.7-7.4-12.4-9.2-18.5-4.2-6 5-26.6 24.8-26.6 24.8 0 0-3.1 2-0.3 4.5 2.9 2.5 27.1 24.2 27.1 24.2 0 0 6.2 4.2 14.1 0.7 7.9-3.5 6.7-12.4 5.4-15.1-1.4-2.7-3.2-7.8-11.3-10.2z"/>
			</g>
		</g>
		<path id="&lt;Compound Path&gt;" class="s1" d="m140.3-533.7q0 0.2-0.1 0.5 0 0.3 0 0.5h-5.9l-0.1-0.9 1.8-0.6v-10.8l-1.8-0.5 0.1-0.9h5.9q0 0.2 0 0.5 0.1 0.2 0.1 0.5l-1.9 0.4v7.9l6.1-7v-0.9l-1.8-0.5q0-0.2 0-0.5 0.1-0.2 0.1-0.4h5.9q0 0.2 0 0.5 0 0.2 0 0.5l-1.9 0.4v10.8l1.9 0.5v1h-6v-0.9l1.8-0.6v-7.9q-1.6 1.8-3.1 3.5-1.4 1.8-3 3.5v0.9z"/>
		<path id="&lt;Compound Path&gt;" class="s1" d="m150.8-539.3q0-1.4 0.3-2.7 0.3-1.3 1-2.4 0.8-1.1 1.9-1.7 1.2-0.7 2.9-0.7 0.8 0 1.5 0.2 0.8 0.1 1.8 0.6l0.4-0.8h0.8l0.1 4.2-0.9 0.1-0.7-2q-0.6-0.4-1.3-0.5-0.7-0.2-1.5-0.2-1.1 0-1.8 0.5-0.8 0.4-1.3 1.2-0.4 0.8-0.6 1.8-0.2 1-0.2 2.2 0 1 0.1 2 0.2 1 0.7 1.8 0.4 0.7 1.3 1.2 0.8 0.4 2.2 0.4 0.8 0 1.7-0.1 1-0.1 2.1-0.4l0.3 1.3q-1 0.5-2.2 0.7-1.3 0.2-2.4 0.2-3.1 0-4.7-1.7-1.5-1.7-1.5-5.2z"/>
		<path id="&lt;Compound Path&gt;" class="s1" d="m168.4-546.4q1.5 0 2.9 0 1.4 0 2.9-0.1l0.3 0.2v3.9l-0.9 0.1-0.9-2.8h-3.2v11l2 0.5-0.1 0.9h-5.9l-0.1-0.8 1.8-0.6v-11h-3.1l-0.9 2.8-0.9-0.1v-3.9l0.3-0.2q1.4 0.1 2.8 0.1 1.4 0 3 0z"/>
		<path id="&lt;Compound Path&gt;" fill-rule="evenodd" class="s1" d="m188.4-539.7q0 1.5-0.3 2.8-0.4 1.3-1.1 2.3-0.8 1.1-2 1.6-1.2 0.6-2.9 0.6-3 0-4.6-1.8-1.6-1.8-1.6-5.2 0-1.5 0.4-2.8 0.3-1.3 1.1-2.4 0.8-1 2-1.6 1.2-0.6 2.9-0.6 1.4 0 2.6 0.5 1.1 0.5 1.9 1.4 0.8 1 1.2 2.3 0.4 1.3 0.4 2.9zm-6.3-5.6q-1 0-1.8 0.5-0.7 0.4-1.1 1.2-0.5 0.8-0.7 1.7-0.2 1-0.2 2.1 0 1.3 0.2 2.4 0.2 1.1 0.7 1.9 0.4 0.7 1.2 1.2 0.7 0.4 1.8 0.4 1.1 0 1.8-0.5 0.7-0.4 1.2-1.2 0.5-0.7 0.7-1.8 0.2-1 0.2-2 0-1.2-0.2-2.3-0.2-1.1-0.7-1.9-0.5-0.8-1.2-1.2-0.8-0.5-1.9-0.5z"/>
		<path id="&lt;Compound Path&gt;" fill-rule="evenodd" class="s1" d="m190.6-546.4q0.3 0 0.6 0 0.3 0 0.6 0 0.2 0 0.6 0 0.3 0 0.8 0 1 0 1.9 0 1-0.1 1.9-0.1 1 0 1.9 0.3 0.9 0.2 1.5 0.7 0.6 0.5 1 1.2 0.3 0.8 0.3 1.8 0 0.9-0.3 1.7-0.3 0.8-1 1.4-0.6 0.6-1.6 0.9-1 0.4-2.3 0.4-0.3 0-0.8-0.1-0.6 0-1.3-0.1v4.2l2 0.4-0.1 1h-5.9l-0.1-0.9 1.8-0.5v-10.9l-1.6-0.5zm8.7 4.1q0-1.5-1-2.1-0.9-0.7-2.4-0.7-0.8 0-1.5 0.2v5.2q0.4 0.1 0.7 0.1 0.4 0 0.6 0 1.1 0 1.8-0.2 0.7-0.2 1.1-0.6 0.4-0.4 0.5-0.9 0.2-0.5 0.2-1z"/>
		<path id="&lt;Compound Path&gt;" class="s1" d="m209.1-533.7q0 0.2 0 0.5 0 0.3 0 0.5h-6v-0.9l1.8-0.6v-10.8l-1.8-0.5 0.1-0.9h5.9q0 0.2 0 0.5 0 0.2 0 0.5l-1.8 0.4v7.9l6-7v-0.9l-1.7-0.5q0-0.2 0-0.5 0-0.2 0-0.4h6q0 0.2 0 0.5 0 0.2 0 0.5l-1.9 0.4v10.8l1.9 0.5v1h-6v-0.9l1.7-0.6v-7.9q-1.5 1.8-3 3.5-1.5 1.8-3 3.5v0.9z"/>
		<path id="&lt;Compound Path&gt;" class="s1" d="m223.6-534.3q-0.4 1.1-1.1 1.8-0.7 0.8-1.7 1.2-1 0.5-2.1 0.8l-0.4-1.1q1.8-0.8 2.6-2 0.8-1.2 0.8-2.9v-10.6l-1.9-0.6v-0.9h6.1v1l-1.9 0.5v10.1q0 1.6-0.4 2.7z"/>
		<path id="&lt;Compound Path&gt;" class="s1" d="m227.8-539.3q0-1.4 0.3-2.7 0.3-1.3 1-2.4 0.8-1.1 1.9-1.7 1.2-0.7 2.9-0.7 0.8 0 1.6 0.2 0.8 0.1 1.7 0.6l0.4-0.8h0.9v4.2l-0.9 0.1-0.7-2q-0.6-0.4-1.3-0.5-0.6-0.2-1.5-0.2-1.1 0-1.8 0.5-0.8 0.4-1.2 1.2-0.5 0.8-0.7 1.8-0.2 1-0.2 2.2 0 1 0.2 2 0.1 1 0.6 1.8 0.4 0.7 1.3 1.2 0.8 0.4 2.2 0.4 0.8 0 1.8-0.1 0.9-0.1 2-0.4l0.4 1.3q-1.1 0.5-2.3 0.7-1.3 0.2-2.3 0.2-3.1 0-4.7-1.7-1.6-1.7-1.6-5.2z"/>
		<path id="&lt;Compound Path&gt;" class="s1" d="m245.8-532.9h-6v-0.9l1.8-0.6v-10.8l-1.8-0.5v-0.9h6v0.9l-1.9 0.5v10.8l1.9 0.5zm7.2-0.7l-0.2 0.7-2 0.5-6.3-7.4v-0.4l4.2-5.1-1.4-0.4 0.1-1h4.7v1.1q-0.9 0.4-1.7 0.9-0.8 0.6-1.5 1.4l-2.5 2.8z"/>
		<path id="&lt;Compound Path&gt;" class="s1" d="m260.3-533.7q0 0.2 0 0.5 0 0.3 0 0.5h-6l-0.1-0.9 1.8-0.6v-10.8l-1.7-0.5v-0.9h6q0 0.2 0 0.5 0 0.2 0 0.5l-1.9 0.4v7.9l6.1-7v-0.9l-1.8-0.5q0.1-0.2 0.1-0.5 0-0.2 0-0.4h5.9q0 0.2 0 0.5 0 0.2 0.1 0.5l-2 0.4v10.8l2 0.5-0.1 1h-5.9l-0.1-0.9 1.8-0.6v-7.9q-1.5 1.8-3 3.5-1.5 1.8-3.1 3.5v0.9z"/>
		<path id="&lt;Compound Path&gt;" class="s1" d="m280.4-543.6l-0.1 0.1-0.4 9.4 2.1 0.4v1h-5.7l-0.1-0.9 2.1-0.6 0.8-10.7-2-0.6 0.1-1q0.8 0 1.3 0 0.6 0.1 1.1 0.1 0.5 0 1 0 0.6 0 1.3-0.1 0.1 0.4 0.2 0.6 0.1 0.3 0.2 0.6l2.1 4.9 1.6 3.8h0.1l1.7-4.1 2.4-5.8q0.9 0.1 2.1 0.1 1.2 0 2.4-0.1l0.1 1-2 0.6 0.8 10.8 1.9 0.4v1h-6.2v-0.9l1.8-0.5-0.5-9.6h-0.1l-4.3 10.4h-1.3z"/>
		<path id="&lt;Compound Path&gt;" class="s1" d="m303.4-535.5q-0.6 1.4-1.5 2.2-0.9 0.8-2.2 0.8-0.9 0-1.5-0.4-0.6-0.4-0.6-1.1 0-0.4 0.3-0.8 0.3-0.3 0.7-0.6l2.1 1.2q0.4-0.1 0.8-0.6 0.4-0.5 0.7-1.1l0.5-1.4h-1.2l-3.7-7.9-1.4-0.5 0.1-1h3.8q0 0.5 0.1 1 0.2 0.6 0.4 1.1l2.5 5.7h0.1q0.2-0.5 0.5-1.2 0.3-0.8 0.6-1.7 0.3-0.9 0.7-1.7 0.3-0.9 0.7-1.7l-1.8-0.4v-1.1h4.9v1.1q-1.6 0.6-2.5 2.7z"/>
		<path id="&lt;Compound Path&gt;" class="s1" d="m316.9-540.4q0.8 0.2 1.4 0.5 0.6 0.4 0.9 0.8 0.4 0.5 0.6 1.1 0.2 0.6 0.2 1.2 0 1.1-0.4 1.9-0.5 0.9-1.2 1.4-0.8 0.6-1.9 0.9-1 0.2-2.2 0.2-1.3 0-2.4-0.2-1.2-0.2-2.2-0.7l0.4-1.3q1.3 0.4 2.2 0.5 0.9 0.1 1.5 0.1 1 0 1.8-0.2 0.7-0.3 1.2-0.6 0.4-0.4 0.6-0.9 0.3-0.5 0.3-1.1 0-1.2-1.1-1.9-1-0.7-3-0.7-0.1 0-0.3 0-0.3 0-0.4 0.1l-0.2-1.1 0.1-0.3q1.3-0.1 2.1-0.3 0.8-0.3 1.3-0.6 0.5-0.3 0.7-0.8 0.2-0.4 0.2-0.9 0-0.8-0.7-1.4-0.7-0.5-1.9-0.5-0.7 0-1.4 0.1-0.8 0.2-1.4 0.5l-0.7 2.2-0.9-0.1-0.1-2.9q0.6-0.5 1.2-0.7 0.7-0.3 1.3-0.4 0.6-0.2 1.2-0.2 0.6-0.1 1.1-0.1 1.4 0 2.3 0.4 1 0.3 1.5 0.8 0.5 0.5 0.7 1.1 0.2 0.5 0.2 1 0 0.5-0.2 1-0.2 0.5-0.6 0.9-0.3 0.4-0.8 0.7-0.4 0.3-1 0.5z"/>
		<path id="&lt;Compound Path&gt;" class="s1" d="m333-536.6l-0.5 3.7-0.2 0.2q-0.8 0-1.4 0-0.5 0-1.1 0-0.6 0-1.3 0-0.6 0-1.4 0-0.5 0-1.2 0-0.7 0-1.4 0-0.7 0-1.4 0-0.7 0-1.3 0l-0.1-0.9 1.8-0.5v-10.9l-1.6-0.5 0.1-0.9q0.5 0 1.2 0 0.8 0 1.5 0 0.7 0 1.4 0 0.6 0 1 0 0.7 0 1.3 0 0.5 0 1.1 0 0.5 0 1.1 0 0.5 0 1.2-0.1l0.3 0.2v3.7l-0.9 0.2-0.8-2.5h-4.6v4.5l5-0.2v1.6l-5-0.2v5q0.4 0 1.1 0 0.7 0 1.5 0 0.7 0 1.4 0 0.8 0 1.1 0l1.3-2.6z"/>
		<path id="&lt;Compound Path&gt;" class="s1" d="m338.8-534.3q-0.4 1.1-1.1 1.8-0.7 0.8-1.7 1.2-0.9 0.5-2.1 0.8l-0.3-1.1q1.8-0.8 2.5-2 0.8-1.2 0.8-2.9v-10.6l-1.9-0.6 0.1-0.9h6v1l-1.9 0.5v10.1q0 1.6-0.4 2.7z"/>
		<path id="&lt;Compound Path&gt;" class="s1" d="m349-539.3q0-1.4 0.4-2.7 0.3-1.3 1-2.4 0.7-1.1 1.9-1.7 1.2-0.7 2.9-0.7 0.7 0 1.5 0.2 0.8 0.1 1.8 0.6l0.4-0.8h0.8l0.1 4.2-0.9 0.1-0.8-2q-0.5-0.4-1.2-0.5-0.7-0.2-1.5-0.2-1.1 0-1.9 0.5-0.7 0.4-1.2 1.2-0.4 0.8-0.6 1.8-0.2 1-0.2 2.2 0 1 0.1 2 0.2 1 0.6 1.8 0.5 0.7 1.3 1.2 0.9 0.4 2.2 0.4 0.9 0 1.8-0.1 1-0.1 2-0.4l0.4 1.3q-1 0.5-2.3 0.7-1.2 0.2-2.3 0.2-3.1 0-4.7-1.7-1.6-1.7-1.6-5.2z"/>
		<path id="&lt;Compound Path&gt;" fill-rule="evenodd" class="s1" d="m361.3-546.4q0.3 0 0.6 0 0.3 0 0.6 0 0.2 0 0.6 0 0.3 0 0.8 0 1 0 1.9 0 1-0.1 1.9-0.1 1 0 1.9 0.3 0.9 0.2 1.5 0.7 0.6 0.5 1 1.2 0.3 0.8 0.3 1.8 0 0.9-0.3 1.7-0.3 0.8-1 1.4-0.6 0.6-1.6 0.9-1 0.4-2.3 0.4-0.3 0-0.9-0.1-0.5 0-1.2-0.1v4.2l2 0.4-0.1 1h-5.9l-0.1-0.9 1.8-0.5v-10.9l-1.6-0.5zm8.7 4.1q0-1.5-1-2.1-0.9-0.7-2.4-0.7-0.8 0-1.5 0.2v5.2q0.4 0.1 0.7 0.1 0.4 0 0.6 0 1.1 0 1.8-0.2 0.7-0.2 1.1-0.6 0.4-0.4 0.5-0.9 0.2-0.5 0.2-1z"/>
		<path id="&lt;Compound Path&gt;" fill-rule="evenodd" class="s1" d="m373.9-545.5l0.1-0.9q0.5 0 1.8 0 1.3 0 3.3 0 0.4 0 1 0 0.6 0 1.3 0 0.6 0 1.3 0 0.7 0 1.3-0.1l0.2 0.2q0 0.9 0 1.8 0 0.9 0 1.8-0.2 0-0.4 0-0.2 0.1-0.5 0.1-0.2-0.6-0.4-1.2-0.2-0.5-0.4-1.1-0.1 0-0.6 0-0.4 0-1.1-0.1-0.6 0-1.4 0-0.7 0-1.5 0v3.9q0.5-0.1 1.2-0.2 0.6-0.1 1.2-0.1 2.6 0 4 1.2 1.4 1.2 1.4 3.3 0 0.9-0.3 1.6-0.4 0.8-0.9 1.4-0.6 0.6-1.5 0.9-0.8 0.3-1.8 0.3-1 0-2.1 0-1.1 0-2.2 0-0.9 0-1.6 0-0.7 0-1.5 0v-0.9l1.8-0.5v-10.9zm5.9 5.6q-1 0-1.9 0.2v5.3q0.4 0.2 0.9 0.2 0.5 0.1 1 0.1 1 0 1.7-0.2 0.7-0.2 1.1-0.6 0.4-0.4 0.6-0.9 0.2-0.5 0.2-1.1 0-0.7-0.2-1.2-0.2-0.5-0.7-0.9-0.4-0.4-1.1-0.6-0.6-0.3-1.6-0.3z"/>
		<path id="&lt;Compound Path&gt;" class="s1" d="m393.3-533.7q0 0.2 0 0.5 0 0.3 0 0.5h-6v-0.9l1.8-0.6v-10.8l-1.8-0.5 0.1-0.9h5.9q0 0.2 0 0.5 0 0.2 0 0.5l-1.8 0.4v7.9l6-7v-0.9l-1.7-0.5q0-0.2 0-0.5 0-0.2 0-0.4h6q0 0.2 0 0.5 0 0.2 0 0.5l-1.9 0.4v10.8l1.9 0.5v1h-6v-0.9l1.7-0.6v-7.9q-1.5 1.8-3 3.5-1.5 1.8-3 3.5v0.9z"/>
		<path id="&lt;Compound Path&gt;" class="s1" d="m407.8-534.3q-0.4 1.1-1.1 1.8-0.7 0.8-1.7 1.2-1 0.5-2.1 0.8l-0.4-1.1q1.8-0.8 2.6-2 0.8-1.2 0.8-2.9v-10.6l-1.9-0.6v-0.9h6.1v1l-1.9 0.5v10.1q0 1.6-0.4 2.7z"/>
		<path id="&lt;Compound Path&gt;" class="s1" d="m422.7-536.6l-0.5 3.7-0.2 0.2q-0.7 0-1.3 0-0.6 0-1.2 0-0.6 0-1.2 0-0.6 0-1.5 0-0.5 0-1.2 0-0.6 0-1.3 0-0.7 0-1.4 0-0.7 0-1.3 0l-0.1-0.9 1.8-0.5v-10.9l-1.6-0.5 0.1-0.9q0.5 0 1.2 0 0.7 0 1.5 0 0.7 0 1.3 0 0.7 0 1.1 0 0.7 0 1.2 0 0.6 0 1.1 0 0.6 0 1.1 0 0.6 0 1.3-0.1l0.2 0.2 0.1 3.7-0.9 0.2-0.8-2.5h-4.6v4.5l4.9-0.2v1.6l-4.9-0.2v5q0.3 0 1 0 0.8 0 1.5 0 0.8 0 1.5 0 0.7 0 1.1 0l1.3-2.6z"/>
		<path id="&lt;Path&gt;" class="s1" d="m122.8-507.3h-1v-64.6h1z"/>
		<g id="&lt;Group&gt;">
			<g id="&lt;Group&gt;">
				<path id="&lt;Path&gt;" class="s0" d="m217.2-262c0 0 4-4.2 8.4-6.3 4.4-2.1 8.4-0.2 11.1 2.2 2.6 2.5 2.9 8.9 1 11.7-1.9 2.8-5.5 5.4-8.7 4.4-3.1-1.1-3.1-1.1-3.1-1.1l-7.9-3.8c0 0 4.1 7.2 3.6 12.9-0.4 5.6-2.2 7.1-5.3 7.7-3 0.7-4.9 0.2-6.5-1.7-1.6-1.9-4.2-6.4-2.2-10.8 2-4.4 3.9-8.3 3.9-8.3 0 0-2.4 1.2-6.3 2.3-3.8 1.2-6.7 1.4-9.8-0.2-3.1-1.6-5.7-5.3-4.5-10.5 1.2-5.2 4.3-6.4 9.5-6 5.3 0.3 9 6.4 9.9 7.5 0.8 1.1 0.9-2.8-0.3-5.8-1.2-3.1-10.1-9.1-17.5-4.4-7.4 4.8-9.2 12.5-4.2 18.5 5 6.1 24.8 26.7 24.8 26.7 0 0 2 3.1 4.5 0.2 2.5-2.8 24.2-27.1 24.2-27.1 0 0 4.1-6.1 0.7-14-3.5-7.9-12.4-6.7-15.1-5.4-2.7 1.3-7.8 3.2-10.2 11.3z"/>
				<path id="&lt;Path&gt;" class="s0" d="m212.1-178c0 0-4 4.2-8.4 6.3-4.4 2.1-8.4 0.2-11.1-2.3-2.6-2.4-2.9-8.8-1-11.6 1.9-2.8 5.5-5.5 8.6-4.4 3.2 1 3.2 1 3.2 1l7.9 3.8c0 0-4.1-7.2-3.7-12.9 0.5-5.6 2.3-7.1 5.3-7.7 3-0.6 5-0.1 6.6 1.7 1.6 1.9 4.2 6.4 2.2 10.8-2 4.4-3.9 8.3-3.9 8.3 0 0 2.4-1.2 6.2-2.3 3.9-1.1 6.8-1.4 9.9 0.2 3.1 1.6 5.7 5.4 4.5 10.5-1.2 5.2-4.3 6.4-9.5 6-5.3-0.3-9-6.4-9.9-7.5-0.8-1.1-0.9 2.8 0.3 5.9 1.2 3 10.1 9 17.5 4.3 7.4-4.7 9.2-12.4 4.2-18.5-5-6.1-24.8-26.7-24.8-26.7 0 0-2-3-4.5-0.2-2.5 2.9-24.2 27.1-24.2 27.1 0 0-4.2 6.2-0.7 14 3.5 7.9 12.4 6.7 15.1 5.4 2.7-1.3 7.8-3.1 10.2-11.2z"/>
			</g>
			<g id="&lt;Group&gt;">
				<path id="&lt;Path&gt;" class="s0" d="m175.5-222.2c0 0-4.2-4-6.3-8.4-2.1-4.4-0.2-8.5 2.2-11.1 2.5-2.7 8.9-3 11.7-1.1 2.8 1.9 5.4 5.5 4.4 8.7-1.1 3.1-1.1 3.1-1.1 3.1l-3.7 7.9c0 0 7.2-4.1 12.8-3.6 5.7 0.5 7.1 2.3 7.8 5.3 0.6 3 0.1 5-1.8 6.6-1.9 1.6-6.3 4.1-10.7 2.1-4.4-2-8.3-3.9-8.3-3.9 0 0 1.1 2.5 2.3 6.3 1.1 3.8 1.4 6.8-0.3 9.8-1.6 3.1-5.3 5.8-10.5 4.6-5.2-1.2-6.3-4.3-6-9.6 0.4-5.2 6.4-9 7.5-9.8 1.2-0.9-2.8-0.9-5.8 0.2-3.1 1.2-9.1 10.2-4.4 17.6 4.8 7.4 12.5 9.2 18.5 4.2 6.1-5.1 26.7-24.8 26.7-24.8 0 0 3.1-2 0.2-4.6-2.8-2.5-27.1-24.1-27.1-24.1 0 0-6.1-4.2-14-0.7-7.9 3.5-6.7 12.3-5.4 15.1 1.4 2.7 3.2 7.7 11.3 10.2z"/>
				<path id="&lt;Path&gt;" class="s0" d="m253.8-217.2c0 0 4.2 4 6.3 8.4 2.1 4.4 0.2 8.5-2.2 11.1-2.5 2.7-8.9 2.9-11.7 1.1-2.8-1.9-5.4-5.6-4.4-8.7 1.1-3.1 1.1-3.1 1.1-3.1l3.7-7.9c0 0-7.2 4.1-12.8 3.6-5.7-0.5-7.1-2.3-7.8-5.3-0.6-3-0.1-5 1.8-6.6 1.9-1.6 6.3-4.2 10.7-2.1 4.4 2 8.3 3.9 8.3 3.9 0 0-1.1-2.5-2.3-6.3-1.1-3.8-1.4-6.8 0.2-9.8 1.7-3.1 5.4-5.8 10.6-4.6 5.1 1.2 6.3 4.3 6 9.6-0.4 5.2-6.4 9-7.5 9.8-1.2 0.9 2.7 0.9 5.8-0.3 3.1-1.1 9.1-10.1 4.3-17.5-4.7-7.4-12.4-9.2-18.5-4.2-6 5.1-26.6 24.8-26.6 24.8 0 0-3.1 2-0.2 4.6 2.8 2.5 27.1 24.1 27.1 24.1 0 0 6.1 4.2 14 0.7 7.9-3.5 6.7-12.3 5.4-15.1-1.4-2.7-3.2-7.7-11.3-10.2z"/>
			</g>
		</g>
		<g id="&lt;Group&gt;">
			<path id="&lt;Compound Path&gt;" class="s0" d="m76.4-138.5q0 0.3 0 0.5 0 0.3 0 0.5h-6v-0.9l1.8-0.5v-10.8l-1.8-0.6v-0.9h6q0 0.3 0 0.5 0 0.3 0 0.5l-1.9 0.5v7.9l6.1-7.1v-0.8l-1.7-0.6q0-0.2 0-0.4 0-0.3 0-0.5h6q0 0.3 0 0.5 0 0.2 0 0.5l-1.9 0.5v10.8l1.9 0.4v1h-6v-0.9l1.7-0.5v-8q-1.5 1.8-3 3.6-1.5 1.7-3.1 3.5v0.9z"/>
			<path id="&lt;Compound Path&gt;" class="s0" d="m86.9-144.1q0-1.4 0.3-2.7 0.4-1.3 1.1-2.4 0.7-1 1.9-1.7 1.2-0.7 2.9-0.7 0.7 0 1.5 0.2 0.8 0.1 1.7 0.6l0.5-0.7h0.8l0.1 4.1-0.9 0.1-0.8-1.9q-0.6-0.4-1.2-0.6-0.7-0.2-1.5-0.2-1.1 0-1.9 0.5-0.7 0.4-1.2 1.2-0.5 0.8-0.7 1.8-0.2 1-0.2 2.2 0 1.1 0.2 2 0.2 1 0.6 1.8 0.5 0.7 1.3 1.2 0.9 0.4 2.2 0.4 0.8 0 1.8-0.1 1-0.1 2-0.4l0.4 1.3q-1 0.5-2.3 0.7-1.2 0.3-2.3 0.3-3.1 0-4.7-1.8-1.6-1.7-1.6-5.2z"/>
			<path id="&lt;Compound Path&gt;" class="s0" d="m104.5-151.2q1.5 0 3 0 1.4 0 2.9-0.1l0.2 0.2 0.1 3.9-0.9 0.1-0.9-2.8h-3.2v11l1.9 0.5v0.9h-6v-0.8l1.8-0.6v-11h-3.2l-0.9 2.8-0.9-0.1 0.1-3.9 0.2-0.2q1.5 0.1 2.9 0.1 1.3 0 2.9 0z"/>
			<path id="&lt;Compound Path&gt;" fill-rule="evenodd" class="s0" d="m124.6-144.5q0 1.5-0.4 2.8-0.3 1.4-1.1 2.4-0.7 1-1.9 1.6-1.3 0.6-3 0.6-2.9 0-4.5-1.9-1.6-1.8-1.6-5.2 0-1.5 0.3-2.8 0.4-1.3 1.2-2.3 0.7-1 1.9-1.6 1.2-0.6 2.9-0.6 1.5 0 2.6 0.5 1.2 0.5 2 1.4 0.8 0.9 1.2 2.2 0.4 1.3 0.4 2.9zm-6.3-5.6q-1.1 0-1.8 0.5-0.7 0.4-1.2 1.2-0.4 0.8-0.6 1.8-0.2 1-0.2 2 0 1.3 0.2 2.4 0.2 1.1 0.7 1.9 0.4 0.8 1.1 1.2 0.8 0.4 1.9 0.4 1 0 1.8-0.4 0.7-0.5 1.2-1.3 0.4-0.7 0.6-1.7 0.2-1 0.2-2.1 0-1.2-0.2-2.3-0.2-1.1-0.6-1.9-0.5-0.8-1.2-1.2-0.8-0.5-1.9-0.5z"/>
			<path id="&lt;Compound Path&gt;" fill-rule="evenodd" class="s0" d="m126.8-151.2q0.3 0 0.6 0 0.2 0 0.5 0 0.3 0 0.7 0 0.3 0 0.8 0 0.9 0 1.9 0 0.9 0 1.9 0 1 0 1.9 0.2 0.8 0.2 1.5 0.7 0.6 0.5 0.9 1.3 0.4 0.7 0.4 1.7 0 0.9-0.4 1.7-0.3 0.8-0.9 1.4-0.7 0.6-1.6 0.9-1 0.4-2.3 0.4-0.3 0-0.9 0-0.5-0.1-1.2-0.2v4.2l1.9 0.4v1h-6v-0.9l1.8-0.5v-10.9l-1.7-0.5zm8.7 4.1q0-1.4-0.9-2.1-0.9-0.6-2.5-0.6-0.7 0-1.5 0.1v5.2q0.4 0.1 0.8 0.1 0.4 0.1 0.6 0.1 1.1 0 1.8-0.3 0.6-0.2 1-0.6 0.4-0.4 0.6-0.9 0.1-0.5 0.1-1z"/>
			<path id="&lt;Compound Path&gt;" class="s0" d="m145.3-138.5q0 0.3 0 0.5 0 0.3 0 0.5h-6v-0.9l1.8-0.5v-10.8l-1.8-0.6v-0.9h6q0 0.3 0 0.5 0 0.3 0 0.5l-1.9 0.5v7.9l6.1-7.1v-0.8l-1.7-0.6q0-0.2 0-0.4 0-0.3 0-0.5h5.9q0 0.3 0.1 0.5 0 0.2 0 0.5l-1.9 0.5v10.8l1.9 0.4-0.1 1h-5.9l-0.1-0.9 1.8-0.5v-8q-1.5 1.8-3 3.6-1.5 1.7-3.1 3.5v0.9z"/>
			<path id="&lt;Compound Path&gt;" class="s0" d="m159.7-137q-0.4 1.1-1.1 1.9-0.7 0.7-1.6 1.2-1 0.5-2.2 0.7l-0.3-1q1.8-0.8 2.6-2 0.7-1.2 0.7-2.9v-10.7l-1.9-0.5 0.1-0.9h6v1l-1.9 0.4v10.2q0 1.5-0.4 2.6z"/>
			<path id="&lt;Compound Path&gt;" class="s0" d="m163.9-144.1q0-1.4 0.4-2.7 0.3-1.3 1-2.4 0.7-1 1.9-1.7 1.2-0.7 2.9-0.7 0.7 0 1.5 0.2 0.8 0.1 1.8 0.6l0.4-0.7h0.8l0.1 4.1-0.9 0.1-0.8-1.9q-0.5-0.4-1.2-0.6-0.7-0.2-1.5-0.2-1.1 0-1.8 0.5-0.8 0.4-1.3 1.2-0.4 0.8-0.6 1.8-0.2 1-0.2 2.2 0 1.1 0.1 2 0.2 1 0.6 1.8 0.5 0.7 1.3 1.2 0.9 0.4 2.2 0.4 0.9 0 1.8-0.1 1-0.1 2-0.4l0.4 1.3q-1 0.5-2.3 0.7-1.2 0.3-2.3 0.3-3.1 0-4.7-1.8-1.6-1.7-1.6-5.2z"/>
			<path id="&lt;Compound Path&gt;" class="s0" d="m182-137.5h-6l-0.1-0.9 1.9-0.5v-10.9l-1.9-0.5 0.1-0.9h6v1l-1.9 0.4v10.9l1.9 0.4zm7.2-0.6l-0.2 0.7-2 0.4-6.3-7.4v-0.4l4.2-5-1.4-0.5v-0.9h4.8v1q-1 0.4-1.8 1-0.7 0.6-1.5 1.3l-2.4 2.8z"/>
			<path id="&lt;Compound Path&gt;" class="s0" d="m196.4-138.5q0 0.3 0 0.5 0 0.3 0 0.5h-6v-0.9l1.8-0.5v-10.8l-1.8-0.6 0.1-0.9h5.9q0 0.3 0 0.5 0 0.3 0 0.5l-1.8 0.5v7.9l6-7.1v-0.8l-1.7-0.6q0-0.2 0-0.4 0-0.3 0-0.5h6q0 0.3 0 0.5 0 0.2 0 0.5l-1.9 0.5v10.8l1.9 0.4v1h-6v-0.9l1.7-0.5v-8q-1.5 1.8-3 3.6-1.5 1.7-3 3.5v0.9z"/>
			<path id="&lt;Compound Path&gt;" class="s0" d="m216.6-148.4l-0.1 0.1-0.4 9.4 2.1 0.4-0.1 1h-5.7v-0.9l2-0.6 0.9-10.7-2-0.6 0.1-1q0.7 0 1.3 0.1 0.5 0 1.1 0 0.5 0 1 0 0.6 0 1.3-0.1 0.1 0.4 0.2 0.7 0 0.2 0.2 0.5l2.1 4.9 1.5 3.8h0.2l1.6-4.1 2.5-5.8q0.8 0.1 2.1 0.1 1.2 0 2.4-0.1v1l-2 0.6 0.8 10.8 2 0.4-0.1 1h-6.1v-0.9l1.8-0.5-0.5-9.6h-0.1l-4.4 10.4h-1.2z"/>
			<path id="&lt;Compound Path&gt;" class="s0" d="m239.5-140.1q-0.6 1.5-1.4 2.3-0.9 0.8-2.2 0.8-1 0-1.5-0.5-0.6-0.4-0.6-1 0-0.5 0.3-0.8 0.2-0.4 0.7-0.6l2 1.1q0.5-0.1 0.9-0.6 0.4-0.4 0.6-1.1l0.6-1.3h-1.2l-3.7-8-1.4-0.4 0.1-1h3.7q0.1 0.5 0.2 1 0.2 0.5 0.4 1l2.5 5.8q0.3-0.5 0.6-1.3 0.2-0.8 0.6-1.6 0.3-0.9 0.7-1.8 0.3-0.9 0.6-1.6l-1.7-0.5v-1h4.8l0.1 1q-1.6 0.7-2.5 2.7z"/>
			<path id="&lt;Compound Path&gt;" class="s0" d="m253.1-145.1q0.7 0.1 1.3 0.4 0.6 0.4 1 0.9 0.4 0.4 0.6 1 0.2 0.6 0.2 1.2 0 1.1-0.5 2-0.4 0.8-1.2 1.3-0.7 0.6-1.8 0.9-1 0.3-2.3 0.3-1.2 0-2.4-0.3-1.1-0.2-2.1-0.7l0.4-1.2q1.2 0.3 2.2 0.4 0.9 0.1 1.4 0.1 1.1 0 1.8-0.2 0.8-0.2 1.2-0.6 0.5-0.4 0.7-0.9 0.2-0.5 0.2-1 0-1.3-1-2-1-0.6-3.1-0.6-0.1 0-0.3 0-0.2 0-0.3 0l-0.3-1.1 0.2-0.3q1.2-0.1 2-0.3 0.9-0.2 1.4-0.6 0.4-0.3 0.6-0.7 0.2-0.5 0.2-0.9 0-0.9-0.6-1.4-0.7-0.6-1.9-0.6-0.7 0-1.5 0.1-0.8 0.2-1.3 0.5l-0.7 2.2-0.9-0.1-0.1-2.9q0.6-0.4 1.2-0.7 0.6-0.2 1.3-0.4 0.6-0.1 1.2-0.2 0.6-0.1 1.1-0.1 1.4 0 2.3 0.4 0.9 0.3 1.4 0.8 0.6 0.5 0.8 1.1 0.1 0.5 0.1 1 0 0.6-0.2 1.1-0.2 0.5-0.5 0.9-0.3 0.4-0.8 0.7-0.5 0.3-1 0.4z"/>
			<path id="&lt;Compound Path&gt;" class="s0" d="m269.1-141.4l-0.5 3.7-0.2 0.2q-0.7 0-1.3 0-0.6 0-1.2 0-0.6 0-1.2 0-0.6 0-1.5 0-0.5 0-1.1 0-0.7 0-1.4 0-0.7 0-1.4 0-0.7 0-1.3 0l-0.1-0.9 1.8-0.5v-10.9l-1.6-0.5 0.1-0.9q0.5 0 1.2 0 0.7 0 1.5 0 0.7 0 1.4 0 0.6 0 1 0 0.7 0 1.2 0 0.6 0 1.1 0 0.6 0 1.1 0 0.6 0 1.3-0.1l0.2 0.2 0.1 3.7-0.9 0.2-0.8-2.5h-4.6v4.5l4.9-0.2v1.6l-4.9-0.2v5q0.3 0 1.1 0 0.7 0 1.4 0 0.8 0 1.5 0 0.7 0 1.1 0l1.3-2.6z"/>
			<path id="&lt;Compound Path&gt;" class="s0" d="m275-137q-0.4 1.1-1.1 1.9-0.7 0.7-1.7 1.2-1 0.5-2.1 0.7l-0.4-1q1.8-0.8 2.6-2 0.8-1.2 0.8-2.9v-10.7l-1.9-0.5v-0.9h6.1v1l-1.9 0.4v10.2q0 1.5-0.4 2.6z"/>
			<path id="&lt;Compound Path&gt;" class="s0" d="m285.2-144.1q0-1.4 0.3-2.7 0.3-1.3 1.1-2.4 0.7-1 1.9-1.7 1.1-0.7 2.8-0.7 0.8 0 1.6 0.2 0.8 0.1 1.7 0.6l0.5-0.7h0.8v4.1l-0.8 0.1-0.8-1.9q-0.6-0.4-1.2-0.6-0.7-0.2-1.6-0.2-1 0-1.8 0.5-0.7 0.4-1.2 1.2-0.5 0.8-0.7 1.8-0.2 1-0.2 2.2 0 1.1 0.2 2 0.1 1 0.6 1.8 0.5 0.7 1.3 1.2 0.8 0.4 2.2 0.4 0.8 0 1.8-0.1 1-0.1 2-0.4l0.4 1.3q-1 0.5-2.3 0.7-1.3 0.3-2.3 0.3-3.1 0-4.7-1.8-1.6-1.7-1.6-5.2z"/>
			<path id="&lt;Compound Path&gt;" fill-rule="evenodd" class="s0" d="m297.5-151.2q0.3 0 0.6 0 0.2 0 0.5 0 0.3 0 0.7 0 0.3 0 0.8 0 0.9 0 1.9 0 0.9 0 1.9 0 1 0 1.9 0.2 0.8 0.2 1.5 0.7 0.6 0.5 0.9 1.3 0.4 0.7 0.4 1.7 0 0.9-0.4 1.7-0.3 0.8-0.9 1.4-0.7 0.6-1.6 0.9-1 0.4-2.3 0.4-0.3 0-0.9 0-0.5-0.1-1.2-0.2v4.2l1.9 0.4v1h-6v-0.9l1.8-0.5v-10.9l-1.7-0.5zm8.7 4.1q0-1.4-0.9-2.1-0.9-0.6-2.5-0.6-0.7 0-1.5 0.1v5.2q0.4 0.1 0.8 0.1 0.4 0.1 0.6 0.1 1.1 0 1.8-0.3 0.6-0.2 1-0.6 0.4-0.4 0.6-0.9 0.1-0.5 0.1-1z"/>
			<path id="&lt;Compound Path&gt;" fill-rule="evenodd" class="s0" d="m310-150.3l0.1-0.9q0.6 0 1.9 0 1.3 0 3.2 0 0.5 0 1.1 0 0.6 0 1.2 0 0.7 0 1.4 0 0.6 0 1.2-0.1l0.3 0.2q0 0.9 0 1.8 0 0.9 0 1.8-0.2 0-0.5 0.1-0.2 0-0.4 0-0.2-0.6-0.4-1.1-0.2-0.6-0.4-1.2-0.2 0-0.6 0-0.5 0-1.1 0-0.6-0.1-1.4-0.1-0.8 0-1.6 0v3.9q0.6-0.1 1.3-0.2 0.6-0.1 1.2-0.1 2.6 0 3.9 1.2 1.4 1.2 1.4 3.3 0 0.9-0.3 1.6-0.3 0.8-0.9 1.4-0.6 0.6-1.4 0.9-0.8 0.3-1.8 0.3-1.1 0-2.1 0-1.1 0-2.3 0-0.8 0-1.5 0-0.8 0-1.5 0l-0.1-0.9 1.8-0.5v-10.9zm6 5.6q-1 0-2 0.2v5.3q0.4 0.2 1 0.3 0.5 0 1 0 1 0 1.7-0.2 0.7-0.2 1.1-0.6 0.4-0.4 0.6-0.9 0.1-0.5 0.1-1.1 0-0.7-0.2-1.2-0.2-0.5-0.6-0.9-0.4-0.4-1.1-0.6-0.7-0.3-1.6-0.3z"/>
			<path id="&lt;Compound Path&gt;" class="s0" d="m329.5-138.5q0 0.3 0 0.5 0 0.3 0 0.5h-6v-0.9l1.8-0.5v-10.8l-1.8-0.6v-0.9h6q0 0.3 0 0.5 0 0.3 0 0.5l-1.9 0.5v7.9l6.1-7.1v-0.8l-1.7-0.6q0-0.2 0-0.4 0-0.3 0-0.5h5.9q0 0.3 0.1 0.5 0 0.2 0 0.5l-1.9 0.5v10.8l1.9 0.4-0.1 1h-5.9l-0.1-0.9 1.8-0.5v-8q-1.5 1.8-3 3.6-1.5 1.7-3.1 3.5v0.9z"/>
			<path id="&lt;Compound Path&gt;" class="s0" d="m343.9-137q-0.4 1.1-1.1 1.9-0.7 0.7-1.6 1.2-1 0.5-2.2 0.7l-0.3-1q1.8-0.8 2.6-2 0.7-1.2 0.7-2.9v-10.7l-1.9-0.5 0.1-0.9h6v1l-1.9 0.4v10.2q0 1.5-0.4 2.6z"/>
			<path id="&lt;Compound Path&gt;" class="s0" d="m358.9-141.4l-0.5 3.7-0.2 0.2q-0.7 0-1.3 0-0.6 0-1.2 0-0.6 0-1.2 0-0.7 0-1.5 0-0.5 0-1.2 0-0.7 0-1.4 0-0.7 0-1.4 0-0.7 0-1.3 0l-0.1-0.9 1.8-0.5v-10.9l-1.6-0.5 0.1-0.9q0.5 0 1.3 0 0.7 0 1.4 0 0.8 0 1.4 0 0.7 0 1.1 0 0.6 0 1.2 0 0.6 0 1.1 0 0.5 0 1.1 0 0.6 0 1.3-0.1l0.2 0.2 0.1 3.7-0.9 0.2-0.9-2.5h-4.6v4.5l5-0.2v1.6l-5-0.2v5q0.4 0 1.1 0 0.7 0 1.5 0 0.8 0 1.5 0 0.7 0 1 0l1.3-2.6z"/>
		</g>
		<g id="&lt;Group&gt;">
			<g id="&lt;Group&gt;">
				<path id="&lt;Path&gt;" class="s0" d="m60.6 18.7c0 0 4-4.2 8.4-6.3 4.4-2.1 8.4-0.2 11.1 2.2 2.7 2.5 2.9 8.9 1 11.7-1.8 2.8-5.5 5.4-8.6 4.4-3.2-1.1-3.2-1.1-3.2-1.1l-7.9-3.7c0 0 4.2 7.2 3.7 12.8-0.5 5.7-2.3 7.2-5.3 7.8-3 0.6-5 0.1-6.6-1.8-1.6-1.9-4.2-6.3-2.2-10.7 2.1-4.4 4-8.3 4-8.3 0 0-2.5 1.2-6.3 2.3-3.9 1.1-6.8 1.4-9.9-0.2-3.1-1.6-5.7-5.4-4.5-10.6 1.2-5.2 4.3-6.3 9.5-6 5.3 0.4 9.1 6.4 9.9 7.5 0.8 1.2 0.9-2.7-0.3-5.8-1.2-3.1-10.1-9.1-17.5-4.4-7.4 4.8-9.2 12.5-4.2 18.6 5 6 24.8 26.6 24.8 26.6 0 0 2 3.1 4.5 0.3 2.5-2.9 24.2-27.1 24.2-27.1 0 0 4.2-6.2 0.7-14.1-3.5-7.9-12.4-6.7-15.1-5.4-2.7 1.4-7.7 3.2-10.2 11.3z"/>
				<path id="&lt;Path&gt;" class="s0" d="m55.5 102.7c0 0-4 4.2-8.4 6.3-4.4 2.1-8.4 0.2-11.1-2.2-2.6-2.4-2.9-8.9-1-11.7 1.9-2.8 5.5-5.4 8.7-4.4 3.1 1.1 3.1 1.1 3.1 1.1l7.9 3.8c0 0-4.1-7.2-3.6-12.9 0.4-5.7 2.3-7.1 5.3-7.8 3-0.6 4.9-0.1 6.5 1.8 1.6 1.9 4.2 6.3 2.2 10.7-2 4.4-3.9 8.4-3.9 8.4 0 0 2.4-1.2 6.3-2.3 3.8-1.2 6.7-1.4 9.8 0.2 3.1 1.6 5.8 5.3 4.6 10.5-1.2 5.2-4.4 6.4-9.6 6-5.2-0.3-9-6.4-9.9-7.5-0.8-1.1-0.9 2.8 0.3 5.8 1.2 3.1 10.2 9.1 17.6 4.4 7.4-4.8 9.2-12.5 4.1-18.5-5-6.1-24.7-26.7-24.7-26.7 0 0-2.1-3.1-4.6-0.2-2.5 2.8-24.2 27.1-24.2 27.1 0 0-4.2 6.1-0.7 14 3.5 7.9 12.4 6.7 15.1 5.4 2.8-1.3 7.8-3.1 10.2-11.3z"/>
			</g>
			<g id="&lt;Group&gt;">
				<path id="&lt;Path&gt;" class="s0" d="m18.9 58.5c0 0-4.2-4-6.3-8.4-2.1-4.4-0.2-8.4 2.2-11.1 2.5-2.6 8.9-2.9 11.7-1 2.8 1.9 5.4 5.5 4.4 8.6-1.1 3.2-1.1 3.2-1.1 3.2l-3.7 7.9c0 0 7.2-4.2 12.8-3.7 5.7 0.5 7.1 2.3 7.8 5.3 0.6 3 0.1 5-1.8 6.6-1.9 1.6-6.3 4.2-10.7 2.2-4.4-2.1-8.3-3.9-8.3-3.9 0 0 1.1 2.4 2.3 6.3 1.1 3.8 1.4 6.7-0.2 9.8-1.7 3.1-5.4 5.7-10.6 4.5-5.2-1.1-6.4-4.3-6-9.5 0.3-5.3 6.4-9 7.5-9.9 1.2-0.8-2.8-0.9-5.8 0.3-3.1 1.2-9.1 10.1-4.4 17.5 4.8 7.4 12.5 9.3 18.6 4.2 6-5 26.6-24.8 26.6-24.8 0 0 3.1-2 0.2-4.5-2.8-2.5-27.1-24.2-27.1-24.2 0 0-6.1-4.2-14-0.7-7.9 3.5-6.7 12.4-5.4 15.1 1.3 2.7 3.2 7.8 11.3 10.2z"/>
				<path id="&lt;Path&gt;" class="s0" d="m97.3 63.6c0 0 4.2 4 6.3 8.4 2 4.4 0.2 8.4-2.3 11.1-2.4 2.6-8.9 2.9-11.6 1-2.8-1.9-5.5-5.5-4.4-8.6 1-3.2 1-3.2 1-3.2l3.8-7.9c0 0-7.2 4.1-12.9 3.7-5.6-0.5-7.1-2.3-7.7-5.4-0.7-3-0.2-4.9 1.7-6.5 1.9-1.6 6.4-4.2 10.8-2.2 4.4 2 8.3 3.9 8.3 3.9 0 0-1.2-2.4-2.3-6.3-1.1-3.8-1.4-6.7 0.2-9.8 1.6-3.1 5.4-5.7 10.5-4.6 5.2 1.2 6.4 4.4 6 9.6-0.3 5.3-6.4 9-7.5 9.9-1.1 0.8 2.8 0.9 5.9-0.3 3-1.2 9-10.1 4.3-17.5-4.8-7.5-12.4-9.3-18.5-4.2-6.1 5-26.7 24.8-26.7 24.8 0 0-3.1 2-0.2 4.5 2.9 2.5 27.1 24.2 27.1 24.2 0 0 6.1 4.2 14 0.7 7.9-3.5 6.7-12.4 5.4-15.1-1.3-2.7-3.1-7.8-11.2-10.2z"/>
			</g>
		</g>
		<g id="&lt;Group&gt;">
			<path id="&lt;Compound Path&gt;" class="s0" d="m140.2 64.6q0 0.3 0 0.5 0 0.3 0 0.5h-6v-0.9l1.8-0.5v-10.8l-1.8-0.6v-0.9h6q0 0.2 0 0.5 0 0.2 0 0.5l-1.9 0.4v8l6.1-7.1v-0.8l-1.7-0.6q0-0.2 0-0.5 0-0.2 0-0.4h5.9q0 0.2 0.1 0.5 0 0.2 0 0.5l-1.9 0.4v10.8l1.9 0.5-0.1 1h-5.9l-0.1-0.9 1.8-0.5v-8q-1.5 1.8-3 3.5-1.5 1.8-3.1 3.6v0.8z"/>
			<path id="&lt;Compound Path&gt;" class="s0" d="m150.7 59q0-1.4 0.3-2.7 0.3-1.3 1.1-2.4 0.7-1.1 1.9-1.7 1.1-0.7 2.8-0.7 0.8 0 1.6 0.2 0.8 0.1 1.7 0.6l0.5-0.8h0.8v4.2l-0.8 0.1-0.8-2q-0.6-0.4-1.2-0.5-0.7-0.2-1.6-0.2-1 0-1.8 0.5-0.7 0.4-1.2 1.2-0.5 0.8-0.7 1.8-0.2 1-0.2 2.2 0 1 0.2 2 0.1 1 0.6 1.8 0.5 0.7 1.3 1.2 0.8 0.4 2.2 0.4 0.8 0 1.8-0.1 1-0.1 2-0.4l0.4 1.3q-1 0.5-2.3 0.7-1.3 0.2-2.3 0.2-3.1 0-4.7-1.7-1.6-1.7-1.6-5.2z"/>
			<path id="&lt;Compound Path&gt;" class="s0" d="m168.3 51.9q1.5 0 2.9 0 1.5 0 2.9-0.1l0.3 0.2 0.1 3.9-0.9 0.1-1-2.8h-3.1v11l1.9 0.4v1h-6l-0.1-0.9 1.9-0.5v-11h-3.2l-0.9 2.8-0.9-0.1 0.1-3.9 0.2-0.2q1.5 0.1 2.8 0.1 1.4 0 3 0z"/>
			<path id="&lt;Compound Path&gt;" fill-rule="evenodd" class="s0" d="m188.4 58.6q0 1.5-0.4 2.8-0.3 1.3-1.1 2.3-0.8 1.1-2 1.6-1.2 0.6-2.9 0.6-3 0-4.5-1.8-1.6-1.8-1.6-5.2 0-1.5 0.3-2.8 0.4-1.3 1.1-2.4 0.8-1 2-1.6 1.2-0.6 2.9-0.6 1.5 0 2.6 0.5 1.2 0.5 2 1.4 0.8 1 1.2 2.3 0.4 1.3 0.4 2.9zm-6.3-5.6q-1.1 0-1.8 0.5-0.8 0.4-1.2 1.2-0.4 0.8-0.6 1.7-0.2 1-0.2 2.1 0 1.3 0.2 2.4 0.2 1.1 0.6 1.9 0.5 0.7 1.2 1.2 0.8 0.4 1.8 0.4 1.1 0 1.9-0.5 0.7-0.4 1.1-1.2 0.5-0.7 0.7-1.8 0.2-1 0.2-2 0-1.2-0.2-2.3-0.2-1.1-0.7-1.9-0.4-0.8-1.2-1.2-0.7-0.5-1.8-0.5z"/>
			<path id="&lt;Compound Path&gt;" fill-rule="evenodd" class="s0" d="m190.6 51.9q0.3 0 0.6 0 0.2 0 0.5 0 0.3 0 0.6 0 0.4 0 0.9 0 0.9 0 1.9 0 0.9-0.1 1.8-0.1 1.1 0 2 0.3 0.8 0.2 1.4 0.7 0.7 0.5 1 1.2 0.3 0.8 0.3 1.8 0 0.9-0.3 1.7-0.3 0.8-0.9 1.4-0.7 0.6-1.7 0.9-0.9 0.4-2.2 0.4-0.3 0-0.9-0.1-0.6 0-1.2-0.1v4.2l1.9 0.4v1h-6v-0.9l1.8-0.5v-10.9l-1.7-0.5zm8.7 4.1q0-1.5-0.9-2.1-0.9-0.7-2.5-0.7-0.7 0-1.5 0.2v5.2q0.4 0.1 0.8 0.1 0.4 0 0.6 0 1.1 0 1.7-0.2 0.7-0.2 1.1-0.6 0.4-0.4 0.6-0.9 0.1-0.5 0.1-1z"/>
			<path id="&lt;Compound Path&gt;" class="s0" d="m209.1 64.6q0 0.3 0 0.5 0 0.3 0 0.5h-6l-0.1-0.9 1.8-0.5v-10.8l-1.7-0.6v-0.9h6q0 0.2 0 0.5 0 0.2 0 0.5l-1.9 0.4v8l6.1-7.1v-0.8l-1.8-0.6q0.1-0.2 0.1-0.5 0-0.2 0-0.4h5.9q0 0.2 0 0.5 0 0.2 0.1 0.5l-2 0.4v10.8l2 0.5-0.1 1h-5.9l-0.1-0.9 1.8-0.5v-8q-1.5 1.8-3 3.5-1.5 1.8-3.1 3.6v0.8z"/>
			<path id="&lt;Compound Path&gt;" class="s0" d="m223.5 66.1q-0.4 1.1-1.1 1.9-0.7 0.7-1.7 1.2-0.9 0.5-2.1 0.7l-0.3-1.1q1.8-0.8 2.5-2 0.8-1.1 0.8-2.8v-10.7l-1.9-0.5 0.1-0.9h6v1l-1.9 0.4v10.2q0 1.5-0.4 2.6z"/>
			<path id="&lt;Compound Path&gt;" class="s0" d="m227.7 59q0-1.4 0.3-2.7 0.4-1.3 1.1-2.4 0.7-1.1 1.9-1.7 1.2-0.7 2.9-0.7 0.7 0 1.5 0.2 0.8 0.1 1.7 0.6l0.5-0.8h0.8l0.1 4.2-0.9 0.1-0.8-2q-0.6-0.4-1.2-0.5-0.7-0.2-1.5-0.2-1.1 0-1.9 0.5-0.7 0.4-1.2 1.2-0.5 0.8-0.7 1.8-0.2 1-0.2 2.2 0 1 0.2 2 0.2 1 0.6 1.8 0.5 0.7 1.3 1.2 0.9 0.4 2.2 0.4 0.8 0 1.8-0.1 1-0.1 2-0.4l0.4 1.3q-1 0.5-2.3 0.7-1.2 0.2-2.3 0.2-3.1 0-4.7-1.7-1.6-1.7-1.6-5.2z"/>
			<path id="&lt;Compound Path&gt;" class="s0" d="m245.7 65.6h-5.9l-0.1-0.9 1.8-0.5v-10.9l-1.8-0.5 0.1-0.9h5.9l0.1 1-2 0.4v10.9l2 0.4zm7.2-0.7l-0.2 0.7-2.1 0.5-6.2-7.4v-0.4l4.2-5.1-1.4-0.4v-1h4.7v1.1q-0.9 0.4-1.7 1-0.8 0.5-1.5 1.3l-2.5 2.8z"/>
			<path id="&lt;Compound Path&gt;" class="s0" d="m260.2 64.6q0 0.3 0 0.5 0 0.3 0 0.5h-6v-0.9l1.8-0.5v-10.8l-1.8-0.6v-0.9h6q0 0.2 0 0.5 0 0.2 0 0.5l-1.9 0.4v8l6.1-7.1v-0.8l-1.7-0.6q0-0.2 0-0.5 0-0.2 0-0.4h6q0 0.2 0 0.5 0 0.2 0 0.5l-1.9 0.4v10.8l1.9 0.5v1h-6v-0.9l1.7-0.5v-8q-1.5 1.8-3 3.5-1.5 1.8-3.1 3.6v0.8z"/>
			<path id="&lt;Compound Path&gt;" class="s0" d="m280.4 54.7h-0.1l-0.4 9.5 2.1 0.4-0.1 1h-5.7v-1l2-0.5 0.8-10.8-1.9-0.5 0.1-1q0.7 0 1.3 0 0.5 0 1 0 0.5 0 1.1 0 0.5 0 1.3 0 0.1 0.4 0.1 0.6 0.1 0.3 0.2 0.6l2.2 4.9 1.5 3.7h0.1l1.7-4 2.5-5.8q0.8 0.1 2.1 0 1.2 0 2.4 0v1l-2 0.5 0.8 10.8 1.9 0.5v1h-6.1l-0.1-0.9 1.8-0.6-0.4-9.5h-0.1l-4.4 10.4h-1.2z"/>
			<path id="&lt;Compound Path&gt;" class="s0" d="m303.3 63q-0.6 1.4-1.5 2.2-0.8 0.8-2.1 0.8-1 0-1.6-0.4-0.5-0.4-0.5-1 0-0.5 0.2-0.9 0.3-0.3 0.8-0.6l2 1.2q0.4-0.1 0.8-0.6 0.4-0.5 0.7-1.1l0.6-1.4h-1.3l-3.6-7.9-1.5-0.5 0.1-0.9h3.8q0 0.4 0.2 1 0.1 0.5 0.4 1l2.4 5.8h0.1q0.2-0.5 0.5-1.3 0.3-0.8 0.7-1.7 0.3-0.8 0.6-1.7 0.4-0.9 0.7-1.6l-1.8-0.5 0.1-1h4.8v1q-1.6 0.6-2.4 2.7z"/>
			<path id="&lt;Compound Path&gt;" class="s0" d="m316.8 57.9q0.8 0.2 1.4 0.5 0.6 0.4 1 0.8 0.4 0.5 0.6 1.1 0.2 0.6 0.2 1.2 0 1.1-0.5 1.9-0.4 0.9-1.2 1.4-0.8 0.6-1.8 0.9-1.1 0.2-2.3 0.2-1.2 0-2.4-0.2-1.2-0.2-2.1-0.7l0.4-1.3q1.2 0.4 2.1 0.5 0.9 0.1 1.5 0.1 1.1 0 1.8-0.3 0.8-0.2 1.2-0.5 0.5-0.4 0.7-0.9 0.2-0.5 0.2-1.1 0-1.2-1-1.9-1-0.7-3.1-0.7-0.1 0-0.3 0-0.2 0-0.3 0.1l-0.3-1.1 0.2-0.3q1.2-0.1 2-0.3 0.8-0.3 1.3-0.6 0.5-0.4 0.7-0.8 0.2-0.4 0.2-0.9 0-0.8-0.7-1.4-0.6-0.5-1.8-0.5-0.7 0-1.5 0.1-0.8 0.2-1.3 0.5l-0.7 2.2-0.9-0.1-0.1-2.9q0.5-0.5 1.2-0.7 0.6-0.3 1.2-0.4 0.7-0.2 1.3-0.2 0.6-0.1 1-0.1 1.5 0 2.4 0.3 0.9 0.4 1.4 0.9 0.5 0.5 0.7 1 0.2 0.6 0.2 1.1 0 0.5-0.2 1-0.2 0.5-0.5 0.9-0.4 0.4-0.8 0.7-0.5 0.3-1.1 0.5z"/>
			<path id="&lt;Compound Path&gt;" class="s0" d="m332.9 61.6l-0.5 3.8-0.2 0.2q-0.7 0-1.3 0-0.6 0-1.2 0-0.6 0-1.2 0-0.7 0-1.5 0-0.5 0-1.2 0-0.6 0-1.3 0-0.8 0-1.5 0-0.7 0-1.2 0l-0.1-0.9 1.8-0.5v-10.9l-1.7-0.5 0.2-0.9q0.5 0 1.2 0 0.7 0 1.4 0 0.8 0 1.4 0 0.7 0 1.1 0 0.7 0 1.2 0 0.6 0 1.1 0 0.6 0 1.1-0.1 0.6 0 1.3 0l0.2 0.1 0.1 3.8-0.9 0.2-0.9-2.5h-4.5v4.4l4.9-0.1v1.6l-4.9-0.2v5q0.3 0 1 0 0.7 0 1.5 0 0.8 0 1.5 0 0.7 0 1.1 0l1.3-2.7z"/>
			<path id="&lt;Compound Path&gt;" class="s0" d="m338.7 66.1q-0.4 1.1-1.1 1.9-0.7 0.7-1.6 1.2-1 0.5-2.2 0.7l-0.3-1.1q1.8-0.8 2.6-2 0.7-1.1 0.7-2.8v-10.7l-1.8-0.5v-0.9h6l0.1 1-2 0.4v10.2q0 1.5-0.4 2.6z"/>
			<path id="&lt;Compound Path&gt;" class="s0" d="m349 59q0-1.4 0.3-2.7 0.3-1.3 1.1-2.4 0.7-1.1 1.9-1.7 1.1-0.7 2.8-0.7 0.8 0 1.6 0.2 0.8 0.1 1.7 0.6l0.4-0.8h0.9v4.2l-0.9 0.1-0.7-2q-0.6-0.4-1.3-0.5-0.6-0.2-1.5-0.2-1.1 0-1.8 0.5-0.8 0.4-1.2 1.2-0.5 0.8-0.7 1.8-0.2 1-0.2 2.2 0 1 0.2 2 0.1 1 0.6 1.8 0.4 0.7 1.3 1.2 0.8 0.4 2.2 0.4 0.8 0 1.8-0.1 0.9-0.1 2-0.4l0.4 1.3q-1.1 0.5-2.3 0.7-1.3 0.2-2.3 0.2-3.1 0-4.7-1.7-1.6-1.7-1.6-5.2z"/>
			<path id="&lt;Compound Path&gt;" fill-rule="evenodd" class="s0" d="m361.3 51.9q0.3 0 0.6 0 0.2 0 0.5 0 0.3 0 0.6 0 0.4 0 0.9 0 0.9 0 1.9 0 0.9-0.1 1.8-0.1 1.1 0 1.9 0.3 0.9 0.2 1.5 0.7 0.7 0.5 1 1.2 0.3 0.8 0.3 1.8 0 0.9-0.3 1.7-0.3 0.8-0.9 1.4-0.7 0.6-1.7 0.9-0.9 0.4-2.2 0.4-0.3 0-0.9-0.1-0.6 0-1.2-0.1v4.2l1.9 0.4v1h-6v-0.9l1.8-0.5v-10.9l-1.7-0.5zm8.7 4.1q0-1.5-0.9-2.1-0.9-0.7-2.5-0.7-0.7 0-1.5 0.2v5.2q0.4 0.1 0.8 0.1 0.4 0 0.6 0 1 0 1.7-0.2 0.7-0.2 1.1-0.6 0.4-0.4 0.5-0.9 0.2-0.5 0.2-1z"/>
			<path id="&lt;Compound Path&gt;" fill-rule="evenodd" class="s0" d="m373.8 52.8l0.1-0.9q0.6 0 1.9 0 1.2 0 3.2 0 0.4 0 1 0 0.7 0 1.3 0 0.7 0 1.4-0.1 0.6 0 1.2 0l0.2 0.1q0 0.9 0.1 1.8 0 0.9 0 1.9-0.3 0-0.5 0-0.2 0.1-0.4 0.1-0.2-0.6-0.4-1.2-0.2-0.6-0.4-1.2-0.2 0-0.6 0-0.5 0-1.1 0-0.6 0-1.4 0-0.8 0-1.6 0v3.9q0.6-0.1 1.2-0.2 0.7-0.1 1.3-0.1 2.5 0 3.9 1.2 1.4 1.2 1.4 3.2 0 0.9-0.3 1.7-0.3 0.8-0.9 1.4-0.6 0.6-1.4 0.9-0.8 0.3-1.9 0.3-1 0-2.1 0-1.1 0-2.2 0-0.8 0-1.5 0-0.8 0-1.5 0l-0.1-0.9 1.8-0.5v-10.9zm6 5.6q-1 0-2 0.2v5.3q0.4 0.2 1 0.2 0.5 0.1 1 0.1 1 0 1.7-0.2 0.6-0.3 1.1-0.7 0.4-0.3 0.5-0.9 0.2-0.5 0.2-1 0-0.7-0.2-1.2-0.2-0.6-0.6-1-0.5-0.3-1.1-0.6-0.7-0.2-1.6-0.2z"/>
			<path id="&lt;Compound Path&gt;" class="s0" d="m393.3 64.6q0 0.3 0 0.5 0 0.3 0 0.5h-6l-0.1-0.9 1.8-0.5v-10.8l-1.7-0.6v-0.9h6q0 0.2 0 0.5 0 0.2 0 0.5l-1.9 0.4v8l6.1-7.1v-0.8l-1.8-0.6q0.1-0.2 0.1-0.5 0-0.2 0-0.4h5.9q0 0.2 0 0.5 0 0.2 0.1 0.5l-2 0.4v10.8l2 0.5-0.1 1h-5.9l-0.1-0.9 1.8-0.5v-8q-1.5 1.8-3 3.5-1.5 1.8-3.1 3.6v0.8z"/>
			<path id="&lt;Compound Path&gt;" class="s0" d="m407.7 66.1q-0.4 1.1-1.1 1.9-0.7 0.7-1.7 1.2-0.9 0.5-2.1 0.7l-0.3-1.1q1.8-0.8 2.5-2 0.8-1.1 0.8-2.8v-10.7l-1.9-0.5 0.1-0.9h6v1l-1.9 0.4v10.2q0 1.5-0.4 2.6z"/>
			<path id="&lt;Compound Path&gt;" class="s0" d="m422.7 61.6l-0.5 3.8-0.2 0.2q-0.8 0-1.3 0-0.6 0-1.2 0-0.6 0-1.3 0-0.6 0-1.4 0-0.5 0-1.2 0-0.7 0-1.4 0-0.7 0-1.4 0-0.7 0-1.3 0l-0.1-0.9 1.8-0.5v-10.9l-1.6-0.5 0.1-0.9q0.5 0 1.2 0 0.8 0 1.5 0 0.7 0 1.4 0 0.6 0 1 0 0.7 0 1.3 0 0.5 0 1.1 0 0.5 0 1.1-0.1 0.5 0 1.2 0l0.3 0.1v3.8l-0.9 0.2-0.8-2.5h-4.6v4.4l5-0.1v1.6l-5-0.2v5q0.4 0 1.1 0 0.7 0 1.5 0 0.7 0 1.5 0 0.7 0 1 0l1.3-2.7z"/>
		</g>
		<path id="&lt;Path&gt;" class="s0" d="m122.7 93h-1v-64.6h1z"/>
		<g id="&lt;Group&gt;">
			<g id="&lt;Group&gt;">
				<path id="&lt;Path&gt;" class="s1" d="m749.6-864c0 0 3.9-4.2 8.3-6.3 4.4-2.1 8.5-0.2 11.1 2.3 2.7 2.4 3 8.8 1.1 11.6-1.9 2.8-5.5 5.5-8.7 4.4-3.1-1-3.1-1-3.1-1l-7.9-3.8c0 0 4.1 7.2 3.6 12.9-0.5 5.6-2.3 7.1-5.3 7.7-3 0.6-4.9 0.1-6.5-1.7-1.6-1.9-4.2-6.4-2.2-10.8 2-4.4 3.9-8.3 3.9-8.3 0 0-2.4 1.2-6.3 2.3-3.8 1.1-6.8 1.4-9.8-0.2-3.1-1.6-5.7-5.4-4.6-10.5 1.2-5.2 4.4-6.4 9.6-6 5.2 0.3 9 6.4 9.9 7.5 0.8 1.1 0.9-2.8-0.3-5.9-1.2-3-10.2-9-17.6-4.3-7.3 4.7-9.2 12.4-4.1 18.5 5 6.1 24.7 26.7 24.7 26.7 0 0 2.1 3 4.6 0.2 2.5-2.9 24.1-27.1 24.1-27.1 0 0 4.2-6.2 0.7-14-3.5-7.9-12.3-6.7-15-5.4-2.8 1.3-7.8 3.1-10.2 11.2z"/>
				<path id="&lt;Path&gt;" class="s1" d="m744.5-780c0 0-4 4.2-8.4 6.3-4.4 2.1-8.4 0.2-11.1-2.2-2.6-2.5-2.9-8.9-1-11.7 1.8-2.8 5.5-5.4 8.6-4.4 3.2 1.1 3.2 1.1 3.2 1.1l7.8 3.7c0 0-4.1-7.1-3.6-12.8 0.5-5.7 2.3-7.1 5.3-7.7 3-0.7 5-0.2 6.6 1.7 1.6 1.9 4.2 6.4 2.1 10.7-2 4.4-3.9 8.4-3.9 8.4 0 0 2.5-1.2 6.3-2.3 3.9-1.2 6.8-1.4 9.9 0.2 3 1.6 5.7 5.3 4.5 10.5-1.2 5.2-4.3 6.4-9.6 6-5.2-0.3-9-6.4-9.8-7.5-0.8-1.1-0.9 2.8 0.3 5.8 1.2 3.1 10.1 9.1 17.5 4.4 7.4-4.8 9.2-12.5 4.2-18.5-5-6.1-24.8-26.7-24.8-26.7 0 0-2-3.1-4.5-0.2-2.5 2.8-24.2 27.1-24.2 27.1 0 0-4.2 6.1-0.7 14 3.5 7.9 12.4 6.7 15.1 5.4 2.7-1.3 7.7-3.2 10.2-11.3z"/>
			</g>
			<g id="&lt;Group&gt;">
				<path id="&lt;Path&gt;" class="s1" d="m707.8-824.2c0 0-4.1-4-6.2-8.4-2.1-4.4-0.2-8.4 2.2-11.1 2.4-2.6 8.9-2.9 11.7-1 2.7 1.9 5.4 5.5 4.4 8.7-1.1 3.1-1.1 3.1-1.1 3.1l-3.8 7.9c0 0 7.2-4.1 12.9-3.6 5.6 0.4 7.1 2.3 7.7 5.3 0.7 3 0.2 4.9-1.7 6.5-1.9 1.6-6.4 4.2-10.8 2.2-4.4-2-8.3-3.9-8.3-3.9 0 0 1.2 2.4 2.3 6.3 1.1 3.8 1.4 6.7-0.2 9.8-1.6 3.1-5.4 5.7-10.5 4.5-5.2-1.1-6.4-4.3-6-9.5 0.3-5.3 6.4-9 7.5-9.9 1.1-0.8-2.8-0.9-5.8 0.3-3.1 1.2-9.1 10.1-4.4 17.5 4.8 7.4 12.4 9.3 18.5 4.2 6.1-5 26.7-24.8 26.7-24.8 0 0 3.1-2 0.2-4.5-2.9-2.5-27.1-24.2-27.1-24.2 0 0-6.1-4.1-14-0.7-7.9 3.5-6.7 12.4-5.4 15.1 1.3 2.8 3.1 7.8 11.2 10.2z"/>
				<path id="&lt;Path&gt;" class="s1" d="m786.2-819.1c0 0 4.2 4 6.3 8.4 2.1 4.4 0.2 8.4-2.3 11.1-2.4 2.6-8.8 2.9-11.6 1-2.8-1.9-5.5-5.5-4.4-8.6 1-3.2 1-3.2 1-3.2l3.8-7.9c0 0-7.2 4.2-12.8 3.7-5.7-0.5-7.2-2.3-7.8-5.3-0.6-3-0.1-5 1.8-6.6 1.8-1.6 6.3-4.2 10.7-2.2 4.4 2.1 8.3 3.9 8.3 3.9 0 0-1.2-2.4-2.3-6.2-1.1-3.9-1.4-6.8 0.2-9.9 1.6-3.1 5.4-5.7 10.6-4.5 5.1 1.2 6.3 4.3 6 9.5-0.4 5.3-6.5 9.1-7.6 9.9-1.1 0.8 2.8 0.9 5.9-0.3 3.1-1.2 9.1-10.1 4.3-17.5-4.7-7.4-12.4-9.2-18.5-4.2-6.1 5-26.7 24.8-26.7 24.8 0 0-3 2-0.2 4.5 2.9 2.5 27.1 24.2 27.1 24.2 0 0 6.2 4.2 14.1 0.7 7.8-3.5 6.7-12.4 5.3-15.1-1.3-2.7-3.1-7.8-11.2-10.2z"/>
			</g>
		</g>
		<g id="&lt;Group&gt;">
			<g id="&lt;Group&gt;">
				<path id="&lt;Path&gt;" class="s1" d="m592.7-585.4c0 0 4-4.2 8.4-6.3 4.4-2.1 8.5-0.2 11.1 2.2 2.7 2.5 2.9 8.9 1.1 11.7-1.9 2.8-5.6 5.4-8.7 4.4-3.2-1-3.2-1-3.2-1l-7.8-3.8c0 0 4.1 7.2 3.6 12.8-0.5 5.7-2.3 7.2-5.3 7.8-3 0.6-5 0.1-6.6-1.8-1.6-1.8-4.2-6.3-2.1-10.7 2-4.4 3.9-8.3 3.9-8.3 0 0-2.5 1.2-6.3 2.3-3.9 1.1-6.8 1.4-9.9-0.2-3.1-1.6-5.7-5.4-4.5-10.6 1.2-5.2 4.3-6.3 9.6-6 5.2 0.4 9 6.4 9.8 7.6 0.8 1.1 0.9-2.8-0.3-5.9-1.2-3.1-10.1-9.1-17.5-4.3-7.4 4.7-9.2 12.4-4.2 18.5 5 6 24.8 26.7 24.8 26.7 0 0 2 3 4.5 0.2 2.6-2.9 24.2-27.1 24.2-27.1 0 0 4.2-6.2 0.7-14.1-3.5-7.9-12.4-6.7-15.1-5.4-2.7 1.4-7.7 3.2-10.2 11.3z"/>
				<path id="&lt;Path&gt;" class="s1" d="m587.6-501.3c0 0-3.9 4.1-8.3 6.2-4.4 2.1-8.5 0.3-11.2-2.2-2.6-2.4-2.9-8.9-1-11.7 1.9-2.8 5.5-5.4 8.7-4.4 3.1 1.1 3.1 1.1 3.1 1.1l7.9 3.8c0 0-4.1-7.2-3.6-12.9 0.5-5.7 2.3-7.1 5.3-7.7 3-0.7 4.9-0.2 6.5 1.7 1.6 1.9 4.2 6.4 2.2 10.8-2 4.4-3.9 8.3-3.9 8.3 0 0 2.4-1.2 6.3-2.3 3.8-1.2 6.8-1.4 9.8 0.2 3.1 1.6 5.8 5.3 4.6 10.5-1.2 5.2-4.4 6.4-9.6 6-5.2-0.3-9-6.4-9.8-7.5-0.9-1.1-1 2.8 0.2 5.9 1.2 3 10.2 9 17.6 4.3 7.4-4.8 9.2-12.5 4.2-18.5-5.1-6.1-24.8-26.7-24.8-26.7 0 0-2.1-3.1-4.6-0.2-2.5 2.8-24.1 27.1-24.1 27.1 0 0-4.2 6.1-0.7 14 3.4 7.9 12.3 6.7 15 5.4 2.8-1.3 7.8-3.1 10.2-11.2z"/>
			</g>
			<g id="&lt;Group&gt;">
				<path id="&lt;Path&gt;" class="s1" d="m551-545.6c0 0-4.2-4-6.3-8.4-2.1-4.4-0.2-8.4 2.2-11.1 2.5-2.6 8.9-2.9 11.7-1 2.8 1.9 5.4 5.5 4.4 8.6-1.1 3.2-1.1 3.2-1.1 3.2l-3.7 7.9c0 0 7.2-4.2 12.8-3.7 5.7 0.5 7.1 2.3 7.8 5.3 0.6 3.1 0.1 5-1.8 6.6-1.9 1.6-6.3 4.2-10.7 2.2-4.4-2-8.3-3.9-8.3-3.9 0 0 1.2 2.4 2.3 6.3 1.1 3.8 1.4 6.7-0.2 9.8-1.6 3.1-5.4 5.7-10.6 4.5-5.2-1.1-6.3-4.3-6-9.5 0.4-5.3 6.4-9 7.6-9.9 1.1-0.8-2.8-0.9-5.9 0.3-3.1 1.2-9.1 10.1-4.4 17.5 4.8 7.4 12.5 9.3 18.6 4.2 6-5 26.6-24.8 26.6-24.8 0 0 3.1-2 0.3-4.5-2.9-2.5-27.1-24.2-27.1-24.2 0 0-6.2-4.2-14.1-0.7-7.9 3.5-6.7 12.4-5.4 15.1 1.4 2.7 3.2 7.8 11.3 10.2z"/>
				<path id="&lt;Path&gt;" class="s1" d="m629.4-540.5c0 0 4.2 4 6.3 8.4 2.1 4.4 0.2 8.4-2.3 11.1-2.4 2.6-8.8 2.9-11.6 1-2.8-1.9-5.5-5.5-4.4-8.6 1-3.2 1-3.2 1-3.2l3.8-7.9c0 0-7.2 4.1-12.9 3.7-5.6-0.5-7.1-2.3-7.7-5.4-0.7-3-0.2-4.9 1.7-6.5 1.9-1.6 6.4-4.2 10.8-2.2 4.4 2 8.3 3.9 8.3 3.9 0 0-1.2-2.4-2.3-6.3-1.1-3.8-1.4-6.7 0.2-9.8 1.6-3.1 5.4-5.7 10.5-4.5 5.2 1.1 6.4 4.3 6 9.5-0.3 5.3-6.4 9-7.5 9.9-1.1 0.8 2.8 0.9 5.9-0.3 3-1.2 9.1-10.1 4.3-17.5-4.7-7.4-12.4-9.3-18.5-4.2-6.1 5-26.7 24.8-26.7 24.8 0 0-3.1 2-0.2 4.5 2.9 2.5 27.1 24.2 27.1 24.2 0 0 6.2 4.2 14 0.7 7.9-3.5 6.8-12.4 5.4-15.1-1.3-2.7-3.1-7.8-11.2-10.2z"/>
			</g>
		</g>
		<path id="&lt;Path&gt;" class="s1" d="m654.8-511.1h-1v-64.6h1z"/>
		<g id="&lt;Group&gt;">
			<path id="&lt;Compound Path&gt;" class="s1" d="m589.9-751.8h5.5v1l-1.7 0.4v4.1h5.6v-4.1l-1.6-0.5 0.1-0.9h5.4l0.1 1-1.8 0.4v10l1.8 0.4v0.9h-5.5l-0.1-0.8 1.6-0.5v-4.7h-5.6v4.7l1.7 0.4v0.9h-5.5v-0.8l1.6-0.5v-10l-1.6-0.5z"/>
			<path id="&lt;Compound Path&gt;" class="s1" d="m610.7-739.1h-5.5l-0.1-0.8 1.7-0.5v-10l-1.7-0.5 0.1-0.9h5.5v0.9l-1.8 0.5v10l1.8 0.4z"/>
			<path id="&lt;Compound Path&gt;" class="s1" d="m617.2-752.1q0.5 0 1.3 0.1 0.8 0.1 1.7 0.5l0.3-0.6h0.7l0.1 4-0.8 0.1-0.7-2.1q-0.6-0.3-1.3-0.4-0.6-0.2-1.3-0.2-0.9 0-1.5 0.4-0.5 0.4-0.5 1.2 0 0.7 0.9 1.2 0.9 0.6 2.5 1.3 0.8 0.3 1.4 0.7 0.6 0.3 1.1 0.8 0.4 0.4 0.7 1 0.2 0.6 0.2 1.4 0 0.8-0.2 1.5-0.3 0.7-0.9 1.2-0.6 0.6-1.6 0.9-0.9 0.3-2.3 0.3-0.2 0-0.6 0-0.4 0-0.9-0.1-0.4-0.1-0.8-0.2-0.4-0.1-0.8-0.3l-0.3 0.6h-0.8l-0.1-4.3 0.8-0.1 0.7 2.1q0.7 0.5 1.5 0.7 0.7 0.2 1.4 0.2 1.4 0 2.1-0.6 0.6-0.5 0.6-1.4 0-0.5-0.2-0.9-0.2-0.4-0.7-0.7-0.4-0.4-0.9-0.6-0.6-0.3-1.3-0.6-0.9-0.4-1.6-0.8-0.7-0.4-1.2-0.8-0.5-0.4-0.7-1-0.2-0.5-0.2-1.2 0-0.6 0.2-1.2 0.3-0.6 0.8-1.1 0.5-0.4 1.3-0.7 0.8-0.3 1.9-0.3z"/>
			<path id="&lt;Compound Path&gt;" class="s1" d="m628.7-751.7q1.4 0 2.7-0.1 1.3 0 2.7 0l0.2 0.1 0.1 3.6-0.9 0.1-0.8-2.5h-2.9v10.1l1.8 0.4-0.1 0.9h-5.5l-0.1-0.8 1.7-0.5v-10.1h-2.9l-0.8 2.5-0.8-0.1v-3.6l0.2-0.1q1.4 0 2.6 0 1.3 0.1 2.8 0.1z"/>
			<path id="&lt;Compound Path&gt;" fill-rule="evenodd" class="s1" d="m647.2-745.6q0 1.4-0.3 2.6-0.3 1.3-1 2.2-0.7 0.9-1.9 1.5-1.1 0.5-2.7 0.5-2.7 0-4.2-1.7-1.4-1.7-1.4-4.8 0-1.3 0.3-2.6 0.3-1.2 1-2.1 0.7-1 1.8-1.5 1.2-0.6 2.7-0.6 1.4 0 2.4 0.5 1.1 0.4 1.8 1.3 0.8 0.8 1.1 2 0.4 1.2 0.4 2.7zm-5.8-5.1q-1 0-1.7 0.4-0.6 0.4-1 1.1-0.5 0.7-0.6 1.7-0.2 0.9-0.2 1.9 0 1.2 0.2 2.2 0.2 1 0.6 1.7 0.4 0.7 1.1 1.1 0.7 0.4 1.7 0.4 1 0 1.6-0.4 0.7-0.5 1.1-1.2 0.5-0.7 0.6-1.6 0.2-0.9 0.2-1.9 0-1.1-0.2-2.1-0.1-1-0.6-1.7-0.4-0.8-1.1-1.2-0.7-0.4-1.7-0.4z"/>
			<path id="&lt;Compound Path&gt;" fill-rule="evenodd" class="s1" d="m654.8-744.5h-0.3q-0.3 0-0.7 0-0.5 0-1.1-0.2v4.3l1.8 0.4v0.9h-5.5v-0.8l1.6-0.5v-10.1l-1.5-0.4 0.1-0.9q0.3 0 0.6 0 0.2 0 0.5 0 0.2 0 0.6 0 0.3 0.1 0.7 0.1 0.9 0 1.8-0.1 0.9 0 1.7 0 0.9 0 1.7 0.2 0.8 0.2 1.4 0.6 0.6 0.4 0.9 1.1 0.3 0.6 0.3 1.5 0 0.6-0.1 1.2-0.2 0.5-0.5 1-0.4 0.5-0.9 0.8-0.5 0.4-1.3 0.6l4.1 5.2-0.2 0.6-1.8 0.4zm2.5-3.8q0-0.6-0.3-1.1-0.2-0.4-0.6-0.7-0.4-0.3-1-0.4-0.6-0.1-1.3-0.1-0.7 0-1.4 0.2v4.4q0.4 0.1 0.8 0.1 0.4 0 0.6 0 1 0 1.6-0.2 0.6-0.2 1-0.6 0.3-0.3 0.4-0.7 0.2-0.5 0.2-0.9z"/>
			<path id="&lt;Compound Path&gt;" class="s1" d="m667.7-739.1h-5.5l-0.1-0.8 1.7-0.5v-10l-1.7-0.5 0.1-0.9h5.5v0.9l-1.8 0.5v10l1.8 0.4z"/>
			<path id="&lt;Compound Path&gt;" class="s1" d="m669.9-745.2q0-1.3 0.3-2.5 0.3-1.2 1-2.2 0.7-1 1.8-1.6 1-0.6 2.6-0.6 0.7 0 1.4 0.1 0.8 0.2 1.6 0.6l0.4-0.7h0.8l0.1 3.9-0.9 0.1-0.7-1.8q-0.5-0.4-1.1-0.6-0.6-0.1-1.4-0.1-1 0-1.7 0.4-0.7 0.4-1.1 1.1-0.5 0.7-0.6 1.7-0.2 0.9-0.2 2 0 1 0.1 1.9 0.2 0.9 0.6 1.6 0.4 0.7 1.2 1.1 0.8 0.4 2 0.4 0.8 0 1.7-0.1 0.9-0.1 1.8-0.4l0.4 1.2q-1 0.5-2.1 0.7-1.2 0.2-2.2 0.2-2.8 0-4.3-1.6-1.5-1.6-1.5-4.8z"/>
			<path id="&lt;Compound Path&gt;" fill-rule="evenodd" class="s1" d="m688.9-743.1h-4.5l-0.9 2.7 1.8 0.4v0.9h-4.7l-0.1-0.9 1.4-0.4 3.6-9.2q0.2-0.6 0.4-1.1 0.2-0.5 0.3-1.1l1.6-0.3 0.1 0.1 4.5 11.6 1.1 0.4-0.1 0.9h-5.1v-0.9l1.5-0.4zm-3.2-3.5l-0.8 2.3h3.6l-0.8-2.3-1-2.9h-0.1z"/>
			<path id="&lt;Compound Path&gt;" class="s1" d="m704.9-742.9l-0.5 3.6-0.2 0.2q-0.7 0-1.2 0-0.6 0-1.1 0-0.6 0-1.2 0-0.6 0-1.4 0-0.5 0-1.1 0-0.6 0-1.3 0-0.7 0-1.4 0-0.6 0-1.2 0v-0.8l1.6-0.5v-10l-1.7-0.5 0.1-0.9h5.5v0.9l-1.8 0.5v9.9q0.4 0 1 0 0.7 0 1.5 0 0.8 0 1.4 0 0.7 0 1.1 0l1.2-2.5z"/>
			<path id="&lt;Compound Path&gt;" class="s1" d="m715.1-749.1h-0.1l-0.4 8.7 1.9 0.4v0.9h-5.3v-0.9l1.9-0.5 0.7-9.9-1.8-0.5 0.1-0.9q0.7 0 1.2 0 0.5 0 1 0 0.5 0 1 0 0.5 0 1.2 0 0 0.3 0.1 0.5 0.1 0.3 0.2 0.6l2 4.5 1.4 3.5h0.1l1.5-3.8 2.3-5.3q0.8 0 1.9 0 1.2 0 2.3 0v0.9l-1.8 0.5 0.7 10 1.8 0.4-0.1 0.9h-5.6v-0.8l1.6-0.5-0.4-8.9h-0.1l-4 9.7h-1.2z"/>
			<path id="&lt;Compound Path&gt;" class="s1" d="m740.1-750.4l-1.7-0.5 0.1-0.9h4.8l0.1 1-1.8 0.4v7.2q0 1.3-0.4 2.1-0.5 0.9-1.2 1.4-0.7 0.5-1.6 0.7-0.9 0.2-1.9 0.2-0.9 0-1.7-0.2-0.9-0.2-1.5-0.7-0.7-0.5-1.1-1.3-0.4-0.7-0.4-1.9v-7.5l-1.6-0.5v-0.9h5.5v1l-1.7 0.4v6.7q0 0.7 0.1 1.3 0.1 0.7 0.4 1.1 0.4 0.5 1 0.8 0.6 0.2 1.6 0.2 0.9 0 1.5-0.3 0.6-0.2 0.9-0.7 0.3-0.5 0.4-1.2 0.2-0.7 0.2-1.4z"/>
			<path id="&lt;Compound Path&gt;" class="s1" d="m749.2-752.1q0.4 0 1.2 0.1 0.8 0.1 1.8 0.5l0.3-0.6h0.7v4l-0.7 0.1-0.8-2.1q-0.5-0.3-1.2-0.4-0.7-0.2-1.3-0.2-1 0-1.5 0.4-0.6 0.4-0.6 1.2 0 0.7 0.9 1.2 1 0.6 2.6 1.3 0.7 0.3 1.3 0.7 0.6 0.3 1.1 0.8 0.5 0.4 0.7 1 0.3 0.6 0.3 1.4 0 0.8-0.3 1.5-0.3 0.7-0.9 1.2-0.6 0.6-1.5 0.9-1 0.3-2.3 0.3-0.3 0-0.7 0-0.4 0-0.8-0.1-0.4-0.1-0.9-0.2-0.4-0.1-0.7-0.3l-0.4 0.6h-0.7l-0.1-4.3 0.8-0.1 0.7 2.1q0.6 0.5 1.4 0.7 0.8 0.2 1.4 0.2 1.5 0 2.1-0.6 0.6-0.5 0.6-1.4 0-0.5-0.2-0.9-0.2-0.4-0.6-0.7-0.4-0.4-1-0.6-0.6-0.3-1.3-0.6-0.9-0.4-1.6-0.8-0.7-0.4-1.1-0.8-0.5-0.4-0.8-1-0.2-0.5-0.2-1.2 0-0.6 0.2-1.2 0.3-0.6 0.8-1.1 0.5-0.4 1.3-0.7 0.9-0.3 2-0.3z"/>
			<path id="&lt;Compound Path&gt;" class="s1" d="m765.8-742.7l-0.4 3.4-0.2 0.2q-0.7 0-1.2 0-0.6 0-1.1 0-0.6 0-1.2 0-0.5 0-1.3 0-0.5 0-1.1 0-0.6 0-1.3 0-0.6 0-1.3 0-0.6 0-1.2 0v-0.8l1.6-0.5v-10.1l-1.5-0.4 0.1-0.9q0.5 0 1.2 0 0.6 0.1 1.3 0.1 0.7 0 1.3 0 0.6 0 1 0 0.6 0 1.1-0.1 0.5 0 1 0 0.5 0 1 0 0.6 0 1.2 0l0.2 0.1 0.1 3.5-0.9 0.1-0.7-2.3h-4.3v4.1l4.6-0.1v1.5l-4.6-0.2v4.6q0.4 0 1 0 0.7 0 1.4 0 0.7 0 1.4 0 0.6 0 0.9 0l1.2-2.4z"/>
			<path id="&lt;Compound Path&gt;" class="s1" d="m776.9-750.4l-1.6-0.5v-0.9h4.9v1l-1.7 0.4v7.2q0 1.3-0.5 2.1-0.4 0.9-1.1 1.4-0.7 0.5-1.6 0.7-0.9 0.2-1.9 0.2-0.9 0-1.8-0.2-0.8-0.2-1.5-0.7-0.6-0.5-1-1.3-0.4-0.7-0.4-1.9v-7.5l-1.7-0.5 0.1-0.9h5.5v1l-1.7 0.4v6.7q0 0.7 0.1 1.3 0.1 0.7 0.4 1.1 0.3 0.5 0.9 0.8 0.6 0.2 1.6 0.2 1 0 1.6-0.3 0.6-0.2 0.9-0.7 0.3-0.5 0.4-1.2 0.1-0.7 0.1-1.4z"/>
			<path id="&lt;Compound Path&gt;" class="s1" d="m785.1-749.1h-0.1l-0.4 8.7 2 0.4-0.1 0.9h-5.3v-0.9l1.9-0.5 0.8-9.9-1.9-0.5 0.2-0.9q0.6 0 1.1 0 0.5 0 1 0 0.5 0 1 0 0.5 0 1.2 0 0.1 0.3 0.1 0.5 0.1 0.3 0.2 0.6l2 4.5 1.4 3.5h0.1l1.6-3.8 2.2-5.3q0.8 0 2 0 1.1 0 2.2 0v0.9l-1.8 0.5 0.7 10 1.8 0.4v0.9h-5.7v-0.8l1.6-0.5-0.4-8.9h-0.1l-4 9.7h-1.2z"/>
			<path id="&lt;Compound Path&gt;" fill-rule="evenodd" class="s1" d="m817.9-745.6q0 1.4-0.4 2.6-0.3 1.3-1 2.2-0.7 0.9-1.8 1.5-1.1 0.5-2.7 0.5-2.7 0-4.2-1.7-1.5-1.7-1.5-4.8 0-1.3 0.3-2.6 0.4-1.2 1.1-2.1 0.7-1 1.8-1.5 1.1-0.6 2.7-0.6 1.3 0 2.4 0.5 1 0.4 1.8 1.3 0.7 0.8 1.1 2 0.4 1.2 0.4 2.7zm-5.8-5.1q-1 0-1.7 0.4-0.7 0.4-1.1 1.1-0.4 0.7-0.6 1.7-0.2 0.9-0.2 1.9 0.1 1.2 0.2 2.2 0.2 1 0.6 1.7 0.5 0.7 1.1 1.1 0.7 0.4 1.7 0.4 1 0 1.7-0.4 0.7-0.5 1.1-1.2 0.4-0.7 0.6-1.6 0.2-0.9 0.2-1.9 0-1.1-0.2-2.1-0.2-1-0.6-1.7-0.4-0.8-1.1-1.2-0.7-0.4-1.7-0.4z"/>
			<path id="&lt;Compound Path&gt;" class="s1" d="m819.8-750.9l0.1-0.9q0.4 0 1.1 0 0.7 0.1 1.4 0.1 0.6 0 1.2 0 0.6 0 1 0 0.6 0 1.2-0.1 0.5 0 1 0 0.5 0 1.1 0 0.5 0 1.1 0l0.2 0.1 0.1 3.5-0.8 0.1-0.8-2.3h-4.3v4.3l4.6-0.1v1.5l-4.6-0.2v4.5l1.8 0.4v0.9h-5.5l-0.1-0.8 1.7-0.5v-10.1z"/>
			<path id="&lt;Compound Path&gt;" class="s1" d="m840.7-752.1q0.5 0 1.3 0.1 0.8 0.1 1.7 0.5l0.3-0.6h0.7l0.1 4-0.8 0.1-0.8-2.1q-0.5-0.3-1.2-0.4-0.7-0.2-1.3-0.2-0.9 0-1.5 0.4-0.6 0.4-0.6 1.2 0 0.7 1 1.2 0.9 0.6 2.5 1.3 0.7 0.3 1.4 0.7 0.6 0.3 1 0.8 0.5 0.4 0.8 1 0.2 0.6 0.2 1.4 0 0.8-0.3 1.5-0.3 0.7-0.9 1.2-0.6 0.6-1.5 0.9-1 0.3-2.3 0.3-0.3 0-0.7 0-0.4 0-0.8-0.1-0.4-0.1-0.8-0.2-0.5-0.1-0.8-0.3l-0.3 0.6h-0.8l-0.1-4.3 0.8-0.1 0.7 2.1q0.7 0.5 1.4 0.7 0.8 0.2 1.5 0.2 1.4 0 2-0.6 0.7-0.5 0.7-1.4 0-0.5-0.2-0.9-0.3-0.4-0.7-0.7-0.4-0.4-1-0.6-0.5-0.3-1.2-0.6-0.9-0.4-1.6-0.8-0.7-0.4-1.2-0.8-0.5-0.4-0.7-1-0.3-0.5-0.3-1.2 0-0.6 0.3-1.2 0.2-0.6 0.8-1.1 0.5-0.4 1.3-0.7 0.8-0.3 1.9-0.3z"/>
			<path id="&lt;Compound Path&gt;" class="s1" d="m857.4-742.7l-0.5 3.4-0.2 0.2q-0.6 0-1.2 0-0.5 0-1.1 0-0.5 0-1.1 0-0.6 0-1.4 0-0.4 0-1.1 0-0.6 0-1.2 0-0.7 0-1.3 0-0.7 0-1.2 0l-0.1-0.8 1.6-0.5v-10.1l-1.4-0.4 0.1-0.9q0.4 0 1.1 0 0.7 0.1 1.3 0.1 0.7 0 1.3 0 0.6 0 1 0 0.6 0 1.1-0.1 0.6 0 1.1 0 0.4 0 1 0 0.5 0 1.1 0l0.2 0.1 0.1 3.5-0.8 0.1-0.8-2.3h-4.2v4.1l4.5-0.1v1.5l-4.5-0.2v4.6q0.3 0 1 0 0.6 0 1.3 0 0.7 0 1.4 0 0.6 0 1 0l1.2-2.4z"/>
			<path id="&lt;Compound Path&gt;" fill-rule="evenodd" class="s1" d="m864.5-744.5h-0.3q-0.3 0-0.7 0-0.5 0-1.1-0.2v4.3l1.8 0.4v0.9h-5.5v-0.8l1.6-0.5v-10.1l-1.5-0.4 0.1-0.9q0.3 0 0.6 0 0.2 0 0.5 0 0.2 0 0.6 0 0.3 0.1 0.7 0.1 0.9 0 1.8-0.1 0.9 0 1.7 0 0.9 0 1.7 0.2 0.8 0.2 1.4 0.6 0.6 0.4 0.9 1.1 0.3 0.6 0.3 1.5 0 0.6-0.1 1.2-0.2 0.5-0.5 1-0.4 0.5-0.9 0.8-0.5 0.4-1.3 0.6l4.1 5.2-0.2 0.6-1.8 0.4zm2.5-3.8q0-0.6-0.3-1.1-0.2-0.4-0.6-0.7-0.4-0.3-1-0.4-0.6-0.1-1.3-0.1-0.7 0-1.4 0.2v4.4q0.4 0.1 0.8 0.1 0.4 0 0.6 0 1 0 1.6-0.2 0.6-0.2 1-0.6 0.3-0.3 0.4-0.7 0.2-0.5 0.2-0.9z"/>
			<path id="&lt;Compound Path&gt;" fill-rule="evenodd" class="s1" d="m871.5-750.9l0.2-0.9q0.5 0 1.1 0 0.5 0 1 0 0.9 0 2 0 1 0 1.9 0 1.2 0 2 0.3 0.7 0.3 1.1 0.8 0.4 0.4 0.6 0.9 0.1 0.5 0.1 0.9 0 0.5-0.2 1-0.2 0.5-0.5 0.8-0.4 0.3-0.7 0.5-0.4 0.2-0.8 0.3v0.1q1.4 0.2 2.2 1.1 0.8 0.9 0.8 2.3 0 0.8-0.3 1.5-0.3 0.7-0.8 1.2-0.6 0.5-1.3 0.7-0.8 0.3-1.6 0.3-0.9 0-1.9 0-1 0-2 0-0.8 0-1.5 0-0.7 0-1.4 0l-0.1-0.8 1.6-0.5v-10.1zm5 4.3q0.9 0 1.5-0.2 0.6-0.3 0.9-0.6 0.3-0.3 0.4-0.6 0.2-0.3 0.2-0.5 0-1-0.8-1.5-0.7-0.4-1.9-0.4-0.1 0-0.3 0-0.2 0-0.5 0-0.2 0-0.4 0-0.3 0-0.4 0.1v9.7q0.1 0 0.4 0.1 0.3 0 0.5 0.1 0.3 0 0.5 0 0.3 0 0.5 0 1.6 0 2.3-0.7 0.8-0.6 0.8-1.8 0-0.5-0.2-1-0.2-0.5-0.6-0.8-0.4-0.4-1.1-0.6-0.7-0.2-1.8-0.2l-0.1-0.9z"/>
			<path id="&lt;Compound Path&gt;" class="s1" d="m889.9-739.1h-5.5v-0.8l1.7-0.5v-10l-1.7-0.5v-0.9h5.5l0.1 0.9-1.8 0.5v10l1.8 0.4z"/>
			<path id="&lt;Compound Path&gt;" fill-rule="evenodd" class="s1" d="m899.6-743.1h-4.5l-0.8 2.7 1.7 0.4v0.9h-4.7l-0.1-0.9 1.4-0.4 3.6-9.2q0.2-0.6 0.4-1.1 0.2-0.5 0.3-1.1l1.6-0.3 0.1 0.1 4.5 11.6 1.1 0.4-0.1 0.9h-5.1v-0.9l1.5-0.4zm-3.2-3.5l-0.8 2.3h3.6l-0.8-2.3-1-2.9h-0.1z"/>
		</g>
		<g id="&lt;Group&gt;">
			<path id="&lt;Compound Path&gt;" class="s1" d="m666.4-549.8h5.5v0.9l-1.7 0.5v4.1h5.6v-4.1l-1.6-0.5 0.1-0.9h5.4l0.1 0.9-1.8 0.5v9.9l1.8 0.5-0.1 0.9h-5.5v-0.8l1.6-0.6v-4.6h-5.6v4.6l1.7 0.5v0.9h-5.5l-0.1-0.8 1.7-0.6v-9.9l-1.6-0.5z"/>
			<path id="&lt;Compound Path&gt;" class="s1" d="m687.2-537.1h-5.6v-0.8l1.7-0.5v-10l-1.7-0.5v-0.9h5.6v0.9l-1.8 0.5v10l1.8 0.4z"/>
			<path id="&lt;Compound Path&gt;" class="s1" d="m693.7-550.1q0.5 0 1.3 0.1 0.8 0.1 1.7 0.5l0.3-0.6h0.7l0.1 4-0.8 0.1-0.8-2.1q-0.5-0.3-1.2-0.4-0.7-0.2-1.3-0.2-0.9 0-1.5 0.4-0.6 0.4-0.6 1.1 0 0.7 1 1.3 0.9 0.6 2.5 1.3 0.7 0.3 1.4 0.6 0.6 0.4 1 0.9 0.5 0.4 0.8 1 0.2 0.6 0.2 1.4 0 0.8-0.3 1.5-0.3 0.7-0.9 1.2-0.6 0.6-1.5 0.9-1 0.3-2.3 0.3-0.3 0-0.7 0-0.4-0.1-0.8-0.1-0.4-0.1-0.8-0.2-0.5-0.1-0.8-0.3l-0.3 0.6h-0.8l-0.1-4.4h0.8l0.7 2.1q0.7 0.5 1.4 0.7 0.8 0.2 1.5 0.2 1.4 0 2-0.6 0.7-0.5 0.7-1.4 0-0.5-0.2-0.9-0.3-0.4-0.7-0.7-0.4-0.4-1-0.7-0.5-0.3-1.2-0.5-0.9-0.4-1.6-0.8-0.7-0.4-1.2-0.8-0.5-0.5-0.7-1-0.3-0.5-0.3-1.2 0-0.6 0.3-1.2 0.2-0.6 0.8-1.1 0.5-0.5 1.3-0.7 0.8-0.3 1.9-0.3z"/>
			<path id="&lt;Compound Path&gt;" class="s1" d="m705.2-549.8q1.4 0 2.7 0 1.3 0 2.6 0l0.3 0.1v3.6l-0.8 0.1-0.8-2.5h-3v10.1l1.8 0.4v0.9h-5.5l-0.1-0.8 1.7-0.5v-10.1h-2.9l-0.8 2.5-0.9-0.1 0.1-3.6 0.2-0.1q1.4 0 2.6 0 1.3 0 2.8 0z"/>
			<path id="&lt;Compound Path&gt;" fill-rule="evenodd" class="s1" d="m723.7-543.6q0 1.4-0.3 2.6-0.4 1.2-1.1 2.2-0.7 0.9-1.8 1.5-1.1 0.5-2.7 0.5-2.7 0-4.2-1.7-1.5-1.7-1.5-4.8 0-1.4 0.4-2.6 0.3-1.2 1-2.2 0.7-0.9 1.8-1.4 1.1-0.6 2.7-0.6 1.3 0 2.4 0.5 1.1 0.4 1.8 1.3 0.7 0.8 1.1 2 0.4 1.2 0.4 2.7zm-5.8-5.1q-1 0-1.7 0.4-0.7 0.4-1.1 1.1-0.4 0.7-0.6 1.6-0.1 1-0.1 1.9 0 1.3 0.2 2.3 0.1 1 0.6 1.7 0.4 0.7 1.1 1.1 0.6 0.4 1.6 0.4 1 0 1.7-0.4 0.7-0.5 1.1-1.2 0.4-0.7 0.6-1.6 0.2-0.9 0.2-1.9 0-1.1-0.2-2.1-0.2-1-0.6-1.8-0.4-0.7-1.1-1.1-0.7-0.4-1.7-0.4z"/>
			<path id="&lt;Compound Path&gt;" fill-rule="evenodd" class="s1" d="m731.3-542.5h-0.3q-0.3 0-0.8 0-0.4-0.1-1-0.2v4.3l1.8 0.4-0.1 0.9h-5.4l-0.1-0.8 1.7-0.5v-10.1l-1.5-0.4 0.1-0.9q0.3 0 0.6 0 0.2 0 0.5 0 0.2 0 0.5 0 0.4 0 0.8 0 0.9 0 1.8 0 0.8 0 1.7 0 0.9 0 1.7 0.2 0.8 0.2 1.4 0.6 0.6 0.4 0.9 1 0.3 0.7 0.3 1.6 0 0.6-0.1 1.2-0.2 0.5-0.5 1-0.4 0.4-0.9 0.8-0.6 0.4-1.3 0.6l4.1 5.2-0.2 0.6-1.8 0.3zm2.4-3.7q0-0.7-0.2-1.1-0.2-0.5-0.6-0.7-0.4-0.3-1-0.4-0.6-0.1-1.3-0.1-0.7 0-1.4 0.1v4.5q0.4 0 0.8 0.1 0.4 0 0.6 0 1 0 1.6-0.2 0.6-0.2 0.9-0.6 0.4-0.3 0.5-0.8 0.1-0.4 0.1-0.8z"/>
			<path id="&lt;Compound Path&gt;" class="s1" d="m744.2-537.1h-5.6v-0.8l1.7-0.5v-10l-1.7-0.5v-0.9h5.6v0.9l-1.8 0.5v10l1.8 0.4z"/>
			<path id="&lt;Compound Path&gt;" class="s1" d="m746.4-543.2q0-1.3 0.3-2.5 0.3-1.2 1-2.2 0.7-1 1.7-1.6 1.1-0.6 2.7-0.6 0.7 0 1.4 0.1 0.7 0.1 1.6 0.6l0.4-0.7h0.8v3.8l-0.8 0.1-0.7-1.8q-0.5-0.3-1.1-0.5-0.7-0.1-1.4-0.1-1 0-1.7 0.4-0.7 0.4-1.1 1.1-0.5 0.7-0.7 1.7-0.1 0.9-0.1 2 0 1 0.1 1.9 0.1 0.9 0.6 1.6 0.4 0.7 1.2 1.1 0.7 0.4 2 0.4 0.8 0 1.7-0.1 0.9-0.1 1.8-0.4l0.4 1.2q-1 0.5-2.1 0.7-1.2 0.2-2.2 0.2-2.8 0-4.3-1.6-1.5-1.6-1.5-4.8z"/>
			<path id="&lt;Compound Path&gt;" fill-rule="evenodd" class="s1" d="m765.3-541.1h-4.4l-0.9 2.7 1.8 0.4-0.1 0.9h-4.7v-0.9l1.4-0.4 3.5-9.3q0.2-0.5 0.4-1 0.2-0.5 0.4-1.1l1.6-0.3h0.1l4.5 11.7 1.1 0.4-0.1 0.9h-5.1v-0.9l1.5-0.4zm-3.3-3.5l-0.8 2.3h3.7l-0.8-2.4-1-2.8h-0.1z"/>
			<path id="&lt;Compound Path&gt;" class="s1" d="m781.3-540.9l-0.4 3.6-0.2 0.2q-0.7 0-1.2 0-0.6 0-1.2 0-0.5 0-1.1 0-0.7-0.1-1.4-0.1-0.5 0-1.1 0-0.7 0-1.3 0.1-0.7 0-1.4 0-0.7 0-1.2 0l-0.1-0.8 1.7-0.5v-10l-1.7-0.5v-0.9h5.6v0.9l-1.8 0.5v9.9q0.3 0 1 0 0.7 0 1.5 0 0.7 0 1.4 0 0.7 0 1 0l1.3-2.5z"/>
			<path id="&lt;Compound Path&gt;" class="s1" d="m791.5-547.2v0.1l-0.4 8.7 1.9 0.4v0.9h-5.3v-0.9l1.8-0.5 0.8-9.9-1.8-0.6 0.1-0.8q0.7 0 1.2 0 0.5 0 1 0 0.4 0 1 0 0.5 0 1.1 0 0.1 0.3 0.2 0.5 0.1 0.3 0.2 0.5l1.9 4.6 1.5 3.4h0.1l1.5-3.7 2.3-5.3q0.8 0 1.9 0 1.1 0 2.3 0v0.9l-1.9 0.5 0.8 9.9 1.8 0.5-0.1 0.9h-5.6l-0.1-0.8 1.7-0.6-0.4-8.8h-0.1l-4.1 9.7h-1.1z"/>
			<path id="&lt;Compound Path&gt;" class="s1" d="m816.5-548.4l-1.6-0.5v-0.9h4.9l0.1 0.9-1.8 0.5v7.2q0 1.3-0.4 2.1-0.5 0.9-1.2 1.4-0.7 0.5-1.6 0.7-0.9 0.2-1.9 0.2-0.9 0-1.8-0.2-0.8-0.2-1.5-0.7-0.6-0.5-1-1.3-0.4-0.8-0.4-1.9v-7.5l-1.6-0.5v-0.9h5.5v0.9l-1.7 0.5v6.7q0 0.7 0.1 1.3 0.1 0.6 0.4 1.1 0.3 0.5 0.9 0.8 0.6 0.2 1.6 0.2 1 0 1.6-0.3 0.6-0.3 0.9-0.8 0.3-0.5 0.4-1.1 0.1-0.7 0.1-1.4z"/>
			<path id="&lt;Compound Path&gt;" class="s1" d="m825.6-550.1q0.5 0 1.3 0.1 0.8 0.1 1.7 0.5l0.4-0.6h0.7v4l-0.8 0.1-0.7-2.1q-0.6-0.3-1.2-0.4-0.7-0.2-1.4-0.2-0.9 0-1.5 0.4-0.5 0.4-0.5 1.1 0 0.7 0.9 1.3 0.9 0.6 2.5 1.3 0.8 0.3 1.4 0.6 0.6 0.4 1.1 0.9 0.4 0.4 0.7 1 0.3 0.6 0.3 1.4 0 0.8-0.3 1.5-0.3 0.7-0.9 1.2-0.6 0.6-1.6 0.9-0.9 0.3-2.2 0.3-0.3 0-0.7 0-0.4-0.1-0.8-0.1-0.5-0.1-0.9-0.2-0.4-0.1-0.7-0.3l-0.4 0.6h-0.7l-0.1-4.4h0.7l0.8 2.1q0.6 0.5 1.4 0.7 0.8 0.2 1.4 0.2 1.4 0 2.1-0.6 0.6-0.5 0.6-1.4 0-0.5-0.2-0.9-0.2-0.4-0.6-0.7-0.5-0.4-1-0.7-0.6-0.3-1.3-0.5-0.9-0.4-1.6-0.8-0.7-0.4-1.2-0.8-0.4-0.5-0.7-1-0.2-0.5-0.2-1.2 0-0.6 0.2-1.2 0.3-0.6 0.8-1.1 0.5-0.5 1.3-0.7 0.8-0.3 1.9-0.3z"/>
			<path id="&lt;Compound Path&gt;" class="s1" d="m842.3-540.8l-0.4 3.5-0.2 0.2q-0.7 0-1.2 0-0.6 0-1.1 0-0.6 0-1.2 0-0.6-0.1-1.3-0.1-0.5 0-1.1 0-0.6 0-1.3 0.1-0.6 0-1.3 0-0.6 0-1.2 0l-0.1-0.8 1.7-0.5v-10.1l-1.5-0.4 0.1-0.9q0.5 0 1.1 0 0.7 0 1.4 0 0.7 0 1.3 0 0.6 0 0.9 0 0.7 0 1.2 0 0.5 0 1 0 0.5 0 1 0 0.5 0 1.2 0l0.2 0.1 0.1 3.5-0.9 0.1-0.8-2.3h-4.2v4.1l4.6-0.1v1.4l-4.6-0.1v4.6q0.3 0 1 0 0.7 0 1.4 0 0.7 0 1.3 0 0.7 0 1 0l1.2-2.5z"/>
			<path id="&lt;Compound Path&gt;" class="s1" d="m853.4-548.4l-1.6-0.5v-0.9h4.9v0.9l-1.7 0.5v7.2q0 1.3-0.5 2.1-0.4 0.9-1.1 1.4-0.7 0.5-1.6 0.7-1 0.2-1.9 0.2-1 0-1.8-0.2-0.8-0.2-1.5-0.7-0.7-0.5-1-1.3-0.4-0.8-0.4-1.9v-7.5l-1.7-0.5 0.1-0.9h5.4l0.1 0.9-1.8 0.5v6.7q0 0.7 0.1 1.3 0.2 0.6 0.5 1.1 0.3 0.5 0.9 0.8 0.6 0.2 1.6 0.2 1 0 1.6-0.3 0.5-0.3 0.9-0.8 0.3-0.5 0.4-1.1 0.1-0.7 0.1-1.4z"/>
			<path id="&lt;Compound Path&gt;" class="s1" d="m861.6-547.2l-0.1 0.1-0.4 8.7 1.9 0.4v0.9h-5.3v-0.9l1.9-0.5 0.7-9.9-1.8-0.6 0.1-0.8q0.7 0 1.2 0 0.5 0 1 0 0.5 0 1 0 0.5 0 1.2 0 0 0.3 0.1 0.5 0.1 0.3 0.2 0.5l2 4.6 1.4 3.4h0.1l1.5-3.7 2.3-5.3q0.8 0 1.9 0 1.2 0 2.3 0v0.9l-1.8 0.5 0.7 9.9 1.8 0.5-0.1 0.9h-5.6v-0.8l1.6-0.6-0.4-8.8h-0.1l-4 9.7h-1.2z"/>
			<path id="&lt;Compound Path&gt;" fill-rule="evenodd" class="s1" d="m894.3-543.6q0.1 1.4-0.3 2.6-0.3 1.2-1 2.2-0.7 0.9-1.8 1.5-1.2 0.5-2.7 0.5-2.8 0-4.2-1.7-1.5-1.7-1.5-4.8 0-1.4 0.3-2.6 0.4-1.2 1.1-2.2 0.7-0.9 1.8-1.4 1.1-0.6 2.6-0.6 1.4 0 2.5 0.5 1 0.4 1.8 1.3 0.7 0.8 1.1 2 0.3 1.2 0.3 2.7zm-5.8-5.1q-1 0-1.6 0.4-0.7 0.4-1.1 1.1-0.4 0.7-0.6 1.6-0.2 1-0.2 1.9 0 1.3 0.2 2.3 0.2 1 0.6 1.7 0.4 0.7 1.1 1.1 0.7 0.4 1.7 0.4 1 0 1.7-0.4 0.6-0.5 1.1-1.2 0.4-0.7 0.6-1.6 0.2-0.9 0.2-1.9 0-1.1-0.2-2.1-0.2-1-0.6-1.8-0.5-0.7-1.2-1.1-0.7-0.4-1.7-0.4z"/>
			<path id="&lt;Compound Path&gt;" class="s1" d="m896.3-548.9l0.1-0.9q0.4 0 1.1 0 0.7 0 1.3 0 0.7 0 1.3 0 0.6 0 1 0 0.6 0 1.2 0 0.5 0 1 0 0.5 0 1 0 0.6 0 1.2 0l0.2 0.1 0.1 3.5-0.9 0.1-0.7-2.3h-4.3v4.3l4.5-0.1v1.4l-4.5-0.1v4.5l1.8 0.4-0.1 0.9h-5.5v-0.8l1.6-0.5v-10.1z"/>
			<path id="&lt;Compound Path&gt;" class="s1" d="m917.2-550.1q0.4 0 1.3 0.1 0.8 0.1 1.7 0.5l0.3-0.6h0.7v4l-0.7 0.1-0.8-2.1q-0.5-0.3-1.2-0.4-0.7-0.2-1.3-0.2-1 0-1.5 0.4-0.6 0.4-0.6 1.1 0 0.7 0.9 1.3 1 0.6 2.6 1.3 0.7 0.3 1.3 0.6 0.6 0.4 1.1 0.9 0.5 0.4 0.7 1 0.3 0.6 0.3 1.4 0 0.8-0.3 1.5-0.3 0.7-0.9 1.2-0.6 0.6-1.5 0.9-1 0.3-2.3 0.3-0.3 0-0.7 0-0.4-0.1-0.8-0.1-0.4-0.1-0.9-0.2-0.4-0.1-0.7-0.3l-0.4 0.6h-0.7l-0.1-4.4h0.8l0.7 2.1q0.6 0.5 1.4 0.7 0.8 0.2 1.4 0.2 1.5 0 2.1-0.6 0.7-0.5 0.7-1.4 0-0.5-0.3-0.9-0.2-0.4-0.6-0.7-0.4-0.4-1-0.7-0.6-0.3-1.2-0.5-1-0.4-1.7-0.8-0.7-0.4-1.1-0.8-0.5-0.5-0.8-1-0.2-0.5-0.2-1.2 0-0.6 0.3-1.2 0.2-0.6 0.7-1.1 0.6-0.5 1.4-0.7 0.8-0.3 1.9-0.3z"/>
			<path id="&lt;Compound Path&gt;" class="s1" d="m933.9-540.8l-0.5 3.5-0.2 0.2q-0.7 0-1.2 0-0.6 0-1.1 0-0.5 0-1.1 0-0.6-0.1-1.4-0.1-0.5 0-1.1 0-0.6 0-1.3 0.1-0.6 0-1.3 0-0.6 0-1.1 0l-0.1-0.8 1.6-0.5v-10.1l-1.5-0.4 0.1-0.9q0.5 0 1.2 0 0.6 0 1.3 0 0.7 0 1.3 0 0.6 0 1 0 0.6 0 1.1 0 0.5 0 1 0 0.5 0 1 0 0.6 0 1.2 0l0.2 0.1 0.1 3.5-0.8 0.1-0.8-2.3h-4.3v4.1l4.6-0.1v1.4l-4.6-0.1v4.6q0.4 0 1 0 0.7 0 1.4 0 0.7 0 1.4 0 0.6 0 1 0l1.2-2.5z"/>
			<path id="&lt;Compound Path&gt;" fill-rule="evenodd" class="s1" d="m941-542.5h-0.3q-0.3 0-0.7 0-0.5-0.1-1.1-0.2v4.3l1.8 0.4-0.1 0.9h-5.4v-0.8l1.6-0.5v-10.1l-1.5-0.4 0.1-0.9q0.3 0 0.6 0 0.2 0 0.5 0 0.2 0 0.5 0 0.4 0 0.8 0 0.9 0 1.8 0 0.9 0 1.7 0 0.9 0 1.7 0.2 0.8 0.2 1.4 0.6 0.6 0.4 0.9 1 0.3 0.7 0.3 1.6 0 0.6-0.1 1.2-0.2 0.5-0.5 1-0.4 0.4-0.9 0.8-0.6 0.4-1.3 0.6l4.1 5.2-0.2 0.6-1.8 0.3zm2.4-3.7q0-0.7-0.2-1.1-0.2-0.5-0.6-0.7-0.4-0.3-1-0.4-0.6-0.1-1.3-0.1-0.7 0-1.4 0.1v4.5q0.4 0 0.8 0.1 0.4 0 0.6 0 1 0 1.6-0.2 0.6-0.2 0.9-0.6 0.4-0.3 0.5-0.8 0.1-0.4 0.1-0.8z"/>
			<path id="&lt;Compound Path&gt;" fill-rule="evenodd" class="s1" d="m948-548.9l0.1-0.9q0.6 0 1.1 0 0.6 0 1.1 0 0.9 0 2 0 1 0 1.9 0 1.2 0 1.9 0.3 0.8 0.3 1.2 0.8 0.4 0.4 0.6 0.9 0.1 0.5 0.1 0.9 0 0.5-0.2 1-0.2 0.4-0.5 0.8-0.4 0.3-0.8 0.5-0.4 0.2-0.7 0.3v0.1q1.4 0.2 2.2 1.1 0.8 0.9 0.8 2.3 0 0.8-0.3 1.5-0.3 0.7-0.9 1.2-0.5 0.5-1.2 0.7-0.8 0.3-1.6 0.3-1 0-2 0-1-0.1-2-0.1-0.7 0-1.4 0-0.7 0-1.5 0.1v-0.8l1.6-0.6v-10zm5 4.3q0.9 0 1.5-0.2 0.6-0.3 0.9-0.6 0.3-0.3 0.4-0.6 0.1-0.3 0.1-0.5 0-1.1-0.7-1.5-0.7-0.5-2-0.5-0.1 0-0.3 0-0.2 0.1-0.4 0.1-0.2 0-0.5 0-0.2 0-0.4 0v9.8q0.2 0 0.5 0.1 0.2 0 0.5 0 0.3 0.1 0.5 0.1 0.3 0 0.4 0 1.6 0 2.4-0.7 0.8-0.7 0.8-1.8 0-0.5-0.2-1-0.2-0.5-0.6-0.8-0.4-0.4-1.1-0.6-0.7-0.2-1.8-0.2l-0.2-0.9z"/>
			<path id="&lt;Compound Path&gt;" class="s1" d="m966.4-537.1h-5.5v-0.8l1.6-0.5v-10l-1.6-0.5v-0.9h5.5v0.9l-1.7 0.5v10l1.7 0.4z"/>
			<path id="&lt;Compound Path&gt;" fill-rule="evenodd" class="s1" d="m976-541.1h-4.4l-0.9 2.7 1.8 0.4-0.1 0.9h-4.7v-0.9l1.4-0.4 3.5-9.3q0.3-0.5 0.4-1 0.2-0.5 0.4-1.1l1.6-0.3h0.1l4.5 11.7 1.1 0.4-0.1 0.9h-5.1v-0.9l1.5-0.4zm-3.3-3.5l-0.8 2.3h3.7l-0.8-2.4-1-2.8h-0.1z"/>
		</g>
		<g id="&lt;Group&gt;">
			<g id="&lt;Group&gt;">
				<path id="&lt;Path&gt;" class="s0" d="m736.3-268.3c0 0 3.9-4.2 8.3-6.3 4.4-2.1 8.5-0.2 11.1 2.2 2.7 2.5 3 8.9 1.1 11.7-1.9 2.8-5.5 5.4-8.7 4.4-3.1-1.1-3.1-1.1-3.1-1.1l-7.9-3.8c0 0 4.1 7.2 3.6 12.9-0.5 5.6-2.3 7.1-5.3 7.7-3 0.7-4.9 0.2-6.5-1.7-1.6-1.9-4.2-6.4-2.2-10.8 2-4.4 3.9-8.3 3.9-8.3 0 0-2.4 1.2-6.3 2.3-3.8 1.2-6.7 1.4-9.8-0.2-3.1-1.6-5.7-5.3-4.6-10.5 1.2-5.2 4.4-6.4 9.6-6 5.2 0.3 9 6.4 9.9 7.5 0.8 1.1 0.9-2.8-0.3-5.8-1.2-3.1-10.1-9.1-17.5-4.4-7.4 4.8-9.3 12.5-4.2 18.5 5 6.1 24.7 26.7 24.7 26.7 0 0 2.1 3.1 4.6 0.2 2.5-2.9 24.1-27.1 24.1-27.1 0 0 4.2-6.1 0.7-14-3.5-7.9-12.3-6.7-15-5.4-2.8 1.3-7.8 3.2-10.2 11.3z"/>
				<path id="&lt;Path&gt;" class="s0" d="m731.2-184.3c0 0-4 4.2-8.4 6.3-4.4 2-8.4 0.2-11.1-2.3-2.6-2.4-2.9-8.8-1-11.6 1.9-2.8 5.5-5.5 8.6-4.4 3.2 1 3.2 1 3.2 1l7.9 3.8c0 0-4.2-7.2-3.7-12.9 0.5-5.6 2.3-7.1 5.3-7.7 3-0.6 5-0.2 6.6 1.7 1.6 1.9 4.2 6.4 2.2 10.8-2.1 4.4-4 8.3-4 8.3 0 0 2.5-1.2 6.3-2.3 3.9-1.1 6.8-1.4 9.9 0.2 3 1.6 5.7 5.4 4.5 10.5-1.2 5.2-4.3 6.4-9.6 6-5.2-0.3-9-6.4-9.8-7.5-0.8-1.1-0.9 2.8 0.3 5.9 1.2 3 10.1 9 17.5 4.3 7.4-4.8 9.2-12.4 4.2-18.5-5-6.1-24.8-26.7-24.8-26.7 0 0-2-3-4.5-0.2-2.5 2.9-24.2 27.1-24.2 27.1 0 0-4.2 6.1-0.7 14 3.5 7.9 12.4 6.7 15.1 5.4 2.7-1.3 7.7-3.1 10.2-11.2z"/>
			</g>
			<g id="&lt;Group&gt;">
				<path id="&lt;Path&gt;" class="s0" d="m694.6-228.5c0 0-4.2-4-6.3-8.4-2.1-4.4-0.2-8.5 2.2-11.1 2.4-2.7 8.9-3 11.7-1.1 2.8 1.9 5.4 5.5 4.4 8.7-1.1 3.1-1.1 3.1-1.1 3.1l-3.8 7.9c0 0 7.2-4.1 12.9-3.6 5.6 0.5 7.1 2.3 7.7 5.3 0.7 3 0.2 4.9-1.7 6.6-1.9 1.6-6.4 4.1-10.8 2.1-4.4-2-8.3-3.9-8.3-3.9 0 0 1.2 2.5 2.3 6.3 1.2 3.8 1.4 6.8-0.2 9.8-1.6 3.1-5.3 5.8-10.5 4.6-5.2-1.2-6.4-4.4-6-9.6 0.3-5.2 6.4-9 7.5-9.8 1.1-0.9-2.8-0.9-5.8 0.2-3.1 1.2-9.1 10.2-4.4 17.6 4.8 7.4 12.5 9.2 18.5 4.2 6.1-5.1 26.7-24.8 26.7-24.8 0 0 3.1-2.1 0.2-4.6-2.9-2.5-27.1-24.1-27.1-24.1 0 0-6.1-4.2-14-0.7-7.9 3.5-6.7 12.3-5.4 15.1 1.3 2.7 3.2 7.7 11.3 10.2z"/>
				<path id="&lt;Path&gt;" class="s0" d="m772.9-223.5c0 0 4.2 4 6.3 8.4 2.1 4.4 0.2 8.5-2.3 11.1-2.4 2.7-8.8 2.9-11.6 1.1-2.8-1.9-5.5-5.6-4.4-8.7 1-3.1 1-3.1 1-3.1l3.8-7.9c0 0-7.2 4.1-12.8 3.6-5.7-0.5-7.2-2.3-7.8-5.3-0.6-3-0.1-5 1.8-6.6 1.8-1.6 6.3-4.2 10.7-2.1 4.4 2 8.3 3.9 8.3 3.9 0 0-1.2-2.5-2.3-6.3-1.1-3.8-1.4-6.8 0.2-9.9 1.6-3 5.4-5.7 10.6-4.5 5.1 1.2 6.3 4.3 6 9.6-0.4 5.2-6.5 9-7.6 9.8-1.1 0.9 2.8 0.9 5.9-0.3 3.1-1.1 9.1-10.1 4.3-17.5-4.7-7.4-12.4-9.2-18.5-4.2-6.1 5.1-26.6 24.8-26.6 24.8 0 0-3.1 2-0.3 4.6 2.9 2.5 27.1 24.1 27.1 24.1 0 0 6.2 4.2 14.1 0.7 7.9-3.5 6.7-12.4 5.3-15.1-1.3-2.7-3.1-7.7-11.2-10.2z"/>
			</g>
		</g>
		<g id="&lt;Group&gt;">
			<g id="&lt;Group&gt;">
				<path id="&lt;Path&gt;" class="s0" d="m579.4 10.2c0 0 4-4.2 8.4-6.3 4.4-2.1 8.5-0.2 11.1 2.3 2.7 2.4 2.9 8.8 1.1 11.6-1.9 2.8-5.6 5.5-8.7 4.4-3.1-1-3.1-1-3.1-1l-7.9-3.8c0 0 4.1 7.2 3.6 12.9-0.5 5.6-2.3 7.1-5.3 7.7-3 0.6-5 0.2-6.6-1.7-1.6-1.9-4.2-6.4-2.1-10.8 2-4.4 3.9-8.3 3.9-8.3 0 0-2.5 1.2-6.3 2.3-3.9 1.1-6.8 1.4-9.9-0.2-3-1.6-5.7-5.4-4.5-10.6 1.2-5.1 4.3-6.3 9.6-6 5.2 0.4 9 6.5 9.8 7.6 0.8 1.1 0.9-2.8-0.3-5.9-1.2-3.1-10.1-9.1-17.5-4.3-7.4 4.7-9.2 12.4-4.2 18.5 5 6.1 24.8 26.7 24.8 26.7 0 0 2 3.1 4.5 0.2 2.6-2.9 24.2-27.1 24.2-27.1 0 0 4.2-6.2 0.7-14.1-3.5-7.8-12.4-6.7-15.1-5.3-2.7 1.3-7.7 3.1-10.2 11.2z"/>
				<path id="&lt;Path&gt;" class="s0" d="m574.3 94.3c0 0-3.9 4.2-8.3 6.3-4.4 2.1-8.5 0.2-11.1-2.3-2.7-2.4-3-8.8-1.1-11.6 1.9-2.8 5.5-5.5 8.7-4.4 3.1 1 3.1 1 3.1 1l7.9 3.8c0 0-4.1-7.2-3.6-12.9 0.5-5.6 2.3-7.1 5.3-7.7 3-0.6 4.9-0.2 6.5 1.7 1.7 1.9 4.2 6.4 2.2 10.8-2 4.4-3.9 8.3-3.9 8.3 0 0 2.4-1.2 6.3-2.3 3.8-1.1 6.8-1.4 9.8 0.2 3.1 1.6 5.8 5.4 4.6 10.6-1.2 5.1-4.4 6.3-9.6 6-5.2-0.4-9-6.5-9.8-7.6-0.9-1.1-1 2.8 0.2 5.9 1.2 3.1 10.2 9.1 17.6 4.3 7.4-4.7 9.2-12.4 4.2-18.5-5.1-6.1-24.8-26.7-24.8-26.7 0 0-2.1-3.1-4.6-0.2-2.5 2.9-24.1 27.1-24.1 27.1 0 0-4.2 6.2-0.7 14.1 3.5 7.8 12.3 6.7 15 5.3 2.8-1.3 7.8-3.1 10.2-11.2z"/>
			</g>
			<g id="&lt;Group&gt;">
				<path id="&lt;Path&gt;" class="s0" d="m537.7 50c0 0-4.2-3.9-6.3-8.3-2.1-4.4-0.2-8.5 2.2-11.2 2.5-2.6 8.9-2.9 11.7-1 2.8 1.9 5.4 5.5 4.4 8.7-1.1 3.1-1.1 3.1-1.1 3.1l-3.7 7.9c0 0 7.2-4.1 12.8-3.6 5.7 0.5 7.2 2.3 7.8 5.3 0.6 3 0.1 4.9-1.8 6.5-1.8 1.7-6.3 4.2-10.7 2.2-4.4-2-8.3-3.9-8.3-3.9 0 0 1.2 2.4 2.3 6.3 1.1 3.8 1.4 6.8-0.2 9.8-1.6 3.1-5.4 5.8-10.6 4.6-5.2-1.2-6.3-4.4-6-9.6 0.4-5.2 6.4-9 7.6-9.8 1.1-0.9-2.8-1-5.9 0.2-3.1 1.2-9.1 10.2-4.3 17.6 4.7 7.4 12.4 9.2 18.5 4.2 6-5.1 26.6-24.8 26.6-24.8 0 0 3.1-2.1 0.3-4.6-2.9-2.5-27.1-24.2-27.1-24.2 0 0-6.2-4.1-14.1-0.6-7.9 3.4-6.7 12.3-5.4 15 1.4 2.8 3.2 7.8 11.3 10.2z"/>
				<path id="&lt;Path&gt;" class="s0" d="m616.1 55.1c0 0 4.2 4 6.3 8.4 2.1 4.4 0.2 8.5-2.3 11.1-2.4 2.7-8.8 2.9-11.6 1.1-2.8-1.9-5.5-5.6-4.4-8.7 1-3.1 1-3.1 1-3.1l3.8-7.9c0 0-7.2 4.1-12.9 3.6-5.6-0.5-7.1-2.3-7.7-5.3-0.7-3-0.2-5 1.7-6.6 1.9-1.6 6.4-4.2 10.8-2.1 4.4 2 8.3 3.9 8.3 3.9 0 0-1.2-2.5-2.3-6.3-1.1-3.9-1.4-6.8 0.2-9.9 1.6-3 5.4-5.7 10.6-4.5 5.1 1.2 6.3 4.3 6 9.6-0.4 5.2-6.5 9-7.6 9.8-1.1 0.8 2.8 0.9 5.9-0.3 3-1.2 9.1-10.1 4.3-17.5-4.7-7.4-12.4-9.2-18.5-4.2-6.1 5-26.7 24.8-26.7 24.8 0 0-3.1 2-0.2 4.5 2.9 2.6 27.1 24.2 27.1 24.2 0 0 6.2 4.2 14 0.7 7.9-3.5 6.8-12.4 5.4-15.1-1.3-2.7-3.1-7.7-11.2-10.2z"/>
			</g>
		</g>
		<path id="&lt;Path&gt;" class="s0" d="m641.5 84.5h-1v-64.5h1z"/>
		<g id="&lt;Group&gt;">
			<path id="&lt;Compound Path&gt;" class="s0" d="m576.6-156.1h5.5v0.9l-1.7 0.4v4.1h5.7v-4.1l-1.7-0.5 0.1-0.8h5.4l0.1 0.9-1.8 0.4v10l1.8 0.4v1h-5.5l-0.1-0.9 1.7-0.5v-4.6h-5.7v4.6l1.7 0.4v1h-5.5v-0.9l1.6-0.5v-10l-1.6-0.5z"/>
			<path id="&lt;Compound Path&gt;" class="s0" d="m597.4-143.4h-5.5l-0.1-0.9 1.7-0.5v-10l-1.7-0.5 0.1-0.8h5.5v0.9l-1.8 0.4v10l1.8 0.4z"/>
			<path id="&lt;Compound Path&gt;" class="s0" d="m603.9-156.5q0.5 0 1.3 0.1 0.8 0.1 1.7 0.5l0.3-0.5h0.7l0.1 3.9-0.8 0.1-0.7-2q-0.6-0.3-1.3-0.5-0.6-0.1-1.3-0.1-0.9 0-1.5 0.3-0.5 0.4-0.5 1.2 0 0.7 0.9 1.3 0.9 0.5 2.5 1.2 0.8 0.3 1.4 0.7 0.6 0.4 1.1 0.8 0.4 0.5 0.7 1.1 0.2 0.6 0.2 1.4 0 0.7-0.2 1.4-0.3 0.7-0.9 1.3-0.6 0.5-1.6 0.8-0.9 0.4-2.3 0.4-0.2 0-0.6-0.1-0.4 0-0.9-0.1-0.4-0.1-0.8-0.2-0.4-0.1-0.8-0.2l-0.3 0.5h-0.8l-0.1-4.3 0.8-0.1 0.7 2.1q0.7 0.5 1.5 0.7 0.7 0.2 1.4 0.2 1.4 0 2.1-0.5 0.6-0.6 0.6-1.4 0-0.5-0.2-0.9-0.2-0.4-0.7-0.8-0.4-0.3-0.9-0.6-0.6-0.3-1.3-0.6-0.9-0.4-1.6-0.8-0.7-0.3-1.2-0.8-0.5-0.4-0.7-0.9-0.2-0.6-0.2-1.2 0-0.7 0.2-1.3 0.3-0.6 0.8-1 0.5-0.5 1.3-0.8 0.8-0.3 1.9-0.3z"/>
			<path id="&lt;Compound Path&gt;" class="s0" d="m615.4-156.1q1.4 0 2.7 0 1.3 0 2.7-0.1l0.2 0.1 0.1 3.7-0.9 0.1-0.8-2.6h-2.9v10.1l1.8 0.5-0.1 0.9h-5.5v-0.9l1.7-0.5v-10.1h-3l-0.8 2.6-0.8-0.1v-3.7l0.3-0.1q1.3 0.1 2.6 0.1 1.2 0 2.7 0z"/>
			<path id="&lt;Compound Path&gt;" fill-rule="evenodd" class="s0" d="m633.9-150q0 1.4-0.3 2.7-0.3 1.2-1 2.1-0.7 1-1.9 1.5-1.1 0.6-2.6 0.6-2.8 0-4.3-1.7-1.4-1.7-1.4-4.8 0-1.4 0.3-2.6 0.3-1.3 1-2.2 0.7-0.9 1.9-1.5 1.1-0.5 2.6-0.5 1.4 0 2.4 0.4 1.1 0.5 1.8 1.3 0.8 0.9 1.1 2.1 0.4 1.2 0.4 2.6zm-5.8-5.1q-1 0-1.7 0.4-0.6 0.5-1 1.2-0.4 0.7-0.6 1.6-0.2 0.9-0.2 1.9 0 1.2 0.2 2.2 0.2 1 0.6 1.7 0.4 0.7 1.1 1.1 0.7 0.4 1.7 0.4 1 0 1.6-0.4 0.7-0.4 1.1-1.1 0.5-0.7 0.6-1.7 0.2-0.9 0.2-1.9 0-1.1-0.2-2.1-0.1-1-0.6-1.7-0.4-0.7-1.1-1.2-0.7-0.4-1.7-0.4z"/>
			<path id="&lt;Compound Path&gt;" fill-rule="evenodd" class="s0" d="m641.5-148.8h-0.3q-0.3-0.1-0.7-0.1-0.5 0-1.1-0.1v4.2l1.8 0.4v1h-5.5v-0.9l1.6-0.5v-10.1l-1.5-0.4 0.1-0.8q0.3 0 0.6 0 0.2 0 0.5 0 0.2 0 0.6 0 0.3 0 0.7 0 0.9 0 1.8 0 0.9-0.1 1.7-0.1 0.9 0 1.7 0.2 0.8 0.2 1.4 0.6 0.6 0.4 0.9 1.1 0.3 0.6 0.3 1.6 0 0.6-0.1 1.1-0.2 0.5-0.5 1-0.4 0.5-0.9 0.9-0.5 0.3-1.3 0.6l4.1 5.1-0.2 0.6-1.8 0.4zm2.5-3.7q0-0.7-0.3-1.2-0.2-0.4-0.6-0.7-0.4-0.2-1-0.3-0.6-0.2-1.3-0.2-0.7 0-1.4 0.2v4.4q0.4 0.1 0.8 0.1 0.4 0 0.6 0 1 0 1.6-0.2 0.6-0.2 1-0.5 0.3-0.4 0.4-0.8 0.2-0.4 0.2-0.8z"/>
			<path id="&lt;Compound Path&gt;" class="s0" d="m654.4-143.4h-5.5l-0.1-0.9 1.7-0.5v-10l-1.7-0.5 0.1-0.8h5.5v0.9l-1.8 0.4v10l1.8 0.4z"/>
			<path id="&lt;Compound Path&gt;" class="s0" d="m656.6-149.6q0-1.2 0.3-2.5 0.3-1.2 1-2.2 0.7-0.9 1.8-1.6 1-0.6 2.6-0.6 0.7 0 1.4 0.2 0.8 0.1 1.6 0.6l0.4-0.7h0.8l0.1 3.8-0.9 0.1-0.7-1.8q-0.5-0.4-1.1-0.5-0.6-0.2-1.4-0.2-1 0-1.7 0.4-0.7 0.4-1.1 1.2-0.4 0.7-0.6 1.6-0.2 1-0.2 2 0 1 0.1 1.9 0.2 0.9 0.6 1.6 0.4 0.7 1.2 1.1 0.8 0.5 2 0.5 0.8 0 1.7-0.1 0.9-0.1 1.8-0.5l0.4 1.2q-1 0.5-2.1 0.7-1.2 0.3-2.2 0.3-2.8 0-4.3-1.6-1.5-1.6-1.5-4.9z"/>
			<path id="&lt;Compound Path&gt;" fill-rule="evenodd" class="s0" d="m675.6-147.4h-4.5l-0.8 2.6 1.7 0.4v1h-4.7l-0.1-1 1.4-0.4 3.6-9.2q0.2-0.5 0.4-1.1 0.2-0.5 0.3-1.1l1.6-0.3 0.1 0.1 4.5 11.6 1.1 0.4-0.1 1h-5.1v-0.9l1.5-0.5zm-3.2-3.5l-0.8 2.3h3.6l-0.8-2.3-1-2.8h-0.1z"/>
			<path id="&lt;Compound Path&gt;" class="s0" d="m691.6-147.2l-0.5 3.6-0.2 0.2q-0.7 0-1.2-0.1-0.6 0-1.1 0-0.6 0-1.2 0-0.6 0-1.4 0-0.5 0-1.1 0-0.6 0-1.3 0-0.7 0-1.4 0-0.6 0-1.2 0.1v-0.9l1.6-0.5v-10l-1.7-0.5 0.1-0.8h5.5v0.9l-1.8 0.4v10q0.4 0 1 0 0.7 0 1.5-0.1 0.8 0 1.4 0 0.7 0 1.1 0l1.2-2.5z"/>
			<path id="&lt;Compound Path&gt;" class="s0" d="m701.8-153.5h-0.1l-0.4 8.7 1.9 0.4v1h-5.3v-0.9l1.9-0.5 0.7-10-1.8-0.5 0.1-0.9q0.7 0 1.2 0 0.5 0 1 0 0.5 0 1 0 0.5 0 1.2 0 0 0.3 0.1 0.6 0.1 0.2 0.2 0.5l2 4.5 1.4 3.5h0.1l1.5-3.8 2.3-5.3q0.8 0.1 1.9 0 1.2 0 2.3 0v0.9l-1.8 0.5 0.7 10 1.8 0.4-0.1 1h-5.6v-0.9l1.6-0.5-0.4-8.8h-0.1l-4 9.6h-1.2z"/>
			<path id="&lt;Compound Path&gt;" class="s0" d="m726.8-154.8l-1.7-0.5 0.1-0.8h4.8l0.1 0.9-1.8 0.4v7.3q0 1.2-0.4 2.1-0.5 0.8-1.2 1.3-0.7 0.5-1.6 0.7-0.9 0.3-1.9 0.3-0.9 0-1.7-0.2-0.9-0.3-1.5-0.7-0.7-0.5-1.1-1.3-0.4-0.8-0.4-1.9v-7.6l-1.6-0.5v-0.8h5.5v0.9l-1.7 0.4v6.7q0 0.7 0.1 1.4 0.1 0.6 0.4 1.1 0.4 0.4 1 0.7 0.6 0.3 1.6 0.3 0.9 0 1.5-0.3 0.6-0.3 0.9-0.8 0.3-0.5 0.5-1.2 0.1-0.6 0.1-1.4z"/>
			<path id="&lt;Compound Path&gt;" class="s0" d="m735.9-156.5q0.4 0 1.2 0.1 0.9 0.1 1.8 0.5l0.3-0.5h0.7v3.9l-0.7 0.1-0.8-2q-0.5-0.3-1.2-0.5-0.7-0.1-1.3-0.1-1 0-1.5 0.3-0.6 0.4-0.6 1.2 0 0.7 0.9 1.3 1 0.5 2.6 1.2 0.7 0.3 1.3 0.7 0.6 0.4 1.1 0.8 0.5 0.5 0.7 1.1 0.3 0.6 0.3 1.4 0 0.7-0.3 1.4-0.3 0.7-0.9 1.3-0.6 0.5-1.5 0.8-1 0.4-2.3 0.4-0.3 0-0.7-0.1-0.4 0-0.8-0.1-0.4-0.1-0.9-0.2-0.4-0.1-0.7-0.2l-0.4 0.5h-0.7l-0.1-4.3 0.8-0.1 0.7 2.1q0.6 0.5 1.4 0.7 0.8 0.2 1.4 0.2 1.5 0 2.1-0.5 0.6-0.6 0.6-1.4 0-0.5-0.2-0.9-0.2-0.4-0.6-0.8-0.4-0.3-1-0.6-0.6-0.3-1.3-0.6-0.9-0.4-1.6-0.8-0.7-0.3-1.1-0.8-0.5-0.4-0.8-0.9-0.2-0.6-0.2-1.2 0-0.7 0.2-1.3 0.3-0.6 0.8-1 0.6-0.5 1.4-0.8 0.8-0.3 1.9-0.3z"/>
			<path id="&lt;Compound Path&gt;" class="s0" d="m752.6-147.1l-0.5 3.5-0.2 0.2q-0.7 0-1.2-0.1-0.6 0-1.1 0-0.6 0-1.1 0-0.6 0-1.4 0-0.5 0-1.1 0-0.6 0-1.3 0-0.6 0-1.3 0-0.6 0-1.1 0.1l-0.1-0.9 1.6-0.5v-10l-1.5-0.5 0.1-0.8q0.5 0 1.2 0 0.6 0 1.3 0 0.7 0 1.3 0 0.6 0 1 0 0.6 0 1.1 0 0.5 0 1 0 0.5 0 1-0.1 0.6 0 1.2 0l0.2 0.1 0.1 3.5-0.9 0.1-0.7-2.3h-4.3v4.2l4.6-0.2v1.5l-4.6-0.2v4.7q0.4 0 1 0 0.7 0 1.4-0.1 0.7 0 1.4 0 0.6 0 1 0l1.2-2.4z"/>
			<path id="&lt;Compound Path&gt;" class="s0" d="m763.6-154.8l-1.6-0.5v-0.8h4.9l0.1 0.9-1.8 0.4v7.3q0 1.2-0.5 2.1-0.4 0.8-1.1 1.3-0.7 0.5-1.6 0.7-0.9 0.3-1.9 0.3-0.9 0-1.8-0.2-0.8-0.3-1.5-0.7-0.6-0.5-1-1.3-0.4-0.8-0.4-1.9v-7.6l-1.6-0.5v-0.8h5.5v0.9l-1.7 0.4v6.7q0 0.7 0.1 1.4 0.1 0.6 0.4 1.1 0.3 0.4 0.9 0.7 0.6 0.3 1.6 0.3 1 0 1.6-0.3 0.6-0.3 0.9-0.8 0.3-0.5 0.4-1.2 0.1-0.6 0.1-1.4z"/>
			<path id="&lt;Compound Path&gt;" class="s0" d="m771.8-153.5h-0.1l-0.4 8.7 2 0.4-0.1 1h-5.2l-0.1-0.9 1.9-0.5 0.8-10-1.9-0.5 0.2-0.9q0.6 0 1.1 0 0.6 0 1 0 0.5 0 1 0 0.5 0 1.2 0 0.1 0.3 0.1 0.6 0.1 0.2 0.2 0.5l2 4.5 1.4 3.5h0.1l1.6-3.8 2.2-5.3q0.8 0.1 2 0 1.1 0 2.2 0v0.9l-1.8 0.5 0.7 10 1.8 0.4v1h-5.7v-0.9l1.6-0.5-0.4-8.8h-0.1l-4 9.6h-1.2z"/>
			<path id="&lt;Compound Path&gt;" fill-rule="evenodd" class="s0" d="m804.6-150q0 1.4-0.4 2.7-0.3 1.2-1 2.1-0.7 1-1.8 1.5-1.1 0.6-2.7 0.6-2.7 0-4.2-1.7-1.5-1.7-1.5-4.8 0-1.4 0.4-2.6 0.3-1.3 1-2.2 0.7-0.9 1.8-1.5 1.1-0.5 2.7-0.5 1.3 0 2.4 0.4 1 0.5 1.8 1.3 0.7 0.9 1.1 2.1 0.4 1.2 0.4 2.6zm-5.8-5.1q-1 0-1.7 0.4-0.7 0.5-1.1 1.2-0.4 0.7-0.6 1.6-0.1 0.9-0.1 1.9 0 1.2 0.1 2.2 0.2 1 0.6 1.7 0.5 0.7 1.1 1.1 0.7 0.4 1.7 0.4 1 0 1.7-0.4 0.7-0.4 1.1-1.1 0.4-0.7 0.6-1.7 0.2-0.9 0.2-1.9 0-1.1-0.2-2.1-0.2-1-0.6-1.7-0.4-0.7-1.1-1.2-0.7-0.4-1.7-0.4z"/>
			<path id="&lt;Compound Path&gt;" class="s0" d="m806.5-155.3l0.1-0.8q0.5 0 1.1 0 0.7 0 1.4 0 0.6 0 1.2 0 0.6 0 1 0 0.6 0 1.2 0 0.5 0 1 0 0.5 0 1.1-0.1 0.5 0 1.1 0l0.2 0.1 0.1 3.5-0.8 0.1-0.8-2.3h-4.3v4.4l4.6-0.2v1.5l-4.6-0.2v4.5l1.8 0.4v1h-5.5l-0.1-0.9 1.7-0.5v-10z"/>
			<path id="&lt;Compound Path&gt;" class="s0" d="m827.4-156.5q0.5 0 1.3 0.1 0.8 0.1 1.7 0.5l0.3-0.5h0.7l0.1 3.9-0.8 0.1-0.8-2q-0.5-0.3-1.2-0.5-0.7-0.1-1.3-0.1-0.9 0-1.5 0.3-0.6 0.4-0.6 1.2 0 0.7 1 1.3 0.9 0.5 2.5 1.2 0.7 0.3 1.4 0.7 0.6 0.4 1 0.8 0.5 0.5 0.8 1.1 0.2 0.6 0.2 1.4 0 0.7-0.3 1.4-0.3 0.7-0.9 1.3-0.6 0.5-1.5 0.8-1 0.4-2.3 0.4-0.3 0-0.7-0.1-0.4 0-0.8-0.1-0.4-0.1-0.8-0.2-0.5-0.1-0.8-0.2l-0.3 0.5h-0.8l-0.1-4.3 0.8-0.1 0.7 2.1q0.7 0.5 1.4 0.7 0.8 0.2 1.5 0.2 1.4 0 2-0.5 0.7-0.6 0.7-1.4 0-0.5-0.2-0.9-0.3-0.4-0.7-0.8-0.4-0.3-1-0.6-0.5-0.3-1.2-0.6-0.9-0.4-1.6-0.8-0.7-0.3-1.2-0.8-0.5-0.4-0.7-0.9-0.3-0.6-0.3-1.2 0-0.7 0.3-1.3 0.2-0.6 0.8-1 0.5-0.5 1.3-0.8 0.8-0.3 1.9-0.3z"/>
			<path id="&lt;Compound Path&gt;" class="s0" d="m844.1-147.1l-0.5 3.5-0.2 0.2q-0.6 0-1.2-0.1-0.5 0-1.1 0-0.5 0-1.1 0-0.6 0-1.4 0-0.4 0-1.1 0-0.6 0-1.2 0-0.7 0-1.3 0-0.7 0-1.2 0.1l-0.1-0.9 1.7-0.5v-10l-1.5-0.5 0.1-0.8q0.4 0 1.1 0 0.7 0 1.3 0 0.7 0 1.3 0 0.6 0 1 0 0.6 0 1.1 0 0.6 0 1.1 0 0.5 0 1-0.1 0.5 0 1.1 0l0.2 0.1 0.1 3.5-0.8 0.1-0.8-2.3h-4.2v4.2l4.6-0.2v1.5l-4.6-0.2v4.7q0.3 0 1 0 0.6 0 1.3-0.1 0.7 0 1.4 0 0.7 0 1 0l1.2-2.4z"/>
			<path id="&lt;Compound Path&gt;" fill-rule="evenodd" class="s0" d="m851.2-148.8h-0.3q-0.3-0.1-0.7-0.1-0.5 0-1.1-0.1v4.2l1.8 0.4v1h-5.5v-0.9l1.6-0.5v-10.1l-1.5-0.4 0.1-0.8q0.3 0 0.6 0 0.2 0 0.5 0 0.2 0 0.6 0 0.3 0 0.7 0 0.9 0 1.8 0 0.9-0.1 1.7-0.1 0.9 0 1.7 0.2 0.8 0.2 1.4 0.6 0.6 0.4 0.9 1.1 0.3 0.6 0.3 1.6 0 0.6-0.1 1.1-0.2 0.5-0.5 1-0.4 0.5-0.9 0.9-0.5 0.3-1.3 0.6l4.1 5.1-0.2 0.6-1.8 0.4zm2.5-3.7q0-0.7-0.3-1.2-0.2-0.4-0.6-0.7-0.4-0.2-1-0.3-0.6-0.2-1.3-0.2-0.7 0-1.4 0.2v4.4q0.4 0.1 0.8 0.1 0.4 0 0.6 0 1 0 1.6-0.2 0.6-0.2 1-0.5 0.3-0.4 0.4-0.8 0.2-0.4 0.2-0.8z"/>
			<path id="&lt;Compound Path&gt;" fill-rule="evenodd" class="s0" d="m858.2-155.3l0.2-0.9q0.5 0.1 1.1 0.1 0.5 0 1 0 0.9 0 2 0 1-0.1 1.9-0.1 1.2 0 2 0.3 0.7 0.4 1.1 0.8 0.4 0.4 0.6 0.9 0.1 0.5 0.1 0.9 0 0.6-0.2 1-0.2 0.5-0.5 0.8-0.4 0.4-0.7 0.6-0.4 0.2-0.8 0.2v0.1q1.4 0.3 2.2 1.2 0.8 0.8 0.8 2.2 0 0.9-0.3 1.5-0.3 0.7-0.8 1.2-0.6 0.5-1.3 0.8-0.7 0.3-1.6 0.3-0.9 0-1.9-0.1-1 0-2 0-0.7 0-1.4 0-0.8 0-1.5 0l-0.1-0.8 1.6-0.5v-10.1zm5 4.4q0.9-0.1 1.5-0.3 0.6-0.2 0.9-0.5 0.3-0.3 0.5-0.7 0.1-0.3 0.1-0.5 0-1-0.8-1.5-0.7-0.4-1.9-0.4-0.1 0-0.3 0-0.2 0-0.5 0-0.2 0-0.4 0.1-0.3 0-0.4 0v9.7q0.1 0.1 0.4 0.1 0.3 0.1 0.5 0.1 0.3 0 0.5 0.1 0.3 0 0.5 0 1.6 0 2.3-0.7 0.8-0.7 0.8-1.8 0-0.6-0.2-1-0.2-0.5-0.6-0.9-0.4-0.3-1.1-0.5-0.7-0.2-1.8-0.3l-0.1-0.9z"/>
			<path id="&lt;Compound Path&gt;" class="s0" d="m876.6-143.4h-5.5v-0.9l1.7-0.5v-10l-1.7-0.5v-0.8h5.5l0.1 0.9-1.8 0.4v10l1.8 0.4z"/>
			<path id="&lt;Compound Path&gt;" fill-rule="evenodd" class="s0" d="m886.3-147.4h-4.5l-0.8 2.6 1.7 0.4v1h-4.7l-0.1-1 1.4-0.4 3.6-9.2q0.2-0.5 0.4-1.1 0.2-0.5 0.3-1.1l1.6-0.3 0.1 0.1 4.5 11.6 1.1 0.4-0.1 1h-5.1v-0.9l1.5-0.5zm-3.2-3.5l-0.8 2.3h3.6l-0.8-2.3-1-2.8h-0.1z"/>
		</g>
		<g id="&lt;Group&gt;">
			<path id="&lt;Compound Path&gt;" class="s0" d="m653.1 45.9h5.5v0.9l-1.7 0.4v4.1h5.6v-4.1l-1.6-0.5 0.1-0.8h5.4l0.1 0.9-1.8 0.4v10l1.8 0.4-0.1 0.9h-5.5v-0.8l1.6-0.5v-4.7h-5.6v4.7l1.7 0.4v0.9h-5.5l-0.1-0.8 1.7-0.5v-10l-1.6-0.5z"/>
			<path id="&lt;Compound Path&gt;" class="s0" d="m673.9 58.5h-5.6v-0.8l1.7-0.5v-10l-1.7-0.5v-0.8h5.6v0.9l-1.8 0.4v10l1.8 0.4z"/>
			<path id="&lt;Compound Path&gt;" class="s0" d="m680.4 45.5q0.5 0 1.3 0.1 0.8 0.1 1.7 0.5l0.3-0.5h0.7l0.1 3.9-0.8 0.1-0.8-2q-0.5-0.3-1.2-0.5-0.7-0.2-1.3-0.2-0.9 0-1.5 0.4-0.6 0.4-0.6 1.2 0 0.7 1 1.2 0.9 0.6 2.5 1.3 0.7 0.3 1.4 0.7 0.6 0.3 1 0.8 0.5 0.5 0.8 1.1 0.2 0.5 0.2 1.3 0 0.8-0.3 1.5-0.3 0.7-0.9 1.3-0.6 0.5-1.5 0.8-1 0.3-2.3 0.3-0.3 0-0.7 0-0.4 0-0.8-0.1-0.4-0.1-0.8-0.2-0.5-0.1-0.8-0.2l-0.3 0.5h-0.8l-0.1-4.3 0.8-0.1 0.7 2.1q0.7 0.5 1.4 0.7 0.8 0.2 1.5 0.2 1.4 0 2-0.6 0.7-0.5 0.7-1.3 0-0.5-0.2-1-0.3-0.4-0.7-0.7-0.4-0.3-1-0.6-0.5-0.3-1.2-0.6-0.9-0.4-1.6-0.8-0.7-0.4-1.2-0.8-0.5-0.4-0.7-0.9-0.3-0.6-0.3-1.3 0-0.6 0.3-1.2 0.2-0.6 0.8-1.1 0.5-0.4 1.3-0.7 0.8-0.3 1.9-0.3z"/>
			<path id="&lt;Compound Path&gt;" class="s0" d="m691.9 45.9q1.4 0 2.7 0 1.3-0.1 2.7-0.1l0.2 0.1 0.1 3.6-0.9 0.2-0.8-2.6h-2.9v10.1l1.7 0.4v0.9h-5.5l-0.1-0.8 1.7-0.5v-10.1h-2.9l-0.8 2.6-0.9-0.2 0.1-3.6 0.2-0.1q1.4 0 2.6 0.1 1.3 0 2.8 0z"/>
			<path id="&lt;Compound Path&gt;" fill-rule="evenodd" class="s0" d="m710.4 52q0 1.4-0.3 2.6-0.4 1.3-1.1 2.2-0.7 0.9-1.8 1.5-1.1 0.5-2.7 0.5-2.7 0-4.2-1.7-1.5-1.7-1.5-4.8 0-1.3 0.4-2.6 0.3-1.2 1-2.1 0.7-1 1.8-1.5 1.1-0.6 2.7-0.6 1.3 0 2.4 0.5 1.1 0.5 1.8 1.3 0.7 0.8 1.1 2 0.4 1.2 0.4 2.7zm-5.8-5.1q-1 0-1.7 0.4-0.7 0.4-1.1 1.1-0.4 0.8-0.5 1.7-0.2 0.9-0.2 1.9 0 1.2 0.2 2.2 0.1 1 0.6 1.7 0.4 0.7 1.1 1.1 0.6 0.4 1.6 0.4 1 0 1.7-0.4 0.7-0.4 1.1-1.1 0.4-0.7 0.6-1.7 0.2-0.9 0.2-1.9 0-1.1-0.2-2.1-0.2-1-0.6-1.7-0.4-0.8-1.1-1.2-0.7-0.4-1.7-0.4z"/>
			<path id="&lt;Compound Path&gt;" fill-rule="evenodd" class="s0" d="m718 53.1h-0.3q-0.3 0-0.7 0-0.5 0-1.1-0.1v4.2l1.8 0.4-0.1 0.9h-5.4v-0.8l1.6-0.5v-10.1l-1.5-0.4 0.1-0.9q0.3 0 0.6 0 0.2 0.1 0.5 0.1 0.2 0 0.5 0 0.4 0 0.8 0 0.9 0 1.8-0.1 0.9 0 1.7 0 0.9 0 1.7 0.2 0.8 0.2 1.4 0.6 0.6 0.4 0.9 1.1 0.3 0.6 0.3 1.6 0 0.5-0.1 1.1-0.2 0.5-0.5 1-0.4 0.5-0.9 0.8-0.6 0.4-1.3 0.6l4.1 5.2-0.2 0.6-1.8 0.4zm2.4-3.8q0-0.6-0.2-1.1-0.2-0.4-0.6-0.7-0.4-0.3-1-0.4-0.6-0.1-1.3-0.1-0.7 0-1.4 0.2v4.4q0.4 0.1 0.8 0.1 0.4 0 0.6 0 1 0 1.6-0.2 0.6-0.2 0.9-0.6 0.4-0.3 0.5-0.7 0.1-0.4 0.1-0.9z"/>
			<path id="&lt;Compound Path&gt;" class="s0" d="m730.9 58.5h-5.5l-0.1-0.8 1.7-0.5v-10l-1.7-0.5 0.1-0.8h5.5v0.9l-1.8 0.4v10l1.8 0.4z"/>
			<path id="&lt;Compound Path&gt;" class="s0" d="m733.1 52.4q0-1.2 0.3-2.5 0.3-1.2 1-2.2 0.7-1 1.7-1.6 1.1-0.6 2.7-0.6 0.7 0 1.4 0.1 0.8 0.2 1.6 0.7l0.4-0.8h0.8v3.9l-0.8 0.1-0.7-1.8q-0.5-0.4-1.1-0.6-0.6-0.1-1.4-0.1-1 0-1.7 0.4-0.7 0.4-1.1 1.1-0.5 0.7-0.7 1.7-0.1 1-0.1 2 0 1 0.1 1.9 0.2 0.9 0.6 1.6 0.4 0.7 1.2 1.1 0.8 0.4 2 0.4 0.8 0 1.7-0.1 0.9-0.1 1.8-0.4l0.4 1.2q-1 0.5-2.1 0.7-1.2 0.2-2.2 0.2-2.8 0-4.3-1.6-1.5-1.6-1.5-4.8z"/>
			<path id="&lt;Compound Path&gt;" fill-rule="evenodd" class="s0" d="m752 54.5h-4.4l-0.9 2.7 1.8 0.4-0.1 0.9h-4.7v-0.9l1.4-0.4 3.6-9.2q0.2-0.6 0.3-1.1 0.2-0.5 0.4-1.1l1.6-0.3 0.1 0.1 4.5 11.6 1.1 0.4-0.1 0.9h-5.1v-0.9l1.5-0.4zm-3.3-3.5l-0.8 2.3h3.7l-0.8-2.3-1-2.8h-0.1z"/>
			<path id="&lt;Compound Path&gt;" class="s0" d="m768.1 54.8l-0.5 3.6-0.2 0.1q-0.7 0-1.2 0-0.6 0-1.2 0-0.5 0-1.1 0-0.6 0-1.4 0-0.5 0-1.1 0-0.7 0-1.3 0-0.7 0-1.4 0-0.7 0-1.2 0l-0.1-0.8 1.7-0.5v-10l-1.7-0.5v-0.8h5.6v0.9l-1.8 0.4v9.9q0.3 0 1 0 0.7 0 1.5 0 0.7 0 1.4 0 0.7 0 1 0l1.3-2.5z"/>
			<path id="&lt;Compound Path&gt;" class="s0" d="m778.2 48.5l-0.4 8.7 1.9 0.4v0.9h-5.3v-0.9l1.9-0.4 0.7-10-1.8-0.5 0.1-0.9q0.7 0 1.2 0 0.5 0 1 0 0.4 0 1 0 0.5 0 1.1 0 0.1 0.3 0.2 0.6 0.1 0.2 0.2 0.5l1.9 4.5 1.5 3.5h0.1l1.5-3.8 2.3-5.3q0.8 0 1.9 0 1.2 0 2.3 0v0.9l-1.8 0.5 0.7 10 1.8 0.4-0.1 0.9h-5.6l-0.1-0.8 1.7-0.5-0.4-8.9h-0.1l-4.1 9.7h-1.1z"/>
			<path id="&lt;Compound Path&gt;" class="s0" d="m803.2 47.2l-1.6-0.5 0.1-0.8h4.8l0.1 0.9-1.8 0.4v7.3q0 1.2-0.4 2.1-0.5 0.8-1.2 1.3-0.7 0.5-1.6 0.7-0.9 0.3-1.9 0.2-0.9 0-1.8-0.2-0.8-0.2-1.5-0.7-0.6-0.5-1-1.2-0.4-0.8-0.4-2v-7.5l-1.6-0.5v-0.8h5.5v0.9l-1.7 0.4v6.7q0 0.7 0.1 1.3 0.1 0.7 0.4 1.1 0.3 0.5 0.9 0.8 0.7 0.3 1.6 0.3 1 0 1.6-0.3 0.6-0.3 0.9-0.8 0.3-0.5 0.4-1.2 0.1-0.7 0.1-1.4z"/>
			<path id="&lt;Compound Path&gt;" class="s0" d="m812.3 45.5q0.5 0 1.3 0.1 0.8 0.1 1.7 0.5l0.4-0.5h0.7v3.9l-0.8 0.1-0.7-2q-0.6-0.3-1.2-0.5-0.7-0.2-1.4-0.2-0.9 0-1.5 0.4-0.5 0.4-0.5 1.2 0 0.7 0.9 1.2 0.9 0.6 2.5 1.3 0.8 0.3 1.4 0.7 0.6 0.3 1.1 0.8 0.4 0.5 0.7 1.1 0.3 0.5 0.3 1.3 0 0.8-0.3 1.5-0.3 0.7-0.9 1.3-0.6 0.5-1.6 0.8-0.9 0.3-2.2 0.3-0.3 0-0.7 0-0.4 0-0.8-0.1-0.5-0.1-0.9-0.2-0.4-0.1-0.7-0.2l-0.4 0.5h-0.7l-0.1-4.3 0.7-0.1 0.8 2.1q0.6 0.5 1.4 0.7 0.8 0.2 1.4 0.2 1.4 0 2.1-0.6 0.6-0.5 0.6-1.3 0-0.5-0.2-1-0.2-0.4-0.6-0.7-0.4-0.3-1-0.6-0.6-0.3-1.3-0.6-0.9-0.4-1.6-0.8-0.7-0.4-1.2-0.8-0.4-0.4-0.7-0.9-0.2-0.6-0.2-1.3 0-0.6 0.2-1.2 0.3-0.6 0.8-1.1 0.5-0.4 1.3-0.7 0.8-0.3 1.9-0.3z"/>
			<path id="&lt;Compound Path&gt;" class="s0" d="m829 54.9l-0.4 3.5-0.2 0.1q-0.7 0-1.2 0-0.6 0-1.1 0-0.6 0-1.2 0-0.6 0-1.3 0-0.5 0-1.1 0-0.6 0-1.3 0-0.6 0-1.3 0-0.6 0-1.2 0l-0.1-0.8 1.7-0.5v-10.1l-1.5-0.4 0.1-0.9q0.5 0.1 1.1 0.1 0.7 0 1.4 0 0.7 0 1.3 0 0.6 0 0.9 0 0.7 0 1.2 0 0.5 0 1-0.1 0.5 0 1 0 0.5 0 1.2 0l0.2 0.1 0.1 3.5-0.9 0.1-0.8-2.3h-4.2v4.2l4.6-0.2v1.5l-4.6-0.2v4.6q0.4 0 1 0 0.7 0 1.4 0 0.7 0 1.3 0 0.7 0 1 0l1.2-2.4z"/>
			<path id="&lt;Compound Path&gt;" class="s0" d="m840.1 47.2l-1.6-0.5v-0.8h4.9v0.9l-1.7 0.4v7.3q0 1.2-0.5 2.1-0.4 0.8-1.1 1.3-0.7 0.5-1.6 0.7-1 0.3-1.9 0.2-0.9 0-1.8-0.2-0.8-0.2-1.5-0.7-0.7-0.5-1-1.2-0.4-0.8-0.4-2v-7.5l-1.7-0.5 0.1-0.8h5.5v0.9l-1.7 0.4v6.7q0 0.7 0.1 1.3 0.1 0.7 0.4 1.1 0.3 0.5 0.9 0.8 0.6 0.3 1.6 0.3 1 0 1.6-0.3 0.5-0.3 0.9-0.8 0.3-0.5 0.4-1.2 0.1-0.7 0.1-1.4z"/>
			<path id="&lt;Compound Path&gt;" class="s0" d="m848.3 48.5h-0.1l-0.4 8.7 1.9 0.4v0.9h-5.3v-0.9l1.9-0.4 0.7-10-1.8-0.5 0.1-0.9q0.7 0 1.2 0 0.5 0 1 0 0.5 0 1 0 0.5 0 1.2 0 0 0.3 0.1 0.6 0.1 0.2 0.2 0.5l2 4.5 1.4 3.5h0.1l1.5-3.8 2.3-5.3q0.8 0 1.9 0 1.2 0 2.3 0v0.9l-1.8 0.5 0.7 10 1.8 0.4-0.1 0.9h-5.6v-0.8l1.6-0.5-0.4-8.9h-0.1l-4 9.7h-1.2z"/>
			<path id="&lt;Compound Path&gt;" fill-rule="evenodd" class="s0" d="m881.1 52q0 1.4-0.4 2.6-0.3 1.3-1 2.2-0.7 0.9-1.8 1.5-1.1 0.5-2.7 0.5-2.8 0-4.2-1.7-1.5-1.7-1.5-4.8 0-1.3 0.3-2.6 0.4-1.2 1.1-2.1 0.7-1 1.8-1.5 1.1-0.6 2.6-0.6 1.4 0 2.5 0.5 1 0.5 1.8 1.3 0.7 0.8 1.1 2 0.4 1.2 0.4 2.7zm-5.9-5.1q-1 0-1.6 0.4-0.7 0.4-1.1 1.1-0.4 0.8-0.6 1.7-0.2 0.9-0.2 1.9 0 1.2 0.2 2.2 0.2 1 0.6 1.7 0.4 0.7 1.1 1.1 0.7 0.4 1.7 0.4 1 0 1.7-0.4 0.6-0.4 1.1-1.1 0.4-0.7 0.6-1.7 0.2-0.9 0.2-1.9 0-1.1-0.2-2.1-0.2-1-0.6-1.7-0.5-0.8-1.2-1.2-0.6-0.4-1.7-0.4z"/>
			<path id="&lt;Compound Path&gt;" class="s0" d="m883 46.7l0.1-0.9q0.4 0.1 1.1 0.1 0.7 0 1.3 0 0.7 0 1.3 0 0.6 0 1 0 0.6 0 1.2 0 0.5 0 1-0.1 0.5 0 1 0 0.6 0 1.2 0l0.2 0.1 0.1 3.5-0.9 0.1-0.7-2.3h-4.3v4.4l4.6-0.2v1.5l-4.6-0.2v4.5l1.8 0.4-0.1 0.9h-5.5v-0.8l1.7-0.5v-10.1z"/>
			<path id="&lt;Compound Path&gt;" class="s0" d="m903.9 45.5q0.5 0 1.3 0.1 0.8 0.1 1.7 0.5l0.3-0.5h0.7l0.1 3.9-0.8 0.1-0.8-2q-0.5-0.3-1.2-0.5-0.7-0.2-1.3-0.2-1 0-1.5 0.4-0.6 0.4-0.6 1.2 0 0.7 0.9 1.2 1 0.6 2.6 1.3 0.7 0.3 1.3 0.7 0.7 0.3 1.1 0.8 0.5 0.5 0.7 1.1 0.3 0.5 0.3 1.3 0 0.8-0.3 1.5-0.3 0.7-0.9 1.3-0.6 0.5-1.5 0.8-1 0.3-2.3 0.3-0.3 0-0.7 0-0.4 0-0.8-0.1-0.4-0.1-0.9-0.2-0.4-0.1-0.7-0.2l-0.4 0.5h-0.7l-0.1-4.3 0.8-0.1 0.7 2.1q0.6 0.5 1.4 0.7 0.8 0.2 1.4 0.2 1.5 0 2.1-0.6 0.7-0.5 0.7-1.3 0-0.5-0.3-1-0.2-0.4-0.6-0.7-0.4-0.3-1-0.6-0.6-0.3-1.2-0.6-1-0.4-1.7-0.8-0.7-0.4-1.1-0.8-0.5-0.4-0.8-0.9-0.2-0.6-0.2-1.3 0-0.6 0.3-1.2 0.2-0.6 0.7-1.1 0.6-0.4 1.4-0.7 0.8-0.3 1.9-0.3z"/>
			<path id="&lt;Compound Path&gt;" class="s0" d="m920.6 54.9l-0.5 3.5-0.2 0.1q-0.7 0-1.2 0-0.6 0-1.1 0-0.5 0-1.1 0-0.6 0-1.4 0-0.5 0-1.1 0-0.6 0-1.3 0-0.6 0-1.3 0-0.6 0-1.1 0l-0.1-0.8 1.6-0.5v-10.1l-1.5-0.4 0.1-0.9q0.5 0.1 1.2 0.1 0.6 0 1.3 0 0.7 0 1.3 0 0.6 0 1 0 0.6 0 1.1 0 0.5 0 1-0.1 0.5 0 1 0 0.6 0 1.2 0l0.2 0.1 0.1 3.5-0.8 0.1-0.8-2.3h-4.2v4.2l4.5-0.2v1.5l-4.5-0.2v4.6q0.3 0 0.9 0 0.7 0 1.4 0 0.7 0 1.4 0 0.6 0 1 0l1.2-2.4z"/>
			<path id="&lt;Compound Path&gt;" fill-rule="evenodd" class="s0" d="m927.7 53.1h-0.3q-0.3 0-0.7 0-0.5 0-1.1-0.1v4.2l1.8 0.4-0.1 0.9h-5.4v-0.8l1.6-0.5v-10.1l-1.5-0.4 0.1-0.9q0.3 0 0.6 0 0.2 0.1 0.5 0.1 0.2 0 0.5 0 0.4 0 0.8 0 0.9 0 1.8-0.1 0.9 0 1.7 0 0.9 0 1.7 0.2 0.8 0.2 1.4 0.6 0.6 0.4 0.9 1.1 0.3 0.6 0.3 1.6 0 0.5-0.1 1.1-0.2 0.5-0.5 1-0.4 0.5-0.9 0.8-0.6 0.4-1.3 0.6l4.1 5.2-0.2 0.6-1.8 0.4zm2.4-3.8q0-0.6-0.2-1.1-0.2-0.4-0.6-0.7-0.4-0.3-1-0.4-0.6-0.1-1.3-0.1-0.7 0-1.4 0.2v4.4q0.4 0.1 0.8 0.1 0.4 0 0.6 0 1 0 1.6-0.2 0.6-0.2 0.9-0.6 0.4-0.3 0.5-0.7 0.1-0.4 0.1-0.9z"/>
			<path id="&lt;Compound Path&gt;" fill-rule="evenodd" class="s0" d="m934.7 46.7l0.1-0.9q0.6 0 1.2 0 0.5 0.1 1 0.1 0.9 0 2-0.1 1 0 1.9 0 1.2 0 1.9 0.3 0.8 0.3 1.2 0.8 0.4 0.4 0.6 0.9 0.1 0.5 0.1 0.9 0 0.5-0.2 1-0.2 0.5-0.5 0.8-0.4 0.3-0.8 0.5-0.4 0.2-0.7 0.3v0.1q1.4 0.3 2.2 1.1 0.8 0.9 0.8 2.3 0 0.8-0.3 1.5-0.3 0.7-0.8 1.2-0.6 0.5-1.3 0.8-0.8 0.2-1.6 0.2-1 0-2 0-1 0-1.9 0-0.8 0-1.5 0-0.7 0-1.5 0v-0.8l1.6-0.5v-10.1zm5 4.3q0.9 0 1.5-0.2 0.6-0.3 0.9-0.6 0.3-0.3 0.4-0.6 0.1-0.3 0.1-0.5 0-1-0.7-1.5-0.7-0.4-1.9-0.4-0.2 0-0.4 0-0.2 0-0.4 0-0.2 0-0.5 0-0.2 0.1-0.4 0.1v9.7q0.2 0 0.5 0.1 0.2 0 0.5 0.1 0.3 0 0.5 0 0.3 0.1 0.5 0 1.6 0 2.3-0.6 0.8-0.7 0.8-1.8 0-0.6-0.2-1.1-0.2-0.4-0.6-0.8-0.4-0.3-1.1-0.6-0.7-0.2-1.8-0.2l-0.2-0.9z"/>
			<path id="&lt;Compound Path&gt;" class="s0" d="m953.1 58.5h-5.5v-0.8l1.6-0.5v-10l-1.6-0.5v-0.8h5.5v0.9l-1.7 0.4v10l1.7 0.4z"/>
			<path id="&lt;Compound Path&gt;" fill-rule="evenodd" class="s0" d="m962.7 54.5h-4.4l-0.9 2.7 1.8 0.4-0.1 0.9h-4.7v-0.9l1.4-0.4 3.6-9.2q0.2-0.6 0.4-1.1 0.1-0.5 0.3-1.1l1.6-0.3 0.1 0.1 4.5 11.6 1.1 0.4-0.1 0.9h-5.1v-0.9l1.5-0.4zm-3.3-3.5l-0.8 2.3h3.7l-0.8-2.3-1-2.8h-0.1z"/>
		</g>
	</g>
</svg>