<?xml version="1.0" encoding="UTF-8"?><svg id="_2" xmlns="http://www.w3.org/2000/svg" viewBox="0 0 683.03 799.99"><defs><style>.cls-1{fill:#10100f;}</style></defs><path class="cls-1" d="M681.85,0s-29.03,44.21-218.65,109.64c-193.31,66.7-312.3,338.13-312.3,338.13C122.24,503.36,9,734.42,9,734.42c-31.18,59.64,25.98,94.9,59.47,33.3,64.31-118.29,105.76-226.37,203.52-229.44,142.53-4.49,240.01-131.42,209.35-125.56-40.38,17.94-129.35,1.37-76.93-6.86,125.83-10.3,203.32-106.71,178.08-113.28-44.63,17.53-86.21.9-94.36-4.15C710.2,260.92,681.85,0,681.85,0Z"/></svg>