<?xml version="1.0" encoding="UTF-8"?>
<svg id="_x32_" xmlns="http://www.w3.org/2000/svg" version="1.1" viewBox="0 0 800 800">
  <!-- Generator: Adobe Illustrator 29.5.0, SVG Export Plug-In . SVG Version: 2.1.0 Build 137)  -->
  <defs>
    <style>
      .st0 {
        fill: #10100f;
      }
    </style>
  </defs>
  <path class="st0" d="M740.34,0s-29.03,44.21-218.65,109.64c-193.31,66.7-312.3,338.13-312.3,338.13-28.66,55.59-141.9,286.65-141.9,286.65-31.18,59.64,25.98,94.9,59.47,33.3,64.31-118.29,105.76-226.37,203.52-229.44,142.53-4.49,240.01-131.42,209.35-125.56-40.38,17.94-129.35,1.37-76.93-6.86,125.83-10.3,203.32-106.71,178.08-113.28-44.63,17.53-86.21.9-94.36-4.15C768.69,260.92,740.34,0,740.34,0Z"/>
</svg>